<?xml version="1.0" encoding="utf-8"?>
<!-- Generator: Adobe Illustrator 19.1.1, SVG Export Plug-In . SVG Version: 6.00 Build 0)  -->
<svg version="1.1" id="レイヤー_1" xmlns="http://www.w3.org/2000/svg" xmlns:xlink="http://www.w3.org/1999/xlink" x="0px"
	 y="0px" viewBox="-18 23 26 20" style="enable-background:new -18 23 26 20;" xml:space="preserve">
<style type="text/css">
	.st0{fill:url(#SVGID_1_);}
	.st1{fill:url(#SVGID_2_);}
	.st2{fill:url(#SVGID_3_);}
	.st3{fill:#FFFFFF;}
	.st4{fill:#9A33F5;}
	.st5{enable-background:new    ;}
</style>
<g>
	<g>
		
			<linearGradient id="SVGID_1_" gradientUnits="userSpaceOnUse" x1="-14.7693" y1="35.1614" x2="-14.7693" y2="43.1277" gradientTransform="matrix(1 0 0 -1 0 68)">
			<stop  offset="0" style="stop-color:#DDFF00"/>
			<stop  offset="0.1021" style="stop-color:#E2FF00"/>
			<stop  offset="0.6343" style="stop-color:#F5FD00"/>
			<stop  offset="1" style="stop-color:#FCFC00"/>
		</linearGradient>
		<path class="st0" d="M-12,26c0,0-0.7-0.9-2.6-1.1c-2.4-0.3-3.8,1.7-3.2,3.7c0.6,2,2.5,3.2,6.2,4.3v-1.5c0,0-3-0.2-4.1-2.3
			c-0.7-1.3,0.1-2.5,1-2.4c0.9,0,2.2,0.6,3,2.3L-12,26z"/>
		
			<linearGradient id="SVGID_2_" gradientUnits="userSpaceOnUse" x1="4.7693" y1="35.1614" x2="4.7693" y2="43.1277" gradientTransform="matrix(1 0 0 -1 0 68)">
			<stop  offset="0" style="stop-color:#DDFF00"/>
			<stop  offset="0.1021" style="stop-color:#E2FF00"/>
			<stop  offset="0.6343" style="stop-color:#F5FD00"/>
			<stop  offset="1" style="stop-color:#FCFC00"/>
		</linearGradient>
		<path class="st1" d="M2,26c0,0,0.7-0.9,2.6-1.1c2.4-0.3,3.8,1.7,3.2,3.7S5.3,31.9,1.6,33v-1.5c0,0,3-0.2,4.1-2.3
			c0.7-1.3-0.1-2.5-1-2.4c-0.9,0-2.2,0.6-3,2.3L2,26z"/>
	</g>
	
		<linearGradient id="SVGID_3_" gradientUnits="userSpaceOnUse" x1="-5" y1="28.1285" x2="-5" y2="44.0122" gradientTransform="matrix(1 0 0 -1 0 68)">
		<stop  offset="0" style="stop-color:#DDFF00"/>
		<stop  offset="0.1021" style="stop-color:#E2FF00"/>
		<stop  offset="0.6343" style="stop-color:#F5FD00"/>
		<stop  offset="1" style="stop-color:#FCFC00"/>
	</linearGradient>
	<path class="st2" d="M2.4,30.9c0-3.2,0-5.3,0-5.3S1.2,23.9-5,23.9s-7.4,1.7-7.4,1.7s0,2.1,0,5.3s1.3,4.6,3.7,4.6c1.3,0,2.1,0,2.1,0
		c0,0.9-0.9,2.1-1.7,2.5s-1.1,0.4-2.3,0.4c-0.8,0.4-0.9,1.5-0.9,1.5H-5h6.5c0,0-0.1-1.1-0.9-1.5c-1.3,0-1.5,0-2.3-0.4
		c-0.7-0.4-1.7-1.6-1.7-2.5c0,0,0.8,0,2.1,0C1.2,35.5,2.4,34.1,2.4,30.9z"/>
</g>
<g>
	<g>
		<g>
			<path class="st3" d="M2.9,31.5c0,0,0.4,0.4,1.3,0.9c0,0-0.4,1-1.4,1.6c0,0-1.4-0.4-1.9-2C0.9,32,2,31.9,2.9,31.5z"/>
			<path class="st4" d="M2.7,33.6c0,0,1.2,1.1,2.2,1.4c0,0-0.3,0.8-1.2,1.8c0,0-1.4-0.6-2.4-1.9C1.3,35,2.1,34.3,2.7,33.6z"/>
			<path class="st3" d="M3.8,36.5c0,0,1.3,1,2.2,1.2c0,0-0.3,0.8-1.1,1.9c0,0-1.5-0.5-2.5-1.8C2.4,37.8,3.2,37.3,3.8,36.5z"/>
			<path class="st4" d="M4.9,39.1c0,0,1.4,0.8,2.4,0.9c0,0-0.2,0.8-0.8,2c0,0-1.5-0.3-2.7-1.4C3.7,40.6,4.4,40,4.9,39.1z"/>
		</g>
	</g>
	<g>
		<g>
			<path class="st3" d="M-12.9,31.5c0,0-0.4,0.4-1.3,0.9c0,0,0.4,1,1.4,1.6c0,0,1.4-0.4,1.9-2C-10.9,32-12,31.9-12.9,31.5z"/>
			<path class="st4" d="M-12.7,33.6c0,0-1.2,1.1-2.2,1.4c0,0,0.3,0.8,1.2,1.8c0,0,1.4-0.6,2.4-1.9C-11.3,35-12.1,34.3-12.7,33.6z"/>
			<path class="st3" d="M-13.8,36.5c0,0-1.3,1-2.2,1.2c0,0,0.3,0.8,1.1,1.9c0,0,1.5-0.5,2.5-1.8C-12.4,37.8-13.2,37.3-13.8,36.5z"/>
			<path class="st4" d="M-14.9,39.1c0,0-1.4,0.8-2.4,0.9c0,0,0.2,0.8,0.8,2c0,0,1.5-0.3,2.7-1.4C-13.7,40.6-14.4,40-14.9,39.1z"/>
		</g>
	</g>
</g>
<g class="st5">
	<path d="M-8.8,27.4c0,2.8,0,5.4,0,5.4c-1.1,0-2.2,0-2.2,0c0-1.3,0-3.2,0-3.2c-0.2,0-0.5,0-0.5,0c0-0.9,0-2.2,0-2.2
		C-10,27.3-8.8,27.4-8.8,27.4z"/>
	<path d="M-7.8,31.7c-0.4-1-0.3-2.6,0.1-3.3c0.4-0.8,0.9-1,1.7-1c0.9,0,1.5,0.3,1.9,0.9c0.5,0.7,0.7,1.9,0.3,3.2
		c-0.3,0.8-0.9,1.3-1.9,1.3C-6.5,32.8-7.4,32.7-7.8,31.7z M-6.7,29.8c0,0.3,0,0.7,0.4,0.8c0.3,0.1,0.7-0.1,0.7-0.5
		c0-0.4-0.1-0.8-0.5-0.8C-6.6,29.2-6.7,29.6-6.7,29.8z"/>
	<path d="M-2.8,31.7c-0.4-1-0.3-2.6,0.1-3.3c0.4-0.8,0.9-1,1.7-1c0.9,0,1.5,0.3,1.9,0.9c0.5,0.7,0.7,1.9,0.3,3.2
		c-0.3,0.8-0.9,1.3-1.9,1.3C-1.5,32.8-2.4,32.7-2.8,31.7z M-1.7,29.8c0,0.3,0,0.7,0.4,0.8c0.3,0.1,0.7-0.1,0.7-0.5
		c0-0.4-0.1-0.8-0.5-0.8C-1.5,29.2-1.6,29.6-1.7,29.8z"/>
</g>
</svg>
