<?xml version="1.0" encoding="utf-8"?>
<!-- Generator: Adobe Illustrator 19.0.0, SVG Export Plug-In . SVG Version: 6.00 Build 0)  -->
<svg version="1.1" id="レイヤー_1" xmlns="http://www.w3.org/2000/svg" xmlns:xlink="http://www.w3.org/1999/xlink" x="0px"
	 y="0px" viewBox="0 0 40 28" style="enable-background:new 0 0 40 28;" xml:space="preserve">
<style type="text/css">
	.st0{fill:#DAE000;}
</style>
<path class="st0" d="M26.8,27.1V22C23.4,22.1,2.3,22.2,0,22.2c0-2.3,0-4.1,0-4.1c5-0.2,6.6-0.2,6.6-0.2c0-0.4,0-0.9,0-1.4
	c-1.1,0-4.3,0.1-6.6,0c0-2.2,0-4,0-4c5-0.2,6.6-0.2,6.6-0.2c0-0.5,0-1,0-1.4c-1,0-4.3,0-6.6,0c0-2.2,0-4,0-4
	c22-0.9,26.8-0.9,26.8-0.9v-5L40,14L26.8,27.1z"/>
</svg>
