<?xml version="1.0" encoding="UTF-8"?>
<svg version="1.1" xmlns="http://www.w3.org/2000/svg" width="300" height="344">
<path d="M0 0 C1.9044705 1.46802935 3.80129151 2.94607934 5.6875 4.4375 C6.368125 4.97375 7.04875 5.51 7.75 6.0625 C12.24897897 9.75808986 16.00378527 13.94011334 19.6875 18.4375 C20.47382813 19.38625 21.26015625 20.335 22.0703125 21.3125 C42.55534624 46.58383045 48.55760409 76.44668901 45.3828125 108.51513672 C41.96152516 133.20164498 31.09900773 155.34229618 11.125 170.75 C8.99722421 172.34022606 6.84796759 173.8911474 4.6875 175.4375 C3.65689453 176.19353516 3.65689453 176.19353516 2.60546875 176.96484375 C-21.08772544 193.12164066 -57.88546888 197.21386133 -85.4375 192.3125 C-110.28791713 186.33155215 -131.6798762 170.98345352 -145.23339844 149.24414062 C-159.62608518 125.14778726 -166.29941898 96.31927613 -159.87597656 68.48901367 C-158.8558163 64.73821383 -157.65339506 61.08503403 -156.3125 57.4375 C-156.05017578 56.70644043 -155.78785156 55.97538086 -155.51757812 55.22216797 C-145.41619982 27.61294514 -127.63673535 1.01640396 -100.48046875 -11.73828125 C-65.91792904 -27.26520983 -30.25973148 -22.42159431 0 0 Z " fill="#222122" transform="translate(215.3125,60.5625)"/>
<path d="M0 0 C4.78483755 2.31524398 8.25587763 5.6689727 11.1796875 10.0546875 C11.8396875 10.0546875 12.4996875 10.0546875 13.1796875 10.0546875 C14.69168378 8.2619233 14.69168378 8.2619233 16.1796875 6.0546875 C17.7421875 3.8046875 17.7421875 3.8046875 19.1796875 2.0546875 C19.8396875 2.0546875 20.4996875 2.0546875 21.1796875 2.0546875 C22.6875 3.8046875 22.6875 3.8046875 24.3046875 6.0546875 C24.84351563 6.7971875 25.38234375 7.5396875 25.9375 8.3046875 C26.34742188 8.8821875 26.75734375 9.4596875 27.1796875 10.0546875 C27.8603125 9.3328125 28.5409375 8.6109375 29.2421875 7.8671875 C35.50005729 1.66220112 41.20722555 -1.39281673 50.1171875 -2.3828125 C55.02764546 -2.23978945 58.47912516 -0.03184348 62.1796875 3.0546875 C65.47217525 6.59411183 66.48211061 9.39073485 66.8046875 14.1171875 C66.63135057 18.09795969 66.36413136 18.84325186 63.6171875 21.9921875 C61.92578125 23.1015625 61.92578125 23.1015625 60.1796875 24.0546875 C59.1896875 24.6115625 58.1996875 25.1684375 57.1796875 25.7421875 C51.51878219 28.00141502 45.18554745 28.34664576 39.1796875 29.0546875 C39.76878906 30.14007813 40.35789062 31.22546875 40.96484375 32.34375 C41.72480619 33.78861687 42.48387398 35.23395454 43.2421875 36.6796875 C43.63212891 37.39253906 44.02207031 38.10539062 44.42382812 38.83984375 C46.87132545 43.56156426 47.12150348 45.7523377 46.1796875 51.0546875 C47.8208141 53.74820917 47.8208141 53.74820917 50.1796875 56.1171875 C52.4921875 58.58984375 52.4921875 58.58984375 54.1796875 61.0546875 C54.02032662 64.47596644 53.61529627 65.61907873 51.1796875 68.0546875 C51.8396875 69.3746875 52.4996875 70.6946875 53.1796875 72.0546875 C53.8396875 72.0546875 54.4996875 72.0546875 55.1796875 72.0546875 C55.1796875 72.7146875 55.1796875 73.3746875 55.1796875 74.0546875 C53.1996875 74.0546875 51.2196875 74.0546875 49.1796875 74.0546875 C49.58960938 75.14007813 49.99953125 76.22546875 50.421875 77.34375 C50.96620507 78.78904019 51.51047259 80.23435394 52.0546875 81.6796875 C52.32410156 82.39253906 52.59351563 83.10539062 52.87109375 83.83984375 C54.3931059 87.88616872 55.84340922 91.94206406 57.1796875 96.0546875 C54.5396875 96.0546875 51.8996875 96.0546875 49.1796875 96.0546875 C46.03512233 88.90794847 45.10133172 81.77481318 44.1796875 74.0546875 C42.1996875 74.3846875 40.2196875 74.7146875 38.1796875 75.0546875 C38.540625 76.31925781 38.9015625 77.58382812 39.2734375 78.88671875 C39.74239189 80.54681728 40.21113068 82.20697672 40.6796875 83.8671875 C40.91816406 84.70056641 41.15664062 85.53394531 41.40234375 86.39257812 C41.62792969 87.19501953 41.85351562 87.99746094 42.0859375 88.82421875 C42.40014648 89.93180542 42.40014648 89.93180542 42.72070312 91.06176758 C43.1796875 93.0546875 43.1796875 93.0546875 43.1796875 96.0546875 C40.8696875 96.0546875 38.5596875 96.0546875 36.1796875 96.0546875 C33.60737531 89.02370085 33.04972572 82.46250905 33.1796875 75.0546875 C31.1996875 75.0546875 29.2196875 75.0546875 27.1796875 75.0546875 C27.39625 76.23546875 27.6128125 77.41625 27.8359375 78.6328125 C28.1173698 80.19007123 28.39860973 81.74736474 28.6796875 83.3046875 C28.82277344 84.08199219 28.96585938 84.85929687 29.11328125 85.66015625 C29.31630859 86.79130859 29.31630859 86.79130859 29.5234375 87.9453125 C29.64912109 88.63657227 29.77480469 89.32783203 29.90429688 90.04003906 C30.1796875 92.0546875 30.1796875 92.0546875 30.1796875 96.0546875 C27.5396875 96.0546875 24.8996875 96.0546875 22.1796875 96.0546875 C22.1796875 89.1246875 22.1796875 82.1946875 22.1796875 75.0546875 C20.1996875 75.0546875 18.2196875 75.0546875 16.1796875 75.0546875 C16.1796875 81.9846875 16.1796875 88.9146875 16.1796875 96.0546875 C13.5396875 96.0546875 10.8996875 96.0546875 8.1796875 96.0546875 C8.69506702 88.92074998 9.61974651 82.03655933 11.1796875 75.0546875 C9.1996875 75.0546875 7.2196875 75.0546875 5.1796875 75.0546875 C5.21449219 75.64894531 5.24929687 76.24320312 5.28515625 76.85546875 C5.50927975 83.717917 4.26196054 89.53518978 2.1796875 96.0546875 C-0.1303125 96.0546875 -2.4403125 96.0546875 -4.8203125 96.0546875 C-4.2103999 91.06624441 -3.18556815 86.45313404 -1.7578125 81.6171875 C-1.39558594 80.38097656 -1.03335938 79.14476562 -0.66015625 77.87109375 C-0.38300781 76.94167969 -0.10585937 76.01226562 0.1796875 75.0546875 C-1.8003125 74.7246875 -3.7803125 74.3946875 -5.8203125 74.0546875 C-5.9028125 75.2715625 -5.9853125 76.4884375 -6.0703125 77.7421875 C-6.74981722 84.09099275 -8.81489694 90.0197858 -10.8203125 96.0546875 C-13.4603125 96.0546875 -16.1003125 96.0546875 -18.8203125 96.0546875 C-17.24577106 91.20876871 -15.49611673 86.44449486 -13.6953125 81.6796875 C-13.41816406 80.94363281 -13.14101562 80.20757812 -12.85546875 79.44921875 C-12.17809027 77.65066211 -11.49934217 75.8526214 -10.8203125 74.0546875 C-12.4703125 74.0546875 -14.1203125 74.0546875 -15.8203125 74.0546875 C-14.61649802 71.56107179 -13.36602528 69.37325667 -11.8203125 67.0546875 C-12.8103125 66.0646875 -13.8003125 65.0746875 -14.8203125 64.0546875 C-13.4822897 60.25577854 -11.79411753 57.48594254 -9.2578125 54.3671875 C-6.79558819 51.36692429 -6.79558819 51.36692429 -4.8203125 48.0546875 C-6.3053125 47.5596875 -6.3053125 47.5596875 -7.8203125 47.0546875 C-6.88738425 44.82350958 -5.9491566 42.59481267 -5.0078125 40.3671875 C-4.74677734 39.74134766 -4.48574219 39.11550781 -4.21679688 38.47070312 C-2.66495419 34.81141975 -0.95511018 31.4075379 1.1796875 28.0546875 C-0.0578125 28.1165625 -1.2953125 28.1784375 -2.5703125 28.2421875 C-9.77023617 28.21943893 -17.77428526 27.15067838 -23.5078125 22.4921875 C-26.22177166 19.63152785 -26.74237077 18.83410477 -27.1328125 14.9296875 C-26.68726682 9.40492111 -25.20943862 5.24295788 -21.0546875 1.4375 C-14.13817465 -3.3822747 -7.62085526 -2.76882285 0 0 Z " fill="#9B38F9" transform="translate(137.8203125,101.9453125)"/>
<path d="M0 0 C1.11761719 0.57621094 2.23523438 1.15242188 3.38671875 1.74609375 C20.48533749 11.18924236 31.46970632 26.36091045 37.45703125 44.8671875 C41.62521078 61.24003658 38.76338095 77.79097582 32 93 C26.25 92.125 26.25 92.125 24 91 C24.4640625 89.948125 24.4640625 89.948125 24.9375 88.875 C26.04805032 85.86998148 26.71631317 83.19147689 27 80 C26.34 79.34 25.68 78.68 25 78 C25.36010742 76.21704102 25.36010742 76.21704102 26 74 C26.27618743 69.98290142 26.27741363 65.96307644 26.3125 61.9375 C26.34150391 60.85533203 26.37050781 59.77316406 26.40039062 58.65820312 C26.4658411 50.26543787 24.74869881 43.49739762 21 36 C20.89590632 34.33450106 20.81631825 32.66743039 20.75 31 C20.2281278 24.8900809 18.50670621 20.04440627 15 15 C9.5661625 10.45331964 5.20683863 9.9435503 -1.6875 9.625 C-6.86708913 9.29083296 -11.30116947 8.59876674 -16.1328125 6.71875 C-26.40642108 2.76405548 -39.07911998 4.08510545 -49.05859375 8.0546875 C-52.53224662 9.17105403 -55.67282548 9.38644845 -59.3125 9.5625 C-65.52604076 9.88377218 -70.0810395 10.12768955 -74.7109375 14.68359375 C-78.55218381 19.02077561 -80.03540013 21.53481772 -80.25 27.375 C-80.68072705 33.33339092 -82.34999579 38.01278159 -84.84375 43.40625 C-86.60124531 47.34873948 -87.12713608 50.64822643 -87.1328125 54.95703125 C-87.13410156 55.90513672 -87.13539062 56.85324219 -87.13671875 57.83007812 C-87.13285156 58.81427734 -87.12898438 59.79847656 -87.125 60.8125 C-87.12886719 61.78509766 -87.13273437 62.75769531 -87.13671875 63.75976562 C-87.12969301 68.94827751 -86.89834298 73.88800066 -86 79 C-86.99 79 -87.98 79 -89 79 C-88.54947266 80.03060547 -88.54947266 80.03060547 -88.08984375 81.08203125 C-87.70957031 81.98308594 -87.32929687 82.88414062 -86.9375 83.8125 C-86.55464844 84.70582031 -86.17179687 85.59914063 -85.77734375 86.51953125 C-85 89 -85 89 -86 92 C-88.475 92.495 -88.475 92.495 -91 93 C-98.98536464 78.68141513 -100.83698595 60.54808509 -97.12109375 44.53515625 C-90.86279984 24.5210084 -77.73328524 9.62305056 -59.5625 -0.3359375 C-41.13223533 -9.09031322 -18.1153465 -9.41998018 0 0 Z " fill="#9938F7" transform="translate(187,87)"/>
<path d="M0 0 C-0.52696501 3.86218658 -1.42555825 5.95113768 -4.0625 8.8125 C-4.61035156 9.41707031 -5.15820312 10.02164063 -5.72265625 10.64453125 C-6.14417969 11.09183594 -6.56570312 11.53914062 -7 12 C-6.154375 12.7425 -5.30875 13.485 -4.4375 14.25 C-2 17 -2 17 -2.0625 18.90625 C-3.34532579 21.77122759 -5.17512833 23.23250281 -7.5625 25.25 C-8.38878906 25.95640625 -9.21507813 26.6628125 -10.06640625 27.390625 C-10.70449219 27.92171875 -11.34257813 28.4528125 -12 29 C-11.71125 29.5775 -11.4225 30.155 -11.125 30.75 C-10.08333333 32.83333333 -9.04166667 34.91666667 -8 37 C-9.24196122 38.15454162 -10.49392845 39.29832562 -11.75 40.4375 C-12.44609375 41.07558594 -13.1421875 41.71367187 -13.859375 42.37109375 C-15.98792725 43.99081325 -17.39023405 44.58267256 -20 45 C-19.6390625 45.48210937 -19.278125 45.96421875 -18.90625 46.4609375 C-18.4421875 47.09257812 -17.978125 47.72421875 -17.5 48.375 C-17.0359375 49.00148437 -16.571875 49.62796875 -16.09375 50.2734375 C-15 52 -15 52 -15 54 C-19.92925623 58.21389931 -24.51536373 60.72405803 -31 61 C-31.67354499 59.56570999 -32.33859701 58.12742943 -33 56.6875 C-33.556875 55.48673828 -33.556875 55.48673828 -34.125 54.26171875 C-35 52 -35 52 -35 49 C-33.5437455 48.32880451 -32.08492133 47.66318193 -30.625 47 C-29.81289062 46.62875 -29.00078125 46.2575 -28.1640625 45.875 C-26 45 -26 45 -24 45 C-25.32 41.7 -26.64 38.4 -28 35 C-24.37 32.69 -20.74 30.38 -17 28 C-18.65 24.7 -20.3 21.4 -22 18 C-19.68880208 16.50260417 -17.37760417 15.00520833 -15.06640625 13.5078125 C-12.88961129 12.16165694 -12.88961129 12.16165694 -12 10 C-12.66 10 -13.32 10 -14 10 C-16.1875 7.1875 -16.1875 7.1875 -18 4 C-17 1 -17 1 -14.625 -1.375 C-9.25272949 -3.78325919 -5.34772134 -1.94116575 0 0 Z " fill="#9A38F8" transform="translate(131,134)"/>
<path d="M0 0 C21.60256021 -0.56226632 21.60256021 -0.56226632 31.15625 2.3203125 C39.02936229 4.20207285 47.25507516 3.64286458 55 1.5 C64.72399872 -1.10529777 75.01776687 -0.24945988 85 0 C81.58161085 3.94974498 77.74313379 5.89643268 73.125 8.125 C72.43019531 8.47175781 71.73539062 8.81851563 71.01953125 9.17578125 C56.96397122 16.08444635 39.1388459 17.54425049 24 13 C23.13503906 12.74347656 22.27007812 12.48695313 21.37890625 12.22265625 C14.07464689 9.80862443 7.36513233 6.3214778 1 2 C0.67 1.34 0.34 0.68 0 0 Z " fill="#9B38FB" transform="translate(115,203)"/>
<path d="M0 0 C0.53625 0.474375 1.0725 0.94875 1.625 1.4375 C1.12201212 5.83864397 -0.46272731 8.14945019 -3.375 11.4375 C-0.405 13.4175 2.565 15.3975 5.625 17.4375 C3.625 22.4375 3.625 22.4375 1.625 25.4375 C1.625 26.4275 1.625 27.4175 1.625 28.4375 C3.8519175 30.13946856 3.8519175 30.13946856 6.625 31.625 C7.553125 32.15480469 8.48125 32.68460938 9.4375 33.23046875 C10.159375 33.62878906 10.88125 34.02710938 11.625 34.4375 C10.96258211 37.98829859 10.05018229 41.11207466 8.625 44.4375 C12.32012628 46.41396289 15.50795306 47.71508802 19.625 48.4375 C19.14640759 50.04183809 18.66710442 51.64596416 18.1875 53.25 C17.92066406 54.14332031 17.65382812 55.03664062 17.37890625 55.95703125 C16.82112127 57.79223055 16.23155425 59.61783726 15.625 61.4375 C10.87083878 60.94256533 8.07279417 59.71626594 4.25 56.875 C2.93902344 55.91400391 2.93902344 55.91400391 1.6015625 54.93359375 C0.94929688 54.43988281 0.29703125 53.94617188 -0.375 53.4375 C0.95833333 50.77083333 2.29166667 48.10416667 3.625 45.4375 C2.99851563 45.06238281 2.37203125 44.68726563 1.7265625 44.30078125 C0.90929687 43.78902344 0.09203125 43.27726562 -0.75 42.75 C-1.56210938 42.25113281 -2.37421875 41.75226563 -3.2109375 41.23828125 C-5.70517721 39.16274965 -6.42530695 37.50052098 -7.375 34.4375 C-6.385 33.509375 -6.385 33.509375 -5.375 32.5625 C-3.1465451 30.68112573 -3.1465451 30.68112573 -3.375 28.4375 C-5.57373319 26.6006982 -7.88700656 24.96376829 -10.2109375 23.2890625 C-12.375 21.4375 -12.375 21.4375 -14.375 17.4375 C-12.395 15.1275 -10.415 12.8175 -8.375 10.4375 C-9.695 9.7775 -11.015 9.1175 -12.375 8.4375 C-16.375 3.21527778 -16.375 3.21527778 -16.375 -0.5625 C-10.36116157 -2.32517678 -5.59570682 -3.68138607 0 0 Z " fill="#9937F6" transform="translate(200.375,134.5625)"/>
<path d="M0 0 C1.91619141 -0.02513672 1.91619141 -0.02513672 3.87109375 -0.05078125 C7.76898831 0.33282107 10.20771609 1.34733292 13.5625 3.3125 C11.02491955 7.11887067 10.00266128 7.31729144 5.5625 8.3125 C-1.1105949 8.8426911 -6.7477426 9.1056716 -12.4375 5.3125 C-12.4375 4.3225 -12.4375 3.3325 -12.4375 2.3125 C-8.21314121 0.27734826 -4.66475175 0.01409291 0 0 Z " fill="#26212A" transform="translate(157.4375,142.6875)"/>
<path d="M0 0 C1.890625 0.828125 1.890625 0.828125 4.453125 2.328125 C1.4253665 5.83395064 -1.80523324 7.12153025 -6.37890625 7.6640625 C-13.29173936 7.7546632 -17.63940796 6.96348933 -23.546875 3.328125 C-16.83627839 -1.81666573 -8.17720926 -2.1571779 0 0 Z " fill="#27222D" transform="translate(166.546875,155.671875)"/>
<path d="M0 0 C-1 3 -1 3 -3.09765625 4.16796875 C-6.63658485 5.18249337 -9.75682379 5.30138013 -13.4375 5.3125 C-15.35369141 5.33763672 -15.35369141 5.33763672 -17.30859375 5.36328125 C-21.20648831 4.97967893 -23.64521609 3.96516708 -27 2 C-27 1.34 -27 0.68 -27 0 C-16.96122473 -3.45597181 -10.01466719 -3.89459279 0 0 Z " fill="#26212A" transform="translate(171,134)"/>
<path d="M0 0 C2 2 2 2 2 4.875 C1 8 1 8 -1.5625 10.375 C-5.82493501 12.38996928 -8.34535658 12.32100989 -13 12 C-13.66 10.35 -14.32 8.7 -15 7 C-14.04578192 5.85073734 -13.08647955 4.70569459 -12.125 3.5625 C-11.59132812 2.92441406 -11.05765625 2.28632812 -10.5078125 1.62890625 C-7.2423391 -1.8988202 -4.45654142 -0.87539207 0 0 Z " fill="#26222B" transform="translate(183,109)"/>
<path d="M0 0 C2.9877481 2.39019848 4.67239328 4.06086075 5.9375 7.6875 C5.958125 8.450625 5.97875 9.21375 6 10 C4 12 4 12 0.125 12.25 C-3.05559626 12.16357075 -5.36409999 11.92623463 -8 10 C-10.14762184 6.77856724 -10.561068 5.7404533 -10 2 C-6.8984606 -1.5786993 -4.33958952 -1.41700882 0 0 Z " fill="#252128" transform="translate(141,109)"/>
<path d="M0 0 C0.99 0.33 1.98 0.66 3 1 C0.69 3.97 -1.62 6.94 -4 10 C-3.34 11.32 -2.68 12.64 -2 14 C-2 14.99 -2 15.98 -2 17 C-5 17 -5 17 -6.38671875 15.6875 C-7.59114583 14.125 -8.79557292 12.5625 -10 11 C-8.56285993 7.64170896 -6.79022601 5.60029302 -4.0625 3.1875 C-3.02802734 2.24970703 -3.02802734 2.24970703 -1.97265625 1.29296875 C-1.32167969 0.86628906 -0.67070313 0.43960938 0 0 Z " fill="#2E2338" transform="translate(128,154)"/>
<path d="M0 0 C3.3 1.98 6.6 3.96 10 6 C8.71937515 7.7074998 7.38232443 9.37373596 6 11 C5.34 11 4.68 11 4 11 C2.67578125 9.35546875 2.67578125 9.35546875 1.3125 7.1875 C0.85488281 6.47980469 0.39726562 5.77210938 -0.07421875 5.04296875 C-1 3 -1 3 0 0 Z " fill="#9436EE" transform="translate(198,190)"/>
<path d="M0 0 C-1.2491742 3.45925163 -2.67527795 6.14693203 -5 9 C-8.875 7.25 -8.875 7.25 -10 5 C-8.71186658 4.16121545 -7.41936744 3.32913217 -6.125 2.5 C-5.40570313 2.0359375 -4.68640625 1.571875 -3.9453125 1.09375 C-2 0 -2 0 0 0 Z " fill="#9537F0" transform="translate(117,191)"/>
<path d="M0 0 C0.66 0.33 1.32 0.66 2 1 C-0.53925681 6.07851362 -3.98755483 8.49377741 -9 11 C-7.59155282 7.78475695 -5.89655214 5.67816132 -3.375 3.25 C-2.74335937 2.63640625 -2.11171875 2.0228125 -1.4609375 1.390625 C-0.73777344 0.70226562 -0.73777344 0.70226562 0 0 Z " fill="#9036E7" transform="translate(113,96)"/>
</svg>
