<?xml version="1.0" encoding="utf-8"?>
<!-- Generator: Adobe Illustrator 19.1.1, SVG Export Plug-In . SVG Version: 6.00 Build 0)  -->
<svg version="1.1" id="レイヤー_1" xmlns="http://www.w3.org/2000/svg" xmlns:xlink="http://www.w3.org/1999/xlink" x="0px"
	 y="0px" viewBox="0 0 108 124" style="enable-background:new 0 0 108 124;" xml:space="preserve">
<style type="text/css">
	.st0{fill:#212121;}
	.st1{fill:#7BED00;}
</style>
<path id="XMLID_3_" class="st0" d="M92.6,53.2c0,24.4-14.3,35.4-36.1,36.9c-20.6,1.5-35.8-15.9-35.9-35.7c-0.1-9.2,5-19.8,11.1-27.5
	c6-7.7,17.4-11.3,25.2-11.1C73.9,16,92.6,33.4,92.6,53.2z"/>
<g>
	<polygon class="st1" points="61.3,38.9 64.1,41.7 57.9,47.9 46.5,59.3 38,67.8 39.9,69.7 47.5,62 48.9,63.4 41.3,71 43.2,72.9 
		50.8,65.3 52.2,66.7 44.5,74.3 46.4,76.2 54.9,67.7 66.3,56.3 72.5,50.1 75.3,52.9 80.4,33.8 	"/>
	<g>
		<polygon class="st1" points="40.3,50.1 47.3,57.1 55.7,48.7 48.7,41.7 51.5,38.9 32.4,33.8 37.5,52.9 		"/>
		<polygon class="st1" points="57.1,66.9 66.4,76.2 68.3,74.3 60.6,66.7 62,65.3 69.6,72.9 71.5,71 63.9,63.4 65.3,62 72.9,69.7 
			74.8,67.8 65.5,58.5 		"/>
	</g>
</g>
</svg>
