<?xml version="1.0" encoding="utf-8"?>
<!-- Generator: Adobe Illustrator 19.1.1, SVG Export Plug-In . SVG Version: 6.00 Build 0)  -->
<svg version="1.1" id="レイヤー_1" xmlns="http://www.w3.org/2000/svg" xmlns:xlink="http://www.w3.org/1999/xlink" x="0px"
	 y="0px" viewBox="0 0 108 124" style="enable-background:new 0 0 108 124;" xml:space="preserve">
<style type="text/css">
	.st0{fill-rule:evenodd;clip-rule:evenodd;fill:#7BED00;}
	.st1{fill:#212121;}
</style>
<g>
	<path class="st0" d="M102.1,45c-0.8,0-1.6,0.2-2.5,0.7c-1.6,0.9-3.1,1.3-4.4,1.3c-1.2,0-2.3-0.4-3.1-1.2c-0.7-0.7-1.5-2.2-1.1-3.4
		c0.1-0.5,0.6-1.2,1.7-1.4c1.2-0.2,1.6-0.9,1.5-1.4c0-0.4-0.4-0.8-1.1-0.8c-0.5,0-1.1,0.2-1.7,0.7c-0.3,0.2-0.5,0.3-0.8,0.3
		c-0.7,0-1.3-0.6-1.4-1.3c0-0.5,0.3-1.1,1.3-1.3c2-0.4,4.6-1.6,5.1-2.9c0.1-0.4,0.1-0.7-0.2-1.1c-0.3-0.4-0.6-0.6-1-0.6
		c-0.8,0-1.6,0.8-2.5,1.6c-0.7,0.6-1.4,1.3-2.1,1.5c-0.3,0.1-0.7,0.2-1,0.2c-0.7,0-1.4-0.3-1.7-0.7c-0.3-0.3-0.5-0.9-0.2-1.9
		c0.7-2.7,5.4-5,8.2-6.4c0.6-0.3,1.2-0.6,1.6-0.8c0.8-0.5,1.2-1,1.1-1.6c-0.1-0.5-0.8-1-1.5-1c-0.3,0-0.7,0.1-0.9,0.5
		c-1.2,2-6.4,5.6-9.4,6.6c-0.2,0.1-0.5,0.1-0.7,0.1c-0.6,0-1.2-0.3-1.5-0.8c-0.3-0.5-0.4-1.2-0.1-1.8c0.5-1,1.3-1.5,2-1.9
		c0.8-0.4,1.4-0.8,1.7-1.8c0.1-0.5,0.1-0.8-0.2-1.1c-0.2-0.3-0.6-0.5-1.1-0.5c-0.2,0-0.4,0-0.6,0.1c-0.9,0.2-1.2,0.8-1.6,1.4
		c-0.3,0.5-0.6,1.1-1.3,1.6c-0.3,0.2-0.8,0.4-1.3,0.4c-1,0-2-0.4-2.6-1.1c-0.5-0.5-0.8-1.3-0.8-2c0.1-2.4,4-8,5.7-9.4
		c1.1-0.9,1.2-2,0.9-2.7c-0.2-0.5-0.5-0.8-0.9-0.8c-0.8,0-1.6,1-2.2,2.7c-2.1,5.5-3.6,9.1-5.8,9.1c-0.3,0-0.7-0.1-1-0.3
		c-1.4-0.8-1.1-2.1-0.7-3.7l0-0.2c0.2-0.8,0.2-1.4-0.1-1.8c-0.2-0.3-0.6-0.4-0.8-0.4c-0.7,0-1.6,0.5-2.1,1.1
		c-0.8,1.1-1.9,1.7-3.2,1.7c-1.3,0-2.6-0.7-3.3-1.7c-1.1-1.8,0.2-4.8,1.2-7.1l0.1-0.3c0.3-0.8,0.3-1.4,0-1.8
		c-0.2-0.3-0.6-0.5-0.9-0.5c-0.3,0-0.6,0.1-0.8,0.4C63.3,8,63.2,8.4,63.2,9c0.2,3.1,0,6.5-3.4,7.7c-0.7,0.2-1.3,0.3-1.9,0.3
		c-1.3,0-2.1-0.6-2.5-1.1c-0.6-0.7-0.9-1.6-0.7-2.5c0.1-0.5-0.1-1-0.4-1.3c-0.4-0.4-0.9-0.7-1.5-0.7c-0.5,0-0.9,0.2-1.3,0.5
		c-0.4,0.4-0.6,1-0.5,1.7c0.1,3-1.7,3.8-3.3,4.2C47,17.9,46.5,18,46,18c-1.9,0-3-0.9-3.2-2.5c-0.2-1.6-0.6-2.8-1.2-2.8
		c-0.1,0-0.1,0-0.2,0c-0.5,0.2-0.5,0.6-0.2,2c0.1,0.3,0.1,0.6,0.2,0.9c0.2,1.2,0.7,3.6-1.6,4.5c-0.4,0.2-0.8,0.2-1.1,0.2
		c-1.4,0-2.1-1.3-2.9-3.5c-0.8-2.1-2-5.7-4.4-5.7c-0.8,0-1.6,0.4-2.6,1.1c-1.1,0.9-1.7,2.1-1.7,3.6c0,2.4,1.4,5.1,3.7,7.1
		c1.5,1.2,1.6,2.5,1.5,3.1c-0.1,0.8-0.6,1.4-1.2,1.7c-0.3,0.1-0.5,0.2-0.8,0.2c-1.1,0-1.8-1-2.3-1.8c-1.5-2.3-2.9-3.5-4.1-3.5
		c-0.2,0-0.5,0.1-0.7,0.2c-0.5,0.2-0.8,0.6-0.8,1c0,0.9,1.2,2.4,3.9,3.6c1.7,0.8,2.6,2,2.7,3.7c0,0.6-0.3,1.3-0.8,1.8
		c-0.4,0.4-0.9,0.6-1.3,0.6c-0.4,0-1-0.2-1.5-1.1c0-0.1-0.1-0.2-0.1-0.2c-0.6-1.1-1.4-2.5-2.9-2.5c-0.1,0-0.3,0-0.4,0
		c-1.2,0.2-2.1,1-2.1,2c0,1.1,0.9,2.4,3.5,3.1c0.9,0.2,1.5,0.7,1.8,1.4c0.5,1.3-0.2,2.9-0.7,3.7L24.4,40c-0.5,0.8-1.5,2.4-3.1,2.4
		c-0.3,0-0.7-0.1-1-0.2c-0.6-0.3-1.2-0.6-1.8-1c-1-0.6-1.9-1.2-2.5-1.2c-0.2,0-0.4,0.1-0.5,0.3c-0.2,0.5-0.2,0.9,0.1,1.3
		c0.5,0.8,2,1.3,4,1.4c0.7,0,1.4,0.4,1.7,1c0.5,0.9,0.6,2.2,0.1,3.1c-0.4,0.8-0.9,1.1-1.5,1.1c-0.5,0-1-0.3-1.5-0.5
		c-0.4-0.2-0.9-0.5-1.3-0.5c-0.3,0-0.5,0.1-0.7,0.4c-0.3,0.4-0.4,0.9-0.2,1.4c0.3,0.7,1.2,1.1,2.4,1.1c0.1,0,0.3,0,0.4,0
		c0,0,0,0,0.1,0c0.8,0,1.2,0.7,1.2,1.4c0,0.7-0.4,1.4-1.5,1.4c-0.4,0-1-0.1-1.6-0.4c-0.9-0.4-2.1-1.1-3.3-1.8
		c-2.5-1.4-5.5-3.2-7.6-3.7c-0.5-0.2-1.1-0.2-1.6-0.2c-2.4,0-4.1,1.5-4.3,2.8c-0.3,1.8,0.5,3.1,2.2,3.5c0.7,0.2,1.3,0.3,2,0.3
		c1,0,1.9-0.2,2.7-0.3c0.9-0.2,1.8-0.3,2.8-0.3c0.8,0,1.6,0.1,2.3,0.3c1.7,0.5,1.8,1.2,1.8,1.5c-0.1,0.4-0.5,0.7-1,0.7
		c-0.7,0-1.2,0.3-1.4,0.7c-0.2,0.4-0.1,1,0.4,1.5c0.3,0.4,0.7,0.5,1.3,0.5c1,0,2.3-0.5,4.2-1.1c0.5-0.2,1-0.3,1.6-0.5
		c0.2-0.1,0.4-0.1,0.6-0.1c0.9,0,1.5,0.7,1.6,1.7c0,0.9-0.5,1.9-1.6,2c-0.7,0.1-1.7,0.2-2.8,0.3c-1.7,0.2-3.5,0.4-4.3,0.5
		c-1.7,0.2-3.1,0.8-3.6,1.5c-0.2,0.3-0.2,0.6,0,0.9c0.3,0.7,0.8,1,1.5,1c0.7,0,1.5-0.3,2.4-0.8c1.7-1,5.8-2.2,7.7-2.3
		c0.1,0,0.1,0,0.2,0c1.7,0,2.8,1.7,3,3.3c0.1,1.4-0.5,2.4-1.5,2.6c-0.1,0-0.3,0-0.5,0c-0.4,0-0.8-0.1-1.2-0.1
		c-0.4-0.1-0.8-0.1-1.2-0.1c-0.6,0-1.1,0.2-1.4,0.5c-0.4,0.4-0.6,1.3-0.4,2c0.1,0.4,0.4,0.9,1.2,1c0.3,0,0.5,0.1,0.8,0.1
		c0.8,0,1.2-0.3,1.7-0.6c0.4-0.3,0.9-0.7,1.7-0.7c0.1,0,0.1,0,0.2,0c1.1,0,1.7,0.6,1.7,1.2c0,0.7-0.7,1.6-2.1,1.7
		c-1.8,0.1-3.2,0.6-3.6,1.3c-0.2,0.3-0.1,0.6,0,0.9c0.2,0.4,0.5,0.5,0.7,0.5c0.5,0,1.1-0.3,1.7-0.7c0.3-0.2,0.7-0.4,1.1-0.6
		c0.3-0.2,0.7-0.2,1.1-0.2c1.3,0,2.2,0.9,2.5,1.8c0.3,0.8,0.3,1.5-0.1,2.2c-0.4,0.7-1.1,1.3-2.1,1.6c-0.4,0.1-1,0.2-1.8,0.4
		c-2,0.4-4.7,0.9-5.9,1.8c-1.9,1.4-2.5,3.3-1.6,4.7c0.9,1.4,2.2,1.7,3.1,1.7c1.3,0,2.7-0.7,3.4-1.7c1.8-2.6,4.5-5.2,6.2-6
		c0.2-0.1,0.5-0.2,0.7-0.2c1.2,0,2.3,1.2,2.5,2.2c0.1,0.6-0.1,1.1-0.7,1.3c-1.1,0.4-1.8,1.1-2,2c-0.1,0.6,0.1,1.2,0.6,1.7
		c0.3,0.3,0.7,0.5,1.1,0.5c1,0,2.1-0.8,2.3-1.3c0.5-0.8,1-1,1.3-1c0.6,0,1,0.5,1.1,1.3c0.2,1.7-1.2,3.4-2.4,5
		c-0.6,0.8-1.2,1.5-1.5,2.1c-0.4,0.8-0.2,1.4,0,1.7c0.2,0.4,0.7,0.7,1.1,0.7c0.3,0,0.6-0.2,0.8-0.4c1.2-1.1,1.8-3.6,2.1-4.6l0,0
		c0.3-0.8,1.1-0.9,1.3,0.3l0,0.4c0.4,3.2,1.2,6.1,3,6.6c4.2,1,2.9,10.6,5.2,18.9c2.8,10.6,12.1,8.4,12.3,0.1
		c0.5-17.5,3.3-25.4,7.1-11.4c2.9,10.7,16.8,10,16.9-9.1c0-4,0.2-7.6,0.4-10.8c0.2-2.5,1.5-3,2.4-2.3c1,1.1,1.9,2.4,2.6,3.5
		c0.2,0.4,0.5,0.7,0.7,1c0.1,0.2,0.3,0.4,0.4,0.6c0.9,1.2,2.3,3.3,3,3.3c0.1,0,0.1,0,0.1,0c0.3-0.2,0.4-0.5,0.4-0.8
		c0-0.5-0.1-1.9-2.3-4c-0.3-0.3-0.7-0.6-1-0.9c-2.1-1.9-3.8-3.6-4.8-4.9c-0.6-0.9-1.1-3,0.4-3.1c1.1,0.2,2,1.8,2.4,2.5
		c0.5,0.9,1.1,1.7,1.8,1.7c0.1,0,0.3,0,0.4,0c0.2-0.1,0.4-0.2,0.4-0.3c0-0.1-0.2-0.5-0.3-0.7c-0.3-0.4-0.6-1-0.1-1.4
		c0.2-0.2,0.5-0.3,0.8-0.3c1.2,0,2.5,1.5,3.8,2.8l0.2,0.2c0.2,0.3,0.5,0.5,0.7,0.8c0.9,1,1.9,2.2,2.7,2.2c0.1,0,0.2,0,0.3,0
		c0.5-0.2,0.8-0.5,0.9-1c0.1-0.8-0.6-2.1-2.9-3.6c-3.3-2.1-6.9-6-6.9-8.5c0-1.3,0.3-2.3,0.8-3c0.6-0.9,1.6-1.3,2.8-1.3
		c0.2,0,0.3,0,0.5,0c0.9,0.1,1.8,0.6,2.9,1.1c1.4,0.7,3,1.5,5,1.8c0.2,0,0.3,0,0.5,0c1.4,0,2.1-0.9,2.2-1.7c0.1-1-0.5-2.3-2-2.7
		c-1.6-0.4-2.9-0.6-4-0.7c-1.3-0.2-2.4-0.3-3.7-0.8c-0.8-0.3-1.4-0.9-1.6-1.9c-0.4-1.6,0.2-3.7,0.9-4.5c0.3-0.4,0.8-0.6,1.4-0.6
		c1.1,0,2.5,0.5,3.9,1.2c0.2,0.1,0.5,0.2,0.7,0.2c1,0,1.9-0.9,1.9-1.7c0-0.6-0.6-1-1.6-1c-0.1,0-0.3,0-0.4,0c-0.4,0-1,0.1-1.6,0.1
		c-2.3,0-3.5-0.6-3.8-1.6c-0.1-0.5-0.1-1,0.3-1.4c0.5-0.7,1.7-1.1,3.2-1.1c1.2,0,2.7,0.2,4.3,0.7c0.8,0.2,1.6,0.3,2.2,0.3
		c3.3,0,4.2-2.6,4.2-4c0-1.2-0.5-2.3-1.2-3.1C103.8,45.4,103,45,102.1,45z"/>
	<path class="st0" d="M9.7,40.8c0.1,0,0.1,0,0.2,0c0.9,0,1.8-0.4,2.4-1.2c0.7-0.9,0.9-2,0.6-3.1c-0.5-2-1.6-3.5-3.6-3.5
		c-0.5,0-0.9,0.1-1.3,0.3c-0.5,0.3-1.1,1.1-1.3,1.8c-0.4,1.7-0.1,3.2,0.7,4.3C8.2,40.4,8.3,40.7,9.7,40.8z"/>
	<path class="st0" d="M71.2,7.7L71.2,7.7c1.7,0,2.9-1.3,2.9-2.7c0-1.1,0-2.8-0.7-3.6c-0.6-0.6-1.6-1.1-2.3-1.1h0
		c-2.2,0-3,1.3-3.1,3.3c0,0.8,0.2,2.2,0.8,2.8C69.5,7.1,70.3,7.7,71.2,7.7z"/>
	<path class="st0" d="M101.6,96.2c-1.1,0-1.8,0.4-2.4,1.5c-0.6,1.1-0.1,3.1,0.9,3.8c0.6,0.4,0.6,0.6,1.3,0.6c0.9,0,1.2-0.4,1.9-0.9
		c0.6-0.4,0.8-1,0.8-1.5c0.1-0.9-0.1-1.9-0.6-2.5C103.1,96.5,102.7,96.2,101.6,96.2z"/>
	<path class="st0" d="M107,34.2c-0.4-0.5-0.7-0.6-1.4-0.6h0c-1.9,0-2.5,1-2.5,2.8c0,0.6,0.2,1.2,0.7,1.7c0.5,0.5,1.1,0.8,1.8,0.8h0
		c1.5,0,2.1-1.4,2.1-2.8C107.7,35.3,107.5,34.6,107,34.2z"/>
	<path class="st0" d="M40,8.1C40.1,8.1,40.1,8.1,40,8.1c1.1,0,1.8-1.1,1.9-2.8c0-1.7-0.7-2.6-1.9-2.7c0,0-0.1,0-0.1,0
		c-1.3,0-2.2,1.1-2.3,2.5C37.6,6.5,38.9,8.1,40,8.1z"/>
	<path class="st0" d="M26.7,97.5C26.6,97.5,26.6,97.5,26.7,97.5c-1.4,0-2.3,1.1-2.3,2.5c0,1.4,1.3,2.9,2.4,3c0,0,0,0,0.1,0
		c1.1,0,1.8-1.1,1.8-2.8C28.6,98.5,27.9,97.5,26.7,97.5z"/>
	<path class="st0" d="M87,7.3c0.1,0,0.3,0,0.4,0c0.5,0,0.7-0.2,1.3-0.6c0.5-0.3,0.7-0.9,0.8-1.3c0.1-0.5,0-1.5-0.4-2.1
		c-0.5-0.8-0.7-1.1-1.5-1.1c-0.3,0-0.7,0.1-1,0.2c-1,0.4-1.3,1.9-1.2,3C85.5,6.8,86.4,7.2,87,7.3z"/>
	<path class="st0" d="M2.8,62.7C2.8,62.7,2.7,62.7,2.8,62.7c-0.9,0-1.7,0.5-1.7,1.6c0,1.2,0.7,2.3,1.5,2.4c0.1,0,0.1,0,0.1,0
		c1,0,1.8-0.6,1.8-1.6C4.6,64,4.1,62.7,2.8,62.7z"/>
	<path class="st0" d="M88.7,9.9c-0.1,0.6,0.6,1,0.8,1c0.1,0,0.2,0,0.2,0c0.7,0,1-0.4,1.1-1.2c0-0.4-0.1-0.7-0.3-0.9
		c-0.1-0.2-0.3-0.2-0.5-0.2l0,0C89.7,8.5,88.8,8.6,88.7,9.9z"/>
	<path class="st0" d="M100,91.6c0-0.8-0.6-1.3-1.2-1.3c-0.1,0-0.1,0-0.2,0c-0.6,0-1.2,0.4-1.4,0.9c-0.2,0.4-0.1,0.9,0.1,1.2
		c0.3,0.4,0.7,0.6,1.1,0.6l0,0C99.7,92.9,100.1,92.6,100,91.6z"/>
</g>
<g>
	<polygon class="st1" points="61.3,38.9 64.1,41.7 57.9,47.9 46.5,59.3 38,67.8 39.9,69.7 47.5,62 48.9,63.4 41.3,71 43.2,72.9 
		50.8,65.3 52.2,66.7 44.5,74.3 46.4,76.2 54.9,67.7 66.3,56.3 72.5,50.1 75.3,52.9 80.4,33.8 	"/>
	<g>
		<polygon class="st1" points="40.3,50.1 47.3,57.1 55.7,48.7 48.7,41.7 51.5,38.9 32.4,33.8 37.5,52.9 		"/>
		<polygon class="st1" points="57.1,66.9 66.4,76.2 68.3,74.3 60.6,66.7 62,65.3 69.6,72.9 71.5,71 63.9,63.4 65.3,62 72.9,69.7 
			74.8,67.8 65.5,58.5 		"/>
	</g>
</g>
</svg>
