<?xml version="1.0" encoding="utf-8"?>
<!-- Generator: Adobe Illustrator 19.1.1, SVG Export Plug-In . SVG Version: 6.00 Build 0)  -->
<svg version="1.1" id="レイヤー_1" xmlns="http://www.w3.org/2000/svg" xmlns:xlink="http://www.w3.org/1999/xlink" x="0px"
	 y="0px" viewBox="0 0 108 124" style="enable-background:new 0 0 108 124;" xml:space="preserve">
<style type="text/css">
	.st0{fill-rule:evenodd;clip-rule:evenodd;fill:#9E39FF;}
	.st1{fill:#212121;}
</style>
<g>
	<path class="st0" d="M102.1,45c-0.8,0-1.6,0.2-2.5,0.7c-1.6,0.9-3.1,1.3-4.4,1.3c-1.2,0-2.3-0.4-3.1-1.2c-0.7-0.7-1.5-2.2-1.1-3.4
		c0.1-0.5,0.6-1.2,1.7-1.4c1.2-0.2,1.6-0.9,1.5-1.4c0-0.4-0.4-0.8-1.1-0.8c-0.5,0-1.1,0.2-1.7,0.7c-0.3,0.2-0.5,0.3-0.8,0.3
		c-0.7,0-1.3-0.6-1.4-1.3c0-0.5,0.3-1.1,1.3-1.3c2-0.4,4.6-1.6,5.1-2.9c0.1-0.4,0.1-0.7-0.2-1.1c-0.3-0.4-0.6-0.6-1-0.6
		c-0.8,0-1.6,0.8-2.5,1.6c-0.7,0.6-1.4,1.3-2.1,1.5c-0.3,0.1-0.7,0.2-1,0.2c-0.7,0-1.4-0.3-1.7-0.7c-0.3-0.3-0.5-0.9-0.2-1.9
		c0.7-2.7,5.4-5,8.2-6.4c0.6-0.3,1.2-0.6,1.6-0.8c0.8-0.5,1.2-1,1.1-1.6c-0.1-0.5-0.8-1-1.5-1c-0.3,0-0.7,0.1-0.9,0.5
		c-1.2,2-6.4,5.6-9.4,6.6c-0.2,0.1-0.5,0.1-0.7,0.1c-0.6,0-1.2-0.3-1.5-0.8c-0.3-0.5-0.4-1.2-0.1-1.8c0.5-1,1.3-1.5,2-1.9
		c0.8-0.4,1.4-0.8,1.7-1.8c0.1-0.5,0.1-0.8-0.2-1.1c-0.2-0.3-0.6-0.5-1.1-0.5c-0.2,0-0.4,0-0.6,0.1c-0.9,0.2-1.2,0.8-1.6,1.4
		c-0.3,0.5-0.6,1.1-1.3,1.6c-0.3,0.2-0.8,0.4-1.3,0.4c-1,0-2-0.4-2.6-1.1c-0.5-0.5-0.8-1.3-0.8-2c0.1-2.4,4-8,5.7-9.4
		c1.1-0.9,1.2-2,0.9-2.7c-0.2-0.5-0.5-0.8-0.9-0.8c-0.8,0-1.6,1-2.2,2.7c-2.1,5.5-3.6,9.1-5.8,9.1c-0.3,0-0.7-0.1-1-0.3
		c-1.4-0.8-1.1-2.1-0.7-3.7l0-0.2c0.2-0.8,0.2-1.4-0.1-1.8c-0.2-0.3-0.6-0.4-0.8-0.4c-0.7,0-1.6,0.5-2.1,1.1
		c-0.8,1.1-1.9,1.7-3.2,1.7c-1.3,0-2.6-0.7-3.3-1.7c-1.1-1.8,0.2-4.8,1.2-7.1l0.1-0.3c0.3-0.8,0.3-1.4,0-1.8
		c-0.2-0.3-0.6-0.5-0.9-0.5c-0.3,0-0.6,0.1-0.8,0.4C63.3,8,63.2,8.4,63.2,9c0.2,3.1,0,6.5-3.4,7.7c-0.7,0.2-1.3,0.3-1.9,0.3
		c-1.3,0-2.1-0.6-2.5-1.1c-0.6-0.7-0.9-1.6-0.7-2.5c0.1-0.5-0.1-1-0.4-1.3c-0.4-0.4-0.9-0.7-1.5-0.7c-0.5,0-0.9,0.2-1.3,0.5
		c-0.4,0.4-0.6,1-0.5,1.7c0.1,3-1.7,3.8-3.3,4.2C47,17.9,46.5,18,46,18c-1.9,0-3-0.9-3.2-2.5c-0.2-1.6-0.6-2.8-1.2-2.8
		c-0.1,0-0.1,0-0.2,0c-0.5,0.2-0.5,0.6-0.2,2c0.1,0.3,0.1,0.6,0.2,0.9c0.2,1.2,0.7,3.6-1.6,4.5c-0.4,0.2-0.8,0.2-1.1,0.2
		c-1.4,0-2.1-1.3-2.9-3.5c-0.8-2.1-2-5.7-4.4-5.7c-0.8,0-1.6,0.4-2.6,1.1c-1.1,0.9-1.7,2.1-1.7,3.6c0,2.4,1.4,5.1,3.7,7.1
		c1.5,1.2,1.6,2.5,1.5,3.1c-0.1,0.8-0.6,1.4-1.2,1.7c-0.3,0.1-0.5,0.2-0.8,0.2c-1.1,0-1.8-1-2.3-1.8c-1.5-2.3-2.9-3.5-4.1-3.5
		c-0.2,0-0.5,0.1-0.7,0.2c-0.5,0.2-0.8,0.6-0.8,1c0,0.9,1.2,2.4,3.9,3.6c1.7,0.8,2.6,2,2.7,3.7c0,0.6-0.3,1.3-0.8,1.8
		c-0.4,0.4-0.9,0.6-1.3,0.6c-0.4,0-1-0.2-1.5-1.1c0-0.1-0.1-0.2-0.1-0.2c-0.6-1.1-1.4-2.5-2.9-2.5c-0.1,0-0.3,0-0.4,0
		c-1.2,0.2-2.1,1-2.1,2c0,1.1,0.9,2.4,3.5,3.1c0.9,0.2,1.5,0.7,1.8,1.4c0.5,1.3-0.2,2.9-0.7,3.7L24.4,40c-0.5,0.8-1.5,2.4-3.1,2.4
		c-0.3,0-0.7-0.1-1-0.2c-0.6-0.3-1.2-0.6-1.8-1c-1-0.6-1.9-1.2-2.5-1.2c-0.2,0-0.4,0.1-0.5,0.3c-0.2,0.5-0.2,0.9,0.1,1.3
		c0.5,0.8,2,1.3,4,1.4c0.7,0,1.4,0.4,1.7,1c0.5,0.9,0.6,2.2,0.1,3.1c-0.4,0.8-0.9,1.1-1.5,1.1c-0.5,0-1-0.3-1.5-0.5
		c-0.4-0.2-0.9-0.5-1.3-0.5c-0.3,0-0.5,0.1-0.7,0.4c-0.3,0.4-0.4,0.9-0.2,1.4c0.3,0.7,1.2,1.1,2.4,1.1c0.1,0,0.3,0,0.4,0
		c0,0,0,0,0.1,0c0.8,0,1.2,0.7,1.2,1.4c0,0.7-0.4,1.4-1.5,1.4c-0.4,0-1-0.1-1.6-0.4c-0.9-0.4-2.1-1.1-3.3-1.8
		c-2.5-1.4-5.5-3.2-7.6-3.7c-0.5-0.2-1.1-0.2-1.6-0.2c-2.4,0-4.1,1.5-4.3,2.8c-0.3,1.8,0.5,3.1,2.2,3.5c0.7,0.2,1.3,0.3,2,0.3
		c1,0,1.9-0.2,2.7-0.3c0.9-0.2,1.8-0.3,2.8-0.3c0.8,0,1.6,0.1,2.3,0.3c1.7,0.5,1.8,1.2,1.8,1.5c-0.1,0.4-0.5,0.7-1,0.7
		c-0.7,0-1.2,0.3-1.4,0.7c-0.2,0.4-0.1,1,0.4,1.5c0.3,0.4,0.7,0.5,1.3,0.5c1,0,2.3-0.5,4.2-1.1c0.5-0.2,1-0.3,1.6-0.5
		c0.2-0.1,0.4-0.1,0.6-0.1c0.9,0,1.5,0.7,1.6,1.7c0,0.9-0.5,1.9-1.6,2c-0.7,0.1-1.7,0.2-2.8,0.3c-1.7,0.2-3.5,0.4-4.3,0.5
		c-1.7,0.2-3.1,0.8-3.6,1.5c-0.2,0.3-0.2,0.6,0,0.9c0.3,0.7,0.8,1,1.5,1c0.7,0,1.5-0.3,2.4-0.8c1.7-1,5.8-2.2,7.7-2.3
		c0.1,0,0.1,0,0.2,0c1.7,0,2.8,1.7,3,3.3c0.1,1.4-0.5,2.4-1.5,2.6c-0.1,0-0.3,0-0.5,0c-0.4,0-0.8-0.1-1.2-0.1
		c-0.4-0.1-0.8-0.1-1.2-0.1c-0.6,0-1.1,0.2-1.4,0.5c-0.4,0.4-0.6,1.3-0.4,2c0.1,0.4,0.4,0.9,1.2,1c0.3,0,0.5,0.1,0.8,0.1
		c0.8,0,1.2-0.3,1.7-0.6c0.4-0.3,0.9-0.7,1.7-0.7c0.1,0,0.1,0,0.2,0c1.1,0,1.7,0.6,1.7,1.2c0,0.7-0.7,1.6-2.1,1.7
		c-1.8,0.1-3.2,0.6-3.6,1.3c-0.2,0.3-0.1,0.6,0,0.9c0.2,0.4,0.5,0.5,0.7,0.5c0.5,0,1.1-0.3,1.7-0.7c0.3-0.2,0.7-0.4,1.1-0.6
		c0.3-0.2,0.7-0.2,1.1-0.2c1.3,0,2.2,0.9,2.5,1.8c0.3,0.8,0.3,1.5-0.1,2.2c-0.4,0.7-1.1,1.3-2.1,1.6c-0.4,0.1-1,0.2-1.8,0.4
		c-2,0.4-4.7,0.9-5.9,1.8c-1.9,1.4-2.5,3.3-1.6,4.7c0.9,1.4,2.2,1.7,3.1,1.7c1.3,0,2.7-0.7,3.4-1.7c1.8-2.6,4.5-5.2,6.2-6
		c0.2-0.1,0.5-0.2,0.7-0.2c1.2,0,2.3,1.2,2.5,2.2c0.1,0.6-0.1,1.1-0.7,1.3c-1.1,0.4-1.8,1.1-2,2c-0.1,0.6,0.1,1.2,0.6,1.7
		c0.3,0.3,0.7,0.5,1.1,0.5c1,0,2.1-0.8,2.3-1.3c0.5-0.8,1-1,1.3-1c0.6,0,1,0.5,1.1,1.3c0.2,1.7-1.2,3.4-2.4,5
		c-0.6,0.8-1.2,1.5-1.5,2.1c-0.4,0.8-0.2,1.4,0,1.7c0.2,0.4,0.7,0.7,1.1,0.7c0.3,0,0.6-0.2,0.8-0.4c1.2-1.1,1.8-3.6,2.1-4.6l0,0
		c0.3-0.8,1.1-0.9,1.3,0.3l0,0.4c0.4,3.2,1.2,6.1,3,6.6c4.2,1,2.9,10.6,5.2,18.9c2.8,10.6,12.1,8.4,12.3,0.1
		c0.5-17.5,3.3-25.4,7.1-11.4c2.9,10.7,16.8,10,16.9-9.1c0-4,0.2-7.6,0.4-10.8c0.2-2.5,1.5-3,2.4-2.3c1,1.1,1.9,2.4,2.6,3.5
		c0.2,0.4,0.5,0.7,0.7,1c0.1,0.2,0.3,0.4,0.4,0.6c0.9,1.2,2.3,3.3,3,3.3c0.1,0,0.1,0,0.1,0c0.3-0.2,0.4-0.5,0.4-0.8
		c0-0.5-0.1-1.9-2.3-4c-0.3-0.3-0.7-0.6-1-0.9c-2.1-1.9-3.8-3.6-4.8-4.9c-0.6-0.9-1.1-3,0.4-3.1c1.1,0.2,2,1.8,2.4,2.5
		c0.5,0.9,1.1,1.7,1.8,1.7c0.1,0,0.3,0,0.4,0c0.2-0.1,0.4-0.2,0.4-0.3c0-0.1-0.2-0.5-0.3-0.7c-0.3-0.4-0.6-1-0.1-1.4
		c0.2-0.2,0.5-0.3,0.8-0.3c1.2,0,2.5,1.5,3.8,2.8l0.2,0.2c0.2,0.3,0.5,0.5,0.7,0.8c0.9,1,1.9,2.2,2.7,2.2c0.1,0,0.2,0,0.3,0
		c0.5-0.2,0.8-0.5,0.9-1c0.1-0.8-0.6-2.1-2.9-3.6c-3.3-2.1-6.9-6-6.9-8.5c0-1.3,0.3-2.3,0.8-3c0.6-0.9,1.6-1.3,2.8-1.3
		c0.2,0,0.3,0,0.5,0c0.9,0.1,1.8,0.6,2.9,1.1c1.4,0.7,3,1.5,5,1.8c0.2,0,0.3,0,0.5,0c1.4,0,2.1-0.9,2.2-1.7c0.1-1-0.5-2.3-2-2.7
		c-1.6-0.4-2.9-0.6-4-0.7c-1.3-0.2-2.4-0.3-3.7-0.8c-0.8-0.3-1.4-0.9-1.6-1.9c-0.4-1.6,0.2-3.7,0.9-4.5c0.3-0.4,0.8-0.6,1.4-0.6
		c1.1,0,2.5,0.5,3.9,1.2c0.2,0.1,0.5,0.2,0.7,0.2c1,0,1.9-0.9,1.9-1.7c0-0.6-0.6-1-1.6-1c-0.1,0-0.3,0-0.4,0c-0.4,0-1,0.1-1.6,0.1
		c-2.3,0-3.5-0.6-3.8-1.6c-0.1-0.5-0.1-1,0.3-1.4c0.5-0.7,1.7-1.1,3.2-1.1c1.2,0,2.7,0.2,4.3,0.7c0.8,0.2,1.6,0.3,2.2,0.3
		c3.3,0,4.2-2.6,4.2-4c0-1.2-0.5-2.3-1.2-3.1C103.8,45.4,103,45,102.1,45z"/>
	<path class="st0" d="M9.7,40.8c0.1,0,0.1,0,0.2,0c0.9,0,1.8-0.4,2.4-1.2c0.7-0.9,0.9-2,0.6-3.1c-0.5-2-1.6-3.5-3.6-3.5
		c-0.5,0-0.9,0.1-1.3,0.3c-0.5,0.3-1.1,1.1-1.3,1.8c-0.4,1.7-0.1,3.2,0.7,4.3C8.2,40.4,8.3,40.7,9.7,40.8z"/>
	<path class="st0" d="M71.2,7.7L71.2,7.7c1.7,0,2.9-1.3,2.9-2.7c0-1.1,0-2.8-0.7-3.6c-0.6-0.6-1.6-1.1-2.3-1.1h0
		c-2.2,0-3,1.3-3.1,3.3c0,0.8,0.2,2.2,0.8,2.8C69.5,7.1,70.3,7.7,71.2,7.7z"/>
	<path class="st0" d="M101.6,96.2c-1.1,0-1.8,0.4-2.4,1.5c-0.6,1.1-0.1,3.1,0.9,3.8c0.6,0.4,0.6,0.6,1.3,0.6c0.9,0,1.2-0.4,1.9-0.9
		c0.6-0.4,0.8-1,0.8-1.5c0.1-0.9-0.1-1.9-0.6-2.5C103.1,96.5,102.7,96.2,101.6,96.2z"/>
	<path class="st0" d="M107,34.2c-0.4-0.5-0.7-0.6-1.4-0.6h0c-1.9,0-2.5,1-2.5,2.8c0,0.6,0.2,1.2,0.7,1.7c0.5,0.5,1.1,0.8,1.8,0.8h0
		c1.5,0,2.1-1.4,2.1-2.8C107.7,35.3,107.5,34.6,107,34.2z"/>
	<path class="st0" d="M40,8.1C40.1,8.1,40.1,8.1,40,8.1c1.1,0,1.8-1.1,1.9-2.8c0-1.7-0.7-2.6-1.9-2.7c0,0-0.1,0-0.1,0
		c-1.3,0-2.2,1.1-2.3,2.5C37.6,6.5,38.9,8.1,40,8.1z"/>
	<path class="st0" d="M26.7,97.5C26.6,97.5,26.6,97.5,26.7,97.5c-1.4,0-2.3,1.1-2.3,2.5c0,1.4,1.3,2.9,2.4,3c0,0,0,0,0.1,0
		c1.1,0,1.8-1.1,1.8-2.8C28.6,98.5,27.9,97.5,26.7,97.5z"/>
	<path class="st0" d="M87,7.3c0.1,0,0.3,0,0.4,0c0.5,0,0.7-0.2,1.3-0.6c0.5-0.3,0.7-0.9,0.8-1.3c0.1-0.5,0-1.5-0.4-2.1
		c-0.5-0.8-0.7-1.1-1.5-1.1c-0.3,0-0.7,0.1-1,0.2c-1,0.4-1.3,1.9-1.2,3C85.5,6.8,86.4,7.2,87,7.3z"/>
	<path class="st0" d="M2.8,62.7C2.8,62.7,2.7,62.7,2.8,62.7c-0.9,0-1.7,0.5-1.7,1.6c0,1.2,0.7,2.3,1.5,2.4c0.1,0,0.1,0,0.1,0
		c1,0,1.8-0.6,1.8-1.6C4.6,64,4.1,62.7,2.8,62.7z"/>
	<path class="st0" d="M88.7,9.9c-0.1,0.6,0.6,1,0.8,1c0.1,0,0.2,0,0.2,0c0.7,0,1-0.4,1.1-1.2c0-0.4-0.1-0.7-0.3-0.9
		c-0.1-0.2-0.3-0.2-0.5-0.2l0,0C89.7,8.5,88.8,8.6,88.7,9.9z"/>
	<path class="st0" d="M100,91.6c0-0.8-0.6-1.3-1.2-1.3c-0.1,0-0.1,0-0.2,0c-0.6,0-1.2,0.4-1.4,0.9c-0.2,0.4-0.1,0.9,0.1,1.2
		c0.3,0.4,0.7,0.6,1.1,0.6l0,0C99.7,92.9,100.1,92.6,100,91.6z"/>
</g>
<g>
	<path class="st1" d="M60.8,43.8c0.5,0.2,1,0.2,1.6,0.2c2.1,0,3.5-1.3,3.7-2.5c0.1-0.7-0.3-1.6-1.5-1.9c-0.3-0.1-0.6-0.1-0.8-0.1
		c-2.5,0-3.5,3.2-3.5,3.3l-0.3,0l-0.7-1.2c0.4-0.9,2.7-4.6,7.1-4.9c0.2,0,0.4,0,0.6,0c1.7,0,3.2,0.6,4.3,1.7c1.2,1.3,1.8,3,1.7,4.1
		c-0.1,2.8-3.4,4.4-10,4.8L60.8,43.8z"/>
	<path class="st1" d="M50.3,47.3c-6.5-0.4-9.9-2-10-4.8c0-1.1,0.5-2.8,1.7-4.1c1.1-1.1,2.5-1.7,4.3-1.7c0.2,0,0.4,0,0.6,0
		c4.3,0.3,6.7,4,7.1,4.9l-0.6,1.2l-0.3,0c0-0.1-1-3.3-3.5-3.3c-0.3,0-0.5,0-0.8,0.1c-1.2,0.3-1.6,1.2-1.5,1.9
		c0.2,1.2,1.6,2.5,3.7,2.5c0.5,0,1-0.1,1.6-0.2L50.3,47.3z"/>
	<g>
		<path class="st1" d="M67,70.8c-0.3-0.5-0.9-2.2-1.9-7.2L65,63.2l-0.4,0c-0.4,0-0.7,0-1.1,0.1l-0.5,0l0.1,0.5
			c0.7,3.3,1.4,5.7,1.8,7h-2.5c-0.2-0.5-0.7-2.1-1.3-7l0-0.4l-0.4,0c-0.4,0-0.8,0-1.1,0l-0.5,0l0.1,0.5c0.4,3.2,0.9,5.6,1.2,6.9
			h-2.9c0-1.9-0.1-4.2-0.1-6.9l0-0.5l-0.8,0c-0.2,0-0.5,0-0.7,0l-0.5,0l0,0.5c0,2.7,0,5-0.1,6.9h-2.9c0.3-1.3,0.8-3.7,1.2-6.9
			l0.1-0.5l-0.5,0c-0.4,0-0.8,0-1.1,0l-0.4,0l0,0.4c-0.5,4.9-1,6.5-1.3,7h-2.5c0.4-1.3,1.2-3.7,1.8-7l0.1-0.5l-0.5,0
			c-0.4,0-0.8,0-1.1-0.1l-0.4,0l-0.1,0.4c-1,5-1.6,6.7-1.9,7.2h-2.8c0.8-1.3,2-3.7,3-7.2l0.2-0.5L45.5,63c-0.5,0-1-0.1-1.3-0.2
			c0.4-0.4,0.8-0.9,1.2-1.4l0.5-0.7l-0.7-0.6c0,0-0.3-0.2-0.6-0.6c0.2-0.6,0.4-1.1,0.7-1.6c1-0.8,1.8-1.7,2.4-2.7l0.5-0.8l-0.7-0.5
			c0,0-0.1-0.1-0.4-0.3c0.6-1.4,1.2-2.6,1.7-3.6c2.9-5.8,6.7-10.7,7.9-12.1c1.2,1.4,5,6.3,7.9,12.1c0.5,1,1.1,2.2,1.7,3.6
			c-0.2,0.2-0.4,0.3-0.4,0.3l-0.7,0.5l0.5,0.8c0.6,1,1.5,1.9,2.4,2.7c0.2,0.5,0.4,1.1,0.7,1.6C68.3,60,68,60.2,68,60.2l-0.7,0.6
			l0.5,0.7c0.4,0.5,0.8,0.9,1.2,1.4c-0.5,0.1-1.1,0.1-1.7,0.2l-0.6,0l0.2,0.5c1,3.5,2.2,5.9,3,7.2H67z M56.5,55.6
			c-0.5,0-2.4,0.1-4.2,1L51.5,57l0.7,0.4c0.1,0,1.8,1.1,4.3,1.1c2.5,0,4.3-1.1,4.3-1.1l0.7-0.4l-0.7-0.4c-1.8-0.9-3.7-1-4.2-1
			c0,0-0.1,0-0.1,0C56.6,55.6,56.5,55.6,56.5,55.6z M56.5,51.5c-0.5,0-2.4,0.1-4.2,1l-0.7,0.4l0.7,0.4c0.1,0,1.8,1.1,4.3,1.1
			c2.5,0,4.3-1.1,4.3-1.1l0.7-0.4l-0.7-0.4c-1.8-0.9-3.7-1-4.2-1c0,0-0.1,0-0.1,0C56.6,51.5,56.5,51.5,56.5,51.5z M56.5,47.5
			c-0.5,0-2.4,0.1-4.2,1l-0.7,0.4l0.7,0.4c0.1,0,1.8,1.1,4.3,1.1c2.5,0,4.3-1.1,4.3-1.1l0.7-0.4l-0.7-0.4c-1.8-0.9-3.7-1-4.2-1
			c-0.1,0-0.1,0-0.1,0C56.6,47.5,56.5,47.5,56.5,47.5z"/>
	</g>
	<path class="st1" d="M35.2,64.6c-0.3-0.5-0.5-1-0.7-1.5c-1.3-3-1.9-6.1-1.9-9.3c0-3.2,0.6-6.4,1.9-9.3c1.2-2.9,2.9-5.4,5.1-7.6
		c2.2-2.2,4.8-3.9,7.6-5.1c3-1.3,6.1-1.9,9.3-1.9c3.2,0,6.4,0.6,9.3,1.9c2.9,1.2,5.4,2.9,7.6,5.1c2.2,2.2,3.9,4.8,5.1,7.6
		c1.3,3,1.9,6.1,1.9,9.3c0,3.2-0.6,6.4-1.9,9.3c-0.2,0.5-0.4,1-0.7,1.5c-0.8-0.2-1.9-0.6-2.6-1c0.9-1.5,1.2-2.5,1.3-2.7l0.3-1
		l-1-0.3c-0.1,0-0.1,0-0.2-0.1c0.6-1.9,0.9-3.9,0.9-5.9c0-3.5-0.9-6.9-2.6-9.9c0.1-0.4,0.2-0.9,0.2-1.4c0-1.4-0.6-3.6-2.1-5.1
		c-1.4-1.4-3.2-2.1-5.3-2.1c-0.2,0-0.5,0-0.7,0c-0.5,0-0.9,0.1-1.4,0.2c-2.6-1.2-5.4-1.8-8.3-1.8c-2.9,0-5.7,0.6-8.3,1.8
		c-0.4-0.1-0.9-0.2-1.4-0.2c-0.2,0-0.5,0-0.7,0c-2.1,0-3.9,0.7-5.3,2.1c-1.5,1.6-2.2,3.7-2.1,5.1c0,0.5,0.1,0.9,0.2,1.4
		c-1.7,3-2.6,6.4-2.6,9.9c0,2,0.3,4,0.9,5.9c-0.1,0-0.1,0-0.2,0.1l-1,0.3l0.3,1c0,0.1,0.4,1.2,1.3,2.7C37,64,36,64.5,35.2,64.6z"/>
	<path class="st1" d="M56.6,77.8c-3.2,0-6.4-0.6-9.3-1.9c-2.2-0.9-4.2-2.1-6-3.6h7.5c2.5,1.1,5.1,1.6,7.8,1.6c2.7,0,5.4-0.5,7.8-1.6
		l7.5,0c-1.8,1.5-3.8,2.7-6,3.6C63,77.2,59.8,77.8,56.6,77.8z M71.8,71.1c0,0-0.7-0.9-1.5-2.6c0.2-0.2,0.4-0.4,0.6-0.6
		c1.1,1.1,2.3,1.8,3.3,2.2c-0.2,0.2-0.4,0.4-0.6,0.6c-0.4,0.4-0.8,0.8-1.2,1.1L71.8,71.1z M40.6,71.7c-0.3-0.3-0.6-0.6-1-0.9
		c-0.2-0.2-0.4-0.4-0.6-0.6c1-0.4,2.2-1.1,3.3-2.2c0.1,0.1,0.2,0.2,0.3,0.3c-0.9,1.9-1.6,2.9-1.6,2.9L40.6,71.7z"/>
	<g>
		<path class="st1" d="M74,64c1.3-1.9,1.7-3.3,1.7-3.3c-1.5-0.4-3.5-1.9-4.2-2.5c1.4-1.9,2-3.3,2-3.3c-1.3-0.4-2.9-1.7-3.7-2.4
			c1.8-1.2,2.5-3.1,2.5-3.1c-1.7-0.9-2.6-1.8-2.6-1.8c-1.8,0.9-4,1.1-4,1.1c0.8,2.3,2.4,3.5,3.2,3.9c-1.1,1.3-2.4,2.2-2.4,2.2
			c1.5,2.3,3.7,3.5,4.4,3.9c-1,1.3-2.2,2.3-2.2,2.3c1.5,2,3.4,3.1,4.4,3.5c-0.8,1.4-1.8,2.5-1.8,2.5c2.3,2.4,5.4,3,5.4,3
			c1.3-2.5,1.7-4.3,1.7-4.3C76.8,65.5,74.9,64.6,74,64z"/>
		<path class="st1" d="M47.6,48.6c0,0-2.2-0.1-4-1.1c0,0-0.9,0.9-2.6,1.8c0,0,0.7,1.9,2.5,3.1c-0.8,0.7-2.4,2-3.7,2.4
			c0,0,0.5,1.4,2,3.3c-0.7,0.5-2.7,2-4.2,2.5c0,0,0.5,1.4,1.7,3.3c-0.9,0.5-2.8,1.5-4.2,1.7c0,0,0.3,1.8,1.7,4.3c0,0,3-0.6,5.4-3
			c0,0-1-1.1-1.8-2.5c0.9-0.4,2.9-1.5,4.4-3.5c0,0-1.2-1-2.2-2.3c0.8-0.4,3-1.6,4.4-3.9c0,0-1.3-1-2.4-2.2
			C45.3,52,46.9,50.9,47.6,48.6z"/>
	</g>
</g>
</svg>
