<?xml version="1.0" encoding="utf-8"?>
<!-- Generator: Adobe Illustrator 19.1.1, SVG Export Plug-In . SVG Version: 6.00 Build 0)  -->
<svg version="1.1" id="レイヤー_1" xmlns="http://www.w3.org/2000/svg" xmlns:xlink="http://www.w3.org/1999/xlink" x="0px"
	 y="0px" viewBox="0 0 108 124" style="enable-background:new 0 0 108 124;" xml:space="preserve">
<style type="text/css">
	.st0{fill:#212121;}
	.st1{fill:#FF4E00;}
</style>
<path id="XMLID_3_" class="st0" d="M92.6,53.2c0,24.4-14.3,35.4-36.1,36.9c-20.6,1.5-35.8-15.9-35.9-35.7c-0.1-9.2,5-19.8,11.1-27.5
	c6-7.7,17.4-11.3,25.2-11.1C73.9,16,92.6,33.4,92.6,53.2z"/>
<g id="XMLID_8_">
	<g id="XMLID_9_">
		<path id="XMLID_20_" class="st1" d="M52,73.7c1.5,1.1,2.8,2.5,4.3,4.3c1.5-1.8,2.8-3.2,4.3-4.3c-1.4-0.3-2.8-0.7-4.3-1.2
			C54.9,73,53.5,73.4,52,73.7z"/>
		<path id="XMLID_19_" class="st1" d="M50.3,69.6c-1-0.6-2-1.3-3-2l-0.1,0.1c-0.8,0.2-1.7,0.5-2.8,0.5c-0.5,0-1-0.1-1.5-0.2
			c0.6,1.3,1.4,1.7,2.3,1.9c0.5,0.1,1.1,0.2,1.8,0.2C48,70.1,49.2,69.9,50.3,69.6z"/>
		<path id="XMLID_18_" class="st1" d="M47,67.4c-1-0.8-1.9-1.6-2.9-2.5c-1.5,0-3-0.2-4.5-0.4c0.4,1.4,1.1,2,2,2.3
			C43.1,67.4,45,67.6,47,67.4z"/>
		<path id="XMLID_17_" class="st1" d="M50.7,69.9c-1.1,0.5-2.3,1-3.9,1c-0.4,0-0.9,0-1.3-0.1c0.9,1.8,4.6,2.3,9.3,1.1
			C53.5,71.3,52.1,70.7,50.7,69.9z"/>
		<path id="XMLID_16_" class="st1" d="M43.7,54.2c0,0,2.6-0.1,4.8-0.9c0,0-4.7-1.8-10.4-9.3c-1.7,4.8-2.5,8.3-1.3,15.3
			c0.8-0.7,2.7-3.1,2.7-3.1c8.1,15.9,25.6,18.6,27.7,14.6c-0.5,0.1-0.9,0.1-1.3,0.1c-1.5-0.1-2.9-0.5-4-1.1c-0.1,0-0.1-0.1-0.1-0.2
			s0.1-0.1,0.2-0.1c1.3,0.4,2.5,0.6,3.7,0.6c0.6,0,1.2-0.1,1.8-0.2c1-0.2,1.7-0.6,2.3-1.9c-0.5,0.1-1,0.2-1.5,0.2
			c-1.1,0-2-0.2-2.8-0.5c-0.1,0-0.1-0.1-0.1-0.2s0.1-0.1,0.2-0.1c2.1,0.2,4,0,5.5-0.6c0.9-0.4,1.6-0.9,2-2.3
			C60.4,66.6,46.9,59.5,43.7,54.2z"/>
		<path id="XMLID_14_" class="st1" d="M53.3,47.3L53.3,47.3c0.9,0,1.3,0.4,1.4,1.2c-0.1,5.6-1.8,8.3-4.1,10.3c1.3,1.1,3.7,2,5.9,2.6
			c2.1-0.6,4.6-1.5,5.9-2.6c-2.4-2-4-4.6-4.1-10.3c0-0.9,0.5-1.2,1.4-1.2l0,0c2.4,0,3.8-0.8,3.8-2.7v-1.2L58.3,44c0-0.4,0-1.3,0-1.6
			c2.6-0.8,4.6-3.2,4.6-6.1c0-3.5-2.8-6.3-6.3-6.3s-6.3,2.8-6.3,6.3c0,2.9,1.9,5.3,4.6,6.1c0,0.3,0,1.3,0,1.6l-5.2-0.6v1.2
			C49.4,46.5,50.9,47.3,53.3,47.3z M56.4,33.9c1.3,0,2.4,1.1,2.4,2.4c0,1.3-1.1,2.4-2.4,2.4S54,37.6,54,36.3
			C54,35,55,33.9,56.4,33.9z"/>
		<g id="XMLID_10_">
			<path id="XMLID_12_" class="st1" d="M74.6,44c-5.4,7.2-10.4,9.3-10.4,9.3c2.2,0.7,4.8,0.9,4.8,0.9c-1.6,2.6-5.7,5.7-11,7.9
				c3,1,6.3,1.7,9.7,1.9c2.1-2.1,4-4.7,5.5-7.7c0,0,1.9,2.4,2.7,3.1C77.2,54.2,76.3,48.8,74.6,44z"/>
		</g>
	</g>
</g>
</svg>
