<?xml version="1.0" encoding="UTF-8"?>
<svg version="1.1" xmlns="http://www.w3.org/2000/svg" width="1024" height="1024">
<path d="M0 0 C0.92377441 0.42716309 1.84754883 0.85432617 2.79931641 1.29443359 C43.45682351 20.12741507 80.59407843 44.37836457 115 73 C115.59522461 73.49467773 116.19044922 73.98935547 116.80371094 74.49902344 C129.806369 85.35511887 142.06092593 96.99111766 154.0625 108.9375 C154.75255127 109.62287842 155.44260254 110.30825684 156.15356445 111.0144043 C160.63877744 115.51380581 164.85905862 120.18395125 169 125 C170.04559801 126.19122626 171.09244171 127.38136045 172.140625 128.5703125 C178.92325876 136.30789803 185.46461916 144.17850199 191.72119141 152.34765625 C192.97500622 153.96770563 194.25495273 155.56332201 195.54296875 157.15625 C202.39675985 165.83250105 207.88002247 175.55178431 206.6875 187 C203.96900954 191.83287192 199.60538858 194.06554087 195 197 C193.43386078 198.04610068 191.8678901 199.09246349 190.30493164 200.14331055 C188.46127664 201.38042191 186.61204668 202.60883004 184.76171875 203.8359375 C180.90485755 206.39573276 177.05533167 208.96642452 173.20703125 211.5390625 C171.37513572 212.76298519 169.54315881 213.98678597 167.71115112 215.21054077 C166.49404986 216.02383637 165.27718902 216.8374919 164.06057739 217.65151978 C162.33017788 218.80914196 160.59878436 219.96526362 158.8671875 221.12109375 C157.85769043 221.7958374 156.84819336 222.47058105 155.80810547 223.16577148 C148.42219241 227.99018157 148.42219241 227.99018157 145.3125 228.0625 C134.68048716 224.65223173 128.58178451 217.5963142 122 209 C120.15069801 206.62119136 118.29407528 204.24813415 116.4375 201.875 C115.97770752 201.28444824 115.51791504 200.69389648 115.04418945 200.08544922 C111.6238878 195.71799644 108.03075716 191.55298511 104.265625 187.4765625 C103.03393394 186.13019676 101.80945983 184.77638276 100.62597656 183.38745117 C95.36653911 177.227017 89.69230065 171.50618153 83.96777344 165.7824707 C82.26205402 164.07456944 80.56450973 162.35881955 78.8671875 160.64257812 C72.22047455 153.96213195 65.40106994 147.84634749 58 142 C56.16390858 140.44074195 54.32995036 138.87896067 52.5 137.3125 C-22.84538467 74.54092467 -121.75323223 41.6942012 -219.3125 41.8125 C-220.23685852 41.81310425 -221.16121704 41.8137085 -222.11358643 41.81433105 C-285.71987648 41.92680902 -348.39370601 55.97963966 -406 83 C-406.99451172 83.46631836 -407.98902344 83.93263672 -409.01367188 84.41308594 C-435.33886176 96.89057509 -459.94144617 112.22569809 -483 130 C-483.56460938 130.433125 -484.12921875 130.86625 -484.7109375 131.3125 C-491.5355322 136.55760335 -498.19543466 141.88960147 -504.5234375 147.734375 C-505.86980324 148.96606606 -507.22361724 150.19054017 -508.61254883 151.37402344 C-514.772983 156.63346089 -520.49381847 162.30769935 -526.2175293 168.03222656 C-527.92543056 169.73794598 -529.64118045 171.43549027 -531.35742188 173.1328125 C-538.03896755 179.7804947 -544.14509964 186.60473478 -550 194 C-550.98244228 195.17139103 -551.97098493 196.33772651 -552.96875 197.49609375 C-557.43273466 202.68340925 -561.69128193 207.87993684 -565.6875 213.4375 C-569.27217853 218.26597268 -572.70125169 222.08568843 -578 225 C-578.93585938 225.51626953 -578.93585938 225.51626953 -579.890625 226.04296875 C-582.14350025 226.94503465 -583.57009871 227.1373195 -586 227 C-588.22412109 225.88476563 -588.22412109 225.88476563 -590.7109375 224.21875 C-591.68039307 223.57591064 -592.64984863 222.93307129 -593.64868164 222.27075195 C-594.76589102 221.51398706 -595.88299032 220.75705964 -597 220 C-598.28392505 219.14142487 -599.56837461 218.28363373 -600.85327148 217.42651367 C-604.43986877 215.02854161 -608.01531848 212.61446709 -611.5871582 210.19458008 C-613.79668091 208.69821324 -616.0085776 207.20540609 -618.22070312 205.71289062 C-622.49263604 202.82622424 -626.75037432 199.9193907 -631 197 C-631.69236755 196.52580627 -632.38473511 196.05161255 -633.0980835 195.56304932 C-635.07571464 194.20335099 -637.04496651 192.83240377 -639.01171875 191.45703125 C-639.60483353 191.05030685 -640.1979483 190.64358246 -640.80903625 190.22453308 C-644.88482669 187.34551993 -644.88482669 187.34551993 -646 184 C-647.19054545 174.67406066 -642.27966148 166.39266867 -636.875 159.125 C-635.68382585 157.61327733 -634.49216631 156.10183788 -633.28417969 154.60351562 C-631.93053962 152.91326697 -630.60777647 151.20198821 -629.2890625 149.484375 C-624.42539197 143.17271538 -619.42345339 137.07731573 -614.02734375 131.20703125 C-612.24958586 129.27170715 -610.52423748 127.30596984 -608.8125 125.3125 C-596.69798196 111.44346555 -583.95772581 97.49122525 -569.875 85.59375 C-567.59616622 83.65674129 -565.39675343 81.64094375 -563.1875 79.625 C-494.03661001 17.32595124 -404.35363707 -24.11440103 -256 -47 C-255.05914551 -47.07057617 -254.11829102 -47.14115234 -253.14892578 -47.21386719 C-168.87368309 -53.16493047 -81.19809473 -37.56889473 0 0 Z " fill="#FFFFFF" transform="translate(731,211)"/>
<path d="M0 0 C1.22879883 0.63204346 1.22879883 0.63204346 2.48242188 1.27685547 C40.52290525 21.11470936 75.66600515 51.19086375 102 85 C102.40653809 85.51755859 102.81307617 86.03511719 103.23193359 86.56835938 C112.09297538 97.88723305 112.09297538 97.88723305 112.25 105.4375 C112.27578125 106.17871094 112.3015625 106.91992188 112.328125 107.68359375 C111.67971029 112.26109282 109.46779014 114.63726937 105.86816406 117.4284668 C104.59104315 118.27940792 103.30634597 119.1190513 102.015625 119.94921875 C101.32297546 120.40674026 100.63032593 120.86426178 99.91668701 121.33564758 C97.70079629 122.79619157 95.4757752 124.2420753 93.25 125.6875 C91.80014158 126.63899997 90.35091668 127.59146601 88.90234375 128.54492188 C86.02534633 130.43694826 83.14516612 132.32397296 80.26245117 134.20727539 C76.07936419 136.94343033 71.9129923 139.70408643 67.75390625 142.4765625 C67.14963806 142.87892624 66.54536987 143.28128998 65.92279053 143.69584656 C63.28796984 145.45461796 60.66840965 147.23075198 58.06811523 149.0402832 C53.86203216 151.95059419 50.87232861 153.42236517 45.6875 153.125 C38.45058885 151.79485122 35.37244142 147.33637611 31.13671875 141.75 C20.4848178 128.04078927 8.69210991 115.71151455 -5 105 C-6.01964844 104.18660156 -7.03929687 103.37320313 -8.08984375 102.53515625 C-40.92119069 76.56019517 -79.79862686 60.71488302 -121 54 C-121.78906738 53.86867676 -122.57813477 53.73735352 -123.39111328 53.60205078 C-184.47176893 43.96485063 -249.7586009 61.47635356 -299.39282227 97.52441406 C-315.66506138 109.63790257 -330.33047726 123.13629979 -343 139 C-344.8017351 141.21731683 -346.6172395 143.42288051 -348.4375 145.625 C-349.26121094 146.62789062 -350.08492188 147.63078125 -350.93359375 148.6640625 C-353.55631446 151.62887722 -355.3017595 152.29037886 -359.15234375 152.68359375 C-367.47265158 152.57480233 -374.03660605 146.67371264 -380.5625 142.0625 C-382.01823845 141.05794601 -383.47544968 140.05552312 -384.93408203 139.05517578 C-387.88102367 137.03005409 -390.81924621 134.99315256 -393.75146484 132.94677734 C-397.67446312 130.2153424 -401.63458245 127.54395614 -405.61328125 124.89453125 C-406.7734704 124.11923023 -407.93354867 123.34376325 -409.09350586 122.56811523 C-411.23477852 121.13704223 -413.37745679 119.70806952 -415.52172852 118.28149414 C-416.94569946 117.3184436 -416.94569946 117.3184436 -418.3984375 116.3359375 C-419.22005371 115.78470215 -420.04166992 115.2334668 -420.88818359 114.66552734 C-423.09008018 112.92895641 -424.54285758 111.39325999 -426 109 C-426.84038838 100.4560515 -424.28901875 95.41294625 -419 88.875 C-417.33904992 86.91181584 -415.6720766 84.95371622 -414 83 C-413.16082031 81.98679687 -412.32164062 80.97359375 -411.45703125 79.9296875 C-396.91075922 62.37787497 -381.02115625 46.01375627 -363 32 C-362.44860352 31.5654248 -361.89720703 31.13084961 -361.32910156 30.68310547 C-280.44863976 -32.83431121 -171.06320364 -54.42329797 0 0 Z " fill="#FFFFFF" transform="translate(668,393)"/>
<path d="M0 0 C5.9210254 4.94241148 11.75360093 10.213432 16.00390625 16.68359375 C16.89916016 18.00230469 16.89916016 18.00230469 17.8125 19.34765625 C18.4725 19.34765625 19.1325 19.34765625 19.8125 19.34765625 C21.45347607 17.2116874 22.98731744 15.07185778 24.5 12.84765625 C28.30239921 7.37591105 32.24613239 2.21643231 36.8125 -2.65234375 C40.34068866 -2.09640975 41.64999287 -1.07613386 43.7578125 1.76953125 C44.27730469 2.465625 44.79679688 3.16171875 45.33203125 3.87890625 C45.86183594 4.61109375 46.39164063 5.34328125 46.9375 6.09765625 C47.47503906 6.814375 48.01257813 7.53109375 48.56640625 8.26953125 C51.18972062 11.82834177 53.4539848 15.08762093 54.8125 19.34765625 C59.30934153 17.23149553 61.40937966 14.37210251 64.2265625 10.4609375 C73.75968393 -2.24206421 87.95697335 -9.77708328 103.49609375 -12.37109375 C114.34494583 -13.68832368 126.65171718 -11.95947002 135.8125 -5.65234375 C146.69522285 2.99673382 152.84988533 11.63498263 155.8125 25.34765625 C156.52449232 33.7491656 154.01796276 39.87991858 148.8125 46.47265625 C140.41156799 55.56457401 128.77714604 59.31395904 117.0625 61.84765625 C116.04857178 62.06832764 115.03464355 62.28899902 113.98999023 62.51635742 C105.30661873 64.35058388 96.64639653 65.55319844 87.8125 66.34765625 C88.54548152 70.43583488 90.50043901 73.9400086 92.375 77.59765625 C93.09769886 79.02602011 93.82035378 80.4544062 94.54296875 81.8828125 C94.91599121 82.6164502 95.28901367 83.35008789 95.67333984 84.10595703 C97.52194412 87.74373767 99.35616823 91.38865777 101.1875 95.03515625 C101.52080322 95.69354492 101.85410645 96.35193359 102.19750977 97.03027344 C106.83777641 106.26077048 106.83777641 106.26077048 106.75 110.03515625 C105.8125 112.34765625 105.8125 112.34765625 103.25 113.66015625 C102.445625 113.88703125 101.64125 114.11390625 100.8125 114.34765625 C103.85821282 123.10408059 109.86975157 129.59667339 116.5625 135.84765625 C120.77981929 139.96995795 123.89811376 144.40906175 124.8125 150.34765625 C123.4156906 155.41392169 120.85775471 157.26974506 116.8125 160.34765625 C117.32916283 164.47378303 118.43455875 166.44375369 121.3125 169.41015625 C123.83097952 172.01636969 125.23227704 173.72932137 125.8125 177.34765625 C123.04797967 178.72991641 120.7663637 178.44291012 117.6875 178.41015625 C116.59179688 178.40113281 115.49609375 178.39210938 114.3671875 178.3828125 C113.52414062 178.37121094 112.68109375 178.35960937 111.8125 178.34765625 C116.38457992 195.15451988 121.49394318 212.65997676 131.02734375 227.3828125 C132.07409614 230.00229734 131.55674387 231.68039717 130.8125 234.34765625 C127.89527452 234.42869029 124.98030484 234.48816706 122.0625 234.53515625 C121.2375 234.56029297 120.4125 234.58542969 119.5625 234.61132812 C118.36367188 234.62583008 118.36367188 234.62583008 117.140625 234.640625 C116.04089355 234.66419067 116.04089355 234.66419067 114.91894531 234.68823242 C112.12303166 234.23618101 110.84221101 233.30998872 108.8125 231.34765625 C107.79516602 229.16894531 107.79516602 229.16894531 107.06640625 226.61328125 C106.78869385 225.65711914 106.51098145 224.70095703 106.22485352 223.71582031 C105.80417603 222.1723291 105.80417603 222.1723291 105.375 220.59765625 C105.077146 219.54030273 104.77929199 218.48294922 104.47241211 217.39355469 C96.8125 189.6476965 96.8125 189.6476965 96.8125 180.34765625 C92.8525 180.34765625 88.8925 180.34765625 84.8125 180.34765625 C87.72607631 195.98148036 91.43303337 211.42507521 96.2109375 226.59765625 C96.81476923 229.35802987 96.83545782 230.74813991 95.8125 233.34765625 C93.83950486 235.32065139 90.12761482 234.53265614 87.4375 234.53515625 C86.75171875 234.54740234 86.0659375 234.55964844 85.359375 234.57226562 C81.61953203 234.58317956 80.0025263 234.47434045 76.8125 232.34765625 C76.04467773 230.47509766 76.04467773 230.47509766 75.49609375 228.19921875 C75.29024658 227.36511475 75.08439941 226.53101074 74.87231445 225.67163086 C74.66695068 224.78096924 74.46158691 223.89030762 74.25 222.97265625 C74.03239014 222.05943604 73.81478027 221.14621582 73.59057617 220.20532227 C70.5748534 207.34257431 69.10335895 194.47596639 67.8125 181.34765625 C64.1825 181.34765625 60.5525 181.34765625 56.8125 181.34765625 C59.61666339 201.53778885 59.61666339 201.53778885 63.59277344 221.52075195 C65.21994668 228.66705456 65.21994668 228.66705456 64.8125 232.34765625 C62.8125 234.34765625 62.8125 234.34765625 59.00390625 234.578125 C57.46087619 234.57413096 55.91784534 234.55936274 54.375 234.53515625 C53.59833984 234.53451172 52.82167969 234.53386719 52.02148438 234.53320312 C48.70989425 234.50753188 45.97307255 234.40118043 42.8125 233.34765625 C41.8540479 221.84947272 41.6902597 210.44228819 41.75 198.91015625 C41.75503171 197.19596487 41.75959163 195.48177204 41.76367188 193.76757812 C41.77452973 189.62756732 41.79169934 185.48762854 41.8125 181.34765625 C37.8525 181.34765625 33.8925 181.34765625 29.8125 181.34765625 C29.82297363 182.78077148 29.83344727 184.21388672 29.84423828 185.69042969 C29.88042793 191.00550846 29.9033968 196.32057633 29.92236328 201.63574219 C29.9324232 203.93654207 29.94607262 206.23732915 29.96337891 208.53808594 C29.98762735 211.84443315 29.99898323 215.15061137 30.0078125 218.45703125 C30.01813507 219.48632751 30.02845764 220.51562378 30.03909302 221.57611084 C30.03924408 222.53680481 30.03939514 223.49749878 30.03955078 224.48730469 C30.043992 225.33113708 30.04843323 226.17496948 30.05300903 227.04437256 C29.78697467 229.59210478 29.17605901 231.18875337 27.8125 233.34765625 C24.66944562 234.91918344 21.321226 234.49084214 17.875 234.47265625 C17.14603516 234.47652344 16.41707031 234.48039063 15.66601562 234.484375 C12.45392264 234.47848665 9.8803556 234.37027478 6.8125 233.34765625 C7.14624013 225.13764905 8.54139066 217.31791437 10.22070312 209.30273438 C12.1373015 200.04033716 13.49757525 190.71151434 14.8125 181.34765625 C10.8525 181.34765625 6.8925 181.34765625 2.8125 181.34765625 C2.874375 182.89453125 2.93625 184.44140625 3 186.03515625 C2.98388716 199.68272795 2.0357716 221.25550058 -5.83984375 232.76171875 C-9.09901729 234.96342334 -12.02594013 234.82337004 -15.8125 234.66015625 C-16.493125 234.65048828 -17.17375 234.64082031 -17.875 234.63085938 C-22.84709821 234.51785714 -22.84709821 234.51785714 -25.1875 233.34765625 C-24.66940875 227.08121924 -23.51803862 221.7559441 -21.4375 215.84765625 C-17.54591231 204.25945196 -15.39451068 192.34949749 -13.1875 180.34765625 C-17.1475 180.34765625 -21.1075 180.34765625 -25.1875 180.34765625 C-25.32929688 181.36085938 -25.47109375 182.3740625 -25.6171875 183.41796875 C-27.25346265 194.69257698 -29.65332862 205.55472317 -32.6875 216.53515625 C-32.98414551 217.62231934 -33.28079102 218.70948242 -33.58642578 219.82958984 C-33.87759277 220.86035645 -34.16875977 221.89112305 -34.46875 222.953125 C-34.72720703 223.87246826 -34.98566406 224.79181152 -35.25195312 225.73901367 C-36.26999607 228.57768509 -37.44110795 230.88808216 -39.1875 233.34765625 C-42.95050374 234.60199083 -46.45960909 234.45461047 -50.375 234.41015625 C-51.12458984 234.40564453 -51.87417969 234.40113281 -52.64648438 234.39648438 C-54.49352383 234.38471979 -56.34052213 234.3667849 -58.1875 234.34765625 C-59.40234375 232.76171875 -59.40234375 232.76171875 -60.1875 230.34765625 C-59.15669926 227.95373693 -58.08967206 225.93430765 -56.75 223.72265625 C-48.67090339 209.48688811 -43.91033344 193.95203633 -39.1875 178.34765625 C-39.80238281 178.37085938 -40.41726563 178.3940625 -41.05078125 178.41796875 C-41.85902344 178.43601562 -42.66726563 178.4540625 -43.5 178.47265625 C-44.30050781 178.49585938 -45.10101563 178.5190625 -45.92578125 178.54296875 C-48.1875 178.34765625 -48.1875 178.34765625 -51.1875 176.34765625 C-50.60577275 172.39560445 -48.63592259 170.12670572 -46.125 167.09765625 C-45.39152344 166.205625 -44.65804687 165.31359375 -43.90234375 164.39453125 C-43.33644531 163.7190625 -42.77054687 163.04359375 -42.1875 162.34765625 C-43.49988065 159.42714721 -44.38804457 158.17043082 -46.875 155.97265625 C-49.1875 153.34765625 -49.1875 153.34765625 -49.25 150.53515625 C-47.04673725 143.925368 -44.91639848 139.75232018 -39.5 135.16015625 C-35.33054349 131.61023265 -32.1511923 127.95041991 -29.0625 123.47265625 C-28.67231689 122.91296143 -28.28213379 122.3532666 -27.88012695 121.77661133 C-26.06750839 119.06529607 -25.1875 117.67768021 -25.1875 114.34765625 C-25.991875 114.12078125 -26.79625 113.89390625 -27.625 113.66015625 C-30.1875 112.34765625 -30.1875 112.34765625 -31.01977539 110.16625977 C-31.24393871 106.39920666 -30.11077441 104.30772754 -28.43359375 100.9375 C-28.13566422 100.32934952 -27.83773468 99.72119904 -27.53077698 99.09461975 C-26.57503256 97.15146278 -25.60047303 95.21847182 -24.625 93.28515625 C-23.99548149 92.01299414 -23.36721435 90.740212 -22.74023438 89.46679688 C-21.20485402 86.35654423 -19.65393283 83.2544078 -18.09588623 80.15545654 C-16.63303747 77.24420764 -15.17852948 74.32880547 -13.72265625 71.4140625 C-12.87773581 69.72519455 -12.03273804 68.03636527 -11.1875 66.34765625 C-12.09121338 66.24275879 -12.09121338 66.24275879 -13.01318359 66.13574219 C-63.12647118 60.21992042 -63.12647118 60.21992042 -75.83203125 44.28515625 C-76.41017578 43.32609375 -76.41017578 43.32609375 -77 42.34765625 C-77.59748047 41.38859375 -77.59748047 41.38859375 -78.20703125 40.41015625 C-81.60410693 33.26411657 -80.40672725 24.50826926 -78.25 17.1484375 C-73.64138027 5.30852957 -66.3328584 -3.32659448 -54.875 -8.90234375 C-36.29618087 -16.59013098 -15.63539467 -11.88201158 0 0 Z M-26.0625 14.59765625 C-27.92763969 17.49898466 -28.07352659 19.92845397 -28.1875 23.34765625 C-26.45646683 29.8101801 -22.75226735 33.7037223 -17.1875 37.34765625 C-10.1870398 40.48732382 -3.35622526 41.37017377 4.125 39.53515625 C6.73693202 38.38104675 8.14114222 37.63477742 9.8125 35.34765625 C11.04152848 31.68347196 10.55317589 29.25321501 9.1015625 25.64453125 C5.8683183 19.88347794 0.19280656 12.59917241 -6.375 10.72265625 C-14.17811305 9.68224118 -19.43324732 10.17815446 -26.0625 14.59765625 Z M71.8125 18.34765625 C68.73844046 22.55426404 66.13007677 26.47748191 65.25 31.66015625 C65.90580932 34.79346744 66.85776259 36.81373738 68.8125 39.34765625 C76.67960411 41.97002429 85.31434336 40.54652854 92.8125 37.34765625 C97.75820573 34.67583821 101.34183329 31.48664302 103.8125 26.34765625 C104.40113946 23.21009686 104.47639101 20.47660346 103.8125 17.34765625 C100.78786009 13.16653638 97.81840478 11.4273612 92.8125 10.34765625 C84.4649968 9.685156 77.57366802 11.96652002 71.8125 18.34765625 Z M4.8125 75.34765625 C5.49493759 78.49542938 5.49493759 78.49542938 8.0703125 79.6640625 C9.01648438 80.07527344 9.96265625 80.48648438 10.9375 80.91015625 C11.86820312 81.32394531 12.79890625 81.73773437 13.7578125 82.1640625 C21.81431421 85.28569935 28.60744089 85.6835019 37.25 85.66015625 C38.43916016 85.67626953 39.62832031 85.69238281 40.85351562 85.70898438 C47.61917311 85.71274099 52.67541143 85.21570871 58.8125 82.34765625 C59.864375 81.89003906 60.91625 81.43242188 62 80.9609375 C62.928125 80.53167969 63.85625 80.10242188 64.8125 79.66015625 C65.76125 79.22316406 66.71 78.78617188 67.6875 78.3359375 C68.38875 78.00980469 69.09 77.68367187 69.8125 77.34765625 C69.8125 76.68765625 69.8125 76.02765625 69.8125 75.34765625 C51.07512432 65.09512994 23.25511537 63.05257934 4.8125 75.34765625 Z M10.25 101.47265625 C9.21746094 102.01148438 8.18492187 102.5503125 7.12109375 103.10546875 C6.35925781 103.51539063 5.59742188 103.9253125 4.8125 104.34765625 C4.8125 105.00765625 4.8125 105.66765625 4.8125 106.34765625 C19.80084775 115.0908591 37.70813627 116.70183236 54.375 112.59765625 C59.88621452 111.13173727 64.88201515 109.22377242 69.8125 106.34765625 C69.12952457 103.21573884 69.12952457 103.21573884 66.625 102.03125 C65.696875 101.62003906 64.76875 101.20882812 63.8125 100.78515625 C62.45125 100.16447266 62.45125 100.16447266 61.0625 99.53125 C53.13525686 96.64428525 45.71374992 96.03141775 37.3125 96.09765625 C36.33152344 96.08992187 35.35054687 96.0821875 34.33984375 96.07421875 C25.46793722 96.09784566 18.15838125 97.29121329 10.25 101.47265625 Z M18.6875 127.59765625 C17.8939209 127.80197266 17.1003418 128.00628906 16.28271484 128.21679688 C11.4571004 129.5787908 7.83028473 131.34394498 3.8125 134.34765625 C13.94182648 142.50342851 27.4057336 144.97038863 40.125 144.09765625 C49.95471953 142.96645837 60.47183776 140.90809774 68.8125 135.34765625 C68.15673274 132.27816708 68.15673274 132.27816708 65.984375 131.28515625 C50.07093583 125.12511528 35.22181609 123.34022168 18.6875 127.59765625 Z " fill="#FFFFFF" transform="translate(475.1875,575.65234375)"/>
<path d="M0 0 C1.15503525 0.00223572 1.15503525 0.00223572 2.33340454 0.0045166 C13.73454379 0.04417222 24.63952226 0.62319462 35.75 3.3125 C37.19648374 3.6412013 38.64310207 3.96931085 40.08984375 4.296875 C46.83692757 5.87696 53.30700829 7.77453465 59.75 10.3125 C60.46639648 10.59125977 61.18279297 10.87001953 61.92089844 11.15722656 C79.32561926 18.01133162 93.88451167 27.04796847 108.75 38.3125 C109.55050781 38.87195313 110.35101562 39.43140625 111.17578125 40.0078125 C111.69527344 40.43835938 112.21476562 40.86890625 112.75 41.3125 C112.75 41.9725 112.75 42.6325 112.75 43.3125 C113.28109375 43.51875 113.8121875 43.725 114.359375 43.9375 C117.75773436 45.89211192 120.26055928 48.53373717 123 51.3125 C123.55429687 51.8590625 124.10859375 52.405625 124.6796875 52.96875 C128.75 57.0591133 128.75 57.0591133 128.75 59.3125 C129.41 59.3125 130.07 59.3125 130.75 59.3125 C132.68195041 61.58376448 134.47796387 63.85753013 136.25 66.25 C136.78463867 66.97002197 137.31927734 67.69004395 137.87011719 68.43188477 C166.61130537 107.82948679 177.39419316 154.22860586 170.24169922 202.31787109 C167.93653931 216.35714194 163.0941035 229.48001205 157.8359375 242.65625 C157.5064209 243.48318359 157.1769043 244.31011719 156.83740234 245.16210938 C155.71414514 247.38340471 154.70312712 248.77500537 152.75 250.3125 C150.37890625 250.0859375 150.37890625 250.0859375 147.75 249.3125 C146.91339844 249.09851563 146.07679688 248.88453125 145.21484375 248.6640625 C144.38082031 248.42429687 143.54679687 248.18453125 142.6875 247.9375 C141.85089844 247.70289063 141.01429688 247.46828125 140.15234375 247.2265625 C137.61604635 246.26153227 135.83249255 245.03428368 133.75 243.3125 C134.33013935 239.6977856 135.31109854 236.95457666 137.0625 233.75 C139.97168398 228.14305529 141.89680942 222.33795765 143.75 216.3125 C142.96625 216.168125 142.1825 216.02375 141.375 215.875 C138.75 215.3125 138.75 215.3125 136.75 214.3125 C136.65234375 208.16015625 136.65234375 208.16015625 136.75 206.3125 C137.08 205.9825 137.41 205.6525 137.75 205.3125 C140.76270588 194.08546325 140.91803018 182.35893158 140.875 170.8125 C140.87886719 169.77480469 140.88273437 168.73710938 140.88671875 167.66796875 C140.87421139 157.62455506 140.43396363 147.71297996 138 137.9375 C137.8244458 137.21908936 137.6488916 136.50067871 137.46801758 135.76049805 C135.03987357 126.14249742 131.91608627 117.28961377 126.9375 108.6875 C123.3644161 101.88711451 123.17923349 96.10133493 123.65698242 88.50341797 C124.00520081 82.45669371 123.05395738 77.90523569 120.75 72.3125 C120.32460938 71.27222656 119.89921875 70.23195313 119.4609375 69.16015625 C114.26120359 58.31977531 107.73589442 50.3865926 96.75 45.3125 C96.06671631 44.96106934 95.38343262 44.60963867 94.67944336 44.24755859 C86.90817369 40.609943 79.14806738 40.77580191 70.75 40.8125 C61.31913807 40.85371122 53.35553528 40.57086663 44.75 36.3125 C16.15760408 25.68154842 -21.99348989 25.10447949 -50.3046875 37.3828125 C-52.24273985 38.26622767 -52.24273985 38.26622767 -53.93823242 39.35571289 C-57.09356896 40.66163367 -59.77332999 40.55189187 -63.18359375 40.55078125 C-64.56967097 40.56622596 -65.95573882 40.58253135 -67.34179688 40.59960938 C-69.50045703 40.6158984 -71.65842352 40.62509667 -73.81713867 40.61791992 C-86.61360858 40.60163754 -97.66474174 42.59226974 -107.76171875 51.17578125 C-109.25 52.3125 -109.25 52.3125 -111.25 52.3125 C-111.25 52.9725 -111.25 53.6325 -111.25 54.3125 C-111.91 54.3125 -112.57 54.3125 -113.25 54.3125 C-113.518125 54.869375 -113.78625 55.42625 -114.0625 56 C-115.35899496 58.52475334 -116.67476323 60.94964484 -118.25 63.3125 C-118.91 63.3125 -119.57 63.3125 -120.25 63.3125 C-120.36214844 63.82941406 -120.47429687 64.34632813 -120.58984375 64.87890625 C-121.25 67.3125 -121.25 67.3125 -122.44140625 70.52734375 C-125.69578909 79.36331767 -128.37431489 88.34698329 -125.5078125 97.74609375 C-125.12720036 101.53491456 -126.93338814 104.06345763 -128.75 107.25 C-132.28854873 113.86145768 -134.8799309 120.53588814 -137.125 127.6875 C-137.41052734 128.58976318 -137.69605469 129.49202637 -137.99023438 130.42163086 C-141.08739952 140.55333446 -142.60073723 150.15814045 -142.9375 160.75 C-142.99393677 162.45808838 -142.99393677 162.45808838 -143.05151367 164.20068359 C-143.45566971 178.69125539 -143.14665987 192.03889063 -138.9921875 205.9921875 C-138.24981309 209.31333618 -138.07819013 211.13837424 -139.25 214.3125 C-142.25 216.3125 -142.25 216.3125 -145.25 216.3125 C-143.04056643 224.3704342 -140.39572723 231.44918347 -136.12890625 238.65625 C-135.25 241.3125 -135.25 241.3125 -136.31640625 244.01171875 C-139.87157954 248.24201586 -144.77492659 249.76248369 -150.0625 250.9375 C-153.44090497 249.97224144 -154.62062387 247.23738641 -156.25 244.3125 C-157.40676602 241.73267183 -158.37090867 239.10238113 -159.3125 236.4375 C-159.55548828 235.76847656 -159.79847656 235.09945312 -160.04882812 234.41015625 C-160.54216669 233.05183947 -161.03073241 231.69178025 -161.51464844 230.33007812 C-161.99078506 229.02370592 -162.48765614 227.72462985 -163.00878906 226.43554688 C-165.34091396 220.62170021 -166.62497002 214.68919013 -167.875 208.5625 C-168.0915625 207.55445313 -168.308125 206.54640625 -168.53125 205.5078125 C-170.82954404 194.41357829 -171.44638972 183.43450736 -171.4375 172.125 C-171.43669434 171.0407373 -171.43588867 169.95647461 -171.43505859 168.83935547 C-171.36727724 159.8669647 -170.64281289 151.16886889 -169.25 142.3125 C-169.09402344 141.26835938 -168.93804687 140.22421875 -168.77734375 139.1484375 C-167.81610822 133.28409302 -166.25627395 127.89270324 -164.25 122.3125 C-163.83878906 121.06597656 -163.42757813 119.81945312 -163.00390625 118.53515625 C-159.59270419 108.29797937 -155.35069967 98.81246148 -150.25 89.3125 C-149.93305176 88.70809082 -149.61610352 88.10368164 -149.28955078 87.48095703 C-144.22992573 77.86793172 -138.09355577 69.69281546 -131.25 61.3125 C-130.68925781 60.52101563 -130.12851562 59.72953125 -129.55078125 58.9140625 C-129.12152344 58.38554688 -128.69226563 57.85703125 -128.25 57.3125 C-127.59 57.3125 -126.93 57.3125 -126.25 57.3125 C-126.023125 56.755625 -125.79625 56.19875 -125.5625 55.625 C-123.87449964 52.65090412 -121.78323483 50.59241135 -119.25 48.3125 C-118.59 48.3125 -117.93 48.3125 -117.25 48.3125 C-117.25 47.6525 -117.25 46.9925 -117.25 46.3125 C-116.59 46.3125 -115.93 46.3125 -115.25 46.3125 C-115.25 45.6525 -115.25 44.9925 -115.25 44.3125 C-113.1328125 42.3671875 -113.1328125 42.3671875 -110.375 40.1875 C-109.47007812 39.46304688 -108.56515625 38.73859375 -107.6328125 37.9921875 C-105.25 36.3125 -105.25 36.3125 -103.25 36.3125 C-103.25 35.6525 -103.25 34.9925 -103.25 34.3125 C-101.75976562 33.11083984 -101.75976562 33.11083984 -99.65625 31.7734375 C-98.88144287 31.27932373 -98.10663574 30.78520996 -97.30834961 30.27612305 C-96.04196655 29.48975464 -96.04196655 29.48975464 -94.75 28.6875 C-93.88576416 28.14843018 -93.02152832 27.60936035 -92.13110352 27.05395508 C-75.97216805 17.10988064 -58.84543852 9.43192957 -40.5 4.5 C-39.78094482 4.30510986 -39.06188965 4.11021973 -38.32104492 3.90942383 C-25.63460529 0.68632098 -13.0149498 -0.06247316 0 0 Z " fill="#FFFFFF" transform="translate(511.25,514.6875)"/>
<path d="M0 0 C7.33310301 2.96169416 15.50223623 4.22346629 23.21484375 5.89453125 C23.63256833 11.04646773 22.49518462 13.88009023 19.83984375 18.26953125 C19.21335937 19.32914063 18.586875 20.38875 17.94140625 21.48046875 C17.37164062 22.27710938 16.801875 23.07375 16.21484375 23.89453125 C15.55484375 23.89453125 14.89484375 23.89453125 14.21484375 23.89453125 C13.94671875 24.49265625 13.67859375 25.09078125 13.40234375 25.70703125 C12.21566969 27.89300979 11.11885262 29.30785719 9.21484375 30.89453125 C8.55484375 30.89453125 7.89484375 30.89453125 7.21484375 30.89453125 C7.21484375 31.55453125 7.21484375 32.21453125 7.21484375 32.89453125 C6.22484375 33.38953125 6.22484375 33.38953125 5.21484375 33.89453125 C8.05447076 40.2732008 13.74231625 44.74867709 19.21484375 48.89453125 C18.67146234 52.98800456 17.45799169 55.3587408 14.90234375 58.58203125 C14.30808594 59.34902344 13.71382813 60.11601563 13.1015625 60.90625 C11.21484375 62.89453125 11.21484375 62.89453125 9.046875 63.9765625 C6.85163989 64.80663665 6.85163989 64.80663665 6.21484375 67.89453125 C4.11722431 69.515419 2.0455038 71.00005969 -0.16015625 72.45703125 C-0.75054687 72.85599609 -1.3409375 73.25496094 -1.94921875 73.66601562 C-3.55602956 74.74988913 -5.17028868 75.82269849 -6.78515625 76.89453125 C-7.77515625 77.55453125 -8.76515625 78.21453125 -9.78515625 78.89453125 C-9.45515625 79.88453125 -9.12515625 80.87453125 -8.78515625 81.89453125 C-8.12515625 81.89453125 -7.46515625 81.89453125 -6.78515625 81.89453125 C-5.1640625 83.5390625 -5.1640625 83.5390625 -3.34765625 85.70703125 C-0.82812089 88.70998729 -0.82812089 88.70998729 1.95703125 91.45703125 C2.37210937 91.93140625 2.7871875 92.40578125 3.21484375 92.89453125 C2.90234375 96.08203125 2.90234375 96.08203125 2.21484375 98.89453125 C1.55484375 98.89453125 0.89484375 98.89453125 0.21484375 98.89453125 C-0.03265625 99.47589844 -0.28015625 100.05726563 -0.53515625 100.65625 C-5.50343904 109.55258138 -17.23195721 115.84450416 -25.78515625 120.89453125 C-25.06328125 121.84714844 -24.34140625 122.79976562 -23.59765625 123.78125 C-22.65953335 125.04771591 -21.72206757 126.31466877 -20.78515625 127.58203125 C-20.30820312 128.20787109 -19.83125 128.83371094 -19.33984375 129.47851562 C-17.25543802 132.32224059 -15.88256206 134.19932114 -15.38671875 137.73828125 C-15.87502998 140.38090673 -16.63199003 141.32106362 -18.78515625 142.89453125 C-19.44515625 142.89453125 -20.10515625 142.89453125 -20.78515625 142.89453125 C-20.78515625 143.55453125 -20.78515625 144.21453125 -20.78515625 144.89453125 C-28.51256709 151.93464834 -41.53587405 159.33203125 -52.28515625 159.33203125 C-53.44015625 159.18765625 -54.59515625 159.04328125 -55.78515625 158.89453125 C-66.78515625 136.27655372 -66.78515625 136.27655372 -66.78515625 127.89453125 C-65.60179687 127.44722656 -64.4184375 126.99992188 -63.19921875 126.5390625 C-54.85816759 123.35803358 -46.63950462 120.17692722 -38.78515625 115.89453125 C-39.91939171 112.82789463 -41.24859935 109.93762419 -42.765625 107.046875 C-43.12462891 106.35916016 -43.48363281 105.67144531 -43.85351562 104.96289062 C-44.60376159 103.53441183 -45.36167856 102.10993738 -46.12695312 100.68945312 C-46.48208984 100.00302734 -46.83722656 99.31660156 -47.203125 98.609375 C-47.69462036 97.68306274 -47.69462036 97.68306274 -48.19604492 96.73803711 C-48.95007709 94.37844452 -48.72633435 93.17033076 -47.78515625 90.89453125 C-44.9765625 89.21875 -44.9765625 89.21875 -41.34765625 87.58203125 C-33.79590778 84.04441454 -26.58246483 80.00471045 -20.78515625 73.89453125 C-21.35621094 73.05148437 -21.92726563 72.2084375 -22.515625 71.33984375 C-24.81940456 67.87858518 -26.98992994 64.3530513 -29.09765625 60.76953125 C-29.65549805 59.85880859 -29.65549805 59.85880859 -30.22460938 58.9296875 C-31.62958435 56.5278867 -32.74423575 54.5138686 -32.9296875 51.70703125 C-31.08002055 48.77786584 -28.15604262 47.55800072 -25.16015625 46.01953125 C-19.76032468 43.11592562 -15.3393877 40.03474166 -10.78515625 35.89453125 C-10.12515625 35.89453125 -9.46515625 35.89453125 -8.78515625 35.89453125 C-10.21302719 32.58479965 -11.96362291 30.58214528 -14.59765625 28.14453125 C-19.15398283 23.67949719 -23.27018175 19.35157745 -24.234375 12.87890625 C-23.78515625 9.89453125 -23.78515625 9.89453125 -21.5546875 7.91796875 C-20.57886719 7.37398437 -19.60304688 6.83 -18.59765625 6.26953125 C-15.58221056 4.54987949 -12.81997847 2.92249069 -10.109375 0.74609375 C-6.05311947 -2.4852762 -4.48502264 -2.07657497 0 0 Z " fill="#FFFFFF" transform="translate(424.78515625,643.10546875)"/>
<path d="M0 0 C7.71873082 -0.12782043 15.43718413 -0.21477585 23.15673828 -0.2746582 C25.77728474 -0.29964803 28.39776261 -0.33365152 31.01806641 -0.37719727 C58.01196729 -0.81424138 58.01196729 -0.81424138 70 5 C99.02886801 14.75215593 131.65857548 10.95253954 160 1 C160.33 0.67 160.66 0.34 161 0 C162.7492872 -0.09365006 164.50236254 -0.11744438 166.25415039 -0.11352539 C167.37523697 -0.11344986 168.49632355 -0.11337433 169.65138245 -0.11329651 C171.48103798 -0.10555458 171.48103798 -0.10555458 173.34765625 -0.09765625 C175.2100016 -0.09553383 175.2100016 -0.09553383 177.10997009 -0.09336853 C180.41605491 -0.08870591 183.72207146 -0.07971497 187.02813721 -0.06866455 C190.3996115 -0.05844827 193.77109283 -0.05387045 197.14257812 -0.04882812 C203.76173775 -0.03777395 210.38086493 -0.02101736 217 0 C217 0.99 217 1.98 217 3 C215.5390625 4.38671875 215.5390625 4.38671875 213.625 5.6875 C212.99851562 6.12449219 212.37203125 6.56148437 211.7265625 7.01171875 C210 8 210 8 208 8 C208 8.66 208 9.32 208 10 C205.81917331 11.49970015 203.65736652 12.85769601 201.375 14.1875 C200.69856445 14.58678711 200.02212891 14.98607422 199.32519531 15.39746094 C192.70304354 19.25858526 185.91397074 22.68896697 179 26 C178.14792969 26.43957031 177.29585937 26.87914062 176.41796875 27.33203125 C167.11616165 31.94631351 157.00551792 34.39371919 147 37 C145.75347656 37.33386719 144.50695312 37.66773438 143.22265625 38.01171875 C120.34929628 43.38289721 92.73090413 42.88367108 70 37 C69.18499023 36.79213867 68.36998047 36.58427734 67.53027344 36.37011719 C56.47321258 33.50347178 46.18230727 30.22875238 36 25 C35.04609375 24.55140625 34.0921875 24.1028125 33.109375 23.640625 C21.58582907 18.15615662 9.72984817 11.31091198 0 3 C0 2.01 0 1.02 0 0 Z " fill="#FFFFFF" transform="translate(404,819)"/>
<path d="M0 0 C0.7321875 0.59941406 1.464375 1.19882812 2.21875 1.81640625 C4.68903147 3.80498284 6.97228367 5.52680089 9.71875 7.12890625 C11.71875 8.37890625 11.71875 8.37890625 12.71875 11.37890625 C10.24170571 17.79670283 6.4776764 22.14201957 1.7421875 27.08203125 C-0.07132654 29.14061476 -1.21269597 30.87412367 -2.28125 33.37890625 C8.80557376 41.52580299 8.80557376 41.52580299 20.71875 48.37890625 C21.03574262 52.48540156 20.38155323 54.44526024 17.96875 57.75390625 C12.38870554 64.98180509 12.38870554 64.98180509 9.71875 73.37890625 C11.56034673 75.86506183 12.72345711 76.38047529 15.71875 77.37890625 C15.71875 78.03890625 15.71875 78.69890625 15.71875 79.37890625 C16.80349609 79.78109375 16.80349609 79.78109375 17.91015625 80.19140625 C20.70062033 81.37124086 23.09820523 82.76244826 25.65625 84.37890625 C29.26410309 86.58999708 32.59438796 88.29354782 36.71875 89.37890625 C37.41502491 95.37831607 35.06223912 99.06188709 32.15625 104.06640625 C31.29167147 105.56509393 30.43574817 107.06881837 29.58984375 108.578125 C29.20755615 109.23643311 28.82526855 109.89474121 28.43139648 110.57299805 C27.42296344 112.56219294 27.42296344 112.56219294 28.71875 115.37890625 C35.23499738 119.15847766 42.05628029 121.14433177 49.26757812 123.17773438 C50.08548828 123.42072266 50.90339844 123.66371094 51.74609375 123.9140625 C52.48593506 124.12426025 53.22577637 124.33445801 53.98803711 124.55102539 C54.84473999 124.96082642 54.84473999 124.96082642 55.71875 125.37890625 C58.24121747 132.94630867 52.05778409 143.23589212 48.71875 150.12890625 C48.38689697 150.83233154 48.05504395 151.53575684 47.71313477 152.26049805 C45.24363972 157.17220425 45.24363972 157.17220425 42.796875 158.13574219 C39.47090032 158.52491874 36.72663607 157.14552528 33.71875 155.87890625 C33.06028076 155.60844482 32.40181152 155.3379834 31.72338867 155.05932617 C24.00975387 151.79654517 16.13055502 147.82969132 9.71875 142.37890625 C9.71875 141.71890625 9.71875 141.05890625 9.71875 140.37890625 C9.079375 140.11078125 8.44 139.84265625 7.78125 139.56640625 C5.71875 138.37890625 5.71875 138.37890625 4.71875 135.37890625 C5.04875 134.38890625 5.37875 133.39890625 5.71875 132.37890625 C6.37875 132.37890625 7.03875 132.37890625 7.71875 132.37890625 C7.945625 131.69828125 8.1725 131.01765625 8.40625 130.31640625 C9.80437547 127.1872683 11.52965901 124.73967248 13.59765625 122.02734375 C14.91007292 120.2583031 14.91007292 120.2583031 15.71875 117.37890625 C15.1721875 117.28351563 14.625625 117.188125 14.0625 117.08984375 C11.07633479 116.1840403 8.83177243 114.70524228 6.21875 113.00390625 C5.2803125 112.39804687 4.341875 111.7921875 3.375 111.16796875 C-1.49047677 107.89092704 -1.49047677 107.89092704 -3.28125 106.37890625 C-3.28125 105.71890625 -3.28125 105.05890625 -3.28125 104.37890625 C-3.920625 104.11078125 -4.56 103.84265625 -5.21875 103.56640625 C-7.28125 102.37890625 -7.28125 102.37890625 -8.28125 99.37890625 C-8.94125 99.37890625 -9.60125 99.37890625 -10.28125 99.37890625 C-12.26125 95.91390625 -12.26125 95.91390625 -14.28125 92.37890625 C-13.1675 91.29609375 -13.1675 91.29609375 -12.03125 90.19140625 C-9.26857731 87.47179578 -9.26857731 87.47179578 -7.09375 84.56640625 C-6.1965625 83.48359375 -6.1965625 83.48359375 -5.28125 82.37890625 C-4.62125 82.37890625 -3.96125 82.37890625 -3.28125 82.37890625 C-1.70851432 79.53642085 -1.70851432 79.53642085 -1.28125 76.37890625 C-3.54206137 74.64260312 -5.81620679 73.00198343 -8.15625 71.37890625 C-24.99976116 59.37003282 -24.99976116 59.37003282 -29.28125 50.37890625 C-28.87309789 47.07677112 -27.7875324 45.54956626 -25.33984375 43.36328125 C-24.75654297 42.83476563 -24.17324219 42.30625 -23.57226562 41.76171875 C-22.96060547 41.22289062 -22.34894531 40.6840625 -21.71875 40.12890625 C-20.79545898 39.29746094 -20.79545898 39.29746094 -19.85351562 38.44921875 C-18.33623325 37.0848408 -16.80962406 35.7308477 -15.28125 34.37890625 C-17.41264126 31.62358207 -19.29252375 29.36993849 -22.03125 27.19140625 C-22.77375 26.59328125 -23.51625 25.99515625 -24.28125 25.37890625 C-24.28125 24.71890625 -24.28125 24.05890625 -24.28125 23.37890625 C-24.94125 23.37890625 -25.60125 23.37890625 -26.28125 23.37890625 C-27.9375 21.11328125 -27.9375 21.11328125 -29.78125 18.12890625 C-30.3896875 17.154375 -30.998125 16.17984375 -31.625 15.17578125 C-35.28125 9.00154776 -35.28125 9.00154776 -35.28125 4.37890625 C-34.09789062 4.05277344 -32.91453125 3.72664062 -31.6953125 3.390625 C-30.55292114 3.07460327 -30.55292114 3.07460327 -29.38745117 2.75219727 C-27.72924943 2.29387898 -26.07055374 1.83734419 -24.41137695 1.38256836 C-19.31817007 -0.02209083 -14.29392399 -1.5345325 -9.32421875 -3.3359375 C-5.57498592 -3.85925298 -2.98221539 -2.11921128 0 0 Z " fill="#FFFFFF" transform="translate(612.28125,645.62109375)"/>
<path d="M0 0 C0.845625 0.804375 1.69125 1.60875 2.5625 2.4375 C6.92468774 6.23973817 11.87612687 8.98229383 16.93188477 11.75170898 C21.8191476 14.52919342 21.8191476 14.52919342 22.77783203 17.02490234 C23 19 23 19 21.6875 20.75 C20 22 20 22 18 22 C18 22.66 18 23.32 18 24 C17.34 24 16.68 24 16 24 C16 24.66 16 25.32 16 26 C14.25 27.6875 14.25 27.6875 12 29 C9.32338902 28.75617916 8.21820172 28.2142163 6.2890625 26.3203125 C-5.09646674 11.29996641 -5.09646674 11.29996641 -4.90625 4.79296875 C-4 2 -4 2 -1.9375 0.625 C-1.298125 0.41875 -0.65875 0.2125 0 0 Z " fill="#FFFFFF" transform="translate(615,787)"/>
<path d="M0 0 C1.0209375 0.433125 1.0209375 0.433125 2.0625 0.875 C1.46079509 5.54494856 -0.52647052 9.29920186 -2.75 13.375 C-3.09353516 14.02597656 -3.43707031 14.67695312 -3.79101562 15.34765625 C-5.85501221 19.18134596 -8.09240263 22.55039184 -10.9375 25.875 C-15.54124894 25.59598491 -18.06972701 23.46142116 -21.484375 20.640625 C-23.28963686 18.44713478 -23.57774697 16.65835235 -23.9375 13.875 C-23.00808594 13.36710938 -22.07867187 12.85921875 -21.12109375 12.3359375 C-13.05335215 7.96730121 -13.05335215 7.96730121 -5.875 2.3125 C-2.9375 -0.125 -2.9375 -0.125 0 0 Z " fill="#FFFFFF" transform="translate(410.9375,789.125)"/>
<path d="M0 0 C15.84 0 31.68 0 48 0 C48 0.33 48 0.66 48 1 C32.16 1 16.32 1 0 1 C0 0.67 0 0.34 0 0 Z " fill="#FA6363" transform="translate(487,0)"/>
<path d="M0 0 C1.4370809 -0.05422947 2.87475462 -0.09289723 4.3125 -0.125 C5.11300781 -0.14820313 5.91351562 -0.17140625 6.73828125 -0.1953125 C9 0 9 0 12 2 C8.04 1.67 4.08 1.34 0 1 C0 0.67 0 0.34 0 0 Z " fill="#FA6060" transform="translate(576,4)"/>
<path d="M0 0 C1.21236328 0.02707031 1.21236328 0.02707031 2.44921875 0.0546875 C3.37154297 0.08949219 3.37154297 0.08949219 4.3125 0.125 C4.3125 0.455 4.3125 0.785 4.3125 1.125 C-1.6275 1.62 -1.6275 1.62 -7.6875 2.125 C-4.48369983 -0.01086678 -3.66810033 -0.10632175 0 0 Z " fill="#FA5B5B" transform="translate(443.6875,3.875)"/>
<path d="M0 0 C4.29 0 8.58 0 13 0 C13 0.33 13 0.66 13 1 C8.71 1 4.42 1 0 1 C0 0.67 0 0.34 0 0 Z " fill="#FF6262" transform="translate(470,1)"/>
<path d="M0 0 C3.96 0 7.92 0 12 0 C12 0.33 12 0.66 12 1 C8.04 1 4.08 1 0 1 C0 0.67 0 0.34 0 0 Z " fill="#F47F7F" transform="translate(541,1)"/>
<path d="M0 0 C2.64 0.33 5.28 0.66 8 1 C5.39417629 1.93065133 4.35801776 2.14917407 1.75 1.0625 C1.1725 0.711875 0.595 0.36125 0 0 Z " fill="#FB7777" transform="translate(627,13)"/>
<path d="M0 0 C2.97 0 5.94 0 9 0 C9 0.33 9 0.66 9 1 C6.03 1 3.06 1 0 1 C0 0.67 0 0.34 0 0 Z " fill="#F95B5B" transform="translate(555,2)"/>
<path d="M0 0 C2.97 0 5.94 0 9 0 C9 0.33 9 0.66 9 1 C6.03 1 3.06 1 0 1 C0 0.67 0 0.34 0 0 Z " fill="#FC7676" transform="translate(460,2)"/>
<path d="M0 0 C2.64 0 5.28 0 8 0 C8 0.33 8 0.66 8 1 C5.36 1 2.72 1 0 1 C0 0.67 0 0.34 0 0 Z " fill="#FF7D7D" transform="translate(566,3)"/>
<path d="M0 0 C2.64 0 5.28 0 8 0 C8 0.33 8 0.66 8 1 C5.36 1 2.72 1 0 1 C0 0.67 0 0.34 0 0 Z " fill="#FF6666" transform="translate(450,3)"/>
<path d="M0 0 C1.98 0 3.96 0 6 0 C6 0.33 6 0.66 6 1 C4.02 1 2.04 1 0 1 C0 0.67 0 0.34 0 0 Z " fill="#FF5E5E" transform="translate(589,6)"/>
<path d="M0 0 C1.98 0 3.96 0 6 0 C6 0.33 6 0.66 6 1 C4.02 1 2.04 1 0 1 C0 0.67 0 0.34 0 0 Z " fill="#F95E5E" transform="translate(429,6)"/>
<path d="M0 0 C1.65 0 3.3 0 5 0 C5 0.33 5 0.66 5 1 C3.35 1 1.7 1 0 1 C0 0.67 0 0.34 0 0 Z " fill="#FD5454" transform="translate(622,12)"/>
<path d="M0 0 C1.65 0 3.3 0 5 0 C5 0.33 5 0.66 5 1 C3.35 1 1.7 1 0 1 C0 0.67 0 0.34 0 0 Z " fill="#FA5353" transform="translate(617,11)"/>
<path d="M0 0 C1.65 0 3.3 0 5 0 C5 0.33 5 0.66 5 1 C3.35 1 1.7 1 0 1 C0 0.67 0 0.34 0 0 Z " fill="#FA5151" transform="translate(612,10)"/>
<path d="M0 0 C1.65 0 3.3 0 5 0 C5 0.33 5 0.66 5 1 C3.35 1 1.7 1 0 1 C0 0.67 0 0.34 0 0 Z " fill="#F75656" transform="translate(407,10)"/>
<path d="M0 0 C1.65 0 3.3 0 5 0 C5 0.33 5 0.66 5 1 C3.35 1 1.7 1 0 1 C0 0.67 0 0.34 0 0 Z " fill="#FC5050" transform="translate(607,9)"/>
<path d="M0 0 C1.65 0 3.3 0 5 0 C5 0.33 5 0.66 5 1 C3.35 1 1.7 1 0 1 C0 0.67 0 0.34 0 0 Z " fill="#FF5858" transform="translate(412,9)"/>
<path d="M0 0 C1.65 0 3.3 0 5 0 C5 0.33 5 0.66 5 1 C3.35 1 1.7 1 0 1 C0 0.67 0 0.34 0 0 Z " fill="#F56868" transform="translate(602,8)"/>
<path d="M0 0 C1.65 0 3.3 0 5 0 C5 0.33 5 0.66 5 1 C3.35 1 1.7 1 0 1 C0 0.67 0 0.34 0 0 Z " fill="#FB6262" transform="translate(417,8)"/>
<path d="M0 0 C1.65 0 3.3 0 5 0 C5 0.33 5 0.66 5 1 C3.35 1 1.7 1 0 1 C0 0.67 0 0.34 0 0 Z " fill="#F66767" transform="translate(596,7)"/>
<path d="M0 0 C1.65 0 3.3 0 5 0 C5 0.33 5 0.66 5 1 C3.35 1 1.7 1 0 1 C0 0.67 0 0.34 0 0 Z " fill="#FF6767" transform="translate(423,7)"/>
<path d="M0 0 C4 1 4 1 4 1 Z " fill="#FD6B6B" transform="translate(660,22)"/>
<path d="M0 0 C4 1 4 1 4 1 Z " fill="#FF4F4F" transform="translate(360,22)"/>
<path d="M0 0 C4 1 4 1 4 1 Z " fill="#FA5F5F" transform="translate(635,15)"/>
<path d="M0 0 C4 1 4 1 4 1 Z " fill="#FA6C6C" transform="translate(385,15)"/>
<path d="M0 0 C4 1 4 1 4 1 Z " fill="#F96767" transform="translate(389,14)"/>
<path d="M0 0 C4 1 4 1 4 1 Z " fill="#F75A5A" transform="translate(393,13)"/>
<path d="M0 0 C4 1 4 1 4 1 Z " fill="#FF5D5D" transform="translate(398,12)"/>
<path d="M0 0 C4 1 4 1 4 1 Z " fill="#FA6868" transform="translate(403,11)"/>
<path d="M0 0 C3 1 3 1 3 1 Z " fill="#FA6161" transform="translate(657,21)"/>
<path d="M0 0 C3 1 3 1 3 1 Z " fill="#FF6262" transform="translate(364,21)"/>
<path d="M0 0 C3 1 3 1 3 1 Z " fill="#F65C5C" transform="translate(654,20)"/>
<path d="M0 0 C3 1 3 1 3 1 Z " fill="#FF4747" transform="translate(367,20)"/>
<path d="M0 0 C3 1 3 1 3 1 Z " fill="#FC6A6A" transform="translate(650,19)"/>
<path d="M0 0 C3 1 3 1 3 1 Z " fill="#FF5F5F" transform="translate(371,19)"/>
<path d="M0 0 C3 1 3 1 3 1 Z " fill="#FC5D5D" transform="translate(647,18)"/>
<path d="M0 0 C3 1 3 1 3 1 Z " fill="#F73B3B" transform="translate(374,18)"/>
<path d="M0 0 C3 1 3 1 3 1 Z " fill="#F86767" transform="translate(643,17)"/>
<path d="M0 0 C3 1 3 1 3 1 Z " fill="#FF5252" transform="translate(378,17)"/>
<path d="M0 0 C3 1 3 1 3 1 Z " fill="#FC6161" transform="translate(640,16)"/>
<path d="M0 0 C3 1 3 1 3 1 Z " fill="#FF5F5F" transform="translate(381,16)"/>
<path d="" fill="#FF6666" transform="translate(0,0)"/>
</svg>
