<?xml version="1.0" encoding="UTF-8"?>
<svg version="1.1" xmlns="http://www.w3.org/2000/svg" width="263" height="265">
<path d="M0 0 C6.11325552 4.63852908 10.9424234 10.71260004 12.3125 18.4375 C13.23157373 31.12778721 13.23157373 31.12778721 9.3125 36.4375 C-2.31995879 49.64191268 -21.33429193 50.91024561 -37.6875 52.4375 C-37.15008179 53.45118652 -37.15008179 53.45118652 -36.60180664 54.48535156 C-34.9800546 57.55038657 -33.36496471 60.61888373 -31.75 63.6875 C-30.90405273 65.28271484 -30.90405273 65.28271484 -30.04101562 66.91015625 C-29.50283203 67.93496094 -28.96464844 68.95976563 -28.41015625 70.015625 C-27.91265869 70.95825195 -27.41516113 71.90087891 -26.90258789 72.87207031 C-24.64988405 77.62823105 -24.77027599 80.83561033 -25.1875 86.0625 C-25.2539135 91.87669987 -24.46918186 94.60402911 -20.5 98.875 C-18.91205992 100.4127682 -17.30897383 101.93513276 -15.6875 103.4375 C-13.18329895 106.14338168 -10.8405965 108.67689024 -10.5078125 112.50390625 C-10.77609356 115.67078922 -11.29442259 117.95371242 -13.3125 120.4375 C-15.5644947 123.71312865 -14.38476123 126.6342569 -13.6875 130.4375 C-12.0375 130.7675 -10.3875 131.0975 -8.6875 131.4375 C-9.0175 132.7575 -9.3475 134.0775 -9.6875 135.4375 C-12.6575 135.7675 -15.6275 136.0975 -18.6875 136.4375 C-18.29369141 137.51233643 -17.89988281 138.58717285 -17.49414062 139.69458008 C-16.035675 143.67914721 -14.5835333 147.6659942 -13.13330078 151.65356445 C-12.50449393 153.37978046 -11.87396895 155.10537161 -11.24169922 156.83032227 C-10.33369815 159.3084382 -9.43187989 161.78872842 -8.53125 164.26953125 C-8.24689087 165.04150345 -7.96253174 165.81347565 -7.66955566 166.60884094 C-6.56153603 169.67623836 -5.6875 172.14956119 -5.6875 175.4375 C-10.6375 175.4375 -15.5875 175.4375 -20.6875 175.4375 C-27.0757148 163.34552198 -28.98567355 148.94765909 -29.6875 135.4375 C-32.9875 135.7675 -36.2875 136.0975 -39.6875 136.4375 C-39.45039307 137.26362793 -39.21328613 138.08975586 -38.96899414 138.94091797 C-38.08066187 142.05149581 -37.20008975 145.16414415 -36.32446289 148.27832031 C-35.94630154 149.61739401 -35.56519257 150.95563936 -35.1809082 152.29296875 C-32.96841327 160.00064342 -31.17504043 167.40469102 -30.6875 175.4375 C-35.3075 175.4375 -39.9275 175.4375 -44.6875 175.4375 C-49.68265331 163.17666915 -50.90328489 150.60037836 -50.6875 137.4375 C-53.9875 137.4375 -57.2875 137.4375 -60.6875 137.4375 C-60.50574219 138.15550781 -60.32398438 138.87351563 -60.13671875 139.61328125 C-58.46465037 146.49877307 -57.1198429 153.38021598 -56 160.375 C-55.86875732 161.1791333 -55.73751465 161.9832666 -55.60229492 162.81176758 C-55.48217041 163.58415771 -55.3620459 164.35654785 -55.23828125 165.15234375 C-55.13169189 165.83417725 -55.02510254 166.51601074 -54.9152832 167.21850586 C-54.63541504 169.9448957 -54.6875 172.69678335 -54.6875 175.4375 C-59.9675 175.4375 -65.2475 175.4375 -70.6875 175.4375 C-70.6875 162.8975 -70.6875 150.3575 -70.6875 137.4375 C-73.9875 137.4375 -77.2875 137.4375 -80.6875 137.4375 C-80.6875 149.9775 -80.6875 162.5175 -80.6875 175.4375 C-85.9675 175.4375 -91.2475 175.4375 -96.6875 175.4375 C-95.65814283 162.939893 -94.29135955 150.710358 -91.6875 138.4375 C-94.6575 138.4375 -97.6275 138.4375 -100.6875 138.4375 C-100.66042969 139.7265625 -100.63335937 141.015625 -100.60546875 142.34375 C-100.60838176 147.30751247 -101.19815838 152.04666506 -102 156.9375 C-102.11794922 157.72769531 -102.23589844 158.51789063 -102.35742188 159.33203125 C-103.25345027 164.94714254 -104.7757075 170.08233894 -106.6875 175.4375 C-111.3075 175.4375 -115.9275 175.4375 -120.6875 175.4375 C-118.82398568 162.0496208 -115.62574662 149.36106657 -111.6875 136.4375 C-114.9875 136.1075 -118.2875 135.7775 -121.6875 135.4375 C-121.70167969 136.15550781 -121.71585938 136.87351563 -121.73046875 137.61328125 C-122.06078528 144.78204279 -123.22228333 151.32766746 -125.0625 158.25 C-125.27156982 159.03737549 -125.48063965 159.82475098 -125.69604492 160.63598633 C-127.08961158 165.69078917 -128.78261993 170.55276369 -130.6875 175.4375 C-135.6375 175.4375 -140.5875 175.4375 -145.6875 175.4375 C-144.11775513 166.89846614 -141.09777686 158.97321818 -138.0625 150.875 C-137.54113074 149.47090201 -137.02029306 148.06660651 -136.5 146.66210938 C-135.2352867 143.25160757 -133.96340226 139.84383417 -132.6875 136.4375 C-135.3275 136.1075 -137.9675 135.7775 -140.6875 135.4375 C-139.54319823 131.56447862 -138.45429902 128.43486561 -135.6875 125.4375 C-135.0275 125.4375 -134.3675 125.4375 -133.6875 125.4375 C-133.88666016 124.54998047 -133.88666016 124.54998047 -134.08984375 123.64453125 C-134.35474609 122.45923828 -134.35474609 122.45923828 -134.625 121.25 C-134.79902344 120.47269531 -134.97304687 119.69539063 -135.15234375 118.89453125 C-135.32894531 118.08371094 -135.50554687 117.27289063 -135.6875 116.4375 C-135.98527344 115.65761719 -136.28304687 114.87773437 -136.58984375 114.07421875 C-136.74772879 109.81132262 -134.02120934 107.52939261 -131.3125 104.4375 C-126.62395334 99.12996987 -126.62395334 99.12996987 -124.6875 92.4375 C-123.4170036 90.39700578 -122.09318804 88.38732535 -120.6875 86.4375 C-122.3375 86.1075 -123.9875 85.7775 -125.6875 85.4375 C-122.10084546 73.62263797 -117.06517723 62.01797835 -110.6875 51.4375 C-111.80125 51.41171875 -112.915 51.3859375 -114.0625 51.359375 C-129.10318954 50.8632181 -145.11379703 49.50008125 -156.58984375 38.63671875 C-160.90695433 33.89297607 -162.01913594 30.21267743 -161.8984375 23.70703125 C-161.07744079 14.87371476 -157.37764046 6.36276093 -150.5078125 0.61328125 C-141.47554853 -5.6667272 -132.46160933 -6.61337631 -121.6875 -5.5625 C-108.9581329 -2.98440033 -97.89643978 4.62409033 -90.6875 15.4375 C-87.12451181 15.18255669 -85.94000125 14.72093834 -83.51953125 12.00390625 C-82.51986328 10.51697266 -82.51986328 10.51697266 -81.5 9 C-77.74897541 3.49897541 -77.74897541 3.49897541 -75.6875 1.4375 C-73.39453125 1.40234375 -73.39453125 1.40234375 -70.6875 2.4375 C-68.71956569 4.60079129 -67.05596261 6.63669108 -65.375 9 C-64.92060547 9.61552734 -64.46621094 10.23105469 -63.99804688 10.86523438 C-62.88225681 12.38035983 -61.78319629 13.90778033 -60.6875 15.4375 C-60.16542969 14.86902344 -59.64335937 14.30054687 -59.10546875 13.71484375 C-43.65890332 -2.48917147 -20.40723355 -13.70635089 0 0 Z " fill="#9737F2" transform="translate(206.6875,47.5625)"/>
<path d="M0 0 C2.98644652 2.80405077 5.88122754 5.68731283 8.73925781 8.62158203 C9.51527344 9.40017578 10.29128906 10.17876953 11.09082031 10.98095703 C21.31968552 21.82110901 28.62336676 35.13859472 34.73925781 48.62158203 C35.02816895 49.25596191 35.31708008 49.8903418 35.61474609 50.54394531 C48.74459477 79.89880583 46.1344476 113.85370665 35.02490234 143.52978516 C33.68445349 146.93323303 32.24794091 150.28963937 30.73925781 153.62158203 C25.46610448 153.17629353 20.72155557 152.5378504 15.73925781 150.62158203 C16.17238281 148.79626953 16.17238281 148.79626953 16.61425781 146.93408203 C17.4964193 142.88386616 18.31625855 138.82609036 19.05175781 134.74658203 C19.25414062 133.65603516 19.45652344 132.56548828 19.66503906 131.44189453 C19.68953125 130.51119141 19.71402344 129.58048828 19.73925781 128.62158203 C19.2378125 128.12400391 18.73636719 127.62642578 18.21972656 127.11376953 C17.73117188 126.62134766 17.24261719 126.12892578 16.73925781 125.62158203 C17.01660156 122.91455078 17.01660156 122.91455078 17.73925781 119.62158203 C19.72293448 96.82154529 20.54177698 73.53899595 10.66503906 52.31298828 C9.24438721 48.18290758 8.93682807 43.94529037 8.42675781 39.62158203 C7.29392362 30.98018587 5.65298574 23.48450973 1.73925781 15.62158203 C1.40539062 14.91904297 1.07152344 14.21650391 0.72753906 13.49267578 C-2.7401095 7.52419517 -8.98958342 4.89204813 -15.26074219 2.62158203 C-20.56584814 1.40807875 -25.89762022 0.89651406 -31.31542969 0.45361328 C-43.16763704 -0.523217 -53.85730391 -2.96748989 -65.14282227 -6.74584961 C-82.17661875 -11.83340773 -102.3271939 -8.88077769 -118.69824219 -2.75341797 C-125.81722805 -0.20106839 -133.78530521 -0.11328041 -141.26074219 0.62158203 C-154.14500919 1.8922198 -161.78762389 4.31097092 -170.53417969 14.04736328 C-174.71016198 20.27354503 -175.7314397 26.80283537 -176.57324219 34.12158203 C-177.6299403 42.14284765 -179.54177747 49.10565291 -182.66308594 56.55517578 C-183.20056516 57.90869835 -183.73253048 59.264416 -184.26074219 60.62158203 C-184.61434814 61.48074219 -184.9679541 62.33990234 -185.33227539 63.22509766 C-189.18073561 73.77911768 -188.74363335 84.15326994 -188.57324219 95.24658203 C-188.56172143 97.16584313 -188.55194503 99.08511553 -188.54394531 101.00439453 C-188.48537114 109.91055409 -188.37188657 118.77159772 -187.26074219 127.62158203 C-188.91074219 127.62158203 -190.56074219 127.62158203 -192.26074219 127.62158203 C-191.82761719 128.53939453 -191.39449219 129.45720703 -190.94824219 130.40283203 C-185.2379718 142.84572822 -185.2379718 142.84572822 -186.26074219 149.62158203 C-188.26074219 152.62158203 -188.26074219 152.62158203 -190.42480469 153.13330078 C-191.64296875 153.2203125 -191.64296875 153.2203125 -192.88574219 153.30908203 C-193.70300781 153.37482422 -194.52027344 153.44056641 -195.36230469 153.50830078 C-195.98878906 153.54568359 -196.61527344 153.58306641 -197.26074219 153.62158203 C-212.49887423 126.20806904 -216.8974042 92.88280568 -208.65869141 62.39355469 C-207.18567878 57.6567433 -205.30511586 53.13662254 -203.26074219 48.62158203 C-202.97070312 47.96351562 -202.68066406 47.30544922 -202.38183594 46.62744141 C-195.35949063 30.89556394 -185.21465352 17.92098213 -173.26074219 5.62158203 C-172.73375732 5.06470703 -172.20677246 4.50783203 -171.66381836 3.93408203 C-167.47482373 -0.40539047 -163.0345154 -3.96063939 -158.07324219 -7.37841797 C-156.95187866 -8.15596436 -156.95187866 -8.15596436 -155.80786133 -8.94921875 C-108.65528048 -41.34288483 -43.10673695 -38.91376083 0 0 Z " fill="#9437EE" transform="translate(215.2607421875,36.37841796875)"/>
<path d="M0 0 C2.01882674 -0.00961117 4.03659105 -0.04065578 6.05517578 -0.07226562 C17.63990911 -0.11756273 27.95895556 1.78230234 39.11376953 4.92773438 C55.3521514 8.62636703 71.39155638 6.05785629 87.37939453 2.43164062 C96.79010319 0.35741135 106.00164533 0.08042886 115.61376953 0.11523438 C116.685625 0.11136719 117.75748047 0.1075 118.86181641 0.10351562 C125.00859413 0.11103462 130.95696533 0.43448167 137.05126953 1.24023438 C131.37679679 13.38954625 110.83370036 19.87966581 98.85717773 24.29199219 C67.03702476 35.52586918 32.27262268 31.5100449 2.17626953 17.36523438 C-17.06530042 8.07174558 -17.06530042 8.07174558 -19.94873047 1.24023438 C-13.26525329 0.17811491 -6.75619229 0.01934486 0 0 Z " fill="#9536F2" transform="translate(72.94873046875,230.759765625)"/>
<path d="M0 0 C2.91619713 0.97782439 5.80155184 2.00073956 8.671875 3.10546875 C9.85566176 7.93926467 9.19344708 10.86349298 6.671875 15.10546875 C4.87464418 17.46059828 3.02663899 19.74370451 1.09765625 21.9921875 C-0.70098408 24.23323803 -0.70098408 24.23323803 -0.328125 28.10546875 C1.10363007 29.7332379 2.6770222 30.98463893 4.359375 32.34765625 C5.671875 34.10546875 5.671875 34.10546875 6.25 36.921875 C5.41543822 41.5176037 2.91568544 43.26892904 -0.578125 46.16796875 C-7.62519895 51.94949962 -7.62519895 51.94949962 -12.29296875 59.6171875 C-12.34156752 63.0569001 -11.09099202 64.33157243 -8.890625 66.91796875 C-8.23191406 67.70816406 -7.57320312 68.49835938 -6.89453125 69.3125 C-6.37761719 69.90417969 -5.86070313 70.49585938 -5.328125 71.10546875 C-8.72108183 79.30822154 -17.46549198 84.7565695 -25.328125 88.10546875 C-24.58755859 89.10126953 -24.58755859 89.10126953 -23.83203125 90.1171875 C-23.19136719 91.00019531 -22.55070312 91.88320312 -21.890625 92.79296875 C-21.25253906 93.66308594 -20.61445312 94.53320312 -19.95703125 95.4296875 C-18.33840851 98.08857617 -17.7197288 100.04434044 -17.328125 103.10546875 C-26.09053876 111.59864633 -35.9093145 117.10546875 -48.328125 117.10546875 C-49.51127562 114.59127367 -50.67450785 112.07068201 -51.828125 109.54296875 C-52.16199219 108.83849609 -52.49585938 108.13402344 -52.83984375 107.40820312 C-54.96229442 102.70849093 -55.70741058 99.25968881 -55.328125 94.10546875 C-53.50313037 93.11084668 -51.66761397 92.13552174 -49.828125 91.16796875 C-48.29671875 90.35005859 -48.29671875 90.35005859 -46.734375 89.515625 C-42.78726374 87.88155715 -39.56688321 87.46944907 -35.328125 87.10546875 C-35.84503906 85.91308594 -36.36195312 84.72070312 -36.89453125 83.4921875 C-37.56039772 81.92599453 -38.2257349 80.35957646 -38.890625 78.79296875 C-39.23287109 78.00728516 -39.57511719 77.22160156 -39.92773438 76.41210938 C-40.24677734 75.65478516 -40.56582031 74.89746094 -40.89453125 74.1171875 C-41.19302979 73.42069092 -41.49152832 72.72419434 -41.79907227 72.0065918 C-42.328125 70.10546875 -42.328125 70.10546875 -41.328125 67.10546875 C-39.68579102 65.75512695 -39.68579102 65.75512695 -37.58203125 64.40625 C-36.82728516 63.91962891 -36.07253906 63.43300781 -35.29492188 62.93164062 C-34.50150391 62.43212891 -33.70808594 61.93261719 -32.890625 61.41796875 C-32.10107422 60.90685547 -31.31152344 60.39574219 -30.49804688 59.86914062 C-24.60380507 56.10546875 -24.60380507 56.10546875 -22.328125 56.10546875 C-26.783125 46.70046875 -26.783125 46.70046875 -31.328125 37.10546875 C-20.88828125 29.4328125 -20.88828125 29.4328125 -17.52734375 27.46875 C-15.20422989 26.29483439 -15.20422989 26.29483439 -14.328125 24.10546875 C-15.4109375 23.39390625 -15.4109375 23.39390625 -16.515625 22.66796875 C-20.20330811 19.3080797 -22.92119425 15.95421315 -24.328125 11.10546875 C-23.52374465 6.59156738 -21.33268054 3.84692641 -17.703125 1.16796875 C-16.919375 0.81734375 -16.135625 0.46671875 -15.328125 0.10546875 C-10.6460299 -2.2355788 -4.88338757 -1.3125537 0 0 Z " fill="#9537EF" transform="translate(73.328125,100.89453125)"/>
<path d="M0 0 C0.495 0.495 0.495 0.495 1 1 C0.67891253 7.20769101 -0.6586656 10.79144932 -4 16 C-4.86625 17.4540625 -4.86625 17.4540625 -5.75 18.9375 C-6.1625 19.618125 -6.575 20.29875 -7 21 C-6.29488281 21.24492187 -5.58976562 21.48984375 -4.86328125 21.7421875 C-1.60236963 23.17467528 0.96134115 24.99521869 3.8125 27.125 C4.78832031 27.84945312 5.76414063 28.57390625 6.76953125 29.3203125 C7.50558594 29.87460938 8.24164063 30.42890625 9 31 C8.21232408 32.93912584 7.4197133 34.87624766 6.625 36.8125 C6.18414062 37.89144531 5.74328125 38.97039062 5.2890625 40.08203125 C4 43 4 43 2 46 C1.50520833 48.5 1.50520833 48.5 2 51 C3.63829821 52.73752774 3.63829821 52.73752774 5.9375 54 C6.74960938 54.49757812 7.56171875 54.99515625 8.3984375 55.5078125 C9.25695312 56.00023437 10.11546875 56.49265625 11 57 C11.85851562 57.49242187 12.71703125 57.98484375 13.6015625 58.4921875 C15.72303492 59.68425296 17.85374795 60.85330268 20 62 C19.71125 63.12019531 19.4225 64.24039063 19.125 65.39453125 C18.74981309 66.86713989 18.37482335 68.33979878 18 69.8125 C17.71382812 70.91948242 17.71382812 70.91948242 17.421875 72.04882812 C16.64737086 75.10535341 16 77.83373478 16 81 C17.87383903 81.79441072 19.74912886 82.58539974 21.625 83.375 C22.66914063 83.81585938 23.71328125 84.25671875 24.7890625 84.7109375 C27.82903202 85.93136322 30.88205905 86.9981391 34 88 C33.38574623 93.7926463 31.84466956 98.94609066 29.9375 104.4375 C29.65583984 105.26443359 29.37417969 106.09136719 29.08398438 106.94335938 C28.39482208 108.96412338 27.6981769 110.98233282 27 113 C15.00706116 111.32152001 6.19017472 105.66982483 -3 98 C-1.35433477 92.31497465 1.29032784 87.23318364 4 82 C2.90171875 81.58814453 2.90171875 81.58814453 1.78125 81.16796875 C-6.67844108 77.61537376 -12.15223359 72.69553283 -16.25 64.5 C-15.86889066 60.68890659 -13.32226485 59.12219361 -10.46875 56.74609375 C-8.81768476 55.13605014 -8.81768476 55.13605014 -8.88671875 53.09375 C-10.59544802 49.88013987 -13.40637043 48.12298058 -16.3125 46.0625 C-22.38337592 41.71271404 -26.1379914 38.1550215 -29 31 C-25.7 27.04 -22.4 23.08 -19 19 C-21.15670788 17.38246909 -23.31738347 15.76989698 -25.5 14.1875 C-31.0391564 9.34073815 -32.5111987 5.08761885 -33 -2 C-21.59567643 -6.11176292 -10.09577201 -8.23602454 0 0 Z " fill="#9436ED" transform="translate(213,107)"/>
<path d="M0 0 C1.30078125 2.140625 1.30078125 2.140625 2 4 C-2.49084025 9.36003514 -7.48748145 11.43973455 -14.4284668 12.30151367 C-16.91887726 12.43639325 -19.38120501 12.46687275 -21.875 12.4375 C-23.18283447 12.43049072 -23.18283447 12.43049072 -24.51708984 12.42333984 C-31.8647468 12.25513552 -39.57522337 11.42477663 -45 6 C-45.125 2.875 -45.125 2.875 -45 0 C-43.75108386 -0.48198463 -42.50081192 -0.96045677 -41.25 -1.4375 C-40.55390625 -1.70433594 -39.8578125 -1.97117187 -39.140625 -2.24609375 C-27.96085115 -6.18349585 -10.34379577 -6.2877858 0 0 Z " fill="#29212F" transform="translate(154,125)"/>
<path d="M0 0 C2.12865091 1.50257711 2.84148218 2.86928846 3.79296875 5.265625 C2.42422395 6.23287132 1.04761271 7.1889894 -0.33203125 8.140625 C-1.48058594 8.94113281 -1.48058594 8.94113281 -2.65234375 9.7578125 C-10.93340361 14.64541052 -22.07657072 14.81403678 -31.35888672 12.79833984 C-36.67095842 11.27276289 -41.60829149 9.33145151 -46.20703125 6.265625 C-45.20703125 3.265625 -45.20703125 3.265625 -43.02734375 1.9140625 C-42.13789062 1.49382812 -41.2484375 1.07359375 -40.33203125 0.640625 C-39.00558594 0.00253906 -39.00558594 0.00253906 -37.65234375 -0.6484375 C-27.08321645 -5.3420755 -10.5317739 -4.32953838 0 0 Z " fill="#292231" transform="translate(152.20703125,145.734375)"/>
<path d="M0 0 C-0.30467192 2.81821529 -0.5923442 4.54138723 -2.5 6.6875 C-9.3999725 10.30998556 -17.30760818 10.36441028 -24.9375 10.375 C-26.32485352 10.41173828 -26.32485352 10.41173828 -27.74023438 10.44921875 C-35.78417121 10.48304049 -42.29925612 8.46716259 -49 4 C-48.67 2.35 -48.34 0.7 -48 -1 C-32.22948585 -6.21031736 -15.22299346 -7.99380935 0 0 Z " fill="#292130" transform="translate(156,105)"/>
<path d="M0 0 C2.25073149 1.22182567 3.56864647 2.21395384 5.1875 4.1875 C6.11884873 8.59252778 5.52232503 12.38087607 3.8125 16.5 C-0.79030234 21.21239288 -5.81628887 22.98268733 -12.35546875 23.4296875 C-15.51902144 23.43658729 -18.65439757 23.36570014 -21.8125 23.1875 C-23.9639936 19.33274064 -25.46594814 16.61787839 -24.8125 12.1875 C-22.765625 9.36328125 -22.765625 9.36328125 -20.0625 6.5 C-19.18078125 5.54738281 -18.2990625 4.59476563 -17.390625 3.61328125 C-12.15509402 -1.31287745 -6.83767821 -1.97532926 0 0 Z " fill="#28222E" transform="translate(176.8125,57.8125)"/>
<path d="M0 0 C5.44030984 2.20203017 10.38246295 7.7649259 13 13 C13.45442765 19.24838013 13.45442765 19.24838013 11.97265625 21.69921875 C8.90449535 23.72238227 5.73656604 23.43291767 2.1875 23.375 C1.48818359 23.38660156 0.78886719 23.39820312 0.06835938 23.41015625 C-4.66162802 23.38360814 -7.89161466 22.55024216 -12 20 C-15.98415302 15.70130858 -16.67817101 11.95184876 -16.46484375 6.27734375 C-16 4 -16 4 -13.625 1.4375 C-8.61882106 -1.30397894 -5.57968347 -1.06140576 0 0 Z " fill="#26212B" transform="translate(99,58)"/>
<path d="M0 0 C4.19850354 1.53391655 7.99037731 3.58257859 11.8125 5.875 C12.7087207 6.38353516 12.7087207 6.38353516 13.62304688 6.90234375 C15.33203125 7.9296875 15.33203125 7.9296875 18 10 C18 14.36795404 17.77237852 14.74658993 15 17.75 C14.443125 18.36359375 13.88625 18.9771875 13.3125 19.609375 C12.879375 20.06828125 12.44625 20.5271875 12 21 C8.74590776 20.69703279 7.3308075 20.33992424 5.015625 17.9609375 C-1 9.15044248 -1 9.15044248 -1 3 C-0.67 2.01 -0.34 1.02 0 0 Z " fill="#8933DB" transform="translate(206,208)"/>
<path d="M0 0 C-1.78529455 6.76532673 -4.49937851 11.65460165 -9 17 C-10.29858939 16.43224464 -11.58870441 15.84508337 -12.875 15.25 C-13.59429687 14.92515625 -14.31359375 14.6003125 -15.0546875 14.265625 C-17.3370674 12.78070314 -18.00375898 11.49584592 -19 9 C-16.77949536 7.48560983 -14.55009771 5.98875132 -12.3125 4.5 C-11.68666016 4.07074219 -11.06082031 3.64148438 -10.41601562 3.19921875 C-6.83611282 0.83760748 -4.45148399 -0.6128238 0 0 Z " fill="#8934DB" transform="translate(57,210)"/>
<path d="M0 0 C0.66 0.33 1.32 0.66 2 1 C1.34 1.66 0.68 2.32 0 3 C-0.0928125 4.794375 -0.0928125 4.794375 -0.1875 6.625 C-0.69206378 12.13483653 -4.20040412 15.26984843 -8 19 C-8.33 18.34 -8.66 17.68 -9 17 C-9.50789063 17.33773437 -10.01578125 17.67546875 -10.5390625 18.0234375 C-14.59911488 20.65410814 -18.287806 22.70414665 -23 24 C-19.25278781 18.53977652 -15.04709377 13.85437574 -10.375 9.1875 C-9.81272705 8.62458252 -9.2504541 8.06166504 -8.67114258 7.48168945 C-5.91509964 4.76158247 -3.19025274 2.21761471 0 0 Z " fill="#8934DB" transform="translate(53,32)"/>
<path d="M0 0 C0.99 0.33 1.98 0.66 3 1 C-0.465 3.97 -0.465 3.97 -4 7 C-2.92598892 4.08482708 -2.22189824 2.22189824 0 0 Z " fill="#7931BE" transform="translate(55,102)"/>
</svg>
