<?xml version="1.0" encoding="utf-8"?>
<!-- Generator: Adobe Illustrator 19.0.0, SVG Export Plug-In . SVG Version: 6.00 Build 0)  -->
<svg version="1.1" xmlns="http://www.w3.org/2000/svg" xmlns:xlink="http://www.w3.org/1999/xlink" x="0px" y="0px"
	 viewBox="0 0 27.8 32.9" style="enable-background:new 0 0 27.8 32.9;" xml:space="preserve">
<style type="text/css">
	.st0{display:none;}
	.st1{display:inline;fill:#020202;}
	.st2{fill:#FFFFFF;}
</style>
<g id="レイヤー_2" class="st0">
	<rect class="st1" width="27.8" height="32.9"/>
</g>
<g id="レイヤー_1">
	<g>
		<path class="st2" d="M11.5,25.4c0,0,0,4,0,7c-1.5,0-6.3,0.1-11.2,0c0-3-0.3-18.6-0.1-32.1C4.4-0.1,15,0.1,15,0.1
			C22.5,0,26.2,6.8,26.2,12c-0.1,4.5-1.5,10.7-7.3,12.5C18.8,24.5,15,25.6,11.5,25.4z M11.7,20.7c3,0.8,5-0.4,5.3-3
			c0.4-3.3-2.6-4.2-5.3-2.5V20.7z"/>
	</g>
</g>
</svg>
