<?xml version="1.0" encoding="utf-8"?>
<!-- Generator: Adobe Illustrator 19.0.0, SVG Export Plug-In . SVG Version: 6.00 Build 0)  -->
<svg version="1.1" id="レイヤー_1" xmlns="http://www.w3.org/2000/svg" xmlns:xlink="http://www.w3.org/1999/xlink" x="0px"
	 y="0px" viewBox="0 0 38 800" style="enable-background:new 0 0 38 800;" xml:space="preserve">
<g>
	<path id="XMLID_1_" d="M0,800c26.6-20.9,22.4-69.8,19.3-86.1c-4.7-24.5-15.5-50.2-7-74.7c5.5-16,9.1-46.6,15.8-62.4
		c12-28.3,14.3-56.6,0.2-84.8c-20.5-41-22.8-82.5-13.4-124.5c5.9-26.5,4.7-52.7-6.3-78.7c-8.7-20.7-9.9-41.4,0.1-62.1
		c13.8-28.5,13.4-57.1,0.8-85.7C-1.2,116.7-1.8,92.2,6.2,67.5c3.4-10.5,4.4-20,4.4-32.2S0,0,0,0V800z"/>
</g>
</svg>
