<?xml version="1.0" encoding="utf-8"?>
<!-- Generator: Adobe Illustrator 19.0.0, SVG Export Plug-In . SVG Version: 6.00 Build 0)  -->
<svg version="1.1" id="レイヤー_1" xmlns="http://www.w3.org/2000/svg" xmlns:xlink="http://www.w3.org/1999/xlink" x="0px"
	 y="0px" viewBox="0 0 192 126" style="enable-background:new 0 0 192 126;" xml:space="preserve">
<style type="text/css">
	.st0{fill-rule:evenodd;clip-rule:evenodd;fill:#DDFF25;}
</style>
<g id="XMLID_81_">
	<g id="XMLID_82_">
		<path id="XMLID_83_" class="st0" d="M186,56.1c-1.1-0.8-2.6-1.2-4.2-1.2c-1.4,0-2.9,0.3-4.4,0.9c-2.9,1.1-5.6,1.6-7.8,1.6
			c-2.2,0-4.1-0.5-5.6-1.5c-1.2-0.8-2.6-2.6-2-4.1c0.3-0.6,1-1.4,3-1.6c2.1-0.3,2.8-1.1,2.7-1.6c-0.1-0.5-0.7-1-1.9-1
			c-0.9,0-1.9,0.3-3,0.8c-0.5,0.2-1,0.3-1.5,0.3c-1.2,0-2.3-0.7-2.4-1.5c-0.1-0.6,0.5-1.4,2.2-1.6c3.6-0.4,8.2-2,9-3.4
			c0.2-0.5,0.1-0.9-0.4-1.3c-0.6-0.5-1.1-0.7-1.8-0.7c-1.3,0-2.9,1-4.5,1.9c-1.3,0.8-2.5,1.5-3.8,1.8c-0.6,0.1-1.2,0.2-1.8,0.2
			c-1.3,0-2.5-0.3-3.1-0.9c-0.5-0.4-0.9-1.1-0.4-2.3c1.3-3.3,9.6-6,14.6-7.7c1.1-0.4,2.1-0.7,2.8-1c1.5-0.6,2.2-1.3,2-1.9
			c-0.3-0.7-1.5-1.2-2.6-1.2c-0.5,0-1.2,0.1-1.6,0.6c-2.1,2.4-11.3,6.8-16.8,8c-0.4,0.1-0.9,0.2-1.3,0.2c-1.1,0-2.2-0.4-2.8-1
			c-0.6-0.6-0.6-1.5-0.1-2.2c0.9-1.3,2.3-1.8,3.6-2.2c1.4-0.5,2.6-0.9,3-2.1c0.2-0.5,0.1-1-0.3-1.4c-0.4-0.4-1.2-0.6-2-0.6
			c-0.4,0-0.8,0-1.2,0.1c-1.6,0.3-2.1,0.9-2.8,1.7c-0.5,0.6-1.2,1.3-2.4,2c-0.6,0.3-1.4,0.5-2.4,0.5c-1.7,0-3.5-0.5-4.6-1.3
			c-0.9-0.7-1.4-1.5-1.4-2.5c0.2-2.9,7.1-9.6,10.1-11.3c2-1.1,2.1-2.4,1.7-3.3c-0.3-0.6-1-1-1.7-1c-1.4,0-2.8,1.2-4,3.2
			c-3.8,6.6-6.5,11-10.3,11c-0.6,0-1.2-0.1-1.8-0.3c-2.6-0.9-2-2.6-1.2-4.5l0.1-0.2c0.4-1,0.3-1.7-0.2-2.1c-0.4-0.4-1-0.4-1.5-0.4
			c-1.3,0-2.8,0.6-3.7,1.4c-1.4,1.3-3.4,2-5.7,2c-2.4,0-4.7-0.8-5.8-2.1c-1.9-2.1,0.4-5.8,2.1-8.6l0.2-0.4c0.6-0.9,0.6-1.7,0-2.2
			c-0.4-0.4-1-0.6-1.7-0.6c-0.6,0-1.1,0.2-1.5,0.4c-0.5,0.4-0.7,0.9-0.6,1.6c0.4,3.8,0,7.9-6.1,9.2c-1.2,0.3-2.4,0.4-3.5,0.4
			c-2.4,0-3.8-0.7-4.5-1.3c-1.1-0.8-1.6-2-1.3-3.1c0.1-0.6-0.1-1.2-0.7-1.6c-0.7-0.5-1.7-0.8-2.7-0.8c-0.9,0-1.7,0.2-2.3,0.6
			c-0.7,0.5-1,1.2-1,2c0.1,3.6-3.1,4.6-5.9,5.1c-0.9,0.2-1.9,0.2-2.8,0.2c-3.4,0-5.4-1.1-5.7-3c-0.3-2-1.1-3.3-2.1-3.3
			c-0.1,0-0.2,0-0.3,0c-0.9,0.2-0.9,0.7-0.3,2.4c0.1,0.3,0.2,0.7,0.4,1.1c0.4,1.4,1.2,4.4-2.9,5.4c-0.8,0.2-1.4,0.3-2,0.3
			c-2.5,0-3.8-1.5-5.2-4.2c-1.4-2.6-3.6-6.9-7.9-6.9c-1.4,0-2.9,0.4-4.6,1.3c-2,1-3,2.5-3.1,4.3c-0.1,2.9,2.5,6.1,6.7,8.5
			c2.7,1.5,2.8,3,2.7,3.8c-0.2,0.9-1,1.7-2.1,2.1c-0.5,0.1-0.9,0.2-1.4,0.2c-1.9,0-3.3-1.2-4.1-2.1c-2.7-2.8-5.2-4.2-7.3-4.2
			c-0.4,0-0.9,0.1-1.3,0.2c-0.9,0.3-1.4,0.7-1.4,1.2c0,1.1,2.2,2.9,7,4.4c3.1,0.9,4.7,2.4,4.8,4.4c0,0.8-0.5,1.6-1.4,2.2
			c-0.7,0.5-1.6,0.8-2.4,0.8c-0.8,0-1.9-0.2-2.7-1.3c-0.1-0.1-0.2-0.2-0.2-0.3c-1.1-1.4-2.5-3-5.2-3c-0.2,0-0.5,0-0.7,0
			c-2.2,0.2-3.8,1.2-3.8,2.4c-0.1,1.3,1.5,2.9,6.3,3.7c1.6,0.3,2.6,0.8,3.1,1.7c0.9,1.5-0.3,3.5-1.2,4.5l-0.1,0.2
			c-0.9,1-2.7,2.9-5.5,2.9c-0.6,0-1.2-0.1-1.8-0.3c-1-0.3-2.2-0.8-3.3-1.2c-1.7-0.7-3.5-1.4-4.5-1.4c-0.4,0-0.7,0.1-0.8,0.4
			c-0.4,0.6-0.3,1.1,0.1,1.5c0.9,1,3.6,1.6,7.1,1.6c1.3,0,2.4,0.5,3.1,1.3c0.9,1.1,1,2.6,0.2,3.7c-0.7,0.9-1.5,1.4-2.7,1.4
			c-0.9,0-1.8-0.3-2.7-0.6c-0.8-0.3-1.6-0.6-2.3-0.6c-0.5,0-0.9,0.1-1.3,0.4c-0.6,0.5-0.8,1.1-0.4,1.7c0.5,0.8,2.1,1.3,4.3,1.3
			c0.2,0,0.5,0,0.7,0c0,0,0.1,0,0.1,0c1.3,0,2.1,0.9,2.1,1.7c0,0.8-0.8,1.7-2.6,1.7c-0.8,0-1.7-0.2-2.8-0.5
			c-1.6-0.5-3.7-1.3-5.9-2.2c-4.4-1.7-9.9-3.8-13.5-4.5c-0.9-0.2-1.9-0.3-2.8-0.3c-4.2,0-7.3,1.8-7.7,3.4c-0.6,2.2,0.9,3.7,3.9,4.2
			c1.2,0.2,2.4,0.3,3.6,0.3c1.7,0,3.3-0.2,4.9-0.4c1.6-0.2,3.2-0.4,4.9-0.4c1.4,0,2.8,0.1,4.1,0.4c3,0.6,3.3,1.4,3.2,1.8
			c-0.1,0.5-0.8,0.9-1.8,0.9c-1.2,0-2.1,0.3-2.5,0.8c-0.4,0.5-0.1,1.2,0.7,1.8c0.5,0.4,1.2,0.6,2.3,0.6c1.7,0,4.1-0.5,7.5-1.3
			c0.9-0.2,1.8-0.4,2.8-0.6c0.4-0.1,0.7-0.1,1.1-0.1c1.5,0,2.7,0.8,2.8,2c0.1,1.1-0.8,2.3-2.8,2.4c-1.3,0.1-3.1,0.2-5,0.4
			c-3,0.2-6.2,0.5-7.7,0.5c-3.1,0.2-5.6,0.9-6.4,1.8c-0.3,0.3-0.3,0.7,0,1c0.5,0.8,1.4,1.2,2.7,1.2c1.2,0,2.7-0.3,4.3-1
			c3-1.2,10.3-2.7,13.7-2.8c0.1,0,0.2,0,0.3,0c3.1,0,5.1,2.1,5.3,4c0.2,1.7-0.9,3-2.7,3.2c-0.3,0-0.5,0-0.8,0
			c-0.7,0-1.4-0.1-2.2-0.2c-0.7-0.1-1.5-0.2-2.2-0.2c-1.1,0-1.9,0.2-2.5,0.6c-0.8,0.5-1.1,1.5-0.7,2.4c0.2,0.5,0.8,1.1,2.1,1.2
			c0.5,0.1,1,0.1,1.4,0.1c1.5,0,2.2-0.4,3-0.8c0.7-0.4,1.6-0.8,3-0.9c0.1,0,0.2,0,0.3,0c2,0,3,0.7,3,1.5c0,0.9-1.2,1.9-3.7,2
			c-3.2,0.2-5.7,0.8-6.4,1.6c-0.3,0.3-0.2,0.7,0.1,1.1c0.4,0.5,0.8,0.6,1.2,0.6c0.8,0,1.9-0.4,3-0.8c0.6-0.2,1.2-0.5,1.9-0.7
			c0.6-0.2,1.2-0.3,1.9-0.3c2.3,0,3.9,1.1,4.5,2.2c0.5,0.9,0.5,1.8-0.1,2.6c-0.7,0.9-2,1.6-3.7,1.9c-0.7,0.1-1.8,0.3-3.1,0.5
			c-3.5,0.5-8.3,1.1-10.5,2.2c-3.3,1.6-4.5,4-2.9,5.7c1.6,1.7,3.9,2.1,5.5,2.1c2.4,0,4.9-0.8,6.1-2c3.1-3.1,8-6.3,11.1-7.2
			c0.4-0.1,0.9-0.2,1.3-0.2c2.1,0,4.2,1.4,4.5,2.7c0.2,0.7-0.2,1.3-1.2,1.6c-2,0.5-3.3,1.4-3.6,2.4c-0.2,0.7,0.1,1.5,1.1,2.1
			c0.6,0.4,1.3,0.6,2,0.6c1.9,0,3.7-1,4.2-1.5c0.9-1,1.8-1.2,2.4-1.2c1,0,1.7,0.6,1.9,1.6c0.4,2-2.1,4.1-4.3,6
			c-1.1,0.9-2.1,1.8-2.7,2.5c-0.8,1-0.4,1.7-0.1,2c0.4,0.5,1.2,0.8,1.9,0.8c0.5,0,1-0.2,1.4-0.5c2-1.6,3.1-4.1,4-6.3
			c0.6-1.4,1.1-2.6,1.8-3.5c0.8-0.9,2.4-1.5,4.2-1.5c2,0,4.3,0.8,4.5,2.5c0.3,2.4,0.9,3,2.6,3c0.3,0,0.7,0,1.1-0.1
			c0.2,0,0.3,0,0.5,0c0.7,0,1.4,0.2,1.9,0.6c2,1.7,1.2,6.3,0.9,7.4c-0.1,0.2-0.2,0.6-0.4,1c-0.6,1.7-2,5.2-0.6,6.5
			c0.3,0.3,0.8,0.4,1.5,0.4c0.1,0,0.2,0,0.3,0c1-0.1,1.7-0.3,2.1-0.7c1.2-1.1,0.5-3.3-0.1-5.4c-0.2-0.8-0.5-1.6-0.6-2.4
			c-0.5-3.1-0.3-4.8,0.6-5.5c0.3-0.3,0.8-0.4,1.3-0.4c0.1,0,0.1,0,0.2,0c0.9,0,1.8,0.2,2.4,0.7c0.7,0.5,1.6,1.5,1.5,3.6
			c-0.1,1.8,0.6,2.7,1.2,3.1c0.4,0.3,1,0.5,1.6,0.5c0.1,0,0.2,0,0.4,0c0.5,0,0.9-0.3,1.2-0.6c0.6-0.8,0.5-1.9,0.1-2.3
			c-0.8-1-2.3-4.2-1.1-6.3c0.9-1.5,3.1-2.6,5.5-2.6c1,0,1.9,0.2,2.7,0.6c1.4,0.6,1.9,1.6,2.4,2.4c0.7,1.2,1.2,2.1,3.8,2.1
			c0,0,0.1,0,0.1,0c2.1,0,2.6-0.7,3.3-1.6c0.7-0.9,1.5-2,4.1-2.4c0.4-0.1,0.8-0.1,1.2-0.1c3.5,0,6.3,2.2,7.9,6.3c0.7,1.7,1.9,5,4,5
			c0.2,0,0.4,0,0.6-0.1c0.9-0.2,1.5-0.5,1.7-0.9c0.5-0.9-0.2-2.5-2.1-5c-3.6-4.7-3.4-7.4,0.5-9.4c1.2-0.6,2.6-0.9,4-0.9
			c3.3,0,6.3,1.6,7.3,3.8c0.6,1.3,1.8,2,3.2,2c1,0,1.9-0.4,2.3-1c0.4-0.7,0-1.6-1.3-2.5c-1.6-1.1-3.2-3.8-2.3-5.4
			c0.3-0.5,1.1-1.1,2.7-1.1c0.1,0,0.1,0,0.2,0c4,0.1,7.7,3.8,10.1,6.3c0.4,0.4,0.8,0.8,1.2,1.2c0.2,0.2,0.5,0.4,0.7,0.7
			c1.5,1.5,4.1,4,5.4,4c0.1,0,0.2,0,0.2,0c0.5-0.2,0.7-0.6,0.8-1c0.1-0.6-0.2-2.3-4.1-4.8c-0.6-0.4-1.2-0.7-1.8-1.1
			c-5.8-3.6-10.2-6.5-10.2-8.3c0-0.4,0.2-0.7,0.6-1c0.4-0.3,0.9-0.4,1.4-0.4c2,0,3.9,2.1,4.6,3c0.9,1.1,2.3,1.9,3.5,1.9
			c0.1,0,0.3,0,0.4,0c0.4-0.1,0.6-0.2,0.6-0.2c0.1-0.1-0.3-0.6-0.5-0.8c-0.4-0.5-1.1-1.3-0.2-1.7c0.4-0.2,0.9-0.3,1.4-0.3
			c2.1,0,4.5,1.8,6.7,3.4l0.4,0.3c0.4,0.3,0.9,0.6,1.3,1c1.6,1.2,3.4,2.6,4.7,2.6c0.2,0,0.3,0,0.5-0.1c1-0.3,1.5-0.6,1.6-1.2
			c0.1-0.9-1.2-2.6-5.2-4.3c-5.9-2.6-12.3-7.2-12.3-10.3c0-1.5,0.5-2.7,1.4-3.6c1.1-1,2.8-1.6,5-1.6c0.3,0,0.6,0,0.9,0
			c1.6,0.1,3.2,0.7,5.2,1.3c2.5,0.9,5.3,1.9,9,2.2c0.3,0,0.6,0,0.8,0c2.6,0,3.7-1.1,3.9-2.1c0.2-1.2-0.8-2.7-3.6-3.2
			c-2.8-0.5-5.1-0.7-7.1-0.9c-2.3-0.2-4.3-0.4-6.6-0.9c-1.4-0.4-2.4-1.1-2.8-2.3c-0.7-2,0.4-4.5,1.6-5.4c0.6-0.4,1.4-0.7,2.5-0.7
			c2,0,4.4,0.7,7,1.4c0.4,0.1,0.8,0.2,1.3,0.2c1.9,0,3.4-1.1,3.4-2.1c0-0.8-1.1-1.2-2.9-1.2c-0.3,0-0.5,0-0.8,0
			c-0.7,0-1.8,0.1-2.9,0.1c-4,0-6.3-0.7-6.9-2c-0.2-0.6-0.1-1.2,0.5-1.7c0.9-0.8,3-1.3,5.7-1.3c2.2,0,4.7,0.3,7.6,0.8
			c1.4,0.3,2.8,0.4,4,0.4c5.9,0,7.5-3.2,7.5-4.9C188.1,58.4,187.3,57,186,56.1z"/>
	</g>
</g>
<path id="XMLID_80_" class="st0" d="M16.8,49.8c0.1,0,0.2,0,0.3,0c1.6,0,3.2-0.5,4.3-1.5c1.2-1,1.6-2.4,1.2-3.7
	c-0.9-2.5-2.9-4.2-6.4-4.2c-0.8,0-1.6,0.1-2.3,0.4c-0.9,0.3-2,1.4-2.2,2.2c-0.6,2.1-0.2,3.9,1.3,5.2C14.2,49.3,14.4,49.7,16.8,49.8z
	"/>
<path id="XMLID_79_" class="st0" d="M126.7,9.9h0.1c2.8,0,5-1.6,5.1-3.2c0.1-1.3,0-3.4-1.3-4.3c-1-0.7-2.8-1.4-4.2-1.4h0
	c-3.9,0-5.4,1.6-5.5,4c0,1,0.4,2.6,1.5,3.4C123.6,9.1,125.1,9.8,126.7,9.9z"/>
<path id="XMLID_78_" class="st0" d="M181,116.7c-2,0-3.2,0.5-4.4,1.8c-1.1,1.3-0.2,3.8,1.6,4.6c1.1,0.4,1.1,0.7,2.4,0.7
	c1.6,0,2.1-0.4,3.4-1.1c1-0.5,1.3-1.2,1.5-1.8c0.2-1.1-0.2-2.3-1.1-3.1C183.6,117.1,183,116.7,181,116.7z"/>
<path id="XMLID_77_" class="st0" d="M190.7,41.8c-0.8-0.6-1.3-0.7-2.6-0.7h0c-3.3,0-4.5,1.2-4.5,3.4c0,0.8,0.4,1.5,1.2,2
	c0.8,0.6,2,0.9,3.3,0.9h0c2.7,0,3.8-1.7,3.8-3.4C192,43.2,191.5,42.4,190.7,41.8z"/>
<path id="XMLID_76_" class="st0" d="M71,10.4c0,0,0.1,0,0.1,0c1.9,0,3.2-1.3,3.2-3.4c0.1-2-1.2-3.2-3.4-3.3c-0.1,0-0.1,0-0.2,0
	c-2.3,0-4,1.3-4,3C66.7,8.4,69,10.3,71,10.4z"/>
<path id="XMLID_75_" class="st0" d="M47.1,118.2c-0.1,0-0.1,0-0.2,0c-2.3,0-4,1.3-4,3c0,1.6,2.2,3.6,4.3,3.6c0,0,0.1,0,0.1,0
	c1.9,0,3.2-1.3,3.2-3.4C50.7,119.5,49.4,118.3,47.1,118.2z"/>
<path id="XMLID_74_" class="st0" d="M154.9,9.4c0.2,0,0.5,0,0.7,0c1,0,1.2-0.2,2.4-0.7c0.9-0.3,1.2-1.1,1.4-1.6
	c0.2-0.6,0-1.8-0.7-2.6c-0.9-0.9-1.3-1.3-2.8-1.3c-0.6,0-1.2,0.1-1.9,0.3c-1.9,0.5-2.3,2.2-2.1,3.6C152.2,8.8,153.8,9.3,154.9,9.4z"
	/>
<path id="XMLID_73_" class="st0" d="M4.5,76.2c0,0-0.1,0-0.1,0c-1.5,0-3,0.6-3,1.9c0,1.5,1.3,2.8,2.8,2.9c0.1,0,0.2,0,0.3,0
	c1.9,0,3.2-0.8,3.2-1.9C7.7,77.8,6.8,76.3,4.5,76.2z"/>
<path id="XMLID_72_" class="st0" d="M160.4,10.8c-0.7,0-2.2,0.2-2.5,1.7c-0.1,0.7,1,1.2,1.4,1.2c0.1,0,0.3,0,0.4,0
	c1.2,0,1.9-0.5,2-1.5c0.1-0.4-0.1-0.9-0.5-1.1C161,10.9,160.7,10.8,160.4,10.8L160.4,10.8z"/>
<path id="XMLID_71_" class="st0" d="M178.2,111.1c0-1-1.1-1.5-2.2-1.6c-0.1,0-0.2,0-0.3,0c-1,0-2.1,0.5-2.5,1.1
	c-0.3,0.5-0.2,1,0.2,1.5c0.5,0.5,1.2,0.7,2,0.7l0.1,0C177.6,112.7,178.2,112.3,178.2,111.1z"/>
</svg>
