<?xml version="1.0" encoding="utf-8"?>
<!-- Generator: Adobe Illustrator 19.0.0, SVG Export Plug-In . SVG Version: 6.00 Build 0)  -->
<svg version="1.1" id="レイヤー_1" xmlns="http://www.w3.org/2000/svg" xmlns:xlink="http://www.w3.org/1999/xlink" x="0px"
	 y="0px" viewBox="89 -35 124 82" style="enable-background:new 89 -35 124 82;" xml:space="preserve">
<style type="text/css">
	.st0{fill:#DDFF25;}
</style>
<g>
	<g id="XMLID_81_">
		<g id="XMLID_82_">
			<path id="XMLID_83_" class="st0" d="M209.2,1.5c-0.7-0.5-1.7-0.8-2.7-0.8c-0.9,0-1.9,0.2-2.8,0.6c-1.9,0.7-3.6,1-5,1
				c-1.4,0-2.7-0.3-3.6-1c-0.8-0.5-1.7-1.7-1.3-2.7c0.2-0.4,0.6-0.9,1.9-1c1.4-0.2,1.8-0.7,1.7-1c-0.1-0.3-0.5-0.6-1.2-0.6
				c-0.6,0-1.2,0.2-1.9,0.5c-0.3,0.1-0.6,0.2-1,0.2c-0.8,0-1.5-0.5-1.6-1c-0.1-0.4,0.3-0.9,1.4-1c2.3-0.3,5.3-1.3,5.8-2.2
				c0.1-0.3,0.1-0.6-0.3-0.8c-0.4-0.3-0.7-0.5-1.2-0.5c-0.8,0-1.9,0.6-2.9,1.2c-0.8,0.5-1.6,1-2.5,1.2c-0.4,0.1-0.8,0.1-1.2,0.1
				c-0.8,0-1.6-0.2-2-0.6c-0.3-0.3-0.6-0.7-0.3-1.5c0.8-2.1,6.2-3.9,9.4-5c0.7-0.3,1.4-0.5,1.8-0.6c1-0.4,1.4-0.8,1.3-1.2
				c-0.2-0.5-1-0.8-1.7-0.8c-0.3,0-0.8,0.1-1,0.4c-1.4,1.6-7.3,4.4-10.9,5.2c-0.3,0.1-0.6,0.1-0.8,0.1c-0.7,0-1.4-0.3-1.8-0.6
				c-0.4-0.4-0.4-1-0.1-1.4c0.6-0.8,1.5-1.2,2.3-1.4c0.9-0.3,1.7-0.6,1.9-1.4c0.1-0.3,0.1-0.6-0.2-0.9c-0.3-0.3-0.8-0.4-1.3-0.4
				c-0.3,0-0.5,0-0.8,0.1c-1,0.2-1.4,0.6-1.8,1.1c-0.3,0.4-0.8,0.8-1.6,1.3c-0.4,0.2-0.9,0.3-1.6,0.3c-1.1,0-2.3-0.3-3-0.8
				c-0.6-0.5-0.9-1-0.9-1.6c0.1-1.9,4.6-6.2,6.5-7.3c1.3-0.7,1.4-1.6,1.1-2.1c-0.2-0.4-0.6-0.6-1.1-0.6c-0.9,0-1.8,0.8-2.6,2.1
				c-2.5,4.3-4.2,7.1-6.7,7.1c-0.4,0-0.8-0.1-1.2-0.2c-1.7-0.6-1.3-1.7-0.8-2.9l0.1-0.1c0.3-0.6,0.2-1.1-0.1-1.4
				c-0.3-0.3-0.6-0.3-1-0.3c-0.8,0-1.8,0.4-2.4,0.9c-0.9,0.8-2.2,1.3-3.7,1.3c-1.6,0-3-0.5-3.8-1.4c-1.2-1.4,0.3-3.8,1.4-5.6
				l0.1-0.3c0.4-0.6,0.4-1.1,0-1.4c-0.3-0.3-0.6-0.4-1.1-0.4c-0.4,0-0.7,0.1-1,0.3c-0.3,0.3-0.5,0.6-0.4,1c0.3,2.5,0,5.1-3.9,6
				c-0.8,0.2-1.6,0.3-2.3,0.3c-1.6,0-2.5-0.5-2.9-0.8c-0.7-0.5-1-1.3-0.8-2c0.1-0.4-0.1-0.8-0.5-1c-0.5-0.3-1.1-0.5-1.7-0.5
				c-0.6,0-1.1,0.1-1.5,0.4c-0.5,0.3-0.6,0.8-0.6,1.3c0.1,2.3-2,3-3.8,3.3c-0.6,0.1-1.2,0.1-1.8,0.1c-2.2,0-3.5-0.7-3.7-1.9
				c-0.2-1.3-0.7-2.1-1.4-2.1c-0.1,0-0.1,0-0.2,0c-0.6,0.1-0.6,0.5-0.2,1.6c0.1,0.2,0.1,0.5,0.3,0.7c0.3,0.9,0.8,2.8-1.9,3.5
				c-0.5,0.1-0.9,0.2-1.3,0.2c-1.6,0-2.5-1-3.4-2.7c-0.9-1.7-2.3-4.5-5.1-4.5c-0.9,0-1.9,0.3-3,0.8c-1.3,0.6-1.9,1.6-2,2.8
				c-0.1,1.9,1.6,3.9,4.3,5.5c1.7,1,1.8,1.9,1.7,2.5c-0.1,0.6-0.6,1.1-1.4,1.4c-0.3,0.1-0.6,0.1-0.9,0.1c-1.2,0-2.1-0.8-2.7-1.4
				c-1.7-1.8-3.4-2.7-4.7-2.7c-0.3,0-0.6,0.1-0.8,0.1c-0.6,0.2-0.9,0.5-0.9,0.8c0,0.7,1.4,1.9,4.5,2.8c2,0.6,3,1.6,3.1,2.8
				c0,0.5-0.3,1-0.9,1.4c-0.5,0.3-1,0.5-1.6,0.5c-0.5,0-1.2-0.1-1.7-0.8c-0.1-0.1-0.1-0.1-0.1-0.2c-0.7-0.9-1.6-1.9-3.4-1.9
				c-0.1,0-0.3,0-0.5,0c-1.4,0.1-2.5,0.8-2.5,1.6c-0.1,0.8,1,1.9,4.1,2.4c1,0.2,1.7,0.5,2,1.1c0.6,1-0.2,2.3-0.8,2.9l-0.1,0.1
				c-0.6,0.6-1.7,1.9-3.6,1.9c-0.4,0-0.8-0.1-1.2-0.2c-0.6-0.2-1.4-0.5-2.1-0.8c-1.1-0.5-2.3-0.9-2.9-0.9c-0.3,0-0.5,0.1-0.5,0.3
				c-0.3,0.4-0.2,0.7,0.1,1c0.6,0.6,2.3,1,4.6,1c0.8,0,1.6,0.3,2,0.8c0.6,0.7,0.6,1.7,0.1,2.4c-0.5,0.6-1,0.9-1.7,0.9
				c-0.6,0-1.2-0.2-1.7-0.4c-0.5-0.2-1-0.4-1.5-0.4c-0.3,0-0.6,0.1-0.8,0.3c-0.4,0.3-0.5,0.7-0.3,1.1c0.3,0.5,1.4,0.8,2.8,0.8
				c0.1,0,0.3,0,0.5,0h0.1c0.8,0,1.4,0.6,1.4,1.1s-0.5,1.1-1.7,1.1c-0.5,0-1.1-0.1-1.8-0.3c-1-0.3-2.4-0.8-3.8-1.4
				c-2.8-1.1-6.4-2.5-8.7-2.9c-0.6-0.1-1.2-0.2-1.8-0.2c-2.7,0-4.7,1.2-5,2.2c-0.4,1.4,0.6,2.4,2.5,2.7c0.8,0.1,1.6,0.2,2.3,0.2
				c1.1,0,2.1-0.1,3.2-0.3c1-0.1,2.1-0.3,3.2-0.3c0.9,0,1.8,0.1,2.7,0.3c1.9,0.4,2.1,0.9,2.1,1.2c-0.1,0.3-0.5,0.6-1.2,0.6
				c-0.8,0-1.4,0.2-1.6,0.5c-0.3,0.3-0.1,0.8,0.5,1.2c0.3,0.3,0.8,0.4,1.5,0.4c1.1,0,2.7-0.3,4.9-0.8c0.6-0.1,1.2-0.3,1.8-0.4
				c0.3-0.1,0.5-0.1,0.7-0.1c1,0,1.7,0.5,1.8,1.3c0.1,0.7-0.5,1.5-1.8,1.6c-0.8,0.1-2,0.1-3.2,0.3c-1.9,0.1-4,0.3-5,0.3
				c-2,0.1-3.6,0.6-4.1,1.2c-0.2,0.2-0.2,0.5,0,0.6c0.3,0.5,0.9,0.8,1.7,0.8c0.8,0,1.7-0.2,2.8-0.6c1.9-0.8,6.7-1.7,8.9-1.8
				c0.1,0,0.1,0,0.2,0c2,0,3.3,1.4,3.4,2.6c0.1,1.1-0.6,1.9-1.7,2.1c-0.2,0-0.3,0-0.5,0c-0.5,0-0.9-0.1-1.4-0.1
				c-0.5-0.1-1-0.1-1.4-0.1c-0.7,0-1.2,0.1-1.6,0.4c-0.5,0.3-0.7,1-0.5,1.6c0.1,0.3,0.5,0.7,1.4,0.8c0.3,0.1,0.6,0.1,0.9,0.1
				c1,0,1.4-0.3,1.9-0.5c0.5-0.3,1-0.5,1.9-0.6c0.1,0,0.1,0,0.2,0c1.3,0,1.9,0.5,1.9,1c0,0.6-0.8,1.2-2.4,1.3
				c-2.1,0.1-3.7,0.5-4.1,1c-0.2,0.2-0.1,0.5,0.1,0.7c0.3,0.3,0.5,0.4,0.8,0.4c0.5,0,1.2-0.3,1.9-0.5c0.4-0.1,0.8-0.3,1.2-0.5
				c0.4-0.1,0.8-0.2,1.2-0.2c1.5,0,2.5,0.7,2.9,1.4c0.3,0.6,0.3,1.2-0.1,1.7c-0.5,0.6-1.3,1-2.4,1.2c-0.5,0.1-1.2,0.2-2,0.3
				c-2.3,0.3-5.4,0.7-6.8,1.4c-2.1,1-2.9,2.6-1.9,3.7c1,1.1,2.5,1.4,3.6,1.4c1.6,0,3.2-0.5,3.9-1.3c2-2,5.2-4.1,7.2-4.7
				c0.3-0.1,0.6-0.1,0.8-0.1c1.4,0,2.7,0.9,2.9,1.7c0.1,0.5-0.1,0.8-0.8,1c-1.3,0.3-2.1,0.9-2.3,1.6c-0.1,0.5,0.1,1,0.7,1.4
				c0.4,0.3,0.8,0.4,1.3,0.4c1.2,0,2.4-0.6,2.7-1c0.6-0.6,1.2-0.8,1.6-0.8c0.6,0,1.1,0.4,1.2,1c0.3,1.3-1.4,2.7-2.8,3.9
				c-0.7,0.6-1.4,1.2-1.7,1.6c-0.5,0.6-0.3,1.1-0.1,1.3c0.3,0.3,0.8,0.5,1.2,0.5c0.3,0,0.6-0.1,0.9-0.3c1.3-1,2-2.7,2.6-4.1
				c0.4-0.9,0.7-1.7,1.2-2.3c0.5-0.6,1.6-1,2.7-1c1.3,0,2.8,0.5,2.9,1.6c0.2,1.6,0.6,1.9,1.7,1.9c0.2,0,0.5,0,0.7-0.1
				c0.1,0,0.2,0,0.3,0c0.5,0,0.9,0.1,1.2,0.4c1.3,1.1,0.8,4.1,0.6,4.8c-0.1,0.1-0.1,0.4-0.3,0.6c-0.4,1.1-1.3,3.4-0.4,4.2
				c0.2,0.2,0.5,0.3,1,0.3c0.1,0,0.1,0,0.2,0c0.6-0.1,1.1-0.2,1.4-0.5c0.8-0.7,0.3-2.1-0.1-3.5c-0.1-0.5-0.3-1-0.4-1.6
				c-0.3-2-0.2-3.1,0.4-3.6c0.2-0.2,0.5-0.3,0.8-0.3c0.1,0,0.1,0,0.1,0c0.6,0,1.2,0.1,1.6,0.5c0.5,0.3,1,1,1,2.3
				c-0.1,1.2,0.4,1.7,0.8,2c0.3,0.2,0.6,0.3,1,0.3c0.1,0,0.1,0,0.3,0c0.3,0,0.6-0.2,0.8-0.4c0.4-0.5,0.3-1.2,0.1-1.5
				c-0.5-0.6-1.5-2.7-0.7-4.1c0.6-1,2-1.7,3.6-1.7c0.6,0,1.2,0.1,1.7,0.4c0.9,0.4,1.2,1,1.6,1.6c0.5,0.8,0.8,1.4,2.5,1.4h0.1
				c1.4,0,1.7-0.5,2.1-1c0.5-0.6,1-1.3,2.7-1.6c0.3-0.1,0.5-0.1,0.8-0.1c2.3,0,4.1,1.4,5.1,4.1c0.5,1.1,1.2,3.2,2.6,3.2
				c0.1,0,0.3,0,0.4-0.1c0.6-0.1,1-0.3,1.1-0.6c0.3-0.6-0.1-1.6-1.4-3.2c-2.3-3-2.2-4.8,0.3-6.1c0.8-0.4,1.7-0.6,2.6-0.6
				c2.1,0,4.1,1,4.7,2.5c0.4,0.8,1.2,1.3,2.1,1.3c0.6,0,1.2-0.3,1.5-0.6c0.3-0.5,0-1-0.8-1.6c-1-0.7-2.1-2.5-1.5-3.5
				c0.2-0.3,0.7-0.7,1.7-0.7c0.1,0,0.1,0,0.1,0c2.6,0.1,5,2.5,6.5,4.1c0.3,0.3,0.5,0.5,0.8,0.8c0.1,0.1,0.3,0.3,0.5,0.5
				c1,1,2.7,2.6,3.5,2.6c0.1,0,0.1,0,0.1,0c0.3-0.1,0.5-0.4,0.5-0.6c0.1-0.4-0.1-1.5-2.7-3.1c-0.4-0.3-0.8-0.5-1.2-0.7
				c-3.8-2.3-6.6-4.2-6.6-5.4c0-0.3,0.1-0.5,0.4-0.6s0.6-0.3,0.9-0.3c1.3,0,2.5,1.4,3,1.9c0.6,0.7,1.5,1.2,2.3,1.2
				c0.1,0,0.2,0,0.3,0c0.3-0.1,0.4-0.1,0.4-0.1c0.1-0.1-0.2-0.4-0.3-0.5c-0.3-0.3-0.7-0.8-0.1-1.1c0.3-0.1,0.6-0.2,0.9-0.2
				c1.4,0,2.9,1.2,4.3,2.2l0.3,0.2c0.3,0.2,0.6,0.4,0.8,0.6c1,0.8,2.2,1.7,3,1.7c0.1,0,0.2,0,0.3-0.1c0.6-0.2,1-0.4,1-0.8
				c0.1-0.6-0.8-1.7-3.4-2.8c-3.8-1.7-8-4.7-8-6.7c0-1,0.3-1.7,0.9-2.3c0.7-0.6,1.8-1,3.2-1c0.2,0,0.4,0,0.6,0
				c1,0.1,2.1,0.5,3.4,0.8c1.6,0.6,3.4,1.2,5.8,1.4c0.2,0,0.4,0,0.5,0c1.7,0,2.4-0.7,2.5-1.4c0.1-0.8-0.5-1.7-2.3-2.1
				c-1.8-0.3-3.3-0.5-4.6-0.6c-1.5-0.1-2.8-0.3-4.3-0.6c-0.9-0.3-1.6-0.7-1.8-1.5c-0.5-1.3,0.3-2.9,1-3.5c0.4-0.3,0.9-0.5,1.6-0.5
				c1.3,0,2.8,0.5,4.5,0.9c0.3,0.1,0.5,0.1,0.8,0.1c1.2,0,2.2-0.7,2.2-1.4c0-0.5-0.7-0.8-1.9-0.8c-0.2,0-0.3,0-0.5,0
				c-0.5,0-1.2,0.1-1.9,0.1c-2.6,0-4.1-0.5-4.5-1.3c-0.1-0.4-0.1-0.8,0.3-1.1c0.6-0.5,1.9-0.8,3.7-0.8c1.4,0,3,0.2,4.9,0.5
				c0.9,0.2,1.8,0.3,2.6,0.3c3.8,0,4.9-2.1,4.9-3.2C210.5,3,210,2.1,209.2,1.5z"/>
		</g>
	</g>
	<path id="XMLID_80_" class="st0" d="M99.7-2.6c0.1,0,0.1,0,0.2,0c1,0,2.1-0.3,2.8-1c0.8-0.6,1-1.6,0.8-2.4
		c-0.6-1.6-1.9-2.7-4.1-2.7c-0.5,0-1,0.1-1.5,0.3c-0.6,0.2-1.3,0.9-1.4,1.4c-0.4,1.4-0.1,2.5,0.8,3.4C98-2.9,98.1-2.7,99.7-2.6z"/>
	<path id="XMLID_79_" class="st0" d="M170.8-28.4L170.8-28.4c1.9,0,3.3-1,3.4-2.1c0.1-0.8,0-2.2-0.8-2.8c-0.6-0.5-1.8-0.9-2.7-0.9
		l0,0c-2.5,0-3.5,1-3.6,2.6c0,0.6,0.3,1.7,1,2.2C168.8-28.9,169.8-28.5,170.8-28.4z"/>
	<path id="XMLID_78_" class="st0" d="M205.9,40.7c-1.3,0-2.1,0.3-2.8,1.2c-0.7,0.8-0.1,2.5,1,3c0.7,0.3,0.7,0.5,1.6,0.5
		c1,0,1.4-0.3,2.2-0.7c0.6-0.3,0.8-0.8,1-1.2c0.1-0.7-0.1-1.5-0.7-2C207.6,40.9,207.2,40.7,205.9,40.7z"/>
	<path id="XMLID_77_" class="st0" d="M212.2-7.8c-0.5-0.4-0.8-0.5-1.7-0.5l0,0c-2.1,0-2.9,0.8-2.9,2.2c0,0.5,0.3,1,0.8,1.3
		c0.5,0.4,1.3,0.6,2.1,0.6l0,0c1.7,0,2.5-1.1,2.5-2.2C213-6.9,212.7-7.4,212.2-7.8z"/>
	<path id="XMLID_76_" class="st0" d="M134.8-28.1L134.8-28.1c1.3,0,2.1-0.8,2.1-2.2c0.1-1.3-0.8-2.1-2.2-2.1c-0.1,0-0.1,0-0.1,0
		c-1.5,0-2.6,0.8-2.6,1.9C132-29.4,133.5-28.2,134.8-28.1z"/>
	<path id="XMLID_75_" class="st0" d="M119.3,41.6c-0.1,0-0.1,0-0.1,0c-1.5,0-2.6,0.8-2.6,1.9c0,1,1.4,2.3,2.8,2.3h0.1
		c1.2,0,2.1-0.8,2.1-2.2C121.6,42.5,120.8,41.7,119.3,41.6z"/>
	<path id="XMLID_74_" class="st0" d="M189-28.7c0.1,0,0.3,0,0.5,0c0.6,0,0.8-0.1,1.6-0.5c0.6-0.2,0.8-0.7,0.9-1
		c0.1-0.4,0-1.2-0.5-1.7c-0.6-0.6-0.8-0.8-1.8-0.8c-0.4,0-0.8,0.1-1.2,0.2c-1.2,0.3-1.5,1.4-1.4,2.3C187.3-29.1,188.3-28.8,189-28.7
		z"/>
	<path id="XMLID_73_" class="st0" d="M91.7,14.5L91.7,14.5c-1,0-2,0.4-2,1.2c0,1,0.8,1.8,1.8,1.9c0.1,0,0.1,0,0.2,0
		c1.2,0,2.1-0.5,2.1-1.2C93.8,15.5,93.2,14.5,91.7,14.5z"/>
	<path id="XMLID_72_" class="st0" d="M192.6-27.8c-0.5,0-1.4,0.1-1.6,1.1c-0.1,0.5,0.6,0.8,0.9,0.8c0.1,0,0.2,0,0.3,0
		c0.8,0,1.2-0.3,1.3-1c0.1-0.3-0.1-0.6-0.3-0.7C193-27.8,192.8-27.8,192.6-27.8L192.6-27.8z"/>
	<path id="XMLID_71_" class="st0" d="M204.1,37.1c0-0.6-0.7-1-1.4-1c-0.1,0-0.1,0-0.2,0c-0.6,0-1.4,0.3-1.6,0.7
		c-0.2,0.3-0.1,0.6,0.1,1c0.3,0.3,0.8,0.5,1.3,0.5h0.1C203.7,38.1,204.1,37.8,204.1,37.1z"/>
</g>
</svg>
