<?xml version="1.0" encoding="utf-8"?>
<!-- Generator: Adobe Illustrator 19.0.0, SVG Export Plug-In . SVG Version: 6.00 Build 0)  -->
<svg version="1.1" id="レイヤー_1" xmlns="http://www.w3.org/2000/svg" xmlns:xlink="http://www.w3.org/1999/xlink" x="0px"
	 y="0px" viewBox="0 0 124 82" style="enable-background:new 0 0 124 82;" xml:space="preserve">
<style type="text/css">
	.st0{fill-rule:evenodd;clip-rule:evenodd;fill:#00ACED;}
</style>
<g id="XMLID_13_">
	<g id="XMLID_124_">
		<g id="XMLID_136_">
			<g id="XMLID_137_">
				<path id="XMLID_138_" class="st0" d="M120.1,36.5c-0.7-0.5-1.7-0.8-2.7-0.8c-0.9,0-1.9,0.2-2.9,0.6c-1.9,0.7-3.6,1-5.1,1
					c-1.4,0-2.6-0.3-3.6-0.9c-0.8-0.5-1.7-1.7-1.3-2.6c0.2-0.4,0.6-0.9,1.9-1.1c1.4-0.2,1.8-0.7,1.7-1.1c0-0.3-0.5-0.7-1.3-0.7
					c-0.6,0-1.3,0.2-1.9,0.5c-0.3,0.1-0.6,0.2-1,0.2c-0.8,0-1.5-0.4-1.6-1c-0.1-0.4,0.3-0.9,1.4-1c2.3-0.3,5.3-1.3,5.8-2.2
					c0.2-0.3,0.1-0.6-0.3-0.8c-0.4-0.3-0.7-0.4-1.1-0.4c-0.9,0-1.9,0.6-2.9,1.2c-0.8,0.5-1.6,1-2.4,1.2c-0.4,0.1-0.8,0.1-1.2,0.1
					c-0.9,0-1.6-0.2-2-0.6c-0.3-0.3-0.6-0.7-0.3-1.5c0.9-2.1,6.2-3.9,9.4-5c0.7-0.2,1.4-0.5,1.8-0.6c1-0.4,1.4-0.8,1.3-1.2
					c-0.2-0.4-0.9-0.8-1.7-0.8c-0.3,0-0.8,0.1-1,0.4c-1.3,1.5-7.3,4.4-10.9,5.2c-0.3,0.1-0.6,0.1-0.9,0.1c-0.7,0-1.4-0.2-1.8-0.6
					c-0.4-0.4-0.4-1-0.1-1.4c0.6-0.8,1.5-1.2,2.4-1.4c0.9-0.3,1.7-0.6,1.9-1.4c0.1-0.4,0.1-0.7-0.2-0.9c-0.3-0.2-0.7-0.4-1.3-0.4
					c-0.2,0-0.5,0-0.7,0.1c-1,0.2-1.4,0.6-1.8,1.1c-0.3,0.4-0.7,0.9-1.5,1.3c-0.4,0.2-0.9,0.3-1.5,0.3c-1.1,0-2.3-0.3-3-0.8
					c-0.6-0.4-0.9-1-0.9-1.6c0.1-1.9,4.6-6.2,6.5-7.3c1.3-0.7,1.4-1.6,1.1-2.1c-0.2-0.4-0.6-0.6-1.1-0.6c-0.9,0-1.8,0.8-2.6,2.1
					c-2.4,4.3-4.2,7.1-6.7,7.1c-0.4,0-0.8-0.1-1.2-0.2c-1.7-0.6-1.3-1.7-0.8-2.9l0-0.1c0.2-0.6,0.2-1.1-0.1-1.4
					c-0.3-0.2-0.7-0.3-1-0.3c-0.8,0-1.8,0.4-2.4,0.9c-0.9,0.8-2.2,1.3-3.7,1.3c-1.5,0-3.1-0.5-3.8-1.3c-1.2-1.4,0.3-3.8,1.3-5.5
					L75,8.2c0.4-0.6,0.4-1.1,0-1.4c-0.2-0.2-0.6-0.4-1.1-0.4c-0.4,0-0.7,0.1-1,0.3c-0.3,0.2-0.5,0.6-0.4,1c0.3,2.4,0,5.1-3.9,6
					c-0.8,0.2-1.6,0.3-2.2,0.3c-1.5,0-2.4-0.4-2.9-0.8c-0.7-0.5-1-1.3-0.9-2c0.1-0.4-0.1-0.8-0.4-1c-0.4-0.3-1.1-0.5-1.8-0.5
					c-0.6,0-1.1,0.1-1.5,0.4c-0.4,0.3-0.6,0.8-0.6,1.3c0.1,2.3-2,3-3.8,3.3c-0.6,0.1-1.2,0.2-1.8,0.2c-2.2,0-3.5-0.7-3.7-2
					c-0.2-1.3-0.7-2.2-1.4-2.2c-0.1,0-0.1,0-0.2,0c-0.6,0.1-0.6,0.4-0.2,1.6c0.1,0.2,0.2,0.5,0.2,0.7c0.3,0.9,0.8,2.8-1.8,3.5
					c-0.5,0.1-0.9,0.2-1.3,0.2c-1.6,0-2.4-1-3.3-2.7c-0.9-1.7-2.3-4.4-5.1-4.4c-0.9,0-1.9,0.3-3,0.8c-1.3,0.7-2,1.6-2,2.8
					c-0.1,1.9,1.6,4,4.3,5.5c1.7,1,1.8,1.9,1.7,2.4c-0.1,0.6-0.6,1.1-1.4,1.3c-0.3,0.1-0.6,0.1-0.9,0.1c-1.2,0-2.1-0.8-2.7-1.4
					c-1.8-1.8-3.3-2.7-4.7-2.7c-0.3,0-0.6,0-0.8,0.1c-0.6,0.2-0.9,0.4-0.9,0.8c0,0.7,1.4,1.9,4.5,2.8c2,0.6,3.1,1.6,3.1,2.8
					c0,0.5-0.3,1-0.9,1.4c-0.5,0.3-1,0.5-1.5,0.5c-0.5,0-1.2-0.1-1.8-0.8c0-0.1-0.1-0.1-0.1-0.2c-0.7-0.9-1.6-2-3.3-2
					c-0.1,0-0.3,0-0.5,0c-1.4,0.1-2.4,0.8-2.5,1.6c-0.1,0.8,1,1.9,4.1,2.4c1,0.2,1.7,0.5,2,1.1c0.6,1-0.2,2.3-0.8,2.9l-0.1,0.1
					c-0.6,0.7-1.7,1.9-3.5,1.9c-0.4,0-0.8-0.1-1.2-0.2c-0.7-0.2-1.4-0.5-2.1-0.8c-1.1-0.4-2.2-0.9-2.9-0.9c-0.3,0-0.4,0.1-0.5,0.3
					c-0.2,0.4-0.2,0.7,0.1,1c0.6,0.6,2.3,1,4.6,1.1c0.8,0,1.6,0.3,2,0.8c0.6,0.7,0.7,1.7,0.2,2.4c-0.4,0.6-1,0.9-1.7,0.9
					c-0.6,0-1.2-0.2-1.8-0.4c-0.5-0.2-1-0.4-1.5-0.4c-0.3,0-0.6,0.1-0.8,0.3c-0.4,0.3-0.5,0.7-0.3,1.1c0.3,0.5,1.3,0.8,2.8,0.8
					c0.1,0,0.3,0,0.5,0c0,0,0.1,0,0.1,0c0.9,0,1.4,0.6,1.4,1.1c0,0.5-0.5,1.1-1.7,1.1c-0.5,0-1.1-0.1-1.8-0.3
					c-1-0.3-2.4-0.9-3.8-1.4c-2.8-1.1-6.4-2.5-8.8-2.9C6.3,37,5.7,37,5.1,37c-2.7,0-4.7,1.1-5,2.2c-0.4,1.4,0.6,2.4,2.5,2.7
					c0.8,0.1,1.5,0.2,2.3,0.2c1.1,0,2.2-0.1,3.2-0.2c1-0.1,2.1-0.2,3.2-0.2c0.9,0,1.8,0.1,2.6,0.3c1.9,0.4,2.1,0.9,2.1,1.2
					c-0.1,0.3-0.5,0.6-1.1,0.6c-0.8,0-1.4,0.2-1.6,0.5c-0.2,0.3-0.1,0.7,0.4,1.2c0.3,0.3,0.8,0.4,1.5,0.4c1.1,0,2.7-0.4,4.8-0.8
					c0.6-0.1,1.2-0.3,1.8-0.4c0.2-0.1,0.5-0.1,0.7-0.1c1,0,1.7,0.5,1.8,1.3c0.1,0.7-0.5,1.5-1.8,1.6c-0.8,0.1-2,0.1-3.2,0.2
					c-2,0.1-4,0.3-5,0.4c-2,0.1-3.6,0.6-4.1,1.2c-0.2,0.2-0.2,0.4,0,0.7c0.4,0.5,0.9,0.8,1.8,0.8c0.8,0,1.7-0.2,2.8-0.6
					c2-0.8,6.7-1.7,8.9-1.8c0.1,0,0.1,0,0.2,0c2,0,3.3,1.3,3.4,2.6c0.1,1.1-0.6,1.9-1.8,2c-0.2,0-0.3,0-0.5,0
					c-0.4,0-0.9-0.1-1.4-0.1c-0.5,0-1-0.1-1.4-0.1c-0.7,0-1.2,0.1-1.6,0.4c-0.5,0.3-0.7,1-0.5,1.5c0.1,0.3,0.5,0.7,1.3,0.8
					c0.3,0,0.6,0.1,0.9,0.1c0.9,0,1.4-0.2,1.9-0.5c0.5-0.2,1-0.5,2-0.6c0.1,0,0.1,0,0.2,0c1.3,0,1.9,0.5,2,1c0,0.6-0.8,1.2-2.4,1.3
					c-2.1,0.1-3.7,0.5-4.1,1c-0.2,0.2-0.2,0.4,0.1,0.7c0.3,0.3,0.5,0.4,0.8,0.4c0.5,0,1.2-0.3,2-0.5c0.4-0.2,0.8-0.3,1.2-0.4
					c0.4-0.1,0.8-0.2,1.2-0.2c1.5,0,2.5,0.7,2.9,1.4c0.3,0.6,0.3,1.2-0.1,1.7c-0.4,0.6-1.3,1-2.4,1.2c-0.5,0.1-1.2,0.2-2,0.3
					c-2.3,0.3-5.4,0.7-6.8,1.4c-2.2,1.1-2.9,2.6-1.8,3.7c1.1,1.1,2.5,1.3,3.6,1.3c1.6,0,3.1-0.5,3.9-1.3c2-2,5.2-4,7.2-4.7
					c0.3-0.1,0.6-0.1,0.9-0.1c1.4,0,2.7,0.9,2.9,1.7c0.1,0.5-0.2,0.9-0.8,1c-1.3,0.3-2.1,0.9-2.3,1.5c-0.1,0.5,0.1,1,0.7,1.3
					c0.4,0.2,0.8,0.4,1.3,0.4c1.2,0,2.4-0.6,2.7-1c0.6-0.7,1.2-0.8,1.5-0.8c0.6,0,1.1,0.4,1.2,1c0.3,1.3-1.4,2.7-2.8,3.9
					c-0.7,0.6-1.4,1.1-1.8,1.6c-0.5,0.6-0.2,1.1,0,1.3c0.3,0.3,0.8,0.5,1.2,0.5c0.4,0,0.7-0.1,0.9-0.3c1.3-1,2-2.7,2.6-4.1
					c0.4-0.9,0.7-1.7,1.2-2.2c0.5-0.6,1.6-1,2.7-1c1.3,0,2.8,0.5,2.9,1.6c0.2,1.6,0.6,2,1.7,2c0.2,0,0.5,0,0.7,0c0.1,0,0.2,0,0.3,0
					c0.5,0,0.9,0.1,1.2,0.4c1.3,1.1,0.8,4.1,0.6,4.8c0,0.2-0.1,0.4-0.2,0.6c-0.4,1.1-1.3,3.4-0.4,4.2c0.2,0.2,0.5,0.3,1,0.3
					c0.1,0,0.1,0,0.2,0c0.6,0,1.1-0.2,1.3-0.4c0.8-0.7,0.3-2.2-0.1-3.5c-0.2-0.5-0.3-1.1-0.4-1.5c-0.3-2-0.2-3.1,0.4-3.6
					c0.2-0.2,0.5-0.3,0.9-0.3c0,0,0.1,0,0.1,0c0.6,0,1.1,0.2,1.6,0.5c0.5,0.3,1,1,1,2.3c-0.1,1.2,0.4,1.7,0.7,2
					c0.3,0.2,0.6,0.3,1,0.3c0.1,0,0.2,0,0.2,0c0.3,0,0.6-0.2,0.7-0.4c0.4-0.5,0.3-1.2,0.1-1.5c-0.5-0.6-1.5-2.7-0.7-4
					c0.6-1,2-1.7,3.5-1.7c0.6,0,1.2,0.1,1.8,0.4c0.9,0.4,1.2,1,1.6,1.5c0.4,0.8,0.8,1.3,2.4,1.4c0,0,0.1,0,0.1,0
					c1.4,0,1.7-0.4,2.2-1c0.4-0.6,1-1.3,2.7-1.5c0.3,0,0.5-0.1,0.8-0.1c2.3,0,4.1,1.4,5.1,4c0.4,1.1,1.3,3.2,2.6,3.2
					c0.1,0,0.2,0,0.4,0c0.6-0.1,1-0.3,1.1-0.6c0.3-0.6-0.1-1.6-1.3-3.2c-2.3-3.1-2.2-4.8,0.3-6.1c0.8-0.4,1.7-0.6,2.6-0.6
					c2.1,0,4.1,1,4.7,2.5c0.4,0.8,1.1,1.3,2.1,1.3c0.7,0,1.3-0.3,1.5-0.6c0.3-0.5,0-1.1-0.8-1.6c-1-0.7-2.1-2.5-1.5-3.5
					c0.2-0.3,0.7-0.7,1.8-0.7c0,0,0.1,0,0.1,0c2.6,0.1,5,2.5,6.5,4.1c0.3,0.3,0.5,0.5,0.8,0.8c0.1,0.1,0.3,0.3,0.5,0.4
					c1,1,2.7,2.6,3.5,2.6c0.1,0,0.1,0,0.2,0c0.3-0.1,0.5-0.4,0.5-0.7c0.1-0.4-0.1-1.5-2.6-3.1c-0.4-0.2-0.8-0.5-1.2-0.7
					c-3.7-2.3-6.6-4.2-6.6-5.4c0-0.3,0.1-0.5,0.4-0.6c0.3-0.2,0.6-0.3,0.9-0.3c1.3,0,2.5,1.4,3,2c0.6,0.7,1.5,1.2,2.3,1.2
					c0.1,0,0.2,0,0.3,0c0.3,0,0.4-0.1,0.4-0.1c0.1-0.1-0.2-0.4-0.3-0.5c-0.3-0.3-0.7-0.8-0.1-1.1c0.3-0.1,0.6-0.2,0.9-0.2
					c1.3,0,2.9,1.2,4.3,2.2l0.2,0.2c0.3,0.2,0.6,0.4,0.8,0.6c1,0.8,2.2,1.7,3.1,1.7c0.1,0,0.2,0,0.3,0c0.6-0.2,1-0.4,1-0.8
					c0.1-0.6-0.7-1.6-3.4-2.8c-3.8-1.7-8-4.7-8-6.7c0-1,0.3-1.8,0.9-2.4c0.7-0.7,1.8-1,3.2-1c0.2,0,0.4,0,0.6,0
					c1,0.1,2.1,0.4,3.3,0.9c1.6,0.6,3.5,1.2,5.8,1.4c0.2,0,0.4,0,0.5,0c1.7,0,2.4-0.7,2.5-1.3c0.2-0.8-0.5-1.8-2.3-2.1
					c-1.8-0.3-3.3-0.5-4.6-0.6c-1.5-0.1-2.8-0.2-4.3-0.6c-0.9-0.2-1.6-0.7-1.8-1.5c-0.5-1.3,0.3-2.9,1-3.5c0.4-0.3,0.9-0.4,1.6-0.4
					c1.3,0,2.8,0.4,4.5,0.9c0.3,0.1,0.5,0.1,0.8,0.1c1.2,0,2.2-0.7,2.2-1.4c0-0.5-0.7-0.8-1.9-0.8c-0.2,0-0.3,0-0.5,0
					c-0.5,0-1.1,0.1-1.9,0.1c-2.6,0-4.1-0.4-4.4-1.3c-0.2-0.4-0.1-0.8,0.3-1.1c0.6-0.5,1.9-0.8,3.7-0.8c1.4,0,3.1,0.2,4.9,0.5
					c0.9,0.2,1.8,0.3,2.6,0.3c3.8,0,4.9-2.1,4.9-3.1C121.5,38,121,37.1,120.1,36.5z"/>
			</g>
		</g>
		<g id="XMLID_125_">
			<path id="XMLID_135_" class="st0" d="M10.8,32.5c0.1,0,0.1,0,0.2,0c1.1,0,2.1-0.3,2.8-0.9c0.8-0.7,1.1-1.6,0.7-2.4
				c-0.6-1.6-1.9-2.7-4.1-2.7c-0.5,0-1.1,0.1-1.5,0.2c-0.6,0.2-1.3,0.9-1.4,1.4c-0.4,1.3-0.1,2.5,0.9,3.4
				C9.1,32.2,9.3,32.4,10.8,32.5z"/>
			<path id="XMLID_134_" class="st0" d="M81.9,6.7L81.9,6.7c1.9,0,3.3-1.1,3.4-2.1c0-0.8,0-2.2-0.8-2.8c-0.7-0.5-1.8-0.9-2.7-0.9h0
				c-2.5,0-3.5,1-3.5,2.6c0,0.7,0.3,1.7,0.9,2.2C79.8,6.2,80.8,6.6,81.9,6.7z"/>
			<path id="XMLID_133_" class="st0" d="M116.9,75.7c-1.3,0-2.1,0.3-2.8,1.2c-0.7,0.9-0.2,2.4,1.1,2.9c0.7,0.3,0.7,0.4,1.5,0.4
				c1.1,0,1.4-0.3,2.2-0.7c0.6-0.3,0.9-0.8,0.9-1.2c0.1-0.7-0.1-1.5-0.7-2C118.6,75.9,118.2,75.7,116.9,75.7z"/>
			<path id="XMLID_132_" class="st0" d="M123.2,27.3c-0.5-0.4-0.8-0.5-1.7-0.5h0c-2.1,0-2.9,0.8-2.9,2.2c0,0.5,0.3,1,0.8,1.3
				c0.5,0.4,1.3,0.6,2.1,0.6h0c1.7,0,2.4-1.1,2.5-2.2C124,28.2,123.7,27.7,123.2,27.3z"/>
			<path id="XMLID_131_" class="st0" d="M45.9,7C45.9,7,45.9,7,45.9,7C47.2,7,48,6.1,48,4.8c0.1-1.3-0.8-2.1-2.2-2.1
				c0,0-0.1,0-0.1,0c-1.5,0-2.6,0.8-2.6,1.9C43.1,5.7,44.6,6.9,45.9,7z"/>
			<path id="XMLID_130_" class="st0" d="M30.4,76.7c0,0-0.1,0-0.1,0c-1.5,0-2.6,0.8-2.6,1.9c0,1.1,1.4,2.3,2.8,2.3c0,0,0.1,0,0.1,0
				c1.2,0,2-0.9,2.1-2.2C32.7,77.5,31.9,76.7,30.4,76.7z"/>
			<path id="XMLID_129_" class="st0" d="M100.1,6.4c0.1,0,0.3,0,0.4,0c0.6,0,0.8-0.1,1.5-0.4c0.6-0.2,0.8-0.7,0.9-1
				c0.1-0.4,0-1.2-0.4-1.7c-0.6-0.6-0.8-0.8-1.8-0.8c-0.4,0-0.8,0.1-1.2,0.2C98.3,2.9,98,4.1,98.1,5C98.3,6,99.4,6.3,100.1,6.4z"/>
			<path id="XMLID_128_" class="st0" d="M2.9,49.6C2.8,49.6,2.8,49.6,2.9,49.6c-1,0-2,0.4-2,1.2c0,0.9,0.8,1.8,1.8,1.8
				c0.1,0,0.1,0,0.2,0c1.2,0,2.1-0.5,2.1-1.2C4.9,50.6,4.4,49.6,2.9,49.6z"/>
			<path id="XMLID_127_" class="st0" d="M103.6,7.3c-0.4,0-1.4,0.1-1.6,1.1c-0.1,0.4,0.6,0.7,0.9,0.8c0.1,0,0.2,0,0.3,0
				c0.8,0,1.2-0.3,1.3-0.9c0-0.3-0.1-0.6-0.3-0.7C104,7.3,103.8,7.3,103.6,7.3L103.6,7.3z"/>
			<path id="XMLID_126_" class="st0" d="M115.1,72.1c0-0.6-0.7-1-1.4-1c-0.1,0-0.1,0-0.2,0c-0.7,0-1.4,0.3-1.6,0.7
				c-0.2,0.3-0.1,0.7,0.2,0.9c0.3,0.3,0.8,0.5,1.3,0.5l0,0C114.8,73.1,115.1,72.8,115.1,72.1z"/>
		</g>
	</g>
</g>
</svg>
