<?xml version="1.0" encoding="utf-8"?>
<!-- Generator: Adobe Illustrator 19.0.0, SVG Export Plug-In . SVG Version: 6.00 Build 0)  -->
<svg version="1.1" id="レイヤー_1" xmlns="http://www.w3.org/2000/svg" xmlns:xlink="http://www.w3.org/1999/xlink" x="0px"
	 y="0px" viewBox="0 0 60 32" style="enable-background:new 0 0 60 32;" xml:space="preserve">
<style type="text/css">
	.st0{fill:#FFFFFF;}
	.st1{fill:url('ico_success-c7a5e4717411fc8165be8bd4e7eb891c8d14d0360932bc154bf76926509999e5.svg');}
	.st2{fill:url('ico_success-c7a5e4717411fc8165be8bd4e7eb891c8d14d0360932bc154bf76926509999e5.svg');}
	.st3{fill:url('ico_success-c7a5e4717411fc8165be8bd4e7eb891c8d14d0360932bc154bf76926509999e5.svg');}
	.st4{fill:url('ico_success-c7a5e4717411fc8165be8bd4e7eb891c8d14d0360932bc154bf76926509999e5.svg');}
</style>
<path id="XMLID_9_" class="st0" d="M10.1,20.2C10.1,20.2,10.1,20.2,10.1,20.2C10.1,20.2,10.1,20.2,10.1,20.2
	c-1.3-0.9-2.4,0.1-5.2-1.9c-0.6-0.4-1.1-0.9-1.5-1.5c-0.2,0.4-0.5,0.8-0.8,1.1c-0.6,0.5-3.9,1.4-2.2,5.3c0,0,2.4,0.1,4-2
	c-0.2,0.2-2.3,3-0.9,5c0,0,1.9,0.8,4.1-2.5c-2.2,3.3-0.8,4.7-0.8,4.7c2.4,0.6,4.2-2.4,4.4-2.6c-1.4,2.2-0.4,4.4-0.4,4.4
	c4.3,0.2,3.9-3.2,4.2-4c0.1-0.4,0.4-0.8,0.7-1.1c-0.7-0.2-1.3-0.4-1.9-0.8C10.9,22.5,11.4,21.2,10.1,20.2z"/>
<path id="XMLID_8_" class="st0" d="M23.2,1.2C21.2-0.1,2.6,4,1.3,7.6c-0.3,0.8,0.6,2,1.5,3c0.2-0.7,0.6-1.5,1-2.1
	c2.2-3.2,6.5-5.1,10.4-1.8c2,1.6,1.9,2.9,2.8,3.5c0.8,0.6,2,0.1,4.2,1.3c4.4,2.5,4.2,7.2,2,10.4c-0.5,0.7-1,1.2-1.6,1.7
	c1.3,0.5,2.7,0.9,3.4,0.3C28,21.4,25.2,2.6,23.2,1.2z"/>
<path id="XMLID_18_" class="st0" d="M21.6,20c1.7-2.4,1.2-5.6-1.1-7.1c-1.6-1.1-3.7-1.1-5.4,0c0.4-1.9-0.3-3.9-2-5
	C11,6.3,7.9,7,6.2,9.4C4.6,11.8,5,15,7.3,16.5c1.6,1.1,3.7,1.1,5.4,0c-0.4,1.9,0.3,3.9,2,5C16.8,23.1,20,22.4,21.6,20z M13.7,13.2
	c-0.9,1.3-2.6,1.5-4,0.6C8.4,12.9,8,11.1,8.9,9.9c0.9-1.2,2.6-1.5,4-0.6C14.2,10.2,14.5,11.9,13.7,13.2z M16.4,18.4
	c-1.3-0.9-1.7-2.7-0.8-3.9c0.9-1.3,2.6-1.5,4-0.6c1.3,0.9,1.7,2.7,0.8,3.9C19.5,19,17.7,19.3,16.4,18.4z"/>
<radialGradient id="XMLID_11_" cx="57.2562" cy="12.0709" r="2.8151" gradientUnits="userSpaceOnUse">
	<stop  offset="0.1991" style="stop-color:#EAFF2D"/>
	<stop  offset="0.3391" style="stop-color:#E7FD2C"/>
	<stop  offset="0.4494" style="stop-color:#DDF72A"/>
	<stop  offset="0.5495" style="stop-color:#CCEE27"/>
	<stop  offset="0.6437" style="stop-color:#B5E022"/>
	<stop  offset="0.7333" style="stop-color:#97CE1B"/>
	<stop  offset="0.819" style="stop-color:#72B913"/>
	<stop  offset="0.8229" style="stop-color:#70B813"/>
</radialGradient>
<path id="XMLID_4_" class="st1" d="M57.9,14.9c1.3-0.3,2.3-1.7,2-3.2c-0.2-1.6-1.2-2.6-2.9-2.5c-1.5,0.1-2.8,1.7-2.5,3.3
	C54.8,14.1,56.6,15.2,57.9,14.9z"/>
<radialGradient id="XMLID_12_" cx="46.36" cy="4.3031" r="1.3784" gradientUnits="userSpaceOnUse">
	<stop  offset="0.1991" style="stop-color:#EAFF2D"/>
	<stop  offset="0.3391" style="stop-color:#E7FD2C"/>
	<stop  offset="0.4494" style="stop-color:#DDF72A"/>
	<stop  offset="0.5495" style="stop-color:#CCEE27"/>
	<stop  offset="0.6437" style="stop-color:#B5E022"/>
	<stop  offset="0.7333" style="stop-color:#97CE1B"/>
	<stop  offset="0.819" style="stop-color:#72B913"/>
	<stop  offset="0.8229" style="stop-color:#70B813"/>
</radialGradient>
<path id="XMLID_3_" class="st2" d="M47.6,4.9c-0.3,0.7-1,0.9-1.6,0.7c-0.8-0.2-1.1-1-0.8-1.7c0.3-0.7,1.3-1.3,2-0.9
	C47.7,3.4,47.9,4.2,47.6,4.9z"/>
<radialGradient id="XMLID_13_" cx="46.9101" cy="29.072" r="2.1179" gradientUnits="userSpaceOnUse">
	<stop  offset="0.1991" style="stop-color:#EAFF2D"/>
	<stop  offset="0.3391" style="stop-color:#E7FD2C"/>
	<stop  offset="0.4494" style="stop-color:#DDF72A"/>
	<stop  offset="0.5495" style="stop-color:#CCEE27"/>
	<stop  offset="0.6437" style="stop-color:#B5E022"/>
	<stop  offset="0.7333" style="stop-color:#97CE1B"/>
	<stop  offset="0.819" style="stop-color:#72B913"/>
	<stop  offset="0.8229" style="stop-color:#70B813"/>
</radialGradient>
<path id="XMLID_2_" class="st3" d="M47,31c-1.2,0.2-2-0.6-2.3-1.6c-0.3-1.1,0.5-2.2,1.7-2.3c1.2-0.2,2.8,0.7,2.7,2
	C49.1,30.1,48.2,30.8,47,31z"/>
<radialGradient id="XMLID_14_" cx="41.1171" cy="16.0281" r="13.4327" gradientUnits="userSpaceOnUse">
	<stop  offset="0.1991" style="stop-color:#EAFF2D"/>
	<stop  offset="0.3391" style="stop-color:#E7FD2C"/>
	<stop  offset="0.4494" style="stop-color:#DDF72A"/>
	<stop  offset="0.5495" style="stop-color:#CCEE27"/>
	<stop  offset="0.6437" style="stop-color:#B5E022"/>
	<stop  offset="0.7333" style="stop-color:#97CE1B"/>
	<stop  offset="0.819" style="stop-color:#72B913"/>
	<stop  offset="0.8229" style="stop-color:#70B813"/>
</radialGradient>
<path id="XMLID_1_" class="st4" d="M28.5,12.8c4.2,0.5,6.5-1.3,6.9-3.9c0.6-4.3,3.5-7.8,6.9-5.5c1.4,1,1.3,2.9-0.4,4.4
	c-2.5,2,1.3,3.5,3,1.1c1.5-2.2,3.6-2.3,5.3-1.4c1.4,0.7,2.1,2.8,0.2,4.6c-0.9,0.8-2.8,0.6-2.2,2.1c0.5,1.6,2.9-0.4,5.3,1.1
	c1.6,0.9,1.8,3.2,0.5,4.2c-1.5,1.2-3,0.5-4.3-0.2c-1.7-0.9-3.1,1.3-1,2c1.8,0.5,4.5,1.4,2.5,4.1c-0.8,1-2.6,0.9-4.7-1.2
	c-0.7-0.7-1.2-1.2-2.3-0.8c-1,0.4-0.9,1.2-0.7,3.3c0.2,2-1.5,3.1-3.2,2.6c-2.3-0.6-3-2.4-2.4-4.5c0.5-1.7,0.2-3.4-1.2-2.9
	c-1.1,0.4-0.1,3.1-1.2,4.3c-1,1.1-3.4,0.7-4.2-1.6c-1.2-3,1.4-3.7,1.4-6.7c0-2.9-3.2-3.1-4.3-3.7C27.2,13.5,27.4,12.6,28.5,12.8z"/>
</svg>
