<?xml version="1.0" encoding="utf-8"?>
<!-- Generator: Adobe Illustrator 19.0.0, SVG Export Plug-In . SVG Version: 6.00 Build 0)  -->
<svg version="1.1" id="レイヤー_1" xmlns="http://www.w3.org/2000/svg" xmlns:xlink="http://www.w3.org/1999/xlink" x="0px"
	 y="0px" viewBox="0 0 60 32" style="enable-background:new 0 0 60 32;" xml:space="preserve">
<style type="text/css">
	.st0{fill:#FFFFFF;}
	.st1{fill:url('ico_failure-02c2d2a62de8c67b516a7330c9e979935ef107d98bb3a41d5d4464574b321fa4.svg');}
	.st2{fill:url('ico_failure-02c2d2a62de8c67b516a7330c9e979935ef107d98bb3a41d5d4464574b321fa4.svg');}
	.st3{fill:url('ico_failure-02c2d2a62de8c67b516a7330c9e979935ef107d98bb3a41d5d4464574b321fa4.svg');}
	.st4{fill:url('ico_failure-02c2d2a62de8c67b516a7330c9e979935ef107d98bb3a41d5d4464574b321fa4.svg');}
	.st5{fill:url('ico_failure-02c2d2a62de8c67b516a7330c9e979935ef107d98bb3a41d5d4464574b321fa4.svg');}
</style>
<path id="XMLID_7_" class="st0" d="M44.5,19.2l-9-0.6c-0.1,0.1-0.1,0.2-0.2,0.2c-0.6,0.5-4,1.5-2.3,5.6c0,0,2.5,0.1,4.1-2.1
	c-0.2,0.2-2.4,3.1-0.9,5.2c0,0,1.9,0.8,4.3-2.6c-2.3,3.4-0.9,4.9-0.9,4.9c2.5,0.6,4.4-2.5,4.5-2.7c-1.4,2.3-0.4,4.6-0.4,4.6
	c4.5,0.2,4.1-3.4,4.4-4.1c0-0.1,0.1-0.2,0.2-0.3L44.5,19.2z"/>
<path id="XMLID_6_" class="st0" d="M56.7,1.3C54.6-0.1,35.3,4.2,33.9,8c-0.6,1.8,3.7,5.1,3.7,5.1s-0.1,0.5-0.2,1.1l5,0.3l-2.3-5
	l3.4-3.2l4,8.5l9.4,0.6L55,19.9l-5.5-0.4l2.1,4.5c0.5-0.4,0.9-0.6,0.9-0.6s4.7,2.8,6.1,1.6C61.8,22.3,58.8,2.8,56.7,1.3z"/>
<radialGradient id="XMLID_9_" cx="46.2541" cy="6.3927" r="7.2142" gradientUnits="userSpaceOnUse">
	<stop  offset="0.1991" style="stop-color:#6230FF"/>
	<stop  offset="0.3887" style="stop-color:#622DFC"/>
	<stop  offset="0.5381" style="stop-color:#6025F2"/>
	<stop  offset="0.6737" style="stop-color:#5E17E1"/>
	<stop  offset="0.8004" style="stop-color:#5B04CA"/>
	<stop  offset="0.8229" style="stop-color:#5A00C5"/>
</radialGradient>
<path id="XMLID_5_" class="st1" d="M37.6,5.2c1.5,0.2,1.7,1.7,4.2,1.9c3.4,0.3,2.5-2.3,3.9-2.4c1.3-0.1-0.8,7.1,4,7.2
	c3.3,0,3.4-4.2,3.1-7c-0.3-2.9,1.5-3.6,2.1-3.8C51.1,1,42.6,2.9,37.6,5.2z"/>
<radialGradient id="XMLID_10_" cx="30.9822" cy="10.0617" r="2.9375" gradientUnits="userSpaceOnUse">
	<stop  offset="0.1991" style="stop-color:#6230FF"/>
	<stop  offset="0.3887" style="stop-color:#622DFC"/>
	<stop  offset="0.5381" style="stop-color:#6025F2"/>
	<stop  offset="0.6737" style="stop-color:#5E17E1"/>
	<stop  offset="0.8004" style="stop-color:#5B04CA"/>
	<stop  offset="0.8229" style="stop-color:#5A00C5"/>
</radialGradient>
<path id="XMLID_4_" class="st2" d="M31.7,13c1.4-0.3,2.4-1.7,2.1-3.4c-0.3-1.6-1.3-2.7-3-2.6c-1.5,0.1-2.9,1.8-2.6,3.5
	C28.4,12.2,30.3,13.3,31.7,13z"/>
<radialGradient id="XMLID_11_" cx="19.6129" cy="1.9576" r="1.4382" gradientUnits="userSpaceOnUse">
	<stop  offset="0.1991" style="stop-color:#6230FF"/>
	<stop  offset="0.3887" style="stop-color:#622DFC"/>
	<stop  offset="0.5381" style="stop-color:#6025F2"/>
	<stop  offset="0.6737" style="stop-color:#5E17E1"/>
	<stop  offset="0.8004" style="stop-color:#5B04CA"/>
	<stop  offset="0.8229" style="stop-color:#5A00C5"/>
</radialGradient>
<path id="XMLID_3_" class="st3" d="M20.9,2.6c-0.3,0.8-1,0.9-1.7,0.8c-0.8-0.2-1.2-1-0.8-1.8c0.3-0.8,1.4-1.4,2.1-0.9
	C21,1.1,21.2,1.8,20.9,2.6z"/>
<radialGradient id="XMLID_12_" cx="20.1872" cy="27.8009" r="2.2098" gradientUnits="userSpaceOnUse">
	<stop  offset="0.1991" style="stop-color:#6230FF"/>
	<stop  offset="0.3887" style="stop-color:#622DFC"/>
	<stop  offset="0.5381" style="stop-color:#6025F2"/>
	<stop  offset="0.6737" style="stop-color:#5E17E1"/>
	<stop  offset="0.8004" style="stop-color:#5B04CA"/>
	<stop  offset="0.8229" style="stop-color:#5A00C5"/>
</radialGradient>
<path id="XMLID_2_" class="st4" d="M20.3,29.8c-1.3,0.2-2.1-0.6-2.4-1.6c-0.4-1.2,0.5-2.2,1.8-2.4c1.3-0.2,2.9,0.7,2.9,2.1
	C22.5,28.9,21.6,29.7,20.3,29.8z"/>
<radialGradient id="XMLID_13_" cx="14.1429" cy="14.1912" r="14.0155" gradientUnits="userSpaceOnUse">
	<stop  offset="0.1991" style="stop-color:#6230FF"/>
	<stop  offset="0.3887" style="stop-color:#622DFC"/>
	<stop  offset="0.5381" style="stop-color:#6025F2"/>
	<stop  offset="0.6737" style="stop-color:#5E17E1"/>
	<stop  offset="0.8004" style="stop-color:#5B04CA"/>
	<stop  offset="0.8229" style="stop-color:#5A00C5"/>
</radialGradient>
<path id="XMLID_1_" class="st5" d="M1,10.8c4.3,0.6,6.8-1.3,7.2-4c0.7-4.5,3.7-8.1,7.2-5.7c1.5,1,1.4,3.1-0.4,4.6
	c-2.6,2.1,1.4,3.6,3.1,1.1c1.6-2.3,3.8-2.4,5.5-1.5c1.5,0.7,2.2,2.9,0.2,4.8c-1,0.9-2.9,0.6-2.3,2.2c0.6,1.6,3.1-0.4,5.5,1.1
	c1.6,1,1.9,3.3,0.5,4.4c-1.6,1.2-3.1,0.5-4.5-0.2c-1.7-0.9-3.2,1.4-1.1,2c1.8,0.6,4.7,1.5,2.6,4.3c-0.8,1.1-2.8,0.9-4.9-1.3
	c-0.7-0.8-1.2-1.3-2.4-0.8c-1,0.4-1,1.3-0.7,3.4c0.2,2.1-1.6,3.2-3.3,2.8c-2.4-0.6-3.1-2.5-2.5-4.7c0.5-1.8,0.2-3.6-1.2-3.1
	c-1.1,0.4-0.1,3.3-1.2,4.5c-1.1,1.1-3.5,0.7-4.4-1.6c-1.2-3.1,1.4-3.9,1.5-7c0-3-3.4-3.2-4.5-3.8C-0.4,11.6-0.2,10.7,1,10.8z"/>
</svg>
