<?xml version="1.0" encoding="utf-8"?>
<!-- Generator: Adobe Illustrator 19.0.0, SVG Export Plug-In . SVG Version: 6.00 Build 0)  -->
<svg version="1.1" id="レイヤー_1" xmlns="http://www.w3.org/2000/svg" xmlns:xlink="http://www.w3.org/1999/xlink" x="0px"
	 y="0px" viewBox="0 0 22 24" style="enable-background:new 0 0 22 24;" xml:space="preserve">
<style type="text/css">
	.st0{fill:#FF6E00;}
</style>
<g>
	<path class="st0" d="M11,0C9.1,0-0.7,10.5,0,13.3c0.4,1.3,4.4,1.5,4.4,1.5s1.3,2.9,0.9,4.3c-0.2,0.6-1.8,2.5,0.9,4.3
		c0,0,1.5-1,1.6-2.9c0,0.2-0.1,2.8,1.6,3.5c0,0,1.5-0.3,1.5-3.3c0,3,1.5,3.3,1.5,3.3c1.7-0.6,1.6-3.3,1.6-3.5c0.1,2,1.6,2.9,1.6,2.9
		c2.7-1.7,1.1-3.7,0.9-4.3c-0.4-1.4,0.9-4.3,0.9-4.3s4-0.2,4.4-1.5C22.7,10.5,12.8,0,11,0z M14,17c-1.9,0-2.1-0.8-3-0.8
		c-0.9,0-1.1,0.8-3,0.8c-2,0-3.6-1.9-3.6-4.1c0-2.2,1.4-4.3,4.2-4.1c1.4,0.1,1.8,0.7,2.4,0.7c0.6,0,0.9-0.6,2.4-0.7
		c2.8-0.2,4.2,1.9,4.2,4.1C17.6,15.1,16,17,14,17z"/>
	<path class="st0" d="M13.8,9.2c-1.2,0-2.3,0.8-2.8,1.9C10.5,10,9.4,9.2,8.2,9.2c-1.7,0-3.1,1.5-3.1,3.3c0,1.8,1.4,3.3,3.1,3.3
		c1.2,0,2.3-0.8,2.8-1.9c0.5,1.1,1.6,1.9,2.8,1.9c1.7,0,3.1-1.5,3.1-3.3C16.9,10.7,15.5,9.2,13.8,9.2z M8.5,13.1
		c-1,0-1.8-0.8-1.8-1.7c0-0.9,0.8-1.7,1.8-1.7c1,0,1.8,0.8,1.8,1.7C10.3,12.4,9.5,13.1,8.5,13.1z M13.5,13.1c-1,0-1.8-0.8-1.8-1.7
		c0-0.9,0.8-1.7,1.8-1.7c1,0,1.8,0.8,1.8,1.7C15.4,12.4,14.6,13.1,13.5,13.1z"/>
</g>
</svg>
