<?xml version="1.0" encoding="utf-8"?>
<!-- Generator: Adobe Illustrator 19.0.0, SVG Export Plug-In . SVG Version: 6.00 Build 0)  -->
<svg version="1.1" id="レイヤー_1" xmlns="http://www.w3.org/2000/svg" xmlns:xlink="http://www.w3.org/1999/xlink" x="0px"
	 y="0px" viewBox="0 0 18 18" style="enable-background:new 0 0 18 18;" xml:space="preserve">
<style type="text/css">
	.st0{fill:#FFFFFF;}
</style>
<g id="XMLID_7_">
	<path id="XMLID_12_" class="st0" d="M9,0C7.6,0,0.3,7.9,0.8,10c0.3,1,3.2,1.2,3.2,1.2s1,2.2,0.7,3.2c-0.1,0.4-1.4,1.9,0.7,3.2
		c0,0,1.2-0.7,1.2-2.2c0,0.2-0.1,2.1,1.2,2.6c0,0,1.1-0.2,1.1-2.5c0,2.2,1.1,2.5,1.1,2.5c1.3-0.5,1.2-2.5,1.2-2.6
		c0.1,1.5,1.2,2.2,1.2,2.2c2-1.3,0.8-2.8,0.7-3.2c-0.3-1.1,0.7-3.2,0.7-3.2s3-0.2,3.2-1.2C17.7,7.9,10.4,0,9,0z M11.2,12.7
		c-1.4,0-1.5-0.6-2.2-0.6c-0.7,0-0.8,0.6-2.2,0.6c-1.5,0-2.7-1.4-2.7-3.1c0-1.6,1-3.2,3.1-3.1C8.3,6.6,8.6,7.1,9,7.1
		c0.4,0,0.7-0.4,1.8-0.5c2.1-0.2,3.1,1.4,3.1,3.1C13.9,11.3,12.7,12.7,11.2,12.7z"/>
	<path id="XMLID_8_" class="st0" d="M11.1,6.9c-0.9,0-1.7,0.6-2.1,1.4C8.6,7.5,7.8,6.9,6.9,6.9C5.7,6.9,4.6,8,4.6,9.4
		c0,1.4,1,2.5,2.3,2.5c0.9,0,1.7-0.6,2.1-1.4c0.4,0.8,1.2,1.4,2.1,1.4c1.3,0,2.3-1.1,2.3-2.5C13.4,8,12.3,6.9,11.1,6.9z M7.1,9.8
		c-0.8,0-1.4-0.6-1.4-1.3c0-0.7,0.6-1.3,1.4-1.3c0.8,0,1.4,0.6,1.4,1.3C8.5,9.3,7.9,9.8,7.1,9.8z M10.9,9.8c-0.7,0-1.4-0.6-1.4-1.3
		c0-0.7,0.6-1.3,1.4-1.3c0.8,0,1.4,0.6,1.4,1.3C12.3,9.3,11.6,9.8,10.9,9.8z"/>
</g>
</svg>
