<?xml version="1.0" encoding="utf-8"?>
<!-- Generator: Adobe Illustrator 17.1.0, SVG Export Plug-In . SVG Version: 6.00 Build 0)  -->
<!DOCTYPE svg PUBLIC "-//W3C//DTD SVG 1.1//EN" "http://www.w3.org/Graphics/SVG/1.1/DTD/svg11.dtd">

<svg enable-background="new 0 0 99 40.9" version="1.1" viewbox="0 0 99 40.9" x="0px" xml:space="preserve" xmlns="http://www.w3.org/2000/svg" xmlns:xlink="http://www.w3.org/1999/xlink" y="0px">
<g display="none" id="bg">
<rect display="inline" height="80.6" width="447.8" x="-1" y="-38"></rect>
</g>
<g id="レイヤー_1">
<g>
<path d="M17.4,40.7C11,40.7,6,39.2,3,33.7c-3.4-6.2-3.4-20.1-0.4-25.4C6.1,2.1,11,0.6,17.9,0.6c6.7,0,12.7,3.1,14.6,11.2
			c2.1,8.6,1.9,17.7-1.4,22.8C27.9,39.7,22.6,40.7,17.4,40.7z M15.1,26.1c0.1,2.2,1.2,4.4,3.9,4.4c2.5-0.1,4.1-1.5,4.2-4.5
			c0.1-2.8-1.1-5.2-4.2-4.9C16,21.2,15.1,24,15.1,26.1z"></path>
<path d="M73.3,40.2c-7.1,0.2-11.8,0.1-13,0c-2.6-3.8-6-9.2-6-9.2c-0.8,0.9-1,1.2-1.1,1.4c-0.2,0.2-0.3,0.4-0.6,0.8
			c0,3.5,0,4.5-0.1,7c-7.2,0.2-12.7,0.1-14.3,0c-0.2-18.1-0.1-35.8,0-39.1C44.7,1,50.7,1,52.5,1.1c0.1,2.5,0.1,7.6,0.1,7.6
			s3.7-5.3,5.6-7.6C59.4,1,65.6,1,74.6,1c-6.7,10.3-13.3,19.9-13.3,19.9C66.3,28.6,71.7,37.4,73.3,40.2z"></path>
<path d="M82,29c-0.4-2.7-2-15.4-3-28.1c2.3-0.1,10.7-0.4,19.4,0c-0.1,2.8-0.7,15-3.1,28C93.6,28.9,87.6,29,82,29z M82.3,40.4
			c-0.1-1.3-0.2-4.7-0.2-7.3c1.8-0.1,7.6-0.3,13.1,0c0,1.3-0.1,4.5-0.2,7.3C93.3,40.4,87.9,40.5,82.3,40.4z"></path>
</g>
</g>
</svg>
