<?xml version="1.0" encoding="utf-8"?>
<!-- Generator: Adobe Illustrator 17.1.0, SVG Export Plug-In . SVG Version: 6.00 Build 0)  -->
<!DOCTYPE svg PUBLIC "-//W3C//DTD SVG 1.1//EN" "http://www.w3.org/Graphics/SVG/1.1/DTD/svg11.dtd">

<svg enable-background="new 0 0 58.5 14" version="1.1" viewbox="0 0 58.5 14" x="0px" xml:space="preserve" xmlns="http://www.w3.org/2000/svg" xmlns:xlink="http://www.w3.org/1999/xlink" y="0px">
<g display="none" id="bg">
<rect display="inline" height="80.6" width="447.8" x="-1" y="-64.9"></rect>
</g>
<g id="レイヤー_1">
<g>
<path d="M0.4,13.9V0.6h4.8v5.5H2.3v7.7H0.4z M3.4,2.3H2.3v0.5h1.1V2.3z M3.4,4.1H2.3v0.5h1.1V4.1z M8.2,13.9
			l-0.7-2v2H5.7v-2.7H4.9C4.8,12,4.5,13,3.8,13.9l-1.4-1.6C2.7,12,3,11.5,3.1,11.1H2.6V9.3h0.7V8.4H2.6V6.6h5.5v1.9H7.5v0.8h0.8v1.9
			H7.5v0.3h0.2c0.8,0,0.8,0,0.8-0.5V6.2h-3V0.6h7.6V11c0,2.4-1,2.8-2.9,2.8H8.2z M5.7,8.4H5.1v0.8h0.6V8.4z M8.5,2.3H7.3v0.5h1.2
			V2.3z M8.5,4.1H7.3v0.5h1.2V4.1z" fill="#FFFFFF"></path>
<path d="M23.5,13.9v-0.4h-1.8v0.4h-1.9v-1.8l-0.7,1.3c0,0-0.5-0.7-1.2-1.5c-0.6,0.8-1.2,1.5-2,2L15,11.4
			c0.6-0.3,1.1-0.8,1.5-1.3c-0.5-0.5-1-1-1.5-1.4c0,0,0.5-1.8,0.8-4.3H15V2.2h0.9C15.9,1.6,16,1,16,0.4h1.9c0,0.6,0,1.2-0.1,1.8h2.1
			c0,0.9,0,1.6-0.1,2.4h0.2c0.5-1.5,0.8-3,1-4.1L23,0.9c-0.3,1.3-0.6,2.4-1,3.6c0.5,0,1-0.1,1.4-0.1c-0.1-0.6-0.3-1.2-0.5-1.8
			l4.2-0.9c0.6,1.7,1,3,1.4,5l-3.6,0.9h3.1v6.4H23.5z M17.6,4.4c-0.2,2-0.5,3.4-0.5,3.4c0.1,0.1,0.2,0.2,0.3,0.3
			C17.9,6.7,18,5.3,18,4.4H17.6z M23.9,6.5c-0.8,0.1-2.1,0.3-4.1,0.4l-0.1-0.9c-0.2,1.4-0.4,2.6-0.7,3.6c0.3,0.3,0.6,0.6,0.8,0.9
			V7.5h4.3L23.9,6.5z M23.5,9.6h-1.8v1.8h1.8V9.6z" fill="#FFFFFF"></path>
<path d="M31.9,12.4v0.9h-1.6V0.7H34v11.7H31.9z M32.3,2.8h-0.4v2.6h0.4V2.8z M32.3,7.4h-0.4v2.8h0.4V7.4z
			 M37.1,13.9l-0.8-2.1l-0.7,0.6c0,0-0.6-1.1-1.3-2.3l1.2-0.8h-1.1V7.1h4.1V6.5h-4.2V4.2h2.4V3.6h-2V1.4h2v-1h2.1v1h4.5v2.3h-4.5
			v0.6h4.8v2.3h-0.7v0.6h0.8v2.3h-0.8v1.8c0,1.8-0.6,2.8-2.7,2.8H37.1z M38.4,9.3h-2.2c0.6,0.8,1.1,1.7,1.1,1.7l-0.5,0.4h1
			c0.5,0,0.6-0.2,0.6-0.7V9.3z" fill="#FFFFFF"></path>
<path d="M45.4,13.9V0.6h4.8v5.5h-2.9v7.7H45.4z M48.4,2.3h-1.1v0.5h1.1V2.3z M48.4,4.1h-1.1v0.5h1.1V4.1z
			 M52.7,13.9L52.4,13h-4.5V6.7h4.8v4.8H53c0.3,0,0.4-0.1,0.4-0.3v-5h-2.9V0.6h7.6v10.3c0,2.5-0.9,2.9-2.9,2.9H52.7z M50.9,8.5h-1.3
			v0.6h1.3V8.5z M50.9,10.6h-1.3v0.6h1.3V10.6z M53.4,2.3h-1.1v0.5h1.1V2.3z M53.4,4.1h-1.1v0.5h1.1V4.1z" fill="#FFFFFF"></path>
</g>
</g>
</svg>
