<?xml version="1.0" encoding="utf-8"?>
<!-- Generator: Adobe Illustrator 17.1.0, SVG Export Plug-In . SVG Version: 6.00 Build 0)  -->
<!DOCTYPE svg PUBLIC "-//W3C//DTD SVG 1.1//EN" "http://www.w3.org/Graphics/SVG/1.1/DTD/svg11.dtd">

<svg enable-background="new 0 0 170.6 48" version="1.1" viewbox="0 0 170.6 48" x="0px" xml:space="preserve" xmlns="http://www.w3.org/2000/svg" xmlns:xlink="http://www.w3.org/1999/xlink" y="0px">
<g display="none" id="bg">
<rect display="inline" height="87.9" width="341.3" y="-39.8"></rect>
</g>
<g id="レイヤー_1">
<g>
<path d="M21.8,28h-4.3c-0.3,3.5-0.5,6.7-0.8,9.6c-0.3,2.8-0.7,5.3-1.3,7.4c-3,0-8.3,0-10.1,0c1-10,1-16.9,1-16.9
			h-5c-0.1-1.7-0.3-7.7-0.2-13.6c1.1,0,2.3-0.1,3.2-0.1c0.5,0,0.9,0,1.2,0c0.1,0,0.3,0,0.3,0c0.1,0,0.2-0.1,0.2-0.1
			c0.4-0.1,0.5-0.3,0.4-0.5v-4c5-0.1,10.3,0,11.9,0c0,1.6,0,4.4,0,4.4s10-0.1,14.1,0.1c0.1,1.5,0.4,8,0.1,30.3
			c-1.8,0-8,0.3-11.8,0.2C21,43.5,21.5,39.4,21.8,28z M22.2,11.3c0-0.9-0.1-1.5-0.1-2.6c0-1.3,0-3.4,0-7.5c0.9-0.1,3-0.1,5.7-0.1
			c0.1,1.5,0.3,6.1,0.2,10.1H22.2z M30.8,1.2c0.9,0,3.1,0,5.7,0c0,1.5,0.2,6,0.1,10.1c-1,0-3.2,0.1-5.6,0.1
			C31,10.3,30.9,7.6,30.8,1.2z" fill="#FFFFFF"></path>
<path d="M59.4,34.4c-0.2,7.6-3.2,8.6-8.2,9.9c0,0-4.4,1.2-11.1,0.9c-0.2-1.5-0.2-3.5-0.3-4.5
			c8.1,0.6,8.3-6.5,8.3-6.5h-9.3c0-1.6-0.2-6.4-0.2-10.5h9.7v-2.8c0,0-4,0-6.7-0.1c-0.1-1-0.1-3.9,0-8.6c2.5-0.1,13.8-0.5,24.4-3.3
			c0,1.6,0,5.8,0,9.5C64.7,19,62,19.7,59.6,20v3.9h8.8c0,1.5,0.1,6.3,0,10.5H59.4z" fill="#FFFFFF"></path>
<path d="M101,31.3c-0.7,0.8-1.3,1.4-1.9,2c-0.2,0.2-2.7,2.5-5.1,3.6c0,0,2.3,2.1,4,3.1c-1,1.2-4,4.4-6.8,6.9
			c-1.6-1.4-8.2-6.9-12.3-11c1-1,4.2-4.5,6.2-6.2c0.3,0.5,1.1,1.4,3.2,3c2.7-2.5,4.5-4.8,4.3-8.2c0,0-11.8,0.1-21.1,0
			c0-1.5,0.1-6.6,0.2-11.6c3,0,20.2-0.1,34.1,0.1c0.4,3.4,0,7.2,0,7.2c-0.5,3.6-1.5,6.3-2.9,8.4C102.3,29.7,101.6,30.6,101,31.3z" fill="#FFFFFF"></path>
<path d="M115.3,20.2c0.8,5.3,0.8,9.2,0.8,10.4c-2.6,0-5.4,0-6.3,0c-1.2-4.5-1-9.2-0.9-10.5
			C111.3,20.2,114.3,20.2,115.3,20.2z M137.2,20.1c0.3,4.9,0,7.5-1.1,12.6c-1.3,5.9-6.1,9.9-9.9,11.1c-3.7,1.1-11.3,0.9-11.3,0.9
			c0-1.8,0-3,0-3.5c4.3-0.1,7.1-2.5,9.1-4.4c3-3,3.7-9.6,3.2-16.7C127.3,20.1,131.4,20,137.2,20.1z M123.5,20.1
			c0.8,5.6,1,9.4,0.9,10.5c0,0-2.5,0-6.1,0c-0.8-4.6-1-9.1-0.9-10.4C117.4,20.2,119.7,20.2,123.5,20.1z" fill="#FFFFFF"></path>
<path d="M160.8,34.4c-0.2,7.6-3.2,8.6-8.2,9.9c0,0-4.4,1.2-11.1,0.9c-0.2-1.5-0.2-3.5-0.3-4.5
			c8.1,0.6,8.3-6.5,8.3-6.5h-9.3c0-1.6-0.2-6.4-0.2-10.5h9.7v-2.8c0,0-4,0-6.7-0.1c-0.1-1-0.1-3.9,0-8.6c2.5-0.1,13.8-0.5,24.4-3.3
			c0,1.6,0,5.8,0,9.5c-1.4,0.6-4.1,1.3-6.5,1.6v3.9h8.8c0,1.5,0.1,6.3,0,10.5H160.8z" fill="#FFFFFF"></path>
</g>
</g>
</svg>
