<?xml version="1.0" encoding="utf-8"?>
<!-- Generator: Adobe Illustrator 19.0.0, SVG Export Plug-In . SVG Version: 6.00 Build 0)  -->
<svg version="1.1" id="レイヤー_1" xmlns="http://www.w3.org/2000/svg" xmlns:xlink="http://www.w3.org/1999/xlink" x="0px"
	 y="0px" viewBox="-26 31.1 70.4 20.9" style="enable-background:new -26 31.1 70.4 20.9;" xml:space="preserve">
<style type="text/css">
	.st0{display:none;}
	.st1{display:inline;}
	.st2{fill:#FFFFFF;}
</style>
<g id="bg" class="st0">
	<rect x="-26" y="-29.2" class="st1" width="447.8" height="80.6"/>
</g>
<g id="レイヤー_1_1_">
	<g>
		<path class="st2" d="M-25.7,49.2c3.2-3.3,4.2-5.4,4.2-13.8c0-0.8,0-1.6,0-2.5l4,0.2c-0.4,11.2-1,13.6-4.2,18.4L-25.7,49.2z
			 M-16.2,49.5c0.1-1.4,0.2-5.8,0.2-10c0-3.2,0-6.4-0.2-8l4.2,0.1c-0.2,3.5-0.2,5.7-0.2,7.9v2.6c2.2-1.4,4.6-3.1,6.5-5.2l3.4,8.6
			c-3.1,2.6-6.7,4.5-10.8,6L-16.2,49.5z"/>
		<path class="st2" d="M19.1,44.1c-3.9-0.4-8.3-0.6-12.3-0.6c-2.9,0-5.6,0.1-7.8,0.3V39c5.2-1.2,13.4-2,20.2-2v7.1H19.1z"/>
		<path class="st2" d="M20.6,49.2c3.2-3.3,4.2-5.4,4.2-13.8c0-0.8,0-1.6,0-2.5l4,0.2c-0.3,11.2-0.9,13.6-4.1,18.5L20.6,49.2z
			 M30.2,49.5c0.1-1.3,0.2-5.7,0.2-10c0-3.2,0-6.4-0.2-8l4.2,0.1c-0.2,3.5-0.2,5.7-0.2,7.9v2.6c2.2-1.4,4.6-3.1,6.5-5.2l3.4,8.6
			c-3.1,2.6-6.7,4.5-10.8,6L30.2,49.5z"/>
	</g>
</g>
</svg>
