<?xml version="1.0" encoding="utf-8"?>
<!-- Generator: Adobe Illustrator 17.1.0, SVG Export Plug-In . SVG Version: 6.00 Build 0)  -->
<!DOCTYPE svg PUBLIC "-//W3C//DTD SVG 1.1//EN" "http://www.w3.org/Graphics/SVG/1.1/DTD/svg11.dtd">

<svg enable-background="new 0 0 16.6 19.8" id="レイヤー_1" version="1.1" viewbox="0 0 16.6 19.8" x="0px" xml:space="preserve" xmlns="http://www.w3.org/2000/svg" xmlns:xlink="http://www.w3.org/1999/xlink" y="0px">
<g>
<path d="M1,15.9c-1.6-3.6-1-9.4,0.5-12.1C3.2,1.1,4.7,0.2,7.7,0c3.5-0.1,5.6,1,7.1,3.2c1.7,2.5,2.5,7,1,11.8
		c-0.9,2.9-3.4,4.8-7.1,4.7C5.8,19.7,2.5,19.5,1,15.9z M5.1,9c-0.1,1-0.1,2.5,1.4,2.8c1.3,0.3,2.4-0.3,2.6-2C9.2,8.6,8.8,7,7.4,6.8
		C5.7,6.7,5.2,8.1,5.1,9z" fill="#FF4E00"></path>
</g>
</svg>
