<?xml version="1.0" encoding="utf-8"?>
<!-- Generator: Adobe Illustrator 17.1.0, SVG Export Plug-In . SVG Version: 6.00 Build 0)  -->
<!DOCTYPE svg PUBLIC "-//W3C//DTD SVG 1.1//EN" "http://www.w3.org/Graphics/SVG/1.1/DTD/svg11.dtd">

<svg enable-background="new 0 0 25.4 32.7" id="レイヤー_1" version="1.1" viewbox="0 0 25.4 32.7" x="0px" xml:space="preserve" xmlns="http://www.w3.org/2000/svg" xmlns:xlink="http://www.w3.org/1999/xlink" y="0px">
<g>
<path d="M24.4,27.2c-2.1,4.3-6.4,6-12.5,5.4c0,0-7.7-0.4-11.4-1c0-0.8,0-2.7,0-4.5c3.7,0.8,7.2,0.5,7-3
		c-0.1-2.7-4-3.3-7-2.6l0-3c3.8,0.7,7.7-0.6,7.2-3.7c-0.1-0.1-0.8-4.5-7.5-2.1c0-2-0.2-7.8,0-12.4c3.6-0.3,11.3-0.8,16.1,0.2
		c3.9,0.8,8,3,8.8,8.6c0,0.2,0.7,5.6-3.4,8.4C24.9,19,26.5,22.9,24.4,27.2z" fill="#FFFFFF"></path>
</g>
</svg>
