<?xml version="1.0" encoding="utf-8"?>
<!-- Generator: Adobe Illustrator 19.1.0, SVG Export Plug-In . SVG Version: 6.00 Build 0)  -->
<svg version="1.1" xmlns="http://www.w3.org/2000/svg" xmlns:xlink="http://www.w3.org/1999/xlink" x="0px" y="0px"
	 viewBox="0 0 170.6 48" style="enable-background:new 0 0 170.6 48;" xml:space="preserve">
<style type="text/css">
	.st0{display:none;}
	.st1{display:inline;}
	.st2{fill:#FFFFFF;}
</style>
<g id="bg" class="st0">
	<rect y="-39.8" class="st1" width="341.3" height="87.9"/>
</g>
<g id="レイヤー_1">
	<g>
		<path class="st2" d="M8.8,37.4l-2.4-7.8H5v7.8H1.4V17.2h8.4c3.3,0,5.8,2.4,5.8,6c0,3-1.3,4.9-3.1,5.6l4,8.6H8.8z M6.7,21.1H5v4.8
			h1.6c1.1,0,2-0.9,2-2.5C8.7,21.9,7.7,21.1,6.7,21.1z"/>
		<path class="st2" d="M29.8,37.6c-0.4,0.1-0.8,0.2-1.4,0.2c-1.9,0-4.3-0.6-4.5-1.6c-0.6,1.2-1.9,1.6-3.4,1.6c-1.9,0-3.4-1.5-3.4-4
			c0,0,0-0.1,0-0.1c0-2.7,1-4.2,3.4-5.1c1.3-0.4,2.1-0.9,2.1-1.5c0-0.8-0.3-1-1.3-1c-0.8,0-2.2,0.9-2.8,2.1L17.4,25
			c1-1.5,3.3-2.4,5.6-2.4c3.9,0,5.8,1.7,5.8,4.9v4.7c0,0.8,0.2,1.1,0.9,1.1c0.2,0,0.5,0,0.8-0.1L29.8,37.6z M22.8,30.4
			c-0.4,0.3-0.8,0.6-1.4,0.9c-0.7,0.3-1,0.9-1,1.9c0,0.7,0.3,1.1,0.9,1.1c0.6,0,1.3-0.7,1.5-1.7V30.4z"/>
		<path class="st2" d="M38.3,37.4v-8.9c0-1.4-0.5-2.3-1.3-2.3c-0.8,0-1.5,0.8-1.8,2v9.2h-3.3V22.9h3v1.6c0.5-1,2.1-2,3.9-2
			c3.4,0,5.6,2.2,5.6,5.1v9.7H38.3z"/>
		<path class="st2" d="M53.4,37.4l-2.7-5.6v5.6h-3.3V17.2h3.3V27l2.5-4h6l-4,5.8l4.7,8.7H53.4z"/>
		<path class="st2" d="M63.7,31.9c0.1,1.2,1,2.2,2,2.2c1.1,0,1.7-0.5,1.9-2h5.5c-0.2,3.5-2.5,5.6-6.6,5.6c-3.5,0-6.1-2.9-6.1-7.6
			c0-4.4,2.5-7.6,6-7.6c4.6,0,6.8,2.7,6.8,7.9L63.7,31.9z M65.4,26.2c-0.9,0-1.7,1.1-1.7,2.7l3.6-0.6C67.2,27,66.5,26.2,65.4,26.2z"
			/>
		<path class="st2" d="M82.4,37.4v-1.7c-0.6,1.6-1.9,2-3,2c-2.6,0-4.6-2.6-4.6-7.5c0-4.9,2.1-7.6,4.5-7.6c1.1,0,1.9,0.5,2.4,1.2
			v-6.7h6.3v20.3H82.4z M81.9,28.3c-0.3-1.2-0.9-2-1.7-2c-1,0-1.9,1.2-1.9,3.9c0,2.6,0.8,3.8,1.9,3.8c1,0,1.7-1.1,1.7-2.8V28.3z"/>
		<path class="st2" d="M108.3,37.4h-8.7V17.2h8.3c3.2,0,5.3,2.2,5.3,5.1c0,2.3-1,3.9-2.7,4.2l0,0.1c1.9,0.2,3.6,2,3.6,5.1
			C114.2,35,112,37.4,108.3,37.4z M104.8,21h-1.6v4.2h1.7c0.9,0,1.5-0.8,1.5-2C106.4,21.8,105.7,21,104.8,21z M105.1,28.8h-1.9v4.7
			h2c1.2,0,1.9-0.9,1.9-2.4C107.1,29.6,106.3,28.8,105.1,28.8z"/>
		<path class="st2" d="M128.1,37.6c-0.4,0.1-0.8,0.2-1.4,0.2c-1.9,0-4.3-0.6-4.5-1.6c-0.6,1.2-1.9,1.6-3.4,1.6c-1.9,0-3.4-1.5-3.4-4
			c0,0,0-0.1,0-0.1c0-2.7,1-4.2,3.4-5.1c1.3-0.4,2.1-0.9,2.1-1.5c0-0.8-0.3-1-1.3-1c-0.8,0-2.2,0.9-2.8,2.1l-1.2-3.2
			c1-1.5,3.3-2.4,5.6-2.4c3.9,0,5.8,1.7,5.8,4.9v4.7c0,0.8,0.2,1.1,0.9,1.1c0.2,0,0.5,0,0.8-0.1L128.1,37.6z M121.1,30.4
			c-0.4,0.3-0.8,0.6-1.4,0.9c-0.7,0.3-1,0.9-1,1.9c0,0.7,0.3,1.1,0.9,1.1c0.6,0,1.3-0.7,1.5-1.7V30.4z"/>
		<path class="st2" d="M137.2,37.7c-4.4,0-6.4-1-6.4-4.7v-5.6h-1.3v-4.6h1.5v-4.5h3.7v4.5h2.5v4.6h-2.5V30c0,1.9,0.7,1.9,3.2,1.9
			L137.2,37.7z"/>
		<path class="st2" d="M146.9,37.7c-4.4,0-6.4-1-6.4-4.7v-5.6h-1.3v-4.6h1.5v-4.5h3.7v4.5h2.5v4.6h-2.5V30c0,1.9,0.7,1.9,3.2,1.9
			L146.9,37.7z"/>
		<path class="st2" d="M149.7,37.4V17.2h4.8v20.3H149.7z"/>
		<path class="st2" d="M160.4,31.9c0.1,1.2,1,2.2,2,2.2c1.1,0,1.7-0.5,1.9-2h5.5c-0.2,3.5-2.5,5.6-6.6,5.6c-3.5,0-6.1-2.9-6.1-7.6
			c0-4.4,2.5-7.6,6-7.6c4.6,0,6.8,2.7,6.8,7.9L160.4,31.9z M162.1,26.2c-0.9,0-1.7,1.1-1.7,2.7l3.6-0.6
			C163.9,27,163.2,26.2,162.1,26.2z"/>
	</g>
</g>
</svg>
