<?xml version="1.0" encoding="utf-8"?>
<!-- Generator: Adobe Illustrator 19.1.0, SVG Export Plug-In . SVG Version: 6.00 Build 0)  -->
<svg version="1.1" xmlns="http://www.w3.org/2000/svg" xmlns:xlink="http://www.w3.org/1999/xlink" x="0px" y="0px"
	 viewBox="0 0 70.4 20.9" style="enable-background:new 0 0 70.4 20.9;" xml:space="preserve">
<style type="text/css">
	.st0{display:none;}
	.st1{display:inline;}
	.st2{fill:#FFFFFF;}
</style>
<g id="bg" class="st0">
	<rect y="-59.3" class="st1" width="447.8" height="80.6"/>
</g>
<g id="レイヤー_1">
	<g>
		<path class="st2" d="M5,16.3H0.8V8.1h4c1.5,0,2.5,0.9,2.5,2.1c0,0.9-0.5,1.6-1.3,1.7l0,0c0.9,0.1,1.7,0.8,1.7,2.1
			C7.8,15.3,6.7,16.3,5,16.3z M3.3,9.6H2.6v1.7h0.8c0.5,0,0.7-0.3,0.7-0.8C4.1,10,3.8,9.6,3.3,9.6z M3.5,12.8H2.6v1.9h0.9
			c0.6,0,0.9-0.4,0.9-1C4.4,13.1,4,12.8,3.5,12.8z"/>
		<path class="st2" d="M14.4,16.3c-0.2,0-0.4,0.1-0.7,0.1c-0.9,0-2-0.2-2.1-0.7c-0.3,0.5-0.9,0.7-1.6,0.7c-0.9,0-1.6-0.6-1.6-1.6
			c0,0,0,0,0,0c0-1.1,0.5-1.7,1.6-2c0.6-0.2,1-0.4,1-0.6c0-0.3-0.2-0.4-0.6-0.4c-0.4,0-1,0.4-1.3,0.9l-0.6-1.3c0.5-0.6,1.6-1,2.7-1
			c1.9,0,2.7,0.7,2.7,2v1.9c0,0.3,0.1,0.4,0.4,0.4c0.1,0,0.2,0,0.4,0L14.4,16.3z M11.1,13.4c-0.2,0.1-0.4,0.3-0.7,0.4
			c-0.3,0.1-0.5,0.4-0.5,0.8c0,0.3,0.2,0.5,0.4,0.5c0.3,0,0.6-0.3,0.7-0.7V13.4z"/>
		<path class="st2" d="M18.7,16.4c-2.1,0-3-0.4-3-1.9v-2.2H15v-1.8h0.7V8.6h1.8v1.8h1.2v1.8h-1.2v1c0,0.8,0.3,0.8,1.5,0.8L18.7,16.4
			z"/>
		<path class="st2" d="M23.3,16.4c-2.1,0-3-0.4-3-1.9v-2.2h-0.6v-1.8h0.7V8.6h1.8v1.8h1.2v1.8h-1.2v1c0,0.8,0.3,0.8,1.5,0.8
			L23.3,16.4z"/>
		<path class="st2" d="M24.6,16.3V8.1h2.3v8.2H24.6z"/>
		<path class="st2" d="M29.7,14c0,0.5,0.5,0.9,0.9,0.9c0.5,0,0.8-0.2,0.9-0.8h2.6c-0.1,1.4-1.2,2.3-3.1,2.3c-1.7,0-2.9-1.2-2.9-3.1
			c0-1.8,1.2-3.1,2.9-3.1c2.2,0,3.2,1.1,3.2,3.2L29.7,14z M30.6,11.7c-0.4,0-0.8,0.4-0.8,1.1l1.7-0.2C31.4,12,31.1,11.7,30.6,11.7z"
			/>
		<path class="st2" d="M45,16.3V13c0-0.7,0.1-2.9,0.1-3.2H45c0,0.2-0.2,1.6-0.3,2.1l-0.9,4.4H42l-0.9-4.4c-0.1-0.4-0.3-1.7-0.3-2.1
			h0c0,0.3,0.1,2.4,0.1,3.2v3.2h-1.5V8.1h2.4l1,4.8c0.1,0.5,0.1,1.3,0.1,1.4h0c0-0.1,0-0.9,0.1-1.4L44,8.1H48v8.2H45z"/>
		<path class="st2" d="M52.5,16.4c-1.9,0-3.2-1.2-3.2-3c0-1.9,1.3-3.1,3.2-3.1c1.9,0,3.2,1.2,3.2,3.1C55.7,15.2,54.4,16.4,52.5,16.4
			z M51.9,11.7c-0.5,0-1,0.6-1,1.6c0,1,0.4,1.6,1,1.6c0.6,0,1-0.6,1-1.6C52.9,12.3,52.5,11.7,51.9,11.7z"/>
		<path class="st2" d="M60.1,16.3v-0.7c-0.3,0.7-0.9,0.8-1.4,0.8c-1.2,0-2.2-1-2.2-3c0-2,1-3.1,2.2-3.1c0.5,0,0.9,0.2,1.2,0.5V8.1h3
			v8.2H60.1z M59.8,12.6c-0.1-0.5-0.4-0.8-0.8-0.8c-0.5,0-0.9,0.5-0.9,1.6c0,1.1,0.4,1.5,0.9,1.5c0.5,0,0.8-0.4,0.8-1.1V12.6z"/>
		<path class="st2" d="M65.4,14c0,0.5,0.5,0.9,0.9,0.9c0.5,0,0.8-0.2,0.9-0.8h2.6c-0.1,1.4-1.2,2.3-3.1,2.3c-1.7,0-2.9-1.2-2.9-3.1
			c0-1.8,1.2-3.1,2.9-3.1c2.2,0,3.2,1.1,3.2,3.2L65.4,14z M66.3,11.7c-0.4,0-0.8,0.4-0.8,1.1l1.7-0.2C67.1,12,66.8,11.7,66.3,11.7z"
			/>
	</g>
</g>
</svg>
