<?xml version="1.0" encoding="utf-8"?>
<!-- Generator: Adobe Illustrator 19.1.0, SVG Export Plug-In . SVG Version: 6.00 Build 0)  -->
<svg version="1.1" xmlns="http://www.w3.org/2000/svg" xmlns:xlink="http://www.w3.org/1999/xlink" x="0px" y="0px"
	 viewBox="0 0 245.6 42.6" style="enable-background:new 0 0 245.6 42.6;" xml:space="preserve">
<style type="text/css">
	.st0{display:none;}
	.st1{display:inline;}
	.st2{fill:#FFFFFF;}
</style>
<g id="bg" class="st0">
	<rect y="-45.3" class="st1" width="491.3" height="87.9"/>
</g>
<g id="レイヤー_1">
	<g>
		<path class="st2" d="M16.1,34.6l-3.3-9h-1.9v9H6V11.2h11.4c4.5,0,7.9,2.8,7.9,6.9c0,3.4-1.8,5.6-4.2,6.5l5.5,10H16.1z M13.1,15.8
			H11v5.5h2.2c1.5,0,2.8-1,2.8-2.9C15.9,16.7,14.6,15.8,13.1,15.8z"/>
		<path class="st2" d="M32.3,28.2c0.1,1.4,1.4,2.6,2.7,2.6c1.6,0,2.3-0.6,2.6-2.3h7.4c-0.3,4.1-3.4,6.5-8.9,6.5
			c-4.8,0-8.3-3.4-8.3-8.7c0-5,3.5-8.7,8.2-8.7c6.3,0,9.2,3.1,9.2,9.1L32.3,28.2z M34.6,21.7c-1.2,0-2.4,1.3-2.4,3.1l4.9-0.7
			C37.1,22.6,36.1,21.7,34.6,21.7z"/>
		<path class="st2" d="M56.2,40.7c-2.8,0-5.4-0.4-7-0.9l-0.8-4.6c1.6,0.5,3.4,0.8,4.9,0.8c2.8,0,3.6-0.7,3.6-2.6v-1.1
			c-0.7,0.8-2,1.3-3.3,1.3c-3.2,0-6.2-2.7-6.2-7.9c0-5.3,2.9-8.3,6-8.3c1.9,0,3.3,0.7,3.9,1.9l0.6-1.6h7v15.9
			C65,38.6,61.7,40.7,56.2,40.7z M56.9,23.9c-0.4-1.2-1.3-2-2.5-2c-1.6,0-2.6,1.2-2.6,4c0,2.8,1.1,4.1,2.7,4.1
			c1.3,0,2.4-1.1,2.4-2.8V23.9z"/>
		<path class="st2" d="M78.7,34.6v-1.8C78,34.2,76.4,35,74.4,35c-2.9,0-5.7-2.3-5.7-5.8V17.9h4.5v9.9c0,1.7,1.2,2.6,2.6,2.6
			c1.1,0,2.2-0.7,2.5-2.1V17.9h7.4v16.7H78.7z"/>
		<path class="st2" d="M89.6,34.6V11.2h6.6v23.4H89.6z"/>
		<path class="st2" d="M116.4,34.8c-0.5,0.1-1.1,0.2-1.9,0.2c-2.5,0-5.8-0.7-6.1-1.9c-0.9,1.4-2.6,1.9-4.6,1.9
			c-2.6,0-4.6-1.7-4.6-4.6c0,0,0-0.1,0-0.1c0-3.1,1.3-4.9,4.7-5.8c1.7-0.5,2.9-1,2.9-1.7c0-1-0.5-1.2-1.7-1.2c-1.1,0-3,1-3.8,2.4
			l-1.7-3.7c1.3-1.8,4.5-2.8,7.7-2.8c5.3,0,7.8,1.9,7.8,5.6v5.4c0,0.9,0.3,1.3,1.3,1.3c0.3,0,0.7,0,1.1-0.1L116.4,34.8z M107,26.5
			c-0.5,0.4-1.1,0.7-1.9,1.1c-0.9,0.4-1.4,1-1.4,2.2c0,0.8,0.5,1.3,1.3,1.3c0.9,0,1.8-0.8,2-1.9V26.5z"/>
		<path class="st2" d="M127.7,24.5c-1.5,0-2.8,0.7-3.2,1.8v8.3h-4.9V17.9h4.6v1.8c1-1.4,2.9-2.2,6.5-2.2v7.9
			C129.7,24.8,128.7,24.5,127.7,24.5z"/>
		<path class="st2" d="M156.6,34.6h-11.9V11.2h11.3c4.4,0,7.3,2.5,7.3,5.9c0,2.6-1.3,4.5-3.6,4.9l0,0.1c2.5,0.2,4.9,2.3,4.9,5.9
			C164.6,31.9,161.7,34.6,156.6,34.6z M151.9,15.6h-2.2v4.8h2.3c1.3,0,2-0.9,2-2.3C154.1,16.6,153.2,15.6,151.9,15.6z M152.3,24.6
			h-2.6v5.5h2.7c1.6,0,2.6-1,2.6-2.8C155,25.6,153.9,24.6,152.3,24.6z"/>
		<path class="st2" d="M183.5,34.8c-0.5,0.1-1.1,0.2-1.9,0.2c-2.5,0-5.8-0.7-6.1-1.9c-0.9,1.4-2.6,1.9-4.6,1.9
			c-2.6,0-4.6-1.7-4.6-4.6c0,0,0-0.1,0-0.1c0-3.1,1.3-4.9,4.7-5.8c1.7-0.5,2.9-1,2.9-1.7c0-1-0.5-1.2-1.7-1.2c-1.1,0-3,1-3.8,2.4
			l-1.7-3.7c1.3-1.8,4.5-2.8,7.7-2.8c5.3,0,7.8,1.9,7.8,5.6v5.4c0,0.9,0.3,1.3,1.3,1.3c0.3,0,0.7,0,1.1-0.1L183.5,34.8z M174.1,26.5
			c-0.5,0.4-1.1,0.7-1.9,1.1c-0.9,0.4-1.4,1-1.4,2.2c0,0.8,0.5,1.3,1.3,1.3c0.9,0,1.8-0.8,2-1.9V26.5z"/>
		<path class="st2" d="M195.8,35c-5.9,0-8.7-1.2-8.7-5.4v-6.4h-1.8v-5.3h2v-5.2h5v5.2h3.4v5.3h-3.4V26c0,2.2,1,2.3,4.3,2.3L195.8,35
			z"/>
		<path class="st2" d="M209,35c-5.9,0-8.7-1.2-8.7-5.4v-6.4h-1.8v-5.3h2v-5.2h5v5.2h3.4v5.3h-3.4V26c0,2.2,1,2.3,4.3,2.3L209,35z"/>
		<path class="st2" d="M212.8,34.6V11.2h6.6v23.4H212.8z"/>
		<path class="st2" d="M227.4,28.2c0.1,1.4,1.4,2.6,2.7,2.6c1.6,0,2.3-0.6,2.6-2.3h7.4c-0.3,4.1-3.4,6.5-8.9,6.5
			c-4.8,0-8.3-3.4-8.3-8.7c0-5,3.5-8.7,8.2-8.7c6.3,0,9.2,3.1,9.2,9.1L227.4,28.2z M229.7,21.7c-1.2,0-2.4,1.3-2.4,3.1l4.9-0.7
			C232.1,22.6,231.2,21.7,229.7,21.7z"/>
	</g>
</g>
</svg>
