<?xml version="1.0" encoding="utf-8"?>
<!-- Generator: Adobe Illustrator 17.1.0, SVG Export Plug-In . SVG Version: 6.00 Build 0)  -->
<!DOCTYPE svg PUBLIC "-//W3C//DTD SVG 1.1//EN" "http://www.w3.org/Graphics/SVG/1.1/DTD/svg11.dtd">

<svg enable-background="new 0 0 58 34" version="1.1" viewbox="0 0 58 34" x="0px" xml:space="preserve" xmlns="http://www.w3.org/2000/svg" xmlns:xlink="http://www.w3.org/1999/xlink" y="0px">
<g display="none" id="レイヤー_1">
<text display="inline" font-family="'Splatoon'" font-size="48" transform="matrix(1 0 0 1 -0.6153 34.5203)">00</text>
</g>
<g id="レイヤー_2">
<g>
<path d="M24.9,27.3c-2,4.1-6.1,5.7-12,5.2c0,0-7.4-0.4-10.9-1c0-0.8,0-2.5,0-4.4c3.6,0.8,6.9,0.5,6.8-2.8
			c-0.1-2.5-3.8-3.2-6.8-2.4l0-2.9c3.6,0.7,7.4-0.6,6.9-3.5c0-0.1-0.8-4.4-7.2-2c0-1.9-0.2-7.4,0-11.9C5,1.4,12.4,0.9,17,1.9
			c3.7,0.7,7.6,2.9,8.4,8.3c0,0.2,0.7,5.4-3.3,8C25.3,19.5,26.9,23.2,24.9,27.3z" fill="#FFFFFF"></path>
<path d="M30,26.9c-2.5-5.8-1.7-15,0.9-19.3c2.6-4.4,5.1-5.9,9.8-6c5.5-0.2,8.9,1.6,11.4,5.1
			c2.8,3.9,3.9,11.3,1.5,18.9c-1.5,4.6-5.5,7.7-11.4,7.6C37.6,33,32.4,32.6,30,26.9z M36.6,15.8c-0.2,1.5-0.1,4,2.2,4.6
			c2,0.5,3.9-0.5,4.1-3.1c0.2-2.1-0.5-4.7-2.7-4.9C37.5,12.1,36.7,14.4,36.6,15.8z" fill="#FFFFFF"></path>
</g>
</g>
</svg>
