<?xml version="1.0" encoding="utf-8"?>
<!-- Generator: Adobe Illustrator 17.1.0, SVG Export Plug-In . SVG Version: 6.00 Build 0)  -->
<!DOCTYPE svg PUBLIC "-//W3C//DTD SVG 1.1//EN" "http://www.w3.org/Graphics/SVG/1.1/DTD/svg11.dtd">

<svg enable-background="new 0 0 58 34" version="1.1" viewbox="0 0 58 34" x="0px" xml:space="preserve" xmlns="http://www.w3.org/2000/svg" xmlns:xlink="http://www.w3.org/1999/xlink" y="0px">
<g display="none" id="レイヤー_1">
<text display="inline" font-family="'Splatoon'" font-size="48" transform="matrix(1 0 0 1 -0.6153 34.5203)">00</text>
</g>
<g id="レイヤー_2">
<g>
<path d="M54.1,25.3c0,2.9,0,5.4,0,7.5c-4.9,0.1-9.5,0-10.8,0c0-2.9-0.1-7.3-0.1-7.3c-4.8,0.1-7.9,0.2-12.2,0.1
			c1-9.8,2.5-21.9,2.8-24.2c2.1,0,5,0.1,6.2,0.1c-0.8,8-1.6,15.3-1.6,15.3c1.5-0.1,4.8-0.2,4.8-0.2c0-4.4,0-11.4,0.1-15.2
			c4.2-0.2,9.4,0,10.9,0.1c0,8.2,0,15.2,0,15.2c1.2,0,2.3,0,2.8,0c0,3.7,0,7.2-0.1,8.3C55.8,25.2,54.1,25.3,54.1,25.3z" fill="#FFFFFF"></path>
</g>
</g>
</svg>
