<?xml version="1.0" encoding="utf-8"?>
<!-- Generator: Adobe Illustrator 17.1.0, SVG Export Plug-In . SVG Version: 6.00 Build 0)  -->
<!DOCTYPE svg PUBLIC "-//W3C//DTD SVG 1.1//EN" "http://www.w3.org/Graphics/SVG/1.1/DTD/svg11.dtd">

<svg enable-background="new 0 0 58 34" version="1.1" viewbox="0 0 58 34" x="0px" xml:space="preserve" xmlns="http://www.w3.org/2000/svg" xmlns:xlink="http://www.w3.org/1999/xlink" y="0px">
<g display="none" id="レイヤー_1">
<text display="inline" font-family="'Splatoon'" font-size="48" transform="matrix(1 0 0 1 -0.6153 34.5203)">00</text>
</g>
<g id="レイヤー_2">
<g>
<path d="M26.1,1.4c0.1,16.4,0,31.7,0,31.7c-6.3,0.1-12.9-0.2-12.9-0.2C13,25.2,13,14.1,13,14.1
			c-1.2,0.1-2.9-0.1-2.9-0.1C9.8,8.5,10.3,1.3,10.3,1.3C18.6,1.2,26.1,1.4,26.1,1.4z" fill="#FFFFFF"></path>
<path d="M31,25.9c-2.9-7.4-1.5-18,6.4-22.6c0,0,7.9-4.6,16-1.7c0,0.7,0,1.7,0,2.3c-4.7,0.2-7.3,2.3-7.3,2.3
			c-1.9,1.5-3.4,3.9-3,6.4c4.2-1.4,8.2-0.2,8.2-0.2c4.1,1.2,6.1,5.6,6.1,9.3c0,7.4-3.6,11.9-14.3,11.5C38.2,32.9,33.2,31.5,31,25.9z
			 M42.3,19.5c-0.3,2.1,1.2,3.3,2.9,3.4c1.4,0,3.1-0.7,3.3-2.6c0.2-2-1.4-3.4-3-3.5C44.3,16.7,42.5,17.5,42.3,19.5z" fill="#FFFFFF"></path>
</g>
</g>
</svg>
