<?xml version="1.0" encoding="utf-8"?>
<!-- Generator: Adobe Illustrator 17.1.0, SVG Export Plug-In . SVG Version: 6.00 Build 0)  -->
<!DOCTYPE svg PUBLIC "-//W3C//DTD SVG 1.1//EN" "http://www.w3.org/Graphics/SVG/1.1/DTD/svg11.dtd">

<svg enable-background="new 0 0 58 34" version="1.1" viewbox="0 0 58 34" x="0px" xml:space="preserve" xmlns="http://www.w3.org/2000/svg" xmlns:xlink="http://www.w3.org/1999/xlink" y="0px">
<g display="none" id="レイヤー_1">
<text display="inline" font-family="'Splatoon'" font-size="48" transform="matrix(1 0 0 1 -0.6153 34.5203)">00</text>
</g>
<g id="レイヤー_2">
<g>
<path d="M30.7,32.6c0-0.6,0-1.9,0.1-3.4c2.4,0.8,5.3,0.7,5.3,0.7c2.5-0.1,4.4-1.7,3.9-3.9c-0.3-1.5-1.8-3-5.2-2.7
			c0,0-2.4,0-4,0.3c0-8.2,0-14.4,0-17.2c0-1.5,0-3.2,0-4.8c16.8-0.2,22.2-0.2,23.7-0.2c0.2,2.6,0,8.2,0,9.7c-6.6,0-14,0-14,0
			s-0.1,1.4-0.1,4c5.9-1.2,11,1.1,11,1.1c3.6,1.6,5.4,5,4.8,8.9c-1,6.1-7.1,7.8-10.9,7.7C45.2,32.8,35.1,33.5,30.7,32.6z" fill="#FFFFFF"></path>
</g>
</g>
</svg>
