<?xml version="1.0" encoding="utf-8"?>
<!-- Generator: Adobe Illustrator 18.1.0, SVG Export Plug-In . SVG Version: 6.00 Build 0)  -->
<svg version="1.1" id="レイヤー_1" xmlns="http://www.w3.org/2000/svg" xmlns:xlink="http://www.w3.org/1999/xlink" x="0px"
	 y="0px" viewBox="0 0 188 100" enable-background="new 0 0 188 100" xml:space="preserve">
<g id="bg" display="none">
	<rect x="-1.4" y="-55.4" display="inline" width="714" height="128.5"/>
</g>
<g>
	<path fill="#FFFFFF" d="M14.6,52.6c0.1,2.7-1.7,3.5-4.2,3.5c0,0-4.6,0.1-8.4-0.1c-0.2-7.4-0.1-15.4-0.1-16.9
		c5.3-0.4,8.9-0.1,8.9-0.1c5.6,0.5,4.8,6.7,3.8,8.7c-0.4,0.9-0.8,1.4-1.4,2C14.3,50.6,14.6,51.8,14.6,52.6z M9.5,45.7
		c-0.1,0-0.3,0-1.2,0v3.2c0.8,0,1-0.1,1.2-0.1c0.1,0,0.2,0,0.5,0c2.3-0.1,1.6-3,0-3.1C9.7,45.7,9.6,45.7,9.5,45.7z M9.9,50.2
		c-0.3,0-0.3,0-0.4,0c-0.1,0-0.3,0-1.2,0v2.7c0.8,0,0.9,0,1,0s0.2,0,0.6,0c0.8,0,1.1-0.7,1.1-1.3C11.1,50.9,10.7,50.2,9.9,50.2z"/>
	<path fill="#FFFFFF" d="M21.7,56.2c-1.8,0-3.8-0.3-4.6-2.8c-0.8-2.9,0.3-4.5,2.4-5.4c0.1,0,2.3-0.9,4.8-0.4
		c0.1-1.1-0.7-1.5-0.7-1.5c-0.1-0.1-1.9-0.9-5.9,0.4c0-0.4,0-1.1,0-1.8c1.6-1.5,12.3-4.3,12.3,3.2c0,0,0,5.3-0.1,8.2
		C26.6,56.2,21.7,56.2,21.7,56.2z M21.9,52.6c0,0,0,2.4,2.6,1.7c0,0,0.1-1.7,0-2.8C23.3,50.8,21.9,51.2,21.9,52.6z"/>
	<path fill="#FFFFFF" d="M39.2,49.6c-0.1,3.2,1.7,4,4,3.9V56c-8,0.2-9.6-0.8-9.5-6.4c0,0-0.9,0-1.7,0c0-0.9-0.1-4.1,0-6.9h1.6
		c0,0,0.1-1.1,0.1-1.9c0.8,0,3.2,0,5.7,0c0,0.8-0.1,1.9-0.1,1.9s2,0,4,0c0,0.9,0,3.9-0.1,6.8C42.6,49.6,40.8,49.6,39.2,49.6z"/>
	<path fill="#FFFFFF" d="M52.3,49.6c-0.1,3.2,1.7,4,4,3.9V56c-8,0.2-9.6-0.8-9.5-6.4c0,0-0.9,0-1.7,0c0-0.9-0.1-4.1,0-6.9h1.6
		c0,0,0.1-1.1,0.1-1.9c0.8,0,3.2,0,5.7,0c0,0.8-0.1,1.9-0.1,1.9s2,0,4,0c0,0.9,0,3.9-0.1,6.8C55.6,49.6,53.9,49.6,52.3,49.6z"/>
	<path fill="#FFFFFF" d="M58,38.9c2.9-0.1,5.3,0,6.1,0c0.1,7,0.2,15.4,0.2,17c-2.7,0.1-5.3,0.1-6.1,0C57.9,48.6,57.9,40.5,58,38.9z"
		/>
	<path fill="#FFFFFF" d="M72.1,50.2c-0.3,2.8,2.4,3,2.4,3s2.1,0.2,2.7-1.1c0.3,0,1.1,0,2.1,0c-0.3,2.3-1.6,4-6.1,4
		c-3.8,0-7.1-1.5-7.3-6.3c-0.3-5.3,3.1-7.3,7.4-7.3c3.1,0,6.1,1.1,6.3,5.1c0,0.1,0.1,1.8,0,2.4C77.5,50.1,77.4,50.1,72.1,50.2z
		 M72.1,48.5l3.6-0.1c0.4-1.4-0.1-2.5-1.6-2.5C72.9,45.9,72.1,46.8,72.1,48.5z"/>
	<path fill="#FFFFFF" d="M97.8,56.2c-0.8,0-3.5,0.1-6.3,0c-0.2-7.5-0.2-15.5-0.2-17c5.3-0.3,8.9-0.1,8.9-0.1
		c5.6,0.5,5.8,8.3,4.7,10.6c-0.9,1.7-2.1,2.7-7.2,2.8C97.8,52.5,97.8,54.6,97.8,56.2z M97.8,49.8c0.9,0.1,1.4,0,1.4,0
		c1.7-0.4,1.7-2.7,0.3-3.4c0,0-0.6-0.3-1.7-0.1C97.8,47.9,97.8,49.8,97.8,49.8z"/>
	<path fill="#FFFFFF" d="M106.9,38.9c2.9-0.1,5.3,0,6.1,0c0.1,7,0.2,15.4,0.2,17c-2.7,0.1-5.3,0.1-6.1,0
		C106.8,48.6,106.9,40.5,106.9,38.9z"/>
	<path fill="#FFFFFF" d="M119.5,56.2c-1.8,0-3.8-0.3-4.6-2.8c-0.8-2.9,0.3-4.5,2.4-5.4c0.1,0,2.3-0.9,4.8-0.4
		c0.1-1.1-0.7-1.5-0.7-1.5c-0.1-0.1-1.9-0.9-5.9,0.4c0-0.4,0-1.1,0-1.8c1.6-1.5,12.3-4.3,12.3,3.2c0,0,0,5.3-0.1,8.2
		C124.4,56.2,119.5,56.2,119.5,56.2z M119.7,52.6c0,0,0,2.4,2.6,1.7c0,0,0.1-1.7,0-2.8C121.1,50.8,119.7,51.2,119.7,52.6z"/>
	<path fill="#FFFFFF" d="M138.5,50.1c0-0.5-0.1-1.4-1.1-1.5c-0.9-0.1-1.5,0.5-1.5,1.6c0,0,0,1.6,0.1,5.8c-2.8,0.1-5.5,0.1-6.3,0.1
		c-0.1-7.1-0.1-12.2-0.1-13.4c2.7-0.1,4.9,0,5.6,0c0,2,0.2,3.6,0.2,3.6c0.9-3.4,2.5-3.6,2.5-3.6c5.6-0.8,5.7,2.2,5.7,7.2V56
		c-0.7,0-2.8,0.1-5.2,0C138.6,52.3,138.5,50.1,138.5,50.1z"/>
	<path fill="#FFFFFF" d="M154.2,50.1c2.5,1.2,2.7,2.3,2.3,3.7c-0.3,0.9-1.1,1.7-3.1,2.1c-1.6,0.3-4.4,0.5-7.8,0.2
		c-0.1-0.9-0.1-1.8-0.1-2.3c1.3,0.3,2.8,0.3,2.8,0.3c1.5-0.1,2.4-0.4,2.5-0.9s-0.2-0.8-1-1c-0.6-0.2-1.4-0.3-2.2-0.7
		c-1.4-0.6-2.1-1.7-2.2-2.9c-0.2-2.1,0.3-3.9,2.2-4.9c1.4-0.7,3-1,4.7-1c1.6-0.1,3.1,0.1,4.3,0.1c0,2.4,0,4.9,0,5.8
		c-1.5-0.4-2.4-0.2-2.5-0.1C153.3,48.8,153.6,49.8,154.2,50.1z"/>
</g>
</svg>
