<?xml version="1.0" encoding="utf-8"?>
<!-- Generator: Adobe Illustrator 19.1.0, SVG Export Plug-In . SVG Version: 6.00 Build 0)  -->
<svg version="1.1" xmlns="http://www.w3.org/2000/svg" xmlns:xlink="http://www.w3.org/1999/xlink" x="0px" y="0px"
	 viewBox="0 0 57.8 14.4" style="enable-background:new 0 0 57.8 14.4;" xml:space="preserve">
<style type="text/css">
	.st0{display:none;}
	.st1{display:inline;}
	.st2{fill:#FFFFFF;}
</style>
<g id="bg" class="st0">
	<rect x="-1.6" y="-64.9" class="st1" width="447.8" height="80.6"/>
</g>
<g id="レイヤー_1">
	<g>
		<path class="st2" d="M5.2,9.6V7c0-0.6,0.1-2.4,0.1-2.6h0c0,0.2-0.1,1.3-0.2,1.7L4.3,9.6H2.8L2.1,6.1C2,5.8,1.9,4.7,1.8,4.4h0
			c0,0.3,0.1,1.9,0.1,2.6v2.6H0.7V3h2l0.8,3.9C3.5,7.3,3.5,8,3.5,8h0c0-0.1,0-0.7,0.1-1.1L4.4,3h3.3v6.6H5.2z"/>
		<path class="st2" d="M13.5,9.7c-0.1,0-0.3,0.1-0.5,0.1c-0.7,0-1.6-0.2-1.7-0.5C11,9.6,10.5,9.7,9.9,9.7c-0.7,0-1.3-0.5-1.3-1.3
			c0,0,0,0,0,0C8.6,7.5,9,7,9.9,6.7c0.5-0.1,0.8-0.3,0.8-0.5c0-0.3-0.1-0.3-0.5-0.3c-0.3,0-0.9,0.3-1.1,0.7L8.7,5.6
			c0.4-0.5,1.3-0.8,2.2-0.8c1.5,0,2.2,0.5,2.2,1.6v1.5c0,0.2,0.1,0.4,0.4,0.4c0.1,0,0.2,0,0.3,0L13.5,9.7z M10.8,7.3
			c-0.1,0.1-0.3,0.2-0.5,0.3C10,7.7,9.9,7.9,9.9,8.2c0,0.2,0.1,0.4,0.4,0.4c0.2,0,0.5-0.2,0.6-0.5V7.3z"/>
		<path class="st2" d="M16.9,9.7c-1.7,0-2.5-0.3-2.5-1.5V6.4H14V4.9h0.6V3.4H16v1.5h1v1.5h-1v0.8c0,0.6,0.3,0.6,1.2,0.6L16.9,9.7z"
			/>
		<path class="st2" d="M20.2,9.7c-1.4,0-2.3-0.8-2.3-2.5c0-1.5,0.9-2.5,2.3-2.5c1.4,0,2.3,0.6,2.5,1.8l-2.2,0.4
			c0-0.5-0.2-0.9-0.6-0.9c-0.4,0-0.7,0.4-0.7,1.2c0,0.8,0.2,1.3,0.7,1.3c0.3,0,0.6-0.3,0.7-1.1l2.2,0.1C22.5,9.1,21.8,9.7,20.2,9.7z
			"/>
		<path class="st2" d="M25.7,9.6V6.7c0-0.5-0.2-0.7-0.5-0.7c-0.3,0-0.6,0.3-0.7,0.7v3h-1.3V3h1.3v2.4C24.8,5,25.3,4.8,26,4.8
			c1.3,0,2.2,0.7,2.2,1.7v3.2H25.7z"/>
		<path class="st2" d="M37,9.6V7c0-0.6,0.1-2.4,0.1-2.6h0c0,0.2-0.1,1.3-0.2,1.7l-0.7,3.5h-1.5l-0.8-3.5c-0.1-0.3-0.2-1.4-0.2-1.7h0
			c0,0.3,0.1,1.9,0.1,2.6v2.6h-1.2V3h2l0.8,3.9C35.3,7.3,35.3,8,35.4,8h0c0-0.1,0-0.7,0.1-1.1L36.2,3h3.3v6.6H37z"/>
		<path class="st2" d="M43.2,9.7c-1.5,0-2.6-1-2.6-2.5c0-1.5,1-2.5,2.6-2.5s2.6,1,2.6,2.5C45.7,8.8,44.7,9.7,43.2,9.7z M42.7,6
			c-0.4,0-0.8,0.5-0.8,1.3s0.3,1.3,0.8,1.3c0.5,0,0.8-0.5,0.8-1.3C43.4,6.5,43.1,6,42.7,6z"/>
		<path class="st2" d="M49.3,9.6V9.1c-0.2,0.5-0.7,0.7-1.1,0.7c-1,0-1.8-0.9-1.8-2.5c0-1.6,0.8-2.5,1.7-2.5c0.4,0,0.7,0.2,0.9,0.4V3
			h2.4v6.6H49.3z M49.1,6.6C49,6.3,48.7,6,48.4,6c-0.4,0-0.7,0.4-0.7,1.3c0,0.9,0.3,1.2,0.7,1.2c0.4,0,0.6-0.3,0.6-0.9V6.6z"/>
		<path class="st2" d="M53.6,7.8c0,0.4,0.4,0.7,0.8,0.7c0.4,0,0.7-0.2,0.7-0.6h2.1c-0.1,1.2-1,1.8-2.5,1.8c-1.4,0-2.3-1-2.3-2.5
			c0-1.4,1-2.5,2.3-2.5c1.8,0,2.6,0.9,2.6,2.6L53.6,7.8z M54.3,6c-0.3,0-0.7,0.4-0.7,0.9L55,6.6C55,6.2,54.7,6,54.3,6z"/>
	</g>
</g>
</svg>
