<?xml version="1.0" encoding="utf-8"?>
<!-- Generator: Adobe Illustrator 19.1.0, SVG Export Plug-In . SVG Version: 6.00 Build 0)  -->
<svg version="1.1" xmlns="http://www.w3.org/2000/svg" xmlns:xlink="http://www.w3.org/1999/xlink" x="0px" y="0px"
	 viewBox="0 0 99 40.9" style="enable-background:new 0 0 99 40.9;" xml:space="preserve">
<style type="text/css">
	.st0{display:none;}
	.st1{display:inline;}
</style>
<g id="bg" class="st0">
	<rect x="-1" y="-38" class="st1" width="447.8" height="80.6"/>
</g>
<g id="レイヤー_1">
	<g>
		<path d="M19.8,40.7c-10.7,0-18.6-6.6-18.6-20.4C1.3,6.8,9.1,0.1,19.8,0.1c10.7,0,19.4,6.8,19.4,20.2
			C39.2,34.2,30.5,40.7,19.8,40.7z M16,8.1c-3.2,0-6.4,4.2-6.4,12.2s3.2,12.4,6.4,12.4c3.7,0,6.2-4.4,6.2-12.4S19.9,8.1,16,8.1z"/>
		<path d="M62.4,39.8l-8.7-15.9v15.9h-8.1V1.1h8.1v11.5l8.7-11.5h17.1l-13,15.5l14.2,23.1H62.4z"/>
		<path d="M93.7,27.7h-9.1L83.2,1.1h15.5C96,9,94.6,20.3,93.7,27.7z M83.4,39.8v-8.6h12.5v8.6H83.4z"/>
	</g>
</g>
</svg>
