<?xml version="1.0" encoding="utf-8"?>
<!-- Generator: Adobe Illustrator 19.1.0, SVG Export Plug-In . SVG Version: 6.00 Build 0)  -->
<svg version="1.1" xmlns="http://www.w3.org/2000/svg" xmlns:xlink="http://www.w3.org/1999/xlink" x="0px" y="0px"
	 viewBox="0 0 58.5 14" style="enable-background:new 0 0 58.5 14;" xml:space="preserve">
<style type="text/css">
	.st0{display:none;}
	.st1{display:inline;}
	.st2{fill:#FFFFFF;}
</style>
<g id="bg" class="st0">
	<rect x="-1" y="-64.9" class="st1" width="447.8" height="80.6"/>
</g>
<g id="レイヤー_1">
	<g>
		<path class="st2" d="M4.8,10.9c-2,0-3.1-0.8-3.4-2l1.1-0.8C2.7,9,3.3,9.3,3.9,9.3c0.6,0,0.9-0.3,0.9-0.8c0-0.9-0.9-1-1.7-1.4
			c-1-0.5-1.4-1-1.4-2.1c0-1.3,1.2-2.3,2.8-2.3c1.8,0,2.9,0.5,3.4,2.2l-3,0.5c-0.1-0.7-0.5-1.1-1-1.1C3.3,4.3,3,4.6,3,5
			c0,0.5,0.8,0.8,1.8,0.9C6.7,6,8,6.7,8,8.4C8,10,6.9,10.9,4.8,10.9z"/>
		<path class="st2" d="M12.3,10.9c-2,0-2.9-0.4-2.9-1.8V6.9H8.9V5.2h0.7V3.4h1.7v1.7h1.1v1.7h-1.1v1c0,0.7,0.3,0.8,1.4,0.8
			L12.3,10.9z"/>
		<path class="st2" d="M18.9,10.8c-0.2,0-0.4,0.1-0.6,0.1c-0.8,0-1.9-0.2-2-0.6c-0.3,0.5-0.9,0.6-1.5,0.6c-0.9,0-1.5-0.6-1.5-1.5
			c0,0,0,0,0,0c0-1,0.4-1.6,1.6-1.9c0.6-0.2,0.9-0.3,0.9-0.6c0-0.3-0.1-0.4-0.6-0.4c-0.4,0-1,0.3-1.3,0.8L13.3,6
			c0.4-0.6,1.5-0.9,2.5-0.9c1.8,0,2.6,0.6,2.6,1.9v1.8c0,0.3,0.1,0.4,0.4,0.4c0.1,0,0.2,0,0.4,0L18.9,10.8z M15.8,8.1
			c-0.2,0.1-0.3,0.2-0.6,0.4c-0.3,0.1-0.4,0.3-0.4,0.7c0,0.3,0.1,0.4,0.4,0.4c0.3,0,0.6-0.3,0.7-0.6V8.1z"/>
		<path class="st2" d="M22.7,7.4c-0.5,0-0.9,0.2-1.1,0.6v2.8H20V5.2h1.5v0.6c0.3-0.5,1-0.7,2.2-0.7v2.6C23.4,7.5,23,7.4,22.7,7.4z"
			/>
		<path class="st2" d="M27.6,10.9c-2,0-2.9-0.4-2.9-1.8V6.9h-0.6V5.2h0.7V3.4h1.7v1.7h1.1v1.7h-1.1v1c0,0.7,0.3,0.8,1.4,0.8
			L27.6,10.9z"/>
		<path class="st2" d="M35.9,5.6v5.2h-2V5.6h-1.8V3h6.3v2.6H35.9z"/>
		<path class="st2" d="M39.3,4.5V3h2.2v1.6H39.3z M39.3,10.7V5.2h2.2v5.6H39.3z"/>
		<path class="st2" d="M47.9,10.7V7.3c0-0.6-0.2-0.8-0.6-0.8c-0.4,0-0.5,0.3-0.5,0.8v3.5h-1.4V7.3c0-0.6-0.2-0.8-0.5-0.8
			c-0.3,0-0.5,0.2-0.5,0.7v3.6h-1.5V5.2h1.4v0.6c0.2-0.4,0.7-0.7,1.3-0.7c0.6,0,1,0.2,1.3,0.6c0.2-0.3,0.7-0.6,1.6-0.6
			c1.5,0,2.4,0.8,2.4,1.8v3.8H47.9z"/>
		<path class="st2" d="M53.3,8.6c0,0.5,0.5,0.8,0.9,0.8c0.5,0,0.8-0.2,0.9-0.8h2.5c-0.1,1.4-1.1,2.2-3,2.2c-1.6,0-2.7-1.1-2.7-2.9
			c0-1.7,1.1-2.9,2.7-2.9c2.1,0,3.1,1,3.1,3L53.3,8.6z M54.1,6.4c-0.4,0-0.8,0.4-0.8,1l1.6-0.2C54.9,6.7,54.6,6.4,54.1,6.4z"/>
	</g>
</g>
</svg>
