<?xml version="1.0" encoding="utf-8"?>
<!-- Generator: Adobe Illustrator 19.1.0, SVG Export Plug-In . SVG Version: 6.00 Build 0)  -->
<svg version="1.1" xmlns="http://www.w3.org/2000/svg" xmlns:xlink="http://www.w3.org/1999/xlink" x="0px" y="0px"
	 viewBox="0 0 28.2 15.1" style="enable-background:new 0 0 28.2 15.1;" xml:space="preserve">
<style type="text/css">
	.st0{display:none;}
	.st1{display:inline;}
	.st2{fill:#FFFFFF;}
</style>
<g id="bg" class="st0">
	<rect y="-65.5" class="st1" width="447.8" height="80.6"/>
</g>
<g id="レイヤー_1">
	<g>
		<path class="st2" d="M5.6,10.1H3.2L2.8,7.6C2.8,7.2,2.7,6.3,2.7,6.2h0c0,0.1-0.1,1-0.1,1.4l-0.3,2.5H1L0.2,5h1.1l0.4,2.6
			C1.7,8,1.7,8.5,1.7,8.9h0c0-0.3,0.1-0.9,0.1-1.2L2.1,5h1.3l0.3,2.6c0,0.3,0.1,0.8,0.1,1.2h0c0-0.4,0-0.9,0.1-1.2L4.3,5h2.3
			L5.6,10.1z"/>
		<path class="st2" d="M7.8,8.7c0,0.3,0.3,0.6,0.6,0.6c0.3,0,0.5-0.1,0.6-0.5h1.6c-0.1,0.9-0.7,1.4-1.9,1.4c-1,0-1.8-0.7-1.8-1.9
			c0-1.1,0.7-1.9,1.8-1.9c1.4,0,2,0.7,2,2L7.8,8.7z M8.3,7.3C8,7.3,7.8,7.6,7.8,8l1.1-0.1C8.8,7.5,8.6,7.3,8.3,7.3z"/>
		<path class="st2" d="M14.7,10.1c-0.1,0-0.2,0-0.4,0c-0.5,0-1.3-0.1-1.3-0.4c-0.2,0.3-0.6,0.4-1,0.4c-0.6,0-1-0.4-1-1c0,0,0,0,0,0
			c0-0.7,0.3-1.1,1-1.3c0.4-0.1,0.6-0.2,0.6-0.4c0-0.2-0.1-0.3-0.4-0.3c-0.2,0-0.6,0.2-0.8,0.5L11.1,7c0.3-0.4,1-0.6,1.7-0.6
			c1.2,0,1.7,0.4,1.7,1.2v1.2c0,0.2,0.1,0.3,0.3,0.3c0.1,0,0.1,0,0.2,0L14.7,10.1z M12.7,8.3c-0.1,0.1-0.2,0.2-0.4,0.2
			C12,8.7,12,8.8,12,9c0,0.2,0.1,0.3,0.3,0.3c0.2,0,0.4-0.2,0.4-0.4V8.3z"/>
		<path class="st2" d="M17.4,10.2c-0.5,0-1-0.1-1.2-0.4v1.6h-1V6.5h0.9v0.4c0.2-0.3,0.7-0.4,1.2-0.4c1,0,1.7,0.7,1.7,1.9
			C19.2,9.5,18.4,10.2,17.4,10.2z M16.8,7.3c-0.2,0-0.5,0.3-0.5,0.7v0.8c0.1,0.3,0.3,0.4,0.5,0.4c0.4,0,0.6-0.3,0.6-1
			C17.4,7.6,17.2,7.3,16.8,7.3z"/>
		<path class="st2" d="M21.6,10.2c-1.2,0-2-0.7-2-1.9c0-1.2,0.8-1.9,2-1.9c1.2,0,2,0.7,2,1.9C23.6,9.4,22.8,10.2,21.6,10.2z
			 M21.3,7.3c-0.3,0-0.6,0.4-0.6,1c0,0.6,0.2,1,0.6,1c0.4,0,0.6-0.4,0.6-1C21.9,7.7,21.6,7.3,21.3,7.3z"/>
		<path class="st2" d="M26.1,10.1V7.9c0-0.4-0.1-0.6-0.4-0.6c-0.2,0-0.4,0.2-0.5,0.5v2.3h-1V6.5h0.9v0.4c0.2-0.2,0.6-0.5,1.2-0.5
			c1,0,1.6,0.6,1.6,1.3v2.4H26.1z"/>
	</g>
</g>
</svg>
