<?xml version="1.0" encoding="utf-8"?>
<!-- Generator: Adobe Illustrator 19.0.0, SVG Export Plug-In . SVG Version: 6.00 Build 0)  -->
<svg version="1.1" id="レイヤー_1" xmlns="http://www.w3.org/2000/svg" xmlns:xlink="http://www.w3.org/1999/xlink" x="0px"
	 y="0px" viewBox="23 13 44 12" style="enable-background:new 23 13 44 12;" xml:space="preserve">
<style type="text/css">
	.st0{fill:#FFFFFF;}
</style>
<g>
	<path class="st0" d="M28.7,23.6l0-0.5c-0.6,0-1.1,0-1.5,0c-0.6,0-1.1,0-2,0v0.6l-1.9,0c0-1.4,0-4,0-6.2c0-1.1,0-2.1,0-2.8
		c0.8,0,2.4,0,4,0c2.1,0,4.4,0,5.6,0c0,0.7,0,1.7,0,2.9c0,2.1,0,4.6,0.2,6.1L28.7,23.6z M28.9,19c0-0.9,0-1.8,0-2.5h-3.5
		c0,0.5,0,1.2,0,1.8c0,1,0,2,0,2.9h3.5C28.9,20.6,28.9,19.7,28.9,19z"/>
	<path class="st0" d="M38.3,20.1c-1.4,0-2.8,0-3.9,0.1v-2.4c2.6-0.6,6.7-1,10.1-1v3.5C42.5,20.2,40.3,20.1,38.3,20.1z"/>
	<path class="st0" d="M53.3,22.6c-1.5-1.2-3.4-2.3-5.1-3.1c0,0.5,0,1,0,1.5c0,1.4,0,2.6,0,3.4l-2.2,0c0-1.3,0.1-4,0.1-6.3
		c0-1.9,0-3.6,0-4.3l2.1,0c0,0.6,0,2.5,0,4.2l1.4-2.2c1.5,0.3,3.9,1,5.4,1.6L53.3,22.6z M52.4,16.3c-0.2-0.5-0.6-1.1-1-1.5l0.8-0.5
		c0.4,0.4,0.8,1,1.1,1.5L52.4,16.3z M53.6,15.9c-0.3-0.6-0.6-1.1-1.1-1.6l1.3-0.7c0.5,0.5,0.8,1,1.1,1.6L53.6,15.9z"/>
	<path class="st0" d="M62.6,22.7v-0.6h-1.5v2.3h-1.6v-2.3h-1.5v0.6h-1.6v-8.1h3.1v-1h1.6v1h5.6v8.1H62.6z M59.4,16.5h-1.5v3.8h1.5
		V16.5z M62.6,16.5h-1.5v3.8h1.5V16.5z"/>
</g>
</svg>
