<?xml version="1.0" encoding="utf-8"?>
<!-- Generator: Adobe Illustrator 17.1.0, SVG Export Plug-In . SVG Version: 6.00 Build 0)  -->
<!DOCTYPE svg PUBLIC "-//W3C//DTD SVG 1.1//EN" "http://www.w3.org/Graphics/SVG/1.1/DTD/svg11.dtd">

<svg enable-background="new 0 0 161 28.8" version="1.1" viewbox="0 0 161 28.8" x="0px" xml:space="preserve" xmlns="http://www.w3.org/2000/svg" xmlns:xlink="http://www.w3.org/1999/xlink" y="0px">
<g display="none" id="bg">
<rect display="inline" height="80.6" width="447.8" x="-46.6" y="-41.8"></rect>
</g>
<g id="レイヤー_1">
<g>
<path d="M21.4,18.1c-1.5,5.8-4.6,8.5-8.6,9.6c0,0-2.8,1.1-9,0.6c-0.1-1.4,0-3.2,0-3.9c8.5-0.7,8-7.8,8-7.9
			c0-0.5,0-2.2,0-3.2c0,0-5.9,0.1-10.6,0.1c0-1.2-0.1-5.4,0-8.6c2.1,0,12.8-0.1,21.5-0.1c0,2.4,0.1,4.1,0,5.9
			C22.6,12.5,22.3,14.7,21.4,18.1z" fill="#FFFFFF"></path>
<path d="M25.1,28.1c0-2.2-0.2-14.4-0.1-23.4c1.1,0,4.6-0.1,8.6,0c0,1.7,0.1,9,0,14.9c0,0,6-0.1,7.2-4.1
			c0.5,0,1.8,0,2.7,0C43.3,25,38,27.9,32,28C32,28,28.4,28.2,25.1,28.1z" fill="#FFFFFF"></path>
<path d="M45.4,13.3c0-1.1-0.1-4.4,0-7.3c1.3,0,5.9,0,10.6,0c0,0.9,0.1,3.8,0,7.2C54.8,13.2,50.1,13.3,45.4,13.3z
			 M55.7,28.3c0,0-5.5,0.6-10,0.4c0-1.2-0.1-5.3,0.1-8.8c6.3,0.3,9.8-1.3,9.8-1.4c0.2-0.1,6.4-3,6.8-13.5c0.9,0,3.5,0,4.9,0
			c0.2,9.1-0.8,13.5-0.8,13.5C65.4,22.9,62.2,28,55.7,28.3z" fill="#FFFFFF"></path>
<path d="M78.3,20c0,0,0,5.7,0,8.3c-1.1,0-4.6,0-8.6,0c0-2-0.2-12.4-0.1-24.8c1.2,0,5.1,0,8.9,0.1
			c0,2.2,0,4.2,0,6.4c0,0,4.3,2.1,9.3,4.7c-0.4,1-1.6,4.4-3.2,8C83,22.1,80.3,20.8,78.3,20z M81,7.7c-0.1-0.6-0.1-1-0.1-1.8
			c0-0.9,0-2.4,0-5.4c0.6,0,2,0,3.8,0c0,1.1,0.2,4.4,0,7.3H81z M86.7,0.4c0.6,0,2,0,3.7,0c0,1,0.1,4.3,0.1,7.2
			c-0.6,0-2.2,0.1-3.7,0.1C86.8,7,86.7,5.1,86.7,0.4z" fill="#FFFFFF"></path>
<path d="M92.8,19.2c-0.1-4.1,0-12.9,0-14.3c3.5-0.1,6.3,0,7.3,0c0,4.4-0.1,13-0.1,14.3
			C96.6,19.2,93.7,19.2,92.8,19.2z M104.5,27.5c-0.1,0-3.2,1.1-8.5,0.9c0-1.1,0-2,0-2.4c7.8-1.1,8.8-9.3,8.8-9.3s0.5-4.6,0.3-11.8
			c3.6-0.1,7,0,8,0c0.3,3.9-0.2,10.7-0.2,10.7C112.7,23.8,107.9,26.3,104.5,27.5z" fill="#FFFFFF"></path>
<path d="M135,28.1c-1.5-0.3-2.6-0.9-3.3-1.5c-0.4-0.3-0.6-0.6-0.9-0.9c-0.3-0.3-0.5-0.6-1-1.1
			c-1.4,1.6-4.4,2.9-7.7,3.5c0,0-3.9,0.6-6.3,0.4c0-1.3,0-2.9,0-3.6c6.9-0.2,8.5-4.3,8.6-4.4c0.3-1,0.6-3.2,0.4-6.1c0,0-3.6,0-8.9,0
			c0-1.4-0.1-6.5-0.1-10c1.9,0,11.3-0.1,19.3,0c0.1,2,0.5,12.1-1.4,14.9c0,0.1,0.9,5.4,6.7,6.1c0,0.7,0,2.3,0,3.3
			C139.1,28.7,135.2,28.2,135,28.1z" fill="#FFFFFF"></path>
<path d="M151.3,20c0,0-0.1,5.7-0.1,8.3c-1.1,0-4.6,0-8.5,0c0-2-0.2-12.4-0.1-24.8c1.2,0,5.1,0,8.9,0.1V10
			c0,0,4.3,2.1,9.3,4.7c-0.3,1-1.5,4.4-3.2,8C156.1,22.1,153.4,20.8,151.3,20z" fill="#FFFFFF"></path>
</g>
</g>
</svg>
