<?xml version="1.0" encoding="utf-8"?>
<!-- Generator: Adobe Illustrator 19.0.0, SVG Export Plug-In . SVG Version: 6.00 Build 0)  -->
<svg version="1.1" id="レイヤー_1" xmlns="http://www.w3.org/2000/svg" xmlns:xlink="http://www.w3.org/1999/xlink" x="0px"
	 y="0px" viewBox="0 0 194 30" style="enable-background:new 0 0 194 30;" xml:space="preserve">
<style type="text/css">
	.st0{fill:#FF6E00;}
</style>
<g id="XMLID_138_">
	<path id="XMLID_139_" class="st0" d="M8.6,13.9l-5-2.3c3.5-1.8,5-4,5-6.9c-1.4,0-4,0-6.2,0.1l0-2.3c0.4,0,1,0,1.6,0
		c2.4,0,5.6-0.1,7.9-0.5L14,3.8C14,8,12.5,11.8,8.6,13.9z M14.1,3.1c-0.8,0-1.5-0.6-1.5-1.4c0-0.8,0.7-1.4,1.5-1.4s1.5,0.6,1.5,1.4
		C15.6,2.5,14.9,3.1,14.1,3.1z M13.8,1.2c-0.3,0-0.4,0.2-0.4,0.5c0,0.3,0.2,0.5,0.4,0.5c0.3,0,0.4-0.2,0.4-0.5
		C14.3,1.4,14.1,1.2,13.8,1.2z"/>
	<path id="XMLID_143_" class="st0" d="M22.9,13.8L18,11.7c3-0.9,4.6-2.7,4.9-4.6c-2,0-3.9,0-6.2,0.1V5c0.9,0,2.2,0,3.6,0
		c2.2,0,4.6,0,6.1-0.2l2,1.7C28,10.2,26.2,12.7,22.9,13.8z M22.2,4c-1.6,0-3,0-4.2,0.1L17.8,2c2.2-0.2,5.1-0.4,8.7-0.5l0.1,2.6
		C25,4.1,23.5,4,22.2,4z"/>
	<path id="XMLID_146_" class="st0" d="M37.7,8.1c0,1.8,0,3.7,0.1,5.4h-2.6c0-1.1,0-2.8,0-4.5c-1.2,0.4-2.5,0.7-3.7,1l-1.4-2.1
		c3.5-1.4,7-4.1,8.4-7l4,4.5C41.1,6.5,39.5,7.3,37.7,8.1z"/>
	<path id="XMLID_148_" class="st0" d="M55.9,13.2c-3.3-2.6-5.3-4.4-7.6-6.9c-0.1-0.1-0.2-0.2-0.3-0.2c-0.1,0-0.2,0.1-0.3,0.2
		c-0.8,1.1-1.4,1.9-2.5,3.6l-1.6-2.6c0.9-1,1.9-2.1,3.1-3.6C47.2,3.2,47.6,3,48.1,3c0.4,0,0.8,0.1,1.3,0.4c2.4,1.2,4.6,2.2,7.6,3.1
		L55.9,13.2z M52.4,4.6c-0.4-0.5-1-1.3-1.5-1.7l0.9-0.6c0.5,0.4,1.2,1.1,1.6,1.7L52.4,4.6z M53.9,4.1c-0.4-0.6-1-1.3-1.6-1.8
		l1.4-0.9c0.7,0.5,1.2,1.1,1.7,1.7L53.9,4.1z"/>
	<path id="XMLID_152_" class="st0" d="M63,8.6c-1.7,0-3.2,0.1-4.6,0.2V6c3.1-0.7,7.8-1.2,11.8-1.2V9C67.9,8.7,65.4,8.6,63,8.6z"/>
	<path id="XMLID_154_" class="st0" d="M82.1,11.5c-1.8-1.3-4-2.7-6-3.6c0,0.6,0,1.2,0,1.7c0,1.6,0,3,0,4l-2.5,0
		c0.1-1.5,0.1-4.6,0.1-7.4c0-2.2,0-4.2,0-5.1l2.5,0c0,0.7,0,2.9-0.1,4.9l1.6-2.6c1.7,0.4,4.5,1.2,6.3,1.9L82.1,11.5z"/>
	<path id="XMLID_156_" class="st0" d="M95.4,8.4C96,8.7,96.6,9,97.2,9.4l-4.4,4.1c-1.8-2.1-4.1-4.2-6.4-5.6l1.4-1.5
		c0.7,0.1,2,0.4,2.8,0.6c0.8-0.6,1.5-1.4,2-2.1c-2.5,0-4.4,0.1-6.5,0.2l-0.1-2.3c0.3,0,0.6,0,1,0c3,0,7.6-0.2,9.4-0.6l2.3,2.3
		C97.8,5.8,96.6,7.2,95.4,8.4z"/>
	<path id="XMLID_158_" class="st0" d="M102.2,8c-0.3-1.1-0.7-2.3-1.2-3.3l1.6-0.5c0.5,0.9,1.1,2,1.5,3.1L102.2,8z M107.3,13.5
		L103,12c2.9-2.1,4.1-4.2,4.4-8.3l4,0.6C111.1,8.6,110.2,11.5,107.3,13.5z M104.6,6.9c-0.2-1-0.5-2.1-0.9-3l1.7-0.4
		c0.4,0.8,0.9,1.8,1.2,2.9L104.6,6.9z"/>
	<path id="XMLID_162_" class="st0" d="M121,8.8c-0.4,1.8-1.2,3.5-3.2,4.8l-2.2-2c1.5-0.5,2.4-1.7,2.8-3.1c-1.2-0.1-2.4-0.2-3.4-0.2
		c-0.3,0-0.5,0-0.8,0l-0.2-2.2c1.2-0.1,2.9-0.3,4.7-0.5c0-0.3,0-0.6,0-0.9C118.2,5,117.6,5,117,5c-0.4,0-0.9,0-1.3,0l-0.9-2.1
		c3.2-0.2,6.5-1,8.3-2l2.5,3.4c-1.4,0.2-2.9,0.4-4.4,0.5c0,0.3,0,0.6,0,0.9c1.8-0.1,3.6-0.2,5.1-0.3v4.2C124.8,9.3,122.9,9,121,8.8z
		"/>
	<path id="XMLID_164_" class="st0" d="M138.5,5.5c0.4,0.6,0.7,1.2,1,1.8l-1.6,0.7c-0.3-0.7-0.7-1.5-1.1-2.1l1-0.4
		c-3.2,0.1-5.2,1.2-5.2,2.7c0,0.7,0.9,1.2,3.1,1.2c1,0,2.3-0.1,4-0.3l-0.9,4.6c-6,0-8.3-1.8-8.3-4.7c0-2,1.1-3.5,3-4.3
		c-1.7,0.1-3.5,0.3-5,0.5L128.1,3c2.5-0.6,7.7-1.2,11.5-1.2l0.6,3.8C139.6,5.6,139,5.5,138.5,5.5z M136.4,8.4c-0.2-0.6-0.6-1.5-1-2
		l1-0.4c0.4,0.6,0.9,1.4,1.1,2L136.4,8.4z"/>
	<path id="XMLID_167_" class="st0" d="M149.5,13.6v-0.4h-4.9v0.4h-1.8v-11h2.4c0.3-0.4,0.5-1,0.7-1.6l2.2,0.3
		c-0.2,0.5-0.4,0.9-0.7,1.3h6.2v11.1L149.5,13.6z M149.5,4.7h-4.9v0.8h4.9V4.7z M149.5,7.5h-4.9v0.8h4.9V7.5z M149.5,10.3h-4.9v0.9
		h4.9V10.3z"/>
	<path id="XMLID_172_" class="st0" d="M163.6,13.6v-0.5h-5.1v0.5h-1.9V3.3h3.5V1.1h1.9v2.2h6.1v10.4L163.6,13.6z M160,5.6h-1.6v1.5
		h1.6V5.6z M160,9.3h-1.6v1.6h1.6V9.3z M163.6,5.6h-1.6v1.5h1.6V5.6z M163.6,9.3h-1.6v1.6h1.6V9.3z"/>
	<path id="XMLID_178_" class="st0" d="M172.9,12.2c-0.2,0.7-0.6,1-1,1c-0.4,0-0.9-0.4-1-1.1c-0.2-1-0.3-2.2-0.3-3.4
		c0-2.4,0.3-5.1,0.6-7l2,0.4c-0.6,1.9-0.9,4.9-0.9,6.5c0,0.2,0,0.4,0,0.6c0,0.2,0.1,0.3,0.1,0.3c0.1,0,0.1-0.1,0.2-0.2
		c0.1-0.2,0.2-0.4,0.4-0.9l0.9,0.7C173.5,10.3,173.1,11.4,172.9,12.2z M178.6,12.8c-2.9,0-4.5-0.5-4.5-3.2c0-1.1,0.2-2,0.5-3.2
		l1.6,0.4c-0.2,0.4-0.2,0.7-0.2,0.9c0,0.4,0.3,0.7,1.5,0.7c1.3,0,3.1-0.4,4.6-1.1l0.4,5.3C181.4,12.7,179.9,12.8,178.6,12.8z
		 M177.9,5.1c-1.3,0-2.5,0-3.4,0.1V2.9c1.8-0.4,4.4-0.7,7.1-0.8l0.2,3.1C180.7,5.2,179.2,5.1,177.9,5.1z"/>
	<path id="XMLID_182_" class="st0" d="M14.3,29.6c-4.3,0-5.3-1.5-6.3-3.1v3.2H6.2v-3.2c-0.8,1.4-1.8,2.2-3.4,3L2,27.3
		c0.9-0.2,1.9-0.7,2.7-1.3H2.3v-1.9h3.9v-0.5H4.7v-0.8c-0.3,0.3-1.1,0.9-2,1.3L2,21.9c1.7-0.6,2.3-1.3,2.3-1.3l0.4,1v-2.1l-0.8,1.1
		C2.9,19.5,2,18.7,2,18.7l1.3-1.6c0,0,0.6,0.6,1.3,1.5v-0.8h1.1l0.4-0.8l2.1,0.1l-0.3,0.6h1.4v1.4c0.4-0.6,0.9-1.3,1.2-2l4,0.9
		c0,0-0.6,1.5-1.4,2.6c0.3,0.7,0.8,1.8,1.4,2.6l-4.5,0.7c-0.3-0.7-0.5-1.5-0.7-2.1v1.7H8v0.5h6.3V26H9.5c0.8,0.3,1.8,0.3,3.4,0.3
		c0.5,0,1.1,0,1.7,0L14.3,29.6z M7.7,19.6H6.5v0.5h1.2V19.6z M7.7,21.6H6.5v0.5h1.2V21.6z M9.5,20v0.9l1.9-0.3L9.5,20z"/>
	<path id="XMLID_187_" class="st0" d="M23.3,29.2c-0.8,0.2-1.5,0.3-2.1,0.3c-2.1,0-3.4-1.1-3.4-3.7c0,0,0-0.1,0-0.1
		c0-1.1,0.1-3.8,0.1-6.2c0-0.7,0-1.3,0-1.9l2.5,0.1c-0.1,2.3-0.3,5.6-0.3,7.1c0,0.2,0,0.4,0,0.5c0,0.5,0.2,0.8,0.5,0.8
		c0.1,0,0.3-0.1,0.5-0.2c1.6-0.9,3.2-2.7,4.3-5.5l3.4,5.2C27.3,27,25,28.7,23.3,29.2z"/>
	<path id="XMLID_189_" class="st0" d="M41,28.4c-0.5,0.9-1.7,1.3-2.8,1.3c-1.4,0-2.7-0.6-3.1-1.7c-0.3-1-0.5-2.1-0.5-3.2
		c0-0.2-0.1-0.4-0.2-0.4c-0.1,0-0.2,0-0.2,0.1c-0.9,0.7-1.5,1.9-2.2,5l-2.1-0.9c1.2-4,2.7-8.8,3.5-11.5l2.1,0.7
		c-0.7,1.6-1.3,3.3-1.9,5.1c0.6-0.6,1.4-0.9,2-0.9c0.7,0,1.2,0.4,1.2,1.1c0,0,0,0,0,0.1c0,0.2,0,0.4,0,0.7c0,0.5,0,1,0.1,1.4
		c0,0.2,0.1,0.4,0.2,0.4s0.2-0.1,0.3-0.4c0.2-0.7,0.4-1.9,0.7-4.2l4.7,1.7C42.4,25.2,41.8,27,41,28.4z"/>
	<path id="XMLID_191_" class="st0" d="M54.4,21.5c0.4,0.6,0.7,1.2,1,1.8l-1.6,0.7c-0.3-0.7-0.7-1.5-1.1-2.1l1-0.4
		c-3.2,0.1-5.2,1.2-5.2,2.7c0,0.7,0.9,1.2,3.1,1.2c1,0,2.3-0.1,4-0.3l-0.9,4.6c-6,0-8.3-1.8-8.3-4.7c0-2,1.1-3.5,3-4.3
		c-1.7,0.1-3.5,0.3-5,0.5L44.1,19c2.5-0.6,7.7-1.2,11.5-1.2l0.6,3.8C55.6,21.6,55,21.5,54.4,21.5z M52.4,24.4c-0.2-0.6-0.6-1.5-1-2
		l1-0.4c0.4,0.6,0.9,1.4,1.1,2L52.4,24.4z"/>
	<path id="XMLID_194_" class="st0" d="M64.3,29.5c-1.6,0-3.2-0.4-4-1.1c-0.6-0.5-0.8-1.1-0.8-1.8c0-0.9,0.6-1.8,1.8-2
		c0.1,0,0.3,0,0.4,0c1.3,0,2.3,0.9,2.5,2.3c0.7-0.5,1.1-0.9,1.1-1.9c0-0.9-0.7-1.8-2-1.8c-1.1,0-2.5,0.6-4.1,2.4l-1.2-2
		c1.8-1.5,3.7-2.7,5.6-3.6c-1.2,0-3,0.1-4.1,0.3L59.2,18c1.9-0.2,5.8-0.5,8.2-0.5l0.9,3c-1.8,0.2-3.3,0.5-4.7,1
		c0.6-0.1,1.3-0.2,1.8-0.2c2.8,0,4.9,1.3,4.9,3.9C70.4,28.3,67.2,29.5,64.3,29.5z M61.6,26.4c-0.1,0-0.1,0-0.2,0
		c-0.2,0-0.3,0.2-0.3,0.4c0,0.1,0,0.2,0.1,0.3c0.2,0.2,0.7,0.4,1.2,0.4c0.1,0,0.1,0,0.1,0C62.4,26.7,62.1,26.4,61.6,26.4z"/>
	<path id="XMLID_197_" class="st0" d="M82.4,22.3c0,0.3,0,0.5,0,0.8c0,1.6-0.9,2.6-3.8,2.6c-0.6,0-1.2,0-2-0.1l-0.4-2.3
		c0.5,0.1,0.9,0.1,1.2,0.1c0.7,0,0.9-0.2,0.9-0.6c0-0.2,0-0.4,0-0.6c-1,0-1.9,0-2.8,0c0,1.2-0.1,2.2-0.1,3c0,0.7,0.5,1.1,2.4,1.1
		c1.7,0,3.5-0.4,5.3-1.2l0.1,3.9c-1.6,0.3-3,0.3-5.3,0.3c-3.4,0-4.6-1.1-4.6-3.4c0-0.1,0-0.1,0-0.2c0-1,0-2.2,0.1-3.5
		c-0.6,0-1.2,0.1-1.7,0.1l-0.2-2.1c0.5-0.1,1.2-0.1,1.9-0.2c0-0.5,0-1.1,0-1.5c0-0.2,0-0.5,0-0.7l2.2,0.1c0,0.6,0,1.3-0.1,2
		c0.9-0.1,1.8-0.1,2.7-0.2c0-0.8,0-1.5,0-2.2l3.8,0c-0.1-0.1-0.1-0.2-0.2-0.3l1-0.4c0.4,0.6,0.7,1.3,0.9,2l-1.1,0.4
		c-0.1-0.5-0.4-1.1-0.6-1.6c0,0.6,0,1.2,0,1.8c0.7,0,1.6-0.1,2.1-0.1v3C83.7,22.3,83.1,22.3,82.4,22.3z M84.4,19
		c-0.2-0.7-0.5-1.4-0.9-2.1l1.6-0.5c0.4,0.7,0.7,1.3,1,2L84.4,19z"/>
	<path id="XMLID_200_" class="st0" d="M93.3,25.2h-2.6l-0.4-7.5h4.4C93.9,19.9,93.6,23.1,93.3,25.2z M90.4,28.6v-2.4h3.5v2.4H90.4z"
		/>
</g>
</svg>
