<?xml version="1.0" encoding="utf-8"?>
<!-- Generator: Adobe Illustrator 19.0.0, SVG Export Plug-In . SVG Version: 6.00 Build 0)  -->
<svg version="1.1" id="レイヤー_1" xmlns="http://www.w3.org/2000/svg" xmlns:xlink="http://www.w3.org/1999/xlink" x="0px"
	 y="0px" viewBox="0 0 194 30" style="enable-background:new 0 0 194 30;" xml:space="preserve">
<style type="text/css">
	.st0{fill:#FF6E00;}
</style>
<g id="XMLID_85_">
	<path id="XMLID_86_" class="st0" d="M13,13.3c0,2.4,0.1,4.9,0.1,4.9c0,0.1,0,0.2,0,0.3c0,2.2-0.9,2.5-5.5,2.5l-0.8-2.6
		c0.5,0.1,0.9,0.1,1.2,0.1c0.7,0,0.7-0.3,0.7-0.6c0-0.6,0-1.4,0-2.3c-1.2,1.5-2.7,3-4.6,4L2,18c2.4-1.1,4.3-2.7,5.9-4.8
		c-0.2,0-0.4,0-0.7,0c-1.6,0-3,0-4.3,0.1l0-2.1c1.7-0.2,3.7-0.3,5.8-0.4c0-0.7-0.1-1-0.1-1.8l4.4,0.1c0,0.2,0,0.8,0,1.5
		c0.5,0,1,0,1.5,0v2.8C14,13.4,13.5,13.4,13,13.3z"/>
	<path id="XMLID_88_" class="st0" d="M18.1,21l-1.7-4.1c4.7,0,9.1-1.7,10.6-4.9l2,4.3C27.4,19.5,22.7,21,18.1,21z M20.4,13.9
		c-1-1.1-2.3-2.3-3.3-3l1.6-1.6c1.2,0.4,2.7,1.2,4,2.1L20.4,13.9z"/>
	<path id="XMLID_91_" class="st0" d="M37,21.4l-4.8-2.1c3-0.9,4.6-2.7,4.9-4.6c-2,0-3.9,0-6.2,0.1v-2.2c0.9,0,2.2,0,3.6,0
		c2.2,0,4.6,0,6.1-0.2l2,1.7C42.1,17.9,40.4,20.4,37,21.4z M36.3,11.7c-1.6,0-3,0-4.2,0.1l-0.2-2.2c2.2-0.2,5.1-0.4,8.7-0.5l0.1,2.6
		C39.1,11.7,37.6,11.7,36.3,11.7z"/>
	<path id="XMLID_94_" class="st0" d="M51.9,15.7c0,1.8,0,3.7,0.1,5.4h-2.6c0-1.1,0-2.8,0-4.5c-1.2,0.4-2.5,0.7-3.7,1l-1.4-2.1
		c3.5-1.4,7-4.1,8.4-7l4,4.5C55.3,14.1,53.6,15,51.9,15.7z"/>
	<path id="XMLID_96_" class="st0" d="M60.1,21l-1.7-4.1c4.7,0,9.1-1.7,10.6-4.9l2,4.3C69.4,19.5,64.7,21,60.1,21z M62.4,13.9
		c-1-1.1-2.3-2.3-3.3-3l1.6-1.6c1.2,0.4,2.7,1.2,4,2.1L62.4,13.9z"/>
</g>
</svg>
