<?xml version="1.0" encoding="utf-8"?>
<!-- Generator: Adobe Illustrator 19.0.0, SVG Export Plug-In . SVG Version: 6.00 Build 0)  -->
<svg version="1.1" id="レイヤー_1" xmlns="http://www.w3.org/2000/svg" xmlns:xlink="http://www.w3.org/1999/xlink" x="0px"
	 y="0px" viewBox="0 0 194 30" style="enable-background:new 0 0 194 30;" xml:space="preserve">
<style type="text/css">
	.st0{fill:#FF6E00;}
</style>
<g id="XMLID_203_">
	<path id="XMLID_204_" class="st0" d="M8.3,21.5l-5-2.3c3.5-1.8,5-4,5-6.9c-1.4,0-4,0-6.2,0.1l0-2.3c0.4,0,1,0,1.6,0
		c2.4,0,5.6-0.1,7.9-0.5l2.3,1.8C13.7,15.6,12.2,19.4,8.3,21.5z"/>
	<path id="XMLID_206_" class="st0" d="M27,20.7c-2.7-0.5-7.1-0.8-9.6-0.8c-0.3,0-0.5,0-0.7,0l-0.1-2.1c0.9-0.2,2-0.3,3.3-0.4
		c0-0.8,0-1.7,0-2.6c0-0.3,0-0.6,0-0.9c-0.9,0-1.6,0.1-2.3,0.1l-0.2-2c2-0.3,5.1-0.5,8.1-0.6l0.1,2.6C24.4,14,23.2,14,22,14
		c0,1,0,2.2,0,3.3c1.8-0.1,3.6-0.2,5.1-0.2L27,20.7z"/>
	<path id="XMLID_208_" class="st0" d="M40.7,21.1c-1.6-1.3-3.9-2.2-5.8-3.1c-1,1.1-2.2,2.1-3.6,2.9l-1.9-1.8c3.6-2,5.7-4.7,6.4-7
		c-1.5,0-3.6,0-4.8,0.1l0-2.3c0.8,0.1,2.2,0.1,3.5,0.1c1.1,0,2.3,0,3.2-0.1l1.1,1.3c-0.2,0.9-0.6,1.8-0.9,2.6
		c1.4,0.3,3.4,0.8,4.5,1.2L40.7,21.1z"/>
	<path id="XMLID_210_" class="st0" d="M52.9,16.1c0.6,0.3,1.2,0.6,1.8,1.1l-4.4,4.1c-1.8-2.1-4.1-4.2-6.4-5.6l1.4-1.5
		c0.7,0.1,2,0.4,2.8,0.6c0.8-0.6,1.5-1.4,2-2.1c-2.5,0-4.4,0.1-6.5,0.2l-0.1-2.3c0.3,0,0.6,0,1,0c3,0,7.6-0.2,9.4-0.6l2.3,2.3
		C55.2,13.5,54,15,52.9,16.1z"/>
	<path id="XMLID_212_" class="st0" d="M59.6,15.7c-0.3-1.1-0.7-2.3-1.2-3.3l1.6-0.5c0.5,0.9,1.1,2,1.5,3.1L59.6,15.7z M64.8,21.2
		l-4.3-1.5c2.9-2.1,4.1-4.2,4.4-8.3l4,0.6C68.5,16.3,67.6,19.3,64.8,21.2z M62,14.7c-0.2-1-0.5-2.1-0.9-3l1.7-0.4
		c0.4,0.8,0.9,1.8,1.2,2.9L62,14.7z"/>
	<path id="XMLID_216_" class="st0" d="M78.5,16.6c-0.4,1.8-1.2,3.5-3.2,4.8l-2.2-2c1.5-0.5,2.4-1.7,2.8-3.1
		c-1.2-0.1-2.4-0.2-3.4-0.2c-0.3,0-0.5,0-0.8,0L71.6,14c1.2-0.1,2.9-0.3,4.7-0.5c0-0.3,0-0.6,0-0.9c-0.7,0-1.3,0.1-1.9,0.1
		c-0.4,0-0.9,0-1.3,0l-0.9-2.1c3.2-0.2,6.5-1,8.3-2l2.5,3.4c-1.4,0.2-2.9,0.4-4.4,0.5c0,0.3,0,0.6,0,0.9c1.8-0.1,3.6-0.2,5.1-0.3
		v4.2C82.3,17,80.4,16.8,78.5,16.6z"/>
	<path id="XMLID_218_" class="st0" d="M95.9,13.3c0.4,0.6,0.7,1.2,1,1.8l-1.6,0.7c-0.3-0.7-0.7-1.5-1.1-2.1l1-0.4
		c-3.2,0.1-5.2,1.2-5.2,2.7c0,0.7,0.9,1.2,3.1,1.2c1,0,2.3-0.1,4-0.3l-0.9,4.6c-6,0-8.3-1.8-8.3-4.7c0-2,1.1-3.5,3-4.3
		c-1.7,0.1-3.5,0.3-5,0.5l-0.2-2.2c2.5-0.6,7.7-1.2,11.5-1.2l0.6,3.8C97,13.3,96.4,13.3,95.9,13.3z M93.9,16.2c-0.2-0.6-0.6-1.5-1-2
		l1-0.4c0.4,0.6,0.9,1.4,1.1,2L93.9,16.2z"/>
	<path id="XMLID_221_" class="st0" d="M110.5,21l-4.6-0.8c0.6-0.8,0.9-1.6,0.9-2.5c0-0.8-0.4-1.3-1.4-1.3c-0.5,0-0.9,0.1-1.3,0.2
		c0,0.9,0.1,3.8,0.1,4.4l-2.3,0c0.1-1.3,0.1-2.9,0.1-3.4c-0.3,0.2-1,0.8-1.6,1.6l-1.2-2.1c0.7-0.7,1.8-1.5,2.8-2c0-0.6,0-1.4,0-2
		c-0.7,0-1.3,0-1.8,0l-0.1-2.3c0.5,0.1,1.1,0.1,1.9,0.1c0-0.7,0-1.5,0-2l2.1,0.1c0,0.5-0.1,1.2-0.1,1.9c0.6,0,1.7-0.1,2.1-0.2
		l-0.1,2.3c-0.5,0-1.5,0.1-2,0.1c0,0.4,0,1,0,1.4c0.8-0.3,2-0.4,2.9-0.4c2.9,0,4.6,1.4,4.6,3.6C111.6,18.9,111.1,20.2,110.5,21z
		 M107.6,13.8c-0.3-1.2-0.9-2.8-1.6-3.8l3.8-0.6c0.8,1,1.5,2.2,1.9,3.6L107.6,13.8z"/>
	<path id="XMLID_224_" class="st0" d="M125.8,16.5c-0.1,0-0.2,0-0.2,0V18h-1c0.4,1.2,1.5,2.5,1.5,2.5l-5,0.7c0,0-0.8-1.2-1.1-2.9
		l3.5-0.4h-3.8V18c0,2.9-0.2,3.3-2.4,3.3h-0.5l-0.5-1.7c-0.8,1-1.7,1.6-1.7,1.6l-1.1-1.9c0,0,1.1-0.6,1.9-1.5h-1.6v-2h9.8
		c-0.7-0.2-1.5-0.6-2-1v0.4H116V15c-0.5,0.3-1,0.6-1.7,0.9l-0.9-2c0.4-0.1,0.8-0.3,1.1-0.4c-0.1-0.2-0.3-0.4-0.4-0.5
		c-0.1,0.1-0.2,0.1-0.3,0.2l-0.4-2.1c1.3-0.9,2.2-2.3,2.2-2.3l1.9,0.1c0,0-0.1,0.2-0.3,0.5h2v0.1c0.2,0.3,0.4,0.5,0.6,0.7V9.2h5.9
		v1.6c0,0-0.2,0.5-0.6,1.1c0.1,0,0.3,0,0.4,0c0.2,0,0.3,0,0.5,0L125.8,16.5z M115.4,11.9c-0.1,0.1-0.2,0.2-0.3,0.3
		c0.1,0.2,0.3,0.4,0.5,0.7c0.1-0.1,0.3-0.2,0.4-0.3C115.8,12.3,115.5,12,115.4,11.9z M117.9,18h-2.2l1.2,0.8
		c-0.1,0.2-0.2,0.3-0.3,0.4c1.2,0,1.2-0.1,1.2-0.5c0,0,0-0.1,0-0.1V18z M116.5,11c0.1,0.1,0.4,0.4,0.5,0.5c0.1-0.1,0.3-0.4,0.4-0.5
		H116.5z M118.7,11.9c-0.3,0.6-0.6,1.1-1,1.7h2.1C119.4,13.1,119,12.5,118.7,11.9z M120.6,11c0.2,0.2,0.5,0.3,0.7,0.4
		c0.1-0.2,0.2-0.4,0.2-0.4H120.6z"/>
	<path id="XMLID_231_" class="st0" d="M130.7,16.8c-0.2,0.5-0.7,0.9-1.2,0.9c-0.5,0-1-0.4-1.1-1.4c-0.1-0.5-0.1-1.2-0.1-2
		c0-1.7,0.1-3.8,0.2-4.9l2.4,0.2c-0.2,1.3-0.4,3.4-0.4,4c0,0.3,0,0.4,0.1,0.4c0.1,0,0.1-0.1,0.2-0.2c0.1-0.2,0.2-0.4,0.4-0.8
		l0.9,0.7C131.7,14.7,131.2,15.9,130.7,16.8z M138.7,13.5c0,0.7,0,1.5,0,2.3c0,0,0,0.1,0,0.1c0,2.8-0.9,4.4-3,5.7l-4.1-1.6
		c1.7-1.2,2.5-2.8,2.5-4.6c0-0.3,0-0.5,0-0.8c0-1.8-0.2-4-0.3-5.4h4.9C138.7,10.5,138.7,11.8,138.7,13.5z"/>
	<path id="XMLID_234_" class="st0" d="M149.9,17.4c-0.8-1-1.6-2.4-2.3-3.9c-1.8,0.2-3.7,0.3-5.2,0.3l-0.3-2.3c1.4,0,3-0.1,4.5-0.4
		c-0.2-0.6-0.4-1.2-0.6-1.8l4.5-0.6c0.1,0.5,0.3,1.1,0.5,1.7c0.7-0.2,1.3-0.3,2-0.5l0.5,2.9c-0.5,0.1-0.9,0.2-1.4,0.2
		c0.5,1,1,1.9,1.6,2.8L149.9,17.4z M150.3,21.4c-3.6-0.1-6.5-1.9-7.8-4l1.5-1.8c1,1.2,3.9,2.2,7.6,2.2L150.3,21.4z"/>
	<path id="XMLID_237_" class="st0" d="M166.7,20.9l-5-1c0.8-1.1,1.4-2.6,1.4-3.9c0-0.7-0.5-1.2-1.1-1.2c0,0,0,0,0,0
		c-0.5,0-1.3,0.3-2.4,1.1c0,0.4,0,0.8,0,1.2c0,1.4,0,2.7,0.1,4l-2.2,0.1c0-0.2,0-0.5,0-0.7c0-0.7,0-1.5,0-2.3
		c-0.3,0.4-0.6,0.9-1,1.4l-1.1-2.1c0.6-0.7,1.5-1.7,2.2-2.6c0-0.5,0-1,0.1-1.5c-0.5,0.1-1.1,0.2-1.6,0.3l-0.3-2.4
		c0.6,0,1.3-0.1,2-0.2c0-0.9,0.1-1.7,0.1-2.3L160,9c-0.1,0.5-0.1,1.1-0.1,1.7c0.2-0.1,0.4-0.1,0.5-0.2L161,12
		c-0.4,0.3-0.9,0.7-1.4,1.1c0,0.1,0,0.2,0,0.3c1.3-1,2.8-1.5,4.1-1.5c2.3,0,4.4,1.2,4.4,4C168.2,17.9,167.5,19.9,166.7,20.9z"/>
	<path id="XMLID_239_" class="st0" d="M180.1,11.3c-0.2-0.4-0.5-1-0.8-1.5l0.4,1.7c-0.5,0.1-0.7,0.2-1.2,0.3c0,0.2,0.1,0.3,0.2,0.4
		c0.8-0.1,1.5-0.4,2.2-0.6l0.3,2.8c-0.4,0.1-0.9,0.1-1.4,0.2c0.3,0.5,0.5,1,0.8,1.5l-3.6,1.5c-0.5-0.7-1-1.6-1.4-2.7
		c-1.9,0.1-3.8,0.2-5.4,0.2l-0.3-1.9c1.4,0,3.1-0.2,4.8-0.4c-0.1-0.2-0.2-0.4-0.2-0.7c-1.4,0.1-2.7,0.2-4,0.2l-0.3-1.8
		c1.2,0,2.5-0.1,3.7-0.3c-0.1-0.3-0.2-0.6-0.3-0.9l4.1-0.6c0.1,0.3,0.1,0.5,0.2,0.8c0.5-0.1,1-0.3,1.4-0.5l0,0.2l0.8-0.4
		c0.4,0.6,0.8,1.3,1.1,1.9L180.1,11.3z M178,21.5c-3.6-0.1-6.6-1.6-7.7-3.8l1.3-1.7c1,1.3,3.9,2.3,7.4,2.3L178,21.5z M181.6,11
		c-0.3-0.7-0.6-1.4-1.1-2l1.5-0.6c0.5,0.7,0.8,1.2,1.1,1.9L181.6,11z"/>
	<path id="XMLID_243_" class="st0" d="M190.7,16.9h-2.6l-0.4-7.5h4.4C191.4,11.7,191,14.8,190.7,16.9z M187.8,20.4v-2.4h3.5v2.4
		H187.8z"/>
</g>
</svg>
