<?xml version="1.0" encoding="utf-8"?>
<!-- Generator: Adobe Illustrator 19.0.0, SVG Export Plug-In . SVG Version: 6.00 Build 0)  -->
<svg version="1.1" id="レイヤー_1" xmlns="http://www.w3.org/2000/svg" xmlns:xlink="http://www.w3.org/1999/xlink" x="0px"
	 y="0px" viewBox="0 0 194 30" style="enable-background:new 0 0 194 30;" xml:space="preserve">
<style type="text/css">
	.st0{fill:#FF6E00;}
</style>
<g id="XMLID_294_">
	<path id="XMLID_295_" class="st0" d="M5.1,13.4l-1.5-1.2c0-1.5,0.1-4,0.1-6.2c0-1.9,0-3.6-0.1-4.5l2.5,0.1c-0.2,2-0.2,5-0.2,7.2
		c1.9-0.8,4.3-2.5,6.5-4.8l2.3,5.2C12.1,11.2,8.3,12.7,5.1,13.4z"/>
	<path id="XMLID_297_" class="st0" d="M22.6,9.8c0.2,1.5,0.4,2.8,0.5,3.4l-2.4,0.2c-0.1-0.5-0.2-1.9-0.5-3.7c-0.4,0-0.7,0-1.1,0
		c-1.2,0-2.3,0-3.1,0.1l-0.2-2.2c1-0.2,2.4-0.5,4-0.7c-0.1-0.4-0.1-0.9-0.2-1.3c-1.1,0.1-2.1,0.2-2.8,0.3l-0.3-2.2
		c0.8-0.2,1.7-0.4,2.7-0.7c-0.1-0.7-0.2-1.3-0.3-1.9L21.4,1c0,0.4,0.1,1,0.2,1.5c1-0.2,2.1-0.4,3.1-0.6c0,0,0,0,0-0.1l0.9-0.6
		c0.5,0.5,0.9,1.2,1.2,1.8l-1,0.5c-0.2-0.3-0.4-0.7-0.6-1.1l0.4,2.6c-1.2,0.1-2.4,0.1-3.6,0.2c0.1,0.4,0.1,0.8,0.2,1.2
		c1.9-0.3,4-0.5,5.9-0.6v4.3C26.5,10.1,24.5,9.9,22.6,9.8z M27.2,3.2c-0.3-0.7-0.7-1.3-1.3-1.9l1.5-0.8c0.6,0.6,0.9,1.1,1.3,1.8
		L27.2,3.2z"/>
	<path id="XMLID_300_" class="st0" d="M41.6,12.7c-2.7-0.2-8.3-0.3-10.6-0.3l-0.1-2.1c1.1-0.1,3.2-0.2,4.3-0.3l0.6-4.2
		c-1.4,0-2.5,0-3.8,0.1l-0.1-1.9c2-0.2,6.3-0.4,8.4-0.4l-0.6,6.3c0.6,0,1.4,0,2,0L41.6,12.7z"/>
	<path id="XMLID_451_" class="st0" d="M50.7,13.6l-4.8-2.1c3-0.9,4.6-2.7,4.9-4.6c-2,0-3.9,0-6.2,0.1V4.9c0.9,0,2.2,0,3.6,0
		c2.2,0,4.6,0,6.1-0.2l2,1.7C55.9,10.1,54.1,12.6,50.7,13.6z M50,3.9c-1.6,0-3,0-4.2,0.1l-0.2-2.2c2.2-0.2,5.1-0.4,8.7-0.5L54.4,4
		C52.8,3.9,51.4,3.9,50,3.9z"/>
	<path id="XMLID_454_" class="st0" d="M62.9,8.5c-1.7,0-3.2,0.1-4.6,0.2V5.9c3.1-0.7,7.8-1.2,11.8-1.2v4.1
		C67.8,8.6,65.2,8.5,62.9,8.5z"/>
	<path id="XMLID_456_" class="st0" d="M81.3,8.2c0.6,0.3,1.2,0.6,1.8,1.1l-4.4,4.1c-1.8-2.1-4.1-4.2-6.4-5.6l1.4-1.5
		c0.7,0.1,2,0.4,2.8,0.6c0.8-0.6,1.5-1.4,2-2.1c-2.5,0-4.4,0.1-6.5,0.2l-0.1-2.3c0.3,0,0.6,0,1,0c3,0,7.6-0.2,9.4-0.6l2.3,2.3
		C83.7,5.7,82.4,7.1,81.3,8.2z"/>
	<path id="XMLID_458_" class="st0" d="M88.1,7.8c-0.3-1.1-0.7-2.3-1.2-3.3L88.5,4c0.5,0.9,1.1,2,1.5,3.1L88.1,7.8z M93.2,13.4
		l-4.3-1.5c2.9-2.1,4.1-4.2,4.4-8.3l4,0.6C97,8.4,96,11.4,93.2,13.4z M90.4,6.8c-0.2-1-0.5-2.1-0.9-3l1.7-0.4
		c0.4,0.8,0.9,1.8,1.2,2.9L90.4,6.8z"/>
	<path id="XMLID_462_" class="st0" d="M106.9,8.7c-0.4,1.8-1.2,3.5-3.2,4.8l-2.2-2c1.5-0.5,2.4-1.7,2.8-3.1
		c-1.2-0.1-2.4-0.2-3.4-0.2c-0.3,0-0.5,0-0.8,0L100,6.2c1.2-0.1,2.9-0.3,4.7-0.5c0-0.3,0-0.6,0-0.9c-0.7,0-1.3,0.1-1.9,0.1
		c-0.4,0-0.9,0-1.3,0l-0.9-2.1c3.2-0.2,6.5-1,8.3-2l2.5,3.4c-1.4,0.2-2.9,0.4-4.4,0.5c0,0.3,0,0.6,0,0.9c1.8-0.1,3.6-0.2,5.1-0.3
		v4.2C110.7,9.2,108.8,8.9,106.9,8.7z"/>
	<path id="XMLID_464_" class="st0" d="M124.3,5.4c0.4,0.6,0.7,1.2,1,1.8L123.7,8c-0.3-0.7-0.7-1.5-1.1-2.1l1-0.4
		c-3.2,0.1-5.2,1.2-5.2,2.7c0,0.7,0.9,1.2,3.1,1.2c1,0,2.3-0.1,4-0.3l-0.9,4.6c-6,0-8.3-1.8-8.3-4.7c0-2,1.1-3.5,3-4.3
		c-1.7,0.1-3.5,0.3-5,0.5L114,2.9c2.5-0.6,7.7-1.2,11.5-1.2l0.6,3.8C125.5,5.4,124.9,5.4,124.3,5.4z M122.3,8.3
		c-0.2-0.6-0.6-1.5-1-2l1-0.4c0.4,0.6,0.9,1.4,1.1,2L122.3,8.3z"/>
	<path id="XMLID_467_" class="st0" d="M9.6,23.9c0,1.8,0,3.7,0.1,5.4H7.1c0-1.1,0-2.8,0-4.5c-1.2,0.4-2.5,0.7-3.7,1L2,23.8
		c3.5-1.4,7-4.1,8.4-7l4,4.5C13,22.3,11.3,23.2,9.6,23.9z"/>
	<path id="XMLID_469_" class="st0" d="M27.6,26.2c-0.2,2-0.7,2.8-3.6,2.8c-0.7,0-1.4,0-2.4-0.1L21,25.9c0.5,0.1,0.9,0.1,1.2,0.1
		c0.7,0,1-0.2,1.1-0.8c0.2-1,0.3-2.6,0.3-3.4c-0.4,0-1.1-0.1-1.9-0.1c-0.4,3.8-1.3,5.7-4,7.4l-1.9-1.9c2.2-1.1,3.1-2.4,3.4-5.5
		c-0.4,0-0.8,0-1.1,0c-0.5,0-1,0-1.4,0l0-2.2c0.7-0.1,1.6-0.1,2.7-0.2c0-0.6,0-1.3,0-2l2.4,0.1c0,0.7,0,1.3,0,1.9
		c2-0.1,4.1-0.1,6.1-0.1C27.9,21.6,27.7,24.9,27.6,26.2z"/>
	<path id="XMLID_471_" class="st0" d="M37.1,29c-0.8,0.2-1.5,0.3-2.1,0.3c-2.1,0-3.4-1.1-3.4-3.7c0,0,0-0.1,0-0.1
		c0-1.1,0.1-3.8,0.1-6.2c0-0.7,0-1.3,0-1.9l2.5,0.1c-0.1,2.3-0.3,5.6-0.3,7.1c0,0.2,0,0.4,0,0.5c0,0.5,0.2,0.8,0.5,0.8
		c0.1,0,0.3-0.1,0.5-0.2c1.6-0.9,3.2-2.7,4.3-5.5l3.4,5.2C41.2,26.9,38.8,28.6,37.1,29z"/>
	<path id="XMLID_473_" class="st0" d="M54.3,21.4c-3.6,0-6,1.1-6,2.7c0,0.7,0.9,1.2,3.1,1.2c1,0,2.3-0.1,4-0.3l-0.9,4.6
		c-6,0-8.3-1.8-8.3-4.7c0-2,1.1-3.5,3-4.3c-1.7,0.1-3.5,0.3-5,0.5L44,18.9c2.5-0.6,7.7-1.2,11.5-1.2l0.6,3.8
		C55.5,21.4,54.9,21.4,54.3,21.4z"/>
	<path id="XMLID_475_" class="st0" d="M64.2,29.4c-1.6,0-3.2-0.4-4-1.1c-0.6-0.5-0.8-1.1-0.8-1.8c0-0.9,0.6-1.8,1.8-2
		c0.1,0,0.3,0,0.4,0c1.3,0,2.3,0.9,2.5,2.3c0.7-0.5,1.1-0.9,1.1-1.9c0-0.9-0.7-1.8-2-1.8c-1.1,0-2.5,0.6-4.1,2.4l-1.2-2
		c1.8-1.5,3.7-2.7,5.6-3.6c-1.2,0-3,0.1-4.1,0.3l-0.2-2.3c1.9-0.2,5.8-0.5,8.2-0.5l0.9,3c-1.8,0.2-3.3,0.5-4.7,1
		c0.6-0.1,1.3-0.2,1.8-0.2c2.8,0,4.9,1.3,4.9,3.9C70.3,28.1,67.1,29.4,64.2,29.4z M61.4,26.3c-0.1,0-0.1,0-0.2,0
		c-0.2,0-0.3,0.2-0.3,0.4c0,0.1,0,0.2,0.1,0.3c0.2,0.2,0.7,0.4,1.2,0.4c0.1,0,0.1,0,0.1,0C62.3,26.6,62,26.3,61.4,26.3z"/>
	<path id="XMLID_478_" class="st0" d="M82.3,22.1c0,0.3,0,0.5,0,0.8c0,1.6-0.9,2.6-3.8,2.6c-0.6,0-1.2,0-2-0.1l-0.4-2.3
		c0.5,0.1,0.9,0.1,1.2,0.1c0.7,0,0.9-0.2,0.9-0.6c0-0.2,0-0.4,0-0.6c-1,0-1.9,0-2.8,0c0,1.2-0.1,2.2-0.1,3c0,0.7,0.5,1.1,2.4,1.1
		c1.7,0,3.5-0.4,5.3-1.2l0.1,3.9c-1.6,0.3-3,0.3-5.3,0.3c-3.4,0-4.6-1.1-4.6-3.4c0-0.1,0-0.1,0-0.2c0-1,0-2.2,0.1-3.5
		c-0.6,0-1.2,0.1-1.7,0.1l-0.2-2.1c0.5-0.1,1.2-0.1,1.9-0.2c0-0.5,0-1.1,0-1.5c0-0.2,0-0.5,0-0.7l2.2,0.1c0,0.6,0,1.3-0.1,2
		c0.9-0.1,1.8-0.1,2.7-0.2c0-0.8,0-1.5,0-2.2l3.8,0c-0.1-0.1-0.1-0.2-0.2-0.3l1-0.4c0.4,0.6,0.7,1.3,0.9,2l-1.1,0.4
		c-0.1-0.5-0.4-1.1-0.6-1.6c0,0.6,0,1.2,0,1.8c0.7,0,1.6-0.1,2.1-0.1v3C83.6,22.2,83,22.2,82.3,22.1z M84.2,18.9
		c-0.2-0.7-0.5-1.4-0.9-2.1l1.6-0.5c0.4,0.7,0.7,1.3,1,2L84.2,18.9z"/>
	<path id="XMLID_481_" class="st0" d="M93.2,25.1h-2.6l-0.4-7.5h4.4C93.8,19.8,93.4,23,93.2,25.1z M90.3,28.5V26h3.5v2.4H90.3z"/>
</g>
</svg>
