<?xml version="1.0" encoding="utf-8"?>
<!-- Generator: Adobe Illustrator 19.0.0, SVG Export Plug-In . SVG Version: 6.00 Build 0)  -->
<svg version="1.1" id="レイヤー_1" xmlns="http://www.w3.org/2000/svg" xmlns:xlink="http://www.w3.org/1999/xlink" x="0px"
	 y="0px" viewBox="0 0 194 30" style="enable-background:new 0 0 194 30;" xml:space="preserve">
<style type="text/css">
	.st0{fill:#FF6E00;}
</style>
<g id="XMLID_99_">
	<path id="XMLID_100_" class="st0" d="M9.4,21.7l-5.4-1.9c1.8-0.7,3.2-1.7,4.1-2.9c-0.7-0.5-1.9-1.2-2.5-1.5L7.2,14
		c0.5,0.3,1.5,0.7,2.1,1.1c0.3-0.7,0.4-1.5,0.4-2.2H6.9c-0.7,1.3-1.5,2.5-2.6,3.3L2,14.6c2.4-1.5,3.2-3.9,3.6-5.8l2.5,0.7
		C8,9.9,7.9,10.3,7.7,10.7c1.6,0,3.3-0.2,4.6-0.5l2.7,2.4C15,16.8,12.9,20.3,9.4,21.7z"/>
	<path id="XMLID_102_" class="st0" d="M18.7,15.7c-0.3-1.1-0.7-2.3-1.2-3.3l1.6-0.5c0.5,0.9,1.1,2,1.5,3.1L18.7,15.7z M23.8,21.3
		l-4.3-1.5c2.9-2.1,4.1-4.2,4.4-8.3l4,0.6C27.5,16.3,26.6,19.3,23.8,21.3z M21,14.7c-0.2-1-0.5-2.1-0.9-3l1.7-0.4
		c0.4,0.8,0.9,1.8,1.2,2.9L21,14.7z"/>
	<path id="XMLID_106_" class="st0" d="M37.3,21.8l-5.5-1.9c3.5-1.4,5.4-4.1,5.4-6.8h-2.5c-0.6,1.2-1.5,2.3-2.6,3.2l-2.2-1.6
		c2.4-1.5,3.2-3.9,3.6-5.8l2.5,0.7c-0.1,0.4-0.2,0.8-0.3,1.2c1.6,0,3.2-0.2,4.4-0.5l1,0.9c-0.3-0.5-0.7-1.1-1.1-1.5l0.9-0.6
		c0.5,0.5,0.9,1.2,1.2,1.8l-0.9,0.5l1.6,1.3C42.8,17,40.8,20.4,37.3,21.8z M42.6,11.1c-0.3-0.7-0.7-1.3-1.3-1.9l1.5-0.8
		c0.6,0.6,0.9,1.1,1.3,1.8L42.6,11.1z"/>
	<path id="XMLID_109_" class="st0" d="M53.9,16.1c0.6,0.3,1.2,0.6,1.8,1.1l-4.4,4.1c-1.8-2.1-4.1-4.2-6.4-5.6l1.4-1.5
		c0.7,0.1,2,0.4,2.8,0.6c0.8-0.6,1.5-1.4,2-2.1c-2.5,0-4.4,0.1-6.5,0.2l-0.1-2.3c0.3,0,0.6,0,1,0c3,0,7.6-0.2,9.4-0.6l2.3,2.3
		C56.3,13.6,55,15,53.9,16.1z"/>
	<path id="XMLID_111_" class="st0" d="M60.7,15.7c-0.3-1.1-0.7-2.3-1.2-3.3l1.6-0.5c0.5,0.9,1.1,2,1.5,3.1L60.7,15.7z M65.8,21.3
		l-4.3-1.5c2.9-2.1,4.1-4.2,4.4-8.3l4,0.6C69.5,16.3,68.6,19.3,65.8,21.3z M63,14.7c-0.2-1-0.5-2.1-0.9-3l1.7-0.4
		c0.4,0.8,0.9,1.8,1.2,2.9L63,14.7z"/>
	<path id="XMLID_115_" class="st0" d="M79.5,16.6c-0.4,1.8-1.2,3.5-3.2,4.8l-2.2-2c1.5-0.5,2.4-1.7,2.8-3.1
		c-1.2-0.1-2.4-0.2-3.4-0.2c-0.3,0-0.5,0-0.8,0l-0.2-2.2c1.2-0.1,2.9-0.3,4.7-0.5c0-0.3,0-0.6,0-0.9c-0.7,0-1.3,0.1-1.9,0.1
		c-0.4,0-0.9,0-1.3,0l-0.9-2.1c3.2-0.2,6.5-1,8.3-2l2.5,3.4c-1.4,0.2-2.9,0.4-4.4,0.5c0,0.3,0,0.6,0,0.9c1.8-0.1,3.6-0.2,5.1-0.3
		v4.2C83.3,17.1,81.4,16.8,79.5,16.6z"/>
	<path id="XMLID_117_" class="st0" d="M96.9,13.3c0.4,0.6,0.7,1.2,1,1.8l-1.6,0.7c-0.3-0.7-0.7-1.5-1.1-2.1l1-0.4
		c-3.2,0.1-5.2,1.2-5.2,2.7c0,0.7,0.9,1.2,3.1,1.2c1,0,2.3-0.1,4-0.3l-0.9,4.6c-6,0-8.3-1.8-8.3-4.7c0-2,1.1-3.5,3-4.3
		c-1.7,0.1-3.5,0.3-5,0.5l-0.2-2.2c2.5-0.6,7.7-1.2,11.5-1.2l0.6,3.8C98,13.3,97.5,13.3,96.9,13.3z M94.9,16.2c-0.2-0.6-0.6-1.5-1-2
		l1-0.4c0.4,0.6,0.9,1.4,1.1,2L94.9,16.2z"/>
	<path id="XMLID_120_" class="st0" d="M112.1,18.3c-0.2,2-0.7,2.8-3.6,2.8c-0.7,0-1.4,0-2.4-0.1l-0.6-3.1c0.5,0.1,0.9,0.1,1.2,0.1
		c0.7,0,1-0.2,1.1-0.8c0.2-1,0.3-2.6,0.3-3.4c-0.4,0-1.1-0.1-1.9-0.1c-0.4,3.8-1.3,5.7-4,7.4l-1.9-1.9c2.2-1.1,3.1-2.4,3.4-5.5
		c-0.4,0-0.8,0-1.1,0c-0.5,0-1,0-1.4,0l0-2.2c0.7-0.1,1.6-0.1,2.7-0.2c0-0.6,0-1.3,0-2l2.4,0.1c0,0.7,0,1.3,0,1.9
		c1.3,0,2.7-0.1,4-0.1c-0.3-0.5-0.7-1.2-1.1-1.6l0.9-0.6c0.5,0.5,0.9,1.2,1.2,1.8c0,0-0.7,0.4-0.7,0.4c0.6,0,1.1,0,1.7,0
		C112.5,13.7,112.3,16.9,112.1,18.3z M112,11c-0.3-0.7-0.7-1.3-1.3-1.9l1.5-0.8c0.6,0.6,0.9,1.1,1.3,1.8L112,11z"/>
	<path id="XMLID_123_" class="st0" d="M121.5,16.6c-0.4,1.8-1.2,3.5-3.2,4.8l-2.2-2c1.5-0.5,2.4-1.7,2.8-3.1
		c-1.2-0.1-2.4-0.2-3.4-0.2c-0.3,0-0.5,0-0.8,0l-0.2-2.2c1.2-0.1,2.9-0.3,4.7-0.5c0-0.3,0-0.6,0-0.9c-0.7,0-1.3,0.1-1.9,0.1
		c-0.4,0-0.9,0-1.3,0l-0.9-2.1c3.2-0.2,6.5-1,8.3-2l2.5,3.4c-1.4,0.2-2.9,0.4-4.4,0.5c0,0.3,0,0.6,0,0.9c1.8-0.1,3.6-0.2,5.1-0.3
		v4.2C125.3,17.1,123.4,16.8,121.5,16.6z"/>
	<path id="XMLID_125_" class="st0" d="M139.9,16c0,2.3-1.4,3.9-4.8,5.2l-2.9-2.2c1.9-0.9,3.1-1.9,3.1-3c0-0.1,0-0.2,0-0.3
		c-0.1-0.8-0.6-1.3-1.7-1.3c-0.9,0-2.1,0.3-3.9,0.8l-0.5-2.2c2.3-0.5,4.3-0.8,6-0.8c2.7,0,4.4,0.8,4.7,3
		C139.9,15.5,139.9,15.8,139.9,16z"/>
	<path id="XMLID_127_" class="st0" d="M152.9,13.3c-3.6,0-6,1.1-6,2.7c0,0.7,0.9,1.2,3.1,1.2c1,0,2.3-0.1,4-0.3l-0.9,4.6
		c-6,0-8.3-1.8-8.3-4.7c0-2,1.1-3.5,3-4.3c-1.7,0.1-3.5,0.3-5,0.5l-0.2-2.2c2.5-0.6,7.7-1.2,11.5-1.2l0.6,3.8
		C154,13.3,153.5,13.3,152.9,13.3z"/>
	<path id="XMLID_129_" class="st0" d="M162.8,21.3c-1.6,0-3.2-0.4-4-1.1c-0.6-0.5-0.8-1.1-0.8-1.8c0-0.9,0.6-1.8,1.8-2
		c0.1,0,0.3,0,0.4,0c1.3,0,2.3,0.9,2.5,2.3c0.7-0.5,1.1-0.9,1.1-1.9c0-0.9-0.7-1.8-2-1.8c-1.1,0-2.5,0.6-4.1,2.4l-1.2-2
		c1.8-1.5,3.7-2.7,5.6-3.6c-1.2,0-3,0.1-4.1,0.3l-0.2-2.3c1.9-0.2,5.8-0.5,8.2-0.5l0.9,3c-1.8,0.2-3.3,0.5-4.7,1
		c0.6-0.1,1.3-0.2,1.8-0.2c2.8,0,4.9,1.3,4.9,3.9C168.9,20,165.7,21.3,162.8,21.3z M160,18.2c-0.1,0-0.1,0-0.2,0
		c-0.2,0-0.3,0.2-0.3,0.4c0,0.1,0,0.2,0.1,0.3c0.2,0.2,0.7,0.4,1.2,0.4c0.1,0,0.1,0,0.1,0C160.8,18.5,160.6,18.2,160,18.2z"/>
	<path id="XMLID_132_" class="st0" d="M180.9,14c0,0.3,0,0.5,0,0.8c0,1.6-0.9,2.6-3.8,2.6c-0.6,0-1.2,0-2-0.1l-0.4-2.3
		c0.5,0.1,0.9,0.1,1.2,0.1c0.7,0,0.9-0.2,0.9-0.6c0-0.2,0-0.4,0-0.6c-1,0-1.9,0-2.8,0c0,1.2-0.1,2.2-0.1,3c0,0.7,0.5,1.1,2.4,1.1
		c1.7,0,3.5-0.4,5.3-1.2l0.1,3.9c-1.6,0.3-3,0.3-5.3,0.3c-3.4,0-4.6-1.1-4.6-3.4c0-0.1,0-0.1,0-0.2c0-1,0-2.2,0.1-3.5
		c-0.6,0-1.2,0.1-1.7,0.1l-0.2-2.1c0.5-0.1,1.2-0.1,1.9-0.2c0-0.5,0-1.1,0-1.5c0-0.2,0-0.5,0-0.7l2.2,0.1c0,0.6,0,1.3-0.1,2
		c0.9-0.1,1.8-0.1,2.7-0.2c0-0.8,0-1.5,0-2.2l3.8,0c-0.1-0.1-0.1-0.2-0.2-0.3l1-0.4c0.4,0.6,0.7,1.3,0.9,2l-1.1,0.4
		c-0.1-0.5-0.4-1.1-0.6-1.6c0,0.6,0,1.2,0,1.8c0.7,0,1.6-0.1,2.1-0.1v3C182.2,14.1,181.5,14.1,180.9,14z M182.8,10.8
		c-0.2-0.7-0.5-1.4-0.9-2.1l1.6-0.5c0.4,0.7,0.7,1.3,1,2L182.8,10.8z"/>
	<path id="XMLID_135_" class="st0" d="M191.8,17h-2.6l-0.4-7.5h4.4C192.4,11.7,192,14.9,191.8,17z M188.8,20.4V18h3.5v2.4H188.8z"/>
</g>
</svg>
