<?xml version="1.0" encoding="utf-8"?>
<!-- Generator: Adobe Illustrator 19.0.0, SVG Export Plug-In . SVG Version: 6.00 Build 0)  -->
<svg version="1.1" id="レイヤー_1" xmlns="http://www.w3.org/2000/svg" xmlns:xlink="http://www.w3.org/1999/xlink" x="0px"
	 y="0px" viewBox="0 0 194 30" style="enable-background:new 0 0 194 30;" xml:space="preserve">
<style type="text/css">
	.st0{fill:#FF6E00;}
</style>
<g id="レイヤー_1_2_">
	<g id="XMLID_35_">
		<path id="XMLID_61_" class="st0" d="M7.2,12.1c-0.2-1-0.7-1.7-1.5-1.7c-0.9,0-1.3,0.3-1.3,0.9c0,0.8,1.2,1.3,2.7,1.4
			c2.9,0.2,4.8,1.2,4.8,3.9c0,2.4-1.6,3.8-4.8,3.8c-3,0-4.6-1.1-5.1-3.1l1.7-1.2c0.4,1.3,1.3,1.7,2.1,1.7c0.9,0,1.4-0.5,1.4-1.2
			c0-1.4-1.4-1.5-2.5-2.1c-1.8-0.6-2.4-1.3-2.4-3C2.3,9.6,4.1,8,6.5,8c2.7,0,4.3,0.7,5.1,3.3L7.2,12.1z"/>
		<path id="XMLID_58_" class="st0" d="M13.7,23V11.7h2.1v0.9c0.4-0.6,1.6-1,2.8-1c2.2,0,4,1.5,4,4.4s-1.8,4.4-4,4.4
			c-1.3,0-2.3-0.3-2.7-0.9v3.6h-2.2V23z M15.9,17.3c0.2,0.6,0.6,1,1.2,1c0.8,0,1.3-0.8,1.3-2.3s-0.5-2.3-1.3-2.3
			c-0.6,0-1.2,0.7-1.2,1.7V17.3z"/>
		<path id="XMLID_57_" class="st0" d="M24,20.1V8.4h3.3v11.7H24z"/>
		<path id="XMLID_54_" class="st0" d="M37.5,20.3c-0.3,0.1-0.6,0.1-0.9,0.1c-1.3,0-2.9-0.3-3-0.9c-0.4,0.7-1.3,0.9-2.3,0.9
			C30,20.4,29,19.5,29,18l0,0c0-1.5,0.7-2.4,2.3-2.9c0.8-0.4,1.4-0.6,1.4-1c0-0.5-0.2-0.6-0.9-0.6c-0.5,0-1.5,0.5-1.9,1.2l-0.8-1.8
			c0.7-0.9,2.2-1.4,3.8-1.4c2.7,0,3.9,1,3.9,2.8V17c0,0.4,0.1,0.6,0.6,0.6c0.1,0,0.3,0,0.5,0L37.5,20.3z M32.7,16
			c-0.2,0.2-0.5,0.4-1,0.5C31.2,16.8,31,17,31,17.6c0,0.4,0.2,0.7,0.6,0.7s0.9-0.4,1-1L32.7,16L32.7,16z"/>
		<path id="XMLID_53_" class="st0" d="M43.6,20.3c-3,0-4.3-0.6-4.3-2.7v-3.2h-0.9v-2.6h1V9.1h2.5v2.6h1.7v2.6h-1.7v1.4
			c0,1.1,0.5,1.1,2.2,1.1L43.6,20.3z"/>
		<path id="XMLID_50_" class="st0" d="M49.7,20.3c-2.7,0-4.6-1.7-4.6-4.3c0-2.7,1.8-4.4,4.6-4.4c2.7,0,4.5,1.7,4.5,4.4
			C54.3,18.5,52.5,20.3,49.7,20.3z M50.2,15.9c0-1.4-0.5-2.3-1.4-2.3c-0.8,0-1.4,0.9-1.4,2.3c0,1.4,0.6,2.3,1.4,2.3
			C49.7,18.3,50.2,17.4,50.2,15.9z"/>
		<path id="XMLID_47_" class="st0" d="M60,20.3c-2.7,0-4.6-1.7-4.6-4.3c0-2.7,1.8-4.4,4.6-4.4s4.5,1.7,4.5,4.4
			C64.5,18.5,62.7,20.3,60,20.3z M60.4,15.9c0-1.4-0.5-2.3-1.4-2.3c-0.8,0-1.4,0.9-1.4,2.3c0,1.4,0.6,2.3,1.4,2.3
			C59.9,18.3,60.4,17.4,60.4,15.9z"/>
		<path id="XMLID_46_" class="st0" d="M70.3,20.1v-5.2c0-0.8-0.3-1.3-0.9-1.3c-0.5,0-1,0.5-1.2,1.2v5.3h-2.3v-8.4H68v0.9
			c0.4-0.6,1.4-1.1,2.7-1.1c2.3,0,3.8,1.3,3.8,2.9V20h-4.2V20.1z"/>
		<path id="XMLID_42_" class="st0" d="M81.2,18.9c3.8-1.9,5.4-4.3,5.4-7.3c-1.5,0-4.3,0-6.7,0.1V9.2c0.5,0,1,0,1.7,0
			c2.5,0,6-0.2,8.5-0.6l2.5,2c0,4.5-1.7,8.6-5.8,10.8L81.2,18.9z M92.5,9.8c-0.9,0-1.6-0.6-1.6-1.5c0-0.8,0.7-1.5,1.6-1.5
			s1.6,0.8,1.6,1.6S93.4,9.8,92.5,9.8z M92.7,8.4c0-0.3-0.2-0.5-0.5-0.5s-0.5,0.2-0.5,0.5c0,0.3,0.2,0.5,0.5,0.5S92.7,8.7,92.7,8.4z
			"/>
		<path id="XMLID_41_" class="st0" d="M94.8,19.8c0-1.6,0.1-4.2,0.1-6.6c0-2,0-3.8-0.1-4.8l2.7,0.1c-0.2,2.2-0.2,5.4-0.2,7.7
			c2.1-0.9,4.6-2.6,6.9-5.1l2.5,5.5c-2.9,2.2-6.9,3.9-10.3,4.6L94.8,19.8z"/>
		<path id="XMLID_40_" class="st0" d="M112.8,21c0-1.2,0-3,0-4.8c-1.3,0.4-2.6,0.8-4,1.1l-1.5-2.2c3.8-1.5,7.5-4.4,9-7.5l4.3,4.9
			c-1.6,1.1-3.4,2-5.3,2.8c0,2,0,4,0.1,5.8h-2.6V21z"/>
		<path id="XMLID_36_" class="st0" d="M130.4,19v-0.7h-1.9v2.8h-2v-2.8h-1.9V19h-2V8.9h3.9V7.7h2v1.2h7v10.2h-5.1V19z M126.5,11.3
			h-1.9V16h1.9V11.3z M130.4,11.3h-1.9V16h1.9V11.3z"/>
	</g>
</g>
</svg>
