<?xml version="1.0" encoding="utf-8"?>
<!-- Generator: Adobe Illustrator 17.1.0, SVG Export Plug-In . SVG Version: 6.00 Build 0)  -->
<!DOCTYPE svg PUBLIC "-//W3C//DTD SVG 1.1//EN" "http://www.w3.org/Graphics/SVG/1.1/DTD/svg11.dtd">

<svg enable-background="new 0 0 77.3 16.8" version="1.1" viewbox="0 0 77.3 16.8" x="0px" xml:space="preserve" xmlns="http://www.w3.org/2000/svg" xmlns:xlink="http://www.w3.org/1999/xlink" y="0px">
<g display="none" id="bg">
<rect display="inline" height="80.6" width="447.8" x="9.2" y="-46.6"></rect>
</g>
<g id="レイヤー_1">
<g>
<path d="M15.5,14.1c-3,2.5-8.1,2.5-13.1,2.5H1.9l-0.8-2c3.4-0.5,6.5-1.1,8.8-3.6c-1.3-1-2.4-2.3-3-3.6H6.5c-1,1.2-2.3,2.2-5.5,3
			L0.1,8c1.4-0.1,2.7-0.4,3.6-0.8H0.5V5.1h4.7l0.1-0.5c-1.2,0-2.5,0-4,0L0.8,2.2c0.8,0,2.2,0,2.2,0c1.1-1,1.7-1.9,1.7-1.9l2.5,0.8
			c0,0-0.5,0.7-1.2,1.2c1,0,2.1,0,2.8,0L8,1.4l5.1-0.9c0,0,1.7,1.9,2.9,3.8l-3.4,0.7H16v2.2H9.5c1.2,0.3,2.7,0.4,5.6,0.4h1.3
			l-0.3,5.6c-0.8-0.1-1.5-0.2-2.1-0.4L15.5,14.1z M7.7,9.4c-1.6,1.4-3.4,2.1-5.7,2.7l-0.7-1.7c2.3-0.5,3.9-1.2,5.2-2.3L7.7,9.4z
			 M9.3,10.9c-1.8,1.8-4.3,2.7-7.2,3.3l-0.8-1.8C4,12,6.4,11.1,8,9.7L9.3,10.9z M10.5,5.1c-0.1-0.2-0.3-0.5-0.5-0.7
			C9,4.4,7.7,4.5,7.7,4.5L7.6,5.1H10.5z"></path>
<path d="M21,14.2c-0.3,0.9-0.6,1.7-1.1,2.4l-1.8-2.4c1.2-2.4,1.6-5.5,1.6-8.5h-1.3V2.8h1.3V0.4H22v2.4h3v1.8
			c0,11.3-0.1,11.9-3.5,11.9L21,14.2z M22.7,5.7h-0.8c0,2.9-0.2,5.8-0.7,7.8c1.5,0,1.5-0.1,1.5-7.2V5.7z M28.5,16.4v-0.8h-0.8v0.8
			h-2.3V0.7H34v15.7L28.5,16.4z M28.5,3.4h-0.8v9.5h0.8V3.4z"></path>
<path d="M40.6,15.9c1.4-0.9,2.1-2.3,2.6-3.5c-0.4,0.1-0.9,0.2-1.3,0.2c-2,0-4-1.3-4-3.5c0-2.8,2.4-3.5,4.8-3.5c0.2,0,0.5,0,0.7,0
			V5c-0.9,0-1.8,0-2.6,0c-1.9,0-3.7,0-5.1,0.2l0-2.8c2.1-0.2,4.9-0.3,7.6-0.4c0-0.4,0-0.9,0-1.3h5v1.2c1.1,0,2.2,0,3.1,0v3.5
			c-0.9-0.1-2-0.2-3.1-0.2c0,0.9,0,1.7,0,2.4c0.5,0.7,0.8,1.9,0.8,3.3c0,2.5-1,4.5-3.1,6L40.6,15.9z M41.6,7.8
			c-0.8,0-1.6,0.4-1.6,1.2c0,0.9,0.9,1.3,1.7,1.3c0.6,0,1.6-0.3,1.6-1.1C43.3,8.3,42.4,7.8,41.6,7.8z"></path>
<path d="M66,4.8c-2.3,0.3-4.2,0.7-6,1.2c0.8-0.1,1.6-0.2,2.4-0.2c3.6,0,6.3,1.7,6.3,5.1c0,3.9-4.1,5.5-7.8,5.5
			c-2.1,0-4.1-0.5-5.1-1.4c-0.7-0.6-1.1-1.5-1.1-2.3c0-1.2,0.8-2.3,2.3-2.5c0.2,0,0.3,0,0.5,0c1.6,0,3,1.1,3.2,3
			c0.9-0.6,1.4-1.2,1.4-2.4c0-1.2-1-2.4-2.6-2.4c-1.4,0-3.2,0.8-5.3,3.1l-1.6-2.6c2.3-1.9,4.8-3.5,7.2-4.7c-1.6,0-3.8,0.2-5.3,0.4
			l-0.3-2.9c2.5-0.3,7.5-0.7,10.6-0.7L66,4.8z M58.4,13.7c-0.1-0.8-0.5-1.3-1.2-1.3c-0.1,0-0.1,0-0.2,0c-0.3,0-0.4,0.3-0.4,0.5
			c0,0.1,0,0.3,0.1,0.3c0.3,0.3,0.9,0.5,1.5,0.5H58.4z"></path>
<path d="M71.9,10.9l-0.5-9.7H77c-1,2.9-1.5,7-1.8,9.7H71.9z M71.5,15.3v-3.1H76v3.1H71.5z"></path>
</g>
</g>
</svg>
