<?xml version="1.0" encoding="utf-8"?>
<!-- Generator: Adobe Illustrator 19.0.0, SVG Export Plug-In . SVG Version: 6.00 Build 0)  -->
<svg version="1.1" id="レイヤー_1" xmlns="http://www.w3.org/2000/svg" xmlns:xlink="http://www.w3.org/1999/xlink" x="0px"
	 y="0px" viewBox="0 0 194 30" style="enable-background:new 0 0 194 30;" xml:space="preserve">
<style type="text/css">
	.st0{fill:#FF6E00;}
</style>
<g id="XMLID_246_">
	<path id="XMLID_247_" class="st0" d="M13.7,10.3c-0.2,2-0.7,2.8-3.6,2.8c-0.7,0-1.4,0-2.4-0.1L7.2,9.9C7.7,9.9,8.1,10,8.4,10
		c0.7,0,1-0.2,1.1-0.8c0.2-1,0.3-2.6,0.3-3.4c-0.4,0-1.1-0.1-1.9-0.1c-0.4,3.8-1.3,5.7-4,7.4L2,11.2c2.2-1.1,3.1-2.4,3.4-5.5
		c-0.4,0-0.8,0-1.1,0c-0.5,0-1,0-1.4,0l0-2.2c0.7-0.1,1.6-0.1,2.7-0.2c0-0.6,0-1.3,0-2L8,1.3C8,2,8,2.7,8,3.2c1.3,0,2.7-0.1,4-0.1
		c-0.3-0.5-0.7-1.2-1.1-1.6L11.8,1c0.5,0.5,0.9,1.2,1.2,1.8c0,0-0.7,0.4-0.7,0.4c0.6,0,1.1,0,1.7,0C14,5.6,13.9,8.9,13.7,10.3z
		 M13.6,3c-0.3-0.7-0.7-1.3-1.3-1.9l1.5-0.8c0.6,0.6,0.9,1.1,1.3,1.8L13.6,3z"/>
	<path id="XMLID_250_" class="st0" d="M23.1,8.6c-0.4,1.8-1.2,3.5-3.2,4.8l-2.2-2c1.5-0.5,2.4-1.7,2.8-3.1c-1.2-0.1-2.4-0.2-3.4-0.2
		c-0.3,0-0.5,0-0.8,0L16.2,6c1.2-0.1,2.9-0.3,4.7-0.5c0-0.3,0-0.6,0-0.9c-0.7,0-1.3,0.1-1.9,0.1c-0.4,0-0.9,0-1.3,0l-0.9-2.1
		c3.2-0.2,6.5-1,8.3-2L27.7,4c-1.4,0.2-2.9,0.4-4.4,0.5c0,0.3,0,0.6,0,0.9c1.8-0.1,3.6-0.2,5.1-0.3v4.2C26.9,9.1,25,8.8,23.1,8.6z"
		/>
	<path id="XMLID_252_" class="st0" d="M39.5,8.1c0.6,0.3,1.2,0.6,1.8,1.1l-4.4,4.1c-1.8-2.1-4.1-4.2-6.4-5.6l1.4-1.5
		c0.7,0.1,2,0.4,2.8,0.6c0.8-0.6,1.5-1.4,2-2.1c-2.5,0-4.4,0.1-6.5,0.2l-0.1-2.3c0.3,0,0.6,0,1,0c3,0,7.6-0.2,9.4-0.6l2.3,2.3
		C41.8,5.6,40.6,7,39.5,8.1z"/>
	<path id="XMLID_254_" class="st0" d="M46.2,7.7C46,6.7,45.5,5.4,45,4.5l1.6-0.5c0.5,0.9,1.1,2,1.5,3.1L46.2,7.7z M51.4,13.3
		L47,11.8c2.9-2.1,4.1-4.2,4.4-8.3l4,0.6C55.1,8.3,54.2,11.3,51.4,13.3z M48.6,6.7c-0.2-1-0.5-2.1-0.9-3l1.7-0.4
		c0.4,0.8,0.9,1.8,1.2,2.9L48.6,6.7z"/>
	<path id="XMLID_258_" class="st0" d="M65.1,8.6c-0.4,1.8-1.2,3.5-3.2,4.8l-2.2-2c1.5-0.5,2.4-1.7,2.8-3.1c-1.2-0.1-2.4-0.2-3.4-0.2
		c-0.3,0-0.5,0-0.8,0L58.2,6c1.2-0.1,2.9-0.3,4.7-0.5c0-0.3,0-0.6,0-0.9c-0.7,0-1.3,0.1-1.9,0.1c-0.4,0-0.9,0-1.3,0l-0.9-2.1
		c3.2-0.2,6.5-1,8.3-2L69.7,4c-1.4,0.2-2.9,0.4-4.4,0.5c0,0.3,0,0.6,0,0.9c1.8-0.1,3.6-0.2,5.1-0.3v4.2C68.9,9.1,67,8.8,65.1,8.6z"
		/>
	<path id="XMLID_260_" class="st0" d="M82.5,5.3c0.4,0.6,0.7,1.2,1,1.8l-1.6,0.7c-0.3-0.7-0.7-1.5-1.1-2.1l1-0.4
		c-3.2,0.1-5.2,1.2-5.2,2.7c0,0.7,0.9,1.2,3.1,1.2c1,0,2.3-0.1,4-0.3l-0.9,4.6c-6,0-8.3-1.8-8.3-4.7c0-2,1.1-3.5,3-4.3
		c-1.7,0.1-3.5,0.3-5,0.5l-0.2-2.2c2.5-0.6,7.7-1.2,11.5-1.2l0.6,3.8C83.6,5.3,83,5.3,82.5,5.3z M80.5,8.2c-0.2-0.6-0.6-1.5-1-2
		l1-0.4c0.4,0.6,0.9,1.4,1.1,2L80.5,8.2z"/>
	<path id="XMLID_263_" class="st0" d="M9.6,29.4l-5.2-1.6c2.7-1.5,4.5-3.7,4.5-6.6H5.1c0,0.3,0,0.6,0,0.9c0,0.7,0,1.4,0,2.2H2.8
		c0-0.9,0-1.9,0-2.9c0-0.8,0-1.7,0-2.5c0.3,0,1.4,0,2.8,0c0-0.8,0-1.7,0-2.2l2.3,0.1c0,0.2,0,0.6,0,0.9c0,0.4,0,0.7,0,1.1
		c1.5-0.1,3-0.2,3.9-0.4l2.4,2C14.2,24.8,12.6,27.6,9.6,29.4z"/>
	<path id="XMLID_265_" class="st0" d="M28.3,24.8c-1.6-0.2-3.4-0.4-5.3-0.6c-0.3,2-1.1,4.1-3.3,5.5l-2.2-2c1.6-0.6,2.5-2.1,2.9-3.7
		c-1.1-0.1-2.2-0.1-3.1-0.1c-0.4,0-0.8,0-1.1,0l-0.2-2.5c2.8-0.4,8.3-0.8,12.2-0.9L28.3,24.8z M26.3,20.1c-0.1-0.4-0.4-1-0.7-1.4
		c0,0,0.1,1.2,0.1,1.2c-0.9,0-1.7-0.1-2.5-0.1c-2.2,0-4,0.1-5.6,0.2l-0.2-2.3c2.3-0.3,5-0.6,8.2-0.6l0,1l0.7-0.3
		c0.4,0.6,0.8,1.3,1.1,1.9L26.3,20.1z M27.8,19.8c-0.3-0.7-0.6-1.4-1.1-2l1.5-0.6c0.5,0.7,0.8,1.2,1.1,1.9L27.8,19.8z"/>
	<path id="XMLID_269_" class="st0" d="M36.6,20.3c-0.6,0.1-1.4,0.2-2.4,0.3c-0.5,3.1-1.3,6.2-2.2,8.8l-1.9-1.1
		c0.8-2.1,1.6-4.9,2.1-7.6c-0.5,0-1,0-1.5,0l-0.1-2.1c0.2,0,0.3,0,0.5,0c0.5,0,1,0,1.5,0c0.1-0.6,0.1-1.2,0.2-1.7l2,0.2
		c-0.1,0.4-0.1,0.9-0.2,1.3c0.7-0.1,1.4-0.2,2-0.3L36.6,20.3z M38,29.2c-2.6,0-4.1-0.9-4.1-3.2c0-0.6,0.1-1.4,0.4-2.3l1.7,0.4
		c-0.1,0.2-0.1,0.4-0.1,0.6c0,0.6,0.5,0.9,1.6,0.9c1.2,0,3.2-0.5,4.9-1.4l0.3,4.6C41,29.1,39.7,29.2,38,29.2z M39.7,23.2
		c-1.4,0-2.7,0.1-3.8,0.2L35.8,21c1.4-0.4,3.9-0.8,5.9-1.1l0.2,3.4C41.3,23.2,40.5,23.2,39.7,23.2z M39.6,20.1c-0.2-0.6-0.6-1.5-1-2
		l1-0.4c0.4,0.6,0.9,1.4,1.1,2L39.6,20.1z M41,19.6c-0.3-0.7-0.7-1.5-1.1-2.1l1.5-0.6c0.5,0.7,0.8,1.3,1.1,2.1L41,19.6z"/>
	<path id="XMLID_275_" class="st0" d="M54.1,29.2l-4.3-1.6c1.5-1,2.3-2.4,2.3-3.8c0-0.8-0.2-1.4-0.5-1.8c-0.6,1.3-1.2,2.4-2,3.4
		c0.2,0.3,0.3,0.6,0.5,0.9l-1.5,1.5c-0.2-0.2-0.3-0.5-0.4-0.7c-0.2,0.2-0.4,0.4-0.5,0.5c-0.6,0.6-1.2,0.8-1.8,0.8
		c-1,0-1.8-1-1.8-2.9c0-1.5,0.7-2.9,1.7-4c-0.3-1-0.6-2-0.8-3.1l2-0.5c0.1,0.8,0.3,1.5,0.5,2.3c0.9-0.5,1.8-0.8,2.8-0.9
		c0.2-0.7,0.4-1.4,0.5-2.1l2.2,0.3c-0.1,0.6-0.3,1.3-0.4,1.9c2.7,0.5,4.2,2.4,4.2,4.9C56.7,26.4,56,28,54.1,29.2z M46.4,23.4
		c-0.4,0.7-0.7,1.4-0.7,2c0,0.5,0.1,0.7,0.3,0.7c0.1,0,0.3-0.1,0.5-0.3c0.2-0.2,0.4-0.4,0.6-0.6C46.9,24.6,46.7,24,46.4,23.4z
		 M48,21.9c0.2,0.5,0.4,1,0.6,1.4c0.4-0.6,0.7-1.2,1-1.9C49,21.4,48.5,21.6,48,21.9z"/>
	<path id="XMLID_279_" class="st0" d="M65.3,28.9c-0.8,0.2-1.5,0.3-2.1,0.3c-2.1,0-3.4-1.1-3.4-3.7c0,0,0-0.1,0-0.1
		c0-1.1,0.1-3.8,0.1-6.2c0-0.7,0-1.3,0-1.9l2.5,0.1c-0.1,2.3-0.3,5.6-0.3,7.1c0,0.2,0,0.4,0,0.5c0,0.5,0.2,0.8,0.5,0.8
		c0.1,0,0.3-0.1,0.5-0.2c1.6-0.9,3.2-2.7,4.3-5.5l3.4,5.2C69.3,26.8,67,28.5,65.3,28.9z"/>
	<path id="XMLID_281_" class="st0" d="M79.3,28.9c-0.8,0.2-1.5,0.3-2.1,0.3c-2.1,0-3.4-1.1-3.4-3.7c0,0,0-0.1,0-0.1
		c0-1.1,0.1-3.8,0.1-6.2c0-0.7,0-1.3,0-1.9l2.5,0.1c-0.1,2.3-0.3,5.6-0.3,7.1c0,0.2,0,0.4,0,0.5c0,0.5,0.2,0.8,0.5,0.8
		c0.1,0,0.3-0.1,0.5-0.2c1.6-0.9,3.2-2.7,4.3-5.5l3.4,5.2C83.3,26.8,81,28.5,79.3,28.9z"/>
	<path id="XMLID_283_" class="st0" d="M96.5,21.3c-3.6,0-6,1.1-6,2.7c0,0.7,0.9,1.2,3.1,1.2c1,0,2.3-0.1,4-0.3l-0.9,4.6
		c-6,0-8.3-1.8-8.3-4.7c0-2,1.1-3.5,3-4.3c-1.7,0.1-3.5,0.3-5,0.5l-0.2-2.2c2.5-0.6,7.7-1.2,11.5-1.2l0.6,3.8
		C97.6,21.3,97,21.3,96.5,21.3z"/>
	<path id="XMLID_285_" class="st0" d="M106.4,29.2c-1.6,0-3.2-0.4-4-1.1c-0.6-0.5-0.8-1.1-0.8-1.8c0-0.9,0.6-1.8,1.8-2
		c0.1,0,0.3,0,0.4,0c1.3,0,2.3,0.9,2.5,2.3c0.7-0.5,1.1-0.9,1.1-1.9c0-0.9-0.7-1.8-2-1.8c-1.1,0-2.5,0.6-4.1,2.4l-1.2-2
		c1.8-1.5,3.7-2.7,5.6-3.6c-1.2,0-3,0.1-4.1,0.3l-0.2-2.3c1.9-0.2,5.8-0.5,8.2-0.5l0.9,3c-1.8,0.2-3.3,0.5-4.7,1
		c0.6-0.1,1.3-0.2,1.8-0.2c2.8,0,4.9,1.3,4.9,3.9C112.5,28,109.3,29.2,106.4,29.2z M103.6,26.1c-0.1,0-0.1,0-0.2,0
		c-0.2,0-0.3,0.2-0.3,0.4c0,0.1,0,0.2,0.1,0.3c0.2,0.2,0.7,0.4,1.2,0.4c0.1,0,0.1,0,0.1,0C104.4,26.5,104.1,26.1,103.6,26.1z"/>
	<path id="XMLID_288_" class="st0" d="M124.4,22c0,0.3,0,0.5,0,0.8c0,1.6-0.9,2.6-3.8,2.6c-0.6,0-1.2,0-2-0.1l-0.4-2.3
		c0.5,0.1,0.9,0.1,1.2,0.1c0.7,0,0.9-0.2,0.9-0.6c0-0.2,0-0.4,0-0.6c-1,0-1.9,0-2.8,0c0,1.2-0.1,2.2-0.1,3c0,0.7,0.5,1.1,2.4,1.1
		c1.7,0,3.5-0.4,5.3-1.2l0.1,3.9c-1.6,0.3-3,0.3-5.3,0.3c-3.4,0-4.6-1.1-4.6-3.4c0-0.1,0-0.1,0-0.2c0-1,0-2.2,0.1-3.5
		c-0.6,0-1.2,0.1-1.7,0.1l-0.2-2.1c0.5-0.1,1.2-0.1,1.9-0.2c0-0.5,0-1.1,0-1.5c0-0.2,0-0.5,0-0.7l2.2,0.1c0,0.6,0,1.3-0.1,2
		c0.9-0.1,1.8-0.1,2.7-0.2c0-0.8,0-1.5,0-2.2l3.8,0c-0.1-0.1-0.1-0.2-0.2-0.3l1-0.4c0.4,0.6,0.7,1.3,0.9,2l-1.1,0.4
		c-0.1-0.5-0.4-1.1-0.6-1.6c0,0.6,0,1.2,0,1.8c0.7,0,1.6-0.1,2.1-0.1v3C125.8,22.1,125.1,22.1,124.4,22z M126.4,18.8
		c-0.2-0.7-0.5-1.4-0.9-2.1l1.6-0.5c0.4,0.7,0.7,1.3,1,2L126.4,18.8z"/>
	<path id="XMLID_291_" class="st0" d="M135.3,25h-2.6l-0.4-7.5h4.4C136,19.7,135.6,22.9,135.3,25z M132.4,28.4v-2.4h3.5v2.4H132.4z"
		/>
</g>
</svg>
