<?xml version="1.0" encoding="utf-8"?>
<!-- Generator: Adobe Illustrator 19.0.0, SVG Export Plug-In . SVG Version: 6.00 Build 0)  -->
<svg version="1.1" xmlns="http://www.w3.org/2000/svg" xmlns:xlink="http://www.w3.org/1999/xlink" x="0px" y="0px"
	 viewBox="0 0 77.3 16.8" style="enable-background:new 0 0 77.3 16.8;" xml:space="preserve">
<style type="text/css">
	.st0{display:none;}
	.st1{display:inline;}
</style>
<g id="bg" class="st0">
	<rect x="9.2" y="-46.6" class="st1" width="447.8" height="80.6"/>
</g>
<g id="レイヤー_1">
	<g>
		<path d="M15.9,15.4c-0.7-0.1-1.9-0.3-2.6-0.5c0,1.4-0.8,1.7-6.2,1.7L6.5,15c-0.9,1-2.4,1.5-4.6,1.6l-1-2.4c0.2,0,0.5,0,0.7,0
			c1.3,0,2.8-0.1,3.4-0.6h-2v-0.5c-0.4,0.3-1,0.6-1.7,0.9l-1.3-2.3c1.1-0.2,1.9-0.5,2.7-1H0.3v-2h4.3c0.1-0.1,0.1-0.3,0.2-0.5H1.5
			V3.7h1.6V3.2h-3V1.1h3V0.4h2.3v0.7h2.8V0.4h4.6v0.7h3.5v2.1h-3.5v0.5H15v4.6H7.3c0,0.1-0.1,0.3-0.1,0.5h9v2h-4.3
			c1.3,0.3,2.6,0.4,4.5,0.4L15.9,15.4z M9.9,5H4v0.5h5.9V5z M9.9,6.4H4v0.5h5.9V6.4z M8.1,10.7H5.9c-0.2,0.3-0.6,0.8-1,1h0.8
			c0-0.2,0.1-0.4,0.1-0.6h2.3c0,0.2-0.1,0.4-0.1,0.6H9C8.6,11.4,8.3,11.1,8.1,10.7z M8.3,3.2H5.4v0.5h2.8V3.2z M7.4,13.6
			c-0.1,0.2-0.3,0.6-0.4,0.8c1.7,0,1.8,0,1.8-0.8H7.4z"/>
		<path d="M34,16.5c-4.7,0-6.7-1-8.3-3.3v3.3h-2.3v-3.3c-1.2,1.6-2.5,2.5-4.2,3.2l-1-2.8c1.3-0.3,2.4-0.6,3.4-1.1h-3v-2.3h4.9V9.8
			h-3.6V6.1C19.5,6.4,19,6.8,18.7,7l-0.6-3.2c2-1.4,2.8-3.3,2.8-3.3l2.4,0.4c0,0-0.1,0.3-0.3,0.8h2.4c0.4-0.6,0.5-1.1,0.5-1.1
			l5.4,0.3c0,0-0.1,0.3-0.5,0.8h2.7v2.1h-3.2v0.4H33v1.4h-2.6V6H33v1.4h-2.6v0.5h3.4v1.9h-8v0.6H34v2.3h-5.7
			c1.1,0.3,2.4,0.4,4.8,0.4c0.4,0,0.8,0,1.3,0L34,16.5z M25.2,3.6h-3.2v0.4h3.2V3.6z M25.2,5.5h-3.2V6h3.2V5.5z M25.2,7.4h-3.2v0.5
			h3.2V7.4z"/>
		<path d="M48.3,5.2c0,0.9,0,1.7,0,2.4c0.5,0.7,0.8,1.9,0.8,3.3c0,2.5-1,4.5-3.1,6l-5.3-1c1.4-0.9,2.1-2.3,2.6-3.5
			c-0.4,0.1-0.9,0.2-1.3,0.2c-2,0-4-1.3-4-3.5c0-2.8,2.4-3.5,4.8-3.5c0.2,0,0.5,0,0.7,0c0-0.2,0-0.3,0-0.5c-0.9,0-1.8,0-2.6,0
			c-1.9,0-3.7,0-5.1,0.2l0-2.8c2.1-0.2,4.9-0.3,7.6-0.4c0-0.4,0-0.9,0-1.3h5c0,0.3,0,0.7,0,1.2c1.1,0,2.2,0,3.1,0v3.5
			C50.4,5.3,49.4,5.2,48.3,5.2z M41.6,7.8c-0.8,0-1.6,0.4-1.6,1.2c0,0.9,0.9,1.3,1.7,1.3c0.6,0,1.6-0.3,1.6-1.1
			C43.3,8.3,42.4,7.8,41.6,7.8z"/>
		<path d="M60.8,16.4c-2.1,0-4.1-0.5-5.1-1.4c-0.7-0.6-1.1-1.5-1.1-2.3c0-1.2,0.8-2.3,2.3-2.5c0.2,0,0.3,0,0.5,0c1.6,0,3,1.1,3.2,3
			c0.9-0.6,1.4-1.2,1.4-2.4c0-1.2-1-2.4-2.6-2.4c-1.4,0-3.2,0.8-5.3,3.1l-1.6-2.6c2.3-1.9,4.8-3.5,7.2-4.7c-1.6,0-3.8,0.2-5.3,0.4
			l-0.3-2.9c2.5-0.3,7.5-0.7,10.6-0.7L66,4.8c-2.3,0.3-4.2,0.7-6,1.2c0.8-0.1,1.6-0.2,2.4-0.2c3.6,0,6.3,1.7,6.3,5.1
			C68.7,14.8,64.6,16.4,60.8,16.4z M57.3,12.4c-0.1,0-0.1,0-0.2,0c-0.3,0-0.4,0.3-0.4,0.5c0,0.1,0,0.3,0.1,0.3
			c0.3,0.3,0.9,0.5,1.5,0.5c0.1,0,0.1,0,0.2,0C58.3,12.9,58,12.4,57.3,12.4z"/>
		<path d="M75.2,10.9h-3.3l-0.5-9.7H77C76,4.1,75.5,8.2,75.2,10.9z M71.5,15.3v-3.1H76v3.1H71.5z"/>
	</g>
</g>
</svg>
