<?xml version="1.0" encoding="utf-8"?>
<!-- Generator: Adobe Illustrator 19.1.0, SVG Export Plug-In . SVG Version: 6.00 Build 0)  -->
<svg version="1.1" xmlns="http://www.w3.org/2000/svg" xmlns:xlink="http://www.w3.org/1999/xlink" x="0px" y="0px"
	 viewBox="0 0 161 28.8" style="enable-background:new 0 0 161 28.8;" xml:space="preserve">
<style type="text/css">
	.st0{display:none;}
	.st1{display:inline;}
	.st2{fill:#FFFFFF;}
</style>
<g id="bg" class="st0">
	<rect x="0" y="-51.8" class="st1" width="447.8" height="80.6"/>
</g>
<g id="レイヤー_1">
	<g>
		<path class="st2" d="M6.6,12v2.8h8.5v5.1H6.6v7H2.1V5.8H17V12H6.6z"/>
		<path class="st2" d="M26.9,17.8c-1.3,0-2.5,0.6-2.9,1.6v7.5h-4.5v-15h4.1v1.6c0.9-1.3,2.6-1.9,5.9-1.9v7.1
			C28.7,18,27.7,17.8,26.9,17.8z"/>
		<path class="st2" d="M31.9,10V5.8h6V10H31.9z M32,26.8v-15h5.8v15H32z"/>
		<path class="st2" d="M44.8,21.1c0.1,1.2,1.3,2.3,2.4,2.3c1.4,0,2.1-0.6,2.3-2h6.7c-0.3,3.7-3,5.8-8,5.8c-4.3,0-7.4-3-7.4-7.9
			c0-4.5,3.1-7.9,7.3-7.9c5.7,0,8.3,2.8,8.3,8.2L44.8,21.1z M46.8,15.2c-1.1,0-2.1,1.1-2.1,2.8l4.4-0.6C49,16,48.2,15.2,46.8,15.2z"
			/>
		<path class="st2" d="M66.7,26.8v-9.3c0-1.5-0.6-2.3-1.6-2.3c-1,0-1.9,0.8-2.2,2.1v9.5h-4v-15h3.7v1.7c0.6-1,2.6-2,4.8-2
			c4.1,0,6.8,2.3,6.8,5.3v10.1H66.7z"/>
		<path class="st2" d="M86.3,26.8v-1.8c-0.7,1.7-2.3,2.1-3.6,2.1c-3.2,0-5.6-2.7-5.6-7.8c0-5,2.6-7.9,5.5-7.9c1.4,0,2.4,0.5,3,1.2
			V5.8h7.7v21.1H86.3z M85.7,17.4c-0.4-1.2-1.1-2.1-2.1-2.1c-1.2,0-2.3,1.3-2.3,4.1c0,2.7,1,3.9,2.3,3.9c1.2,0,2.1-1.1,2.1-2.9V17.4
			z"/>
		<path class="st2" d="M107.2,26.8V5.8h5v13.7h10.3v7.4H107.2z"/>
		<path class="st2" d="M125.2,10V5.8h6V10H125.2z M125.3,26.8v-15h5.8v15H125.3z"/>
		<path class="st2" d="M141.2,27.2c-3.1,0-6.3-1-7.6-2.8l1.6-3.3c1.1,1.5,2.9,2.5,4.1,2.5c0.9,0,1.5-0.3,1.5-1
			c0-0.9-0.6-1.3-2.5-1.7c-3.1-0.7-4.3-2.5-4.3-4.9c0-2.6,2.6-4.5,5.9-4.5c3.6,0,6.1,0.8,7.8,1.8l-1.3,4c-1.7-1.6-3.9-2.3-6-2.3
			c-1.5,0-2,0.2-2,0.6c0,0.4,0.3,0.6,3.5,0.9c4.3,0.5,6.3,2.6,6.3,5.8C148.1,25.5,146.2,27.2,141.2,27.2z"/>
		<path class="st2" d="M159.3,27.2c-5.3,0-7.8-1.1-7.8-4.9v-5.8h-1.6v-4.7h1.8V7.1h4.5v4.7h3.1v4.7h-3.1v2.6c0,2,0.9,2,3.9,2
			L159.3,27.2z"/>
	</g>
</g>
</svg>
