<?xml version="1.0" encoding="utf-8"?>
<!-- Generator: Adobe Illustrator 19.1.0, SVG Export Plug-In . SVG Version: 6.00 Build 0)  -->
<svg version="1.1" xmlns="http://www.w3.org/2000/svg" xmlns:xlink="http://www.w3.org/1999/xlink" x="0px" y="0px"
	 viewBox="0 0 194 30" style="enable-background:new 0 0 194 30;" xml:space="preserve">
<style type="text/css">
	.st0{display:none;}
	.st1{display:inline;}
	.st2{fill:#FF6E00;}
</style>
<g id="bg" class="st0">
	<rect y="-50.6" class="st1" width="447.8" height="80.6"/>
</g>
<g id="レイヤー_1">
	<g>
		<path class="st2" d="M5.7,12.5c-3,0-4.6-1.1-5.1-3.1l1.7-1.2C2.6,9.6,3.5,10,4.3,10c0.9,0,1.4-0.5,1.4-1.2c0-1.4-1.4-1.5-2.5-2.1
			C1.6,6,0.9,5.3,0.9,3.6c0-1.9,1.8-3.5,4.2-3.5c2.7,0,4.3,0.7,5.1,3.3L5.8,4.2c-0.2-1-0.7-1.7-1.5-1.7c-0.9,0-1.3,0.3-1.3,0.9
			c0,0.7,1.1,1.2,2.6,1.3c2.9,0.2,4.8,1.2,4.8,3.9C10.5,11.1,8.9,12.5,5.7,12.5z"/>
		<path class="st2" d="M17.2,12.4c-1.3,0-2.3-0.3-2.7-0.9v3.6h-2.3V3.8h2.1v0.9c0.4-0.6,1.6-1,2.8-1c2.2,0,4,1.5,4,4.4
			C21.2,10.9,19.4,12.4,17.2,12.4z M15.7,5.7c-0.6,0-1.2,0.7-1.2,1.7v1.9c0.2,0.6,0.6,1,1.2,1c0.8,0,1.3-0.8,1.3-2.3
			C17,6.5,16.5,5.7,15.7,5.7z"/>
		<path class="st2" d="M22.7,12.2V0.5h3.3v11.7H22.7z"/>
		<path class="st2" d="M36.1,12.3c-0.3,0.1-0.6,0.1-0.9,0.1c-1.3,0-2.9-0.3-3-0.9c-0.4,0.7-1.3,0.9-2.3,0.9c-1.3,0-2.3-0.9-2.3-2.3
			c0,0,0,0,0,0c0-1.5,0.7-2.4,2.3-2.9c0.9-0.3,1.4-0.5,1.4-0.9c0-0.5-0.2-0.6-0.9-0.6c-0.5,0-1.5,0.5-1.9,1.2L27.7,5
			c0.7-0.9,2.2-1.4,3.8-1.4c2.7,0,3.9,1,3.9,2.8v2.7c0,0.4,0.1,0.6,0.6,0.6c0.1,0,0.3,0,0.5,0L36.1,12.3z M31.3,8.1
			c-0.2,0.2-0.5,0.4-1,0.5c-0.5,0.2-0.7,0.5-0.7,1.1c0,0.4,0.2,0.7,0.6,0.7c0.4,0,0.9-0.4,1-1V8.1z"/>
		<path class="st2" d="M42.2,12.4c-3,0-4.3-0.6-4.3-2.7V6.4H37V3.8h1V1.2h2.5v2.6h1.7v2.6h-1.7v1.4C40.5,9,41,9,42.7,9L42.2,12.4z"
			/>
		<path class="st2" d="M48.8,12.4c-3,0-4.3-0.6-4.3-2.7V6.4h-0.9V3.8h1V1.2h2.5v2.6h1.7v2.6h-1.7v1.4C47.1,9,47.6,9,49.3,9
			L48.8,12.4z"/>
		<path class="st2" d="M50.8,2.8V0.5h3.3v2.3H50.8z M50.9,12.2V3.8h3.2v8.4H50.9z"/>
		<path class="st2" d="M60.4,12.2V7c0-0.8-0.3-1.3-0.9-1.3c-0.5,0-1,0.5-1.2,1.2v5.3H56V3.8h2.1v0.9c0.4-0.6,1.4-1.1,2.7-1.1
			c2.3,0,3.8,1.3,3.8,2.9v5.6H60.4z"/>
		<path class="st2" d="M69.4,5.2h-2.5l-0.2-4.7h3L69.4,5.2z"/>
		<path class="st2" d="M77.3,2.8V0.5h3.3v2.3H77.3z M77.4,12.2V3.8h3.2v8.4H77.4z"/>
		<path class="st2" d="M87.3,12.4c-3,0-4.3-0.6-4.3-2.7V6.4H82V3.8h1V1.2h2.5v2.6h1.7v2.6h-1.7v1.4C85.6,9,86.1,9,87.7,9L87.3,12.4z
			"/>
		<path class="st2" d="M99.7,12.2v-0.9c-0.3,0.7-1.2,1.1-2.2,1.1c-1.5,0-2.8-1.2-2.8-2.9V3.8h2.3v4.9c0,0.8,0.6,1.3,1.3,1.3
			c0.6,0,1.1-0.4,1.2-1V3.8h3.7v8.4H99.7z"/>
		<path class="st2" d="M110,12.4c-1.3,0-2.3-0.3-2.7-0.9v3.6h-2.3V3.8h2.1v0.9c0.4-0.6,1.6-1,2.8-1c2.2,0,4,1.5,4,4.4
			C114,10.9,112.2,12.4,110,12.4z M108.5,5.7c-0.6,0-1.2,0.7-1.2,1.7v1.9c0.2,0.6,0.6,1,1.2,1c0.8,0,1.3-0.8,1.3-2.3
			C109.8,6.5,109.3,5.7,108.5,5.7z"/>
		<path class="st2" d="M121.1,2.8V0.5h3.3v2.3H121.1z M121.2,12.2V3.8h3.2v8.4H121.2z"/>
		<path class="st2" d="M130.6,12.2V7c0-0.8-0.3-1.3-0.9-1.3c-0.5,0-1,0.5-1.2,1.2v5.3h-2.3V3.8h2.1v0.9c0.4-0.6,1.4-1.1,2.7-1.1
			c2.3,0,3.8,1.3,3.8,2.9v5.6H130.6z"/>
		<path class="st2" d="M150.3,12.3c-0.3,0.1-0.6,0.1-0.9,0.1c-1.3,0-2.9-0.3-3-0.9c-0.4,0.7-1.3,0.9-2.3,0.9c-1.3,0-2.3-0.9-2.3-2.3
			c0,0,0,0,0,0c0-1.5,0.7-2.4,2.3-2.9c0.9-0.3,1.4-0.5,1.4-0.9c0-0.5-0.2-0.6-0.9-0.6c-0.5,0-1.5,0.5-1.9,1.2L141.9,5
			c0.7-0.9,2.2-1.4,3.8-1.4c2.7,0,3.9,1,3.9,2.8v2.7c0,0.4,0.1,0.6,0.6,0.6c0.1,0,0.3,0,0.5,0L150.3,12.3z M145.6,8.1
			c-0.2,0.2-0.5,0.4-1,0.5c-0.5,0.2-0.7,0.5-0.7,1.1c0,0.4,0.2,0.7,0.6,0.7c0.4,0,0.9-0.4,1-1V8.1z"/>
		<path class="st2" d="M6.2,27.2l-1.7-4.5H3.6v4.5H1.2V15.5h5.7c2.3,0,3.9,1.4,3.9,3.5c0,1.7-0.9,2.8-2.1,3.3l2.7,5H6.2z M4.7,17.8
			H3.6v2.8h1.1c0.7,0,1.4-0.5,1.4-1.5C6.1,18.2,5.4,17.8,4.7,17.8z"/>
		<path class="st2" d="M20.4,27.3c-0.3,0.1-0.6,0.1-0.9,0.1c-1.3,0-2.9-0.3-3-0.9c-0.4,0.7-1.3,0.9-2.3,0.9c-1.3,0-2.3-0.9-2.3-2.3
			c0,0,0,0,0,0c0-1.5,0.7-2.4,2.3-2.9c0.9-0.3,1.4-0.5,1.4-0.9c0-0.5-0.2-0.6-0.9-0.6c-0.5,0-1.5,0.5-1.9,1.2L12,20
			c0.7-0.9,2.2-1.4,3.8-1.4c2.7,0,3.9,1,3.9,2.8v2.7c0,0.4,0.1,0.6,0.6,0.6c0.1,0,0.3,0,0.5,0L20.4,27.3z M15.7,23.1
			c-0.2,0.2-0.5,0.4-1,0.5c-0.5,0.2-0.7,0.5-0.7,1.1c0,0.4,0.2,0.7,0.6,0.7c0.4,0,0.9-0.4,1-1V23.1z"/>
		<path class="st2" d="M26.2,27.2V22c0-0.8-0.3-1.3-0.9-1.3c-0.5,0-1,0.5-1.2,1.2v5.3h-2.3v-8.4h2.1v0.9c0.4-0.6,1.4-1.1,2.7-1.1
			c2.3,0,3.8,1.3,3.8,2.9v5.6H26.2z"/>
		<path class="st2" d="M36.4,27.2L34.6,24v3.2h-2.3V15.5h2.3v5.7l1.7-2.3h4.1l-2.7,3.4l3.2,5H36.4z"/>
		<path class="st2" d="M43.5,24c0.1,0.7,0.7,1.3,1.3,1.3c0.8,0,1.2-0.3,1.3-1.1h3.7c-0.2,2-1.7,3.2-4.5,3.2c-2.4,0-4.1-1.7-4.1-4.4
			c0-2.5,1.7-4.4,4.1-4.4c3.2,0,4.6,1.6,4.6,4.6L43.5,24z M44.6,20.7c-0.6,0-1.2,0.6-1.2,1.5l2.4-0.3C45.8,21.2,45.4,20.7,44.6,20.7
			z"/>
		<path class="st2" d="M56.1,27.2v-1c-0.4,0.9-1.3,1.2-2,1.2c-1.8,0-3.1-1.5-3.1-4.3c0-2.8,1.5-4.4,3.1-4.4c0.8,0,1.3,0.3,1.7,0.7
			v-3.8H60v11.7H56.1z M55.8,21.9c-0.2-0.7-0.6-1.1-1.1-1.1c-0.7,0-1.3,0.7-1.3,2.3c0,1.5,0.6,2.2,1.3,2.2c0.7,0,1.1-0.6,1.1-1.6
			V21.9z"/>
		<path class="st2" d="M73.7,27.2h-5.9V15.5h5.7c2.2,0,3.6,1.2,3.6,2.9c0,1.3-0.7,2.2-1.8,2.4l0,0c1.3,0.1,2.4,1.2,2.4,3
			C77.7,25.8,76.2,27.2,73.7,27.2z M71.4,17.7h-1.1v2.4h1.2c0.6,0,1-0.5,1-1.2C72.4,18.2,72,17.7,71.4,17.7z M71.6,22.2h-1.3v2.7
			h1.3c0.8,0,1.3-0.5,1.3-1.4C72.9,22.7,72.3,22.2,71.6,22.2z"/>
		<path class="st2" d="M87.1,27.3c-0.3,0.1-0.6,0.1-0.9,0.1c-1.3,0-2.9-0.3-3-0.9c-0.4,0.7-1.3,0.9-2.3,0.9c-1.3,0-2.3-0.9-2.3-2.3
			c0,0,0,0,0,0c0-1.5,0.7-2.4,2.3-2.9c0.9-0.3,1.4-0.5,1.4-0.9c0-0.5-0.2-0.6-0.9-0.6c-0.5,0-1.5,0.5-1.9,1.2L78.7,20
			c0.7-0.9,2.2-1.4,3.8-1.4c2.7,0,3.9,1,3.9,2.8v2.7c0,0.4,0.1,0.6,0.6,0.6c0.1,0,0.3,0,0.5,0L87.1,27.3z M82.4,23.1
			c-0.2,0.2-0.5,0.4-1,0.5c-0.5,0.2-0.7,0.5-0.7,1.1c0,0.4,0.2,0.7,0.6,0.7c0.4,0,0.9-0.4,1-1V23.1z"/>
		<path class="st2" d="M93.3,27.4c-3,0-4.3-0.6-4.3-2.7v-3.2h-0.9v-2.6h1v-2.6h2.5v2.6h1.7v2.6h-1.7v1.4c0,1.1,0.5,1.1,2.2,1.1
			L93.3,27.4z"/>
		<path class="st2" d="M99.9,27.4c-3,0-4.3-0.6-4.3-2.7v-3.2h-0.9v-2.6h1v-2.6h2.5v2.6h1.7v2.6h-1.7v1.4c0,1.1,0.5,1.1,2.2,1.1
			L99.9,27.4z"/>
		<path class="st2" d="M101.8,27.2V15.5h3.3v11.7H101.8z"/>
		<path class="st2" d="M109.1,24c0.1,0.7,0.7,1.3,1.3,1.3c0.8,0,1.2-0.3,1.3-1.1h3.7c-0.2,2-1.7,3.2-4.5,3.2c-2.4,0-4.1-1.7-4.1-4.4
			c0-2.5,1.7-4.4,4.1-4.4c3.2,0,4.6,1.6,4.6,4.6L109.1,24z M110.2,20.7c-0.6,0-1.2,0.6-1.2,1.5l2.4-0.3
			C111.5,21.2,111,20.7,110.2,20.7z"/>
		<path class="st2" d="M120.3,23.5h-2.7l-0.4-8.1h4.7C121,17.9,120.6,21.3,120.3,23.5z M117.2,27.2v-2.6h3.8v2.6H117.2z"/>
	</g>
</g>
</svg>
