<?xml version="1.0" encoding="utf-8"?>
<!-- Generator: Adobe Illustrator 19.1.0, SVG Export Plug-In . SVG Version: 6.00 Build 0)  -->
<svg version="1.1" xmlns="http://www.w3.org/2000/svg" xmlns:xlink="http://www.w3.org/1999/xlink" x="0px" y="0px"
	 viewBox="0 0 194 30" style="enable-background:new 0 0 194 30;" xml:space="preserve">
<style type="text/css">
	.st0{display:none;}
	.st1{display:inline;}
	.st2{fill:#FF6E00;}
</style>
<g id="bg" class="st0">
	<rect y="-50.6" class="st1" width="447.8" height="80.6"/>
</g>
<g id="レイヤー_1">
	<g>
		<path class="st2" d="M6,12.5c-2.9,0-5.3-2.4-5.3-6.2c0-3.7,2.5-6.1,5.1-6.1c3,0,4.6,0.7,5.7,3.4L7.4,4c-0.4-1-1-1.6-1.9-1.6
			c-1.1,0-2.3,1.4-2.3,3.8c0,2.5,1.2,3.9,2.3,3.9c0.8,0,1.2-0.4,1.5-0.9V7.8H4.9V5.5h6.7v5C10.7,11.7,9.1,12.5,6,12.5z"/>
		<path class="st2" d="M17.7,12.4c-2.7,0-4.6-1.7-4.6-4.3c0-2.7,1.8-4.4,4.6-4.4s4.5,1.7,4.5,4.4C22.3,10.6,20.5,12.4,17.7,12.4z
			 M16.8,5.7c-0.8,0-1.4,0.9-1.4,2.3s0.6,2.3,1.4,2.3c0.9,0,1.4-0.9,1.4-2.3C18.2,6.6,17.7,5.7,16.8,5.7z"/>
		<path class="st2" d="M23.8,2.8V0.5h3.3v2.3H23.8z M23.9,12.2V3.8h3.2v8.4H23.9z"/>
		<path class="st2" d="M33.4,12.2V7c0-0.8-0.3-1.3-0.9-1.3c-0.5,0-1,0.5-1.2,1.2v5.3h-2.3V3.8h2.1v0.9c0.4-0.6,1.4-1.1,2.7-1.1
			c2.3,0,3.8,1.3,3.8,2.9v5.6H33.4z"/>
		<path class="st2" d="M42.4,5.2h-2.5l-0.2-4.7h3L42.4,5.2z"/>
		<path class="st2" d="M58.2,12.3c-0.3,0.1-0.6,0.1-0.9,0.1c-1.3,0-2.9-0.3-3-0.9c-0.4,0.7-1.3,0.9-2.3,0.9c-1.3,0-2.3-0.9-2.3-2.3
			c0,0,0,0,0,0c0-1.5,0.7-2.4,2.3-2.9c0.9-0.3,1.4-0.5,1.4-0.9c0-0.5-0.2-0.6-0.9-0.6c-0.5,0-1.5,0.5-1.9,1.2L49.8,5
			c0.7-0.9,2.2-1.4,3.8-1.4c2.7,0,3.9,1,3.9,2.8v2.7c0,0.4,0.1,0.6,0.6,0.6c0.1,0,0.3,0,0.5,0L58.2,12.3z M53.5,8.1
			c-0.2,0.2-0.5,0.4-1,0.5c-0.5,0.2-0.7,0.5-0.7,1.1c0,0.4,0.2,0.7,0.6,0.7c0.4,0,0.9-0.4,1-1V8.1z"/>
		<path class="st2" d="M59.7,12.2V0.5H63v11.7H59.7z"/>
		<path class="st2" d="M65.1,12.2V0.5h3.3v11.7H65.1z"/>
		<path class="st2" d="M80.3,12.4c-2.7,0-4.6-1.7-4.6-4.3c0-2.7,1.8-4.4,4.6-4.4s4.5,1.7,4.5,4.4C84.8,10.6,83,12.4,80.3,12.4z
			 M79.4,5.7C78.6,5.7,78,6.6,78,8s0.6,2.3,1.4,2.3c0.9,0,1.4-0.9,1.4-2.3C80.8,6.6,80.2,5.7,79.4,5.7z"/>
		<path class="st2" d="M91.2,12.2v-0.9c-0.3,0.7-1.2,1.1-2.2,1.1c-1.5,0-2.8-1.2-2.8-2.9V3.8h2.3v4.9c0,0.8,0.6,1.3,1.3,1.3
			c0.6,0,1.1-0.4,1.2-1V3.8h3.7v8.4H91.2z"/>
		<path class="st2" d="M101.4,12.4c-3,0-4.3-0.6-4.3-2.7V6.4h-0.9V3.8h1V1.2h2.5v2.6h1.7v2.6h-1.7v1.4c0,1.1,0.5,1.1,2.2,1.1
			L101.4,12.4z"/>
		<path class="st2" d="M108.9,2.8V0.5h3.3v2.3H108.9z M109,12.2V3.8h3.2v8.4H109z"/>
		<path class="st2" d="M118.5,12.2V7c0-0.8-0.3-1.3-0.9-1.3c-0.5,0-1,0.5-1.2,1.2v5.3h-2.3V3.8h2.1v0.9c0.4-0.6,1.4-1.1,2.7-1.1
			c2.3,0,3.8,1.3,3.8,2.9v5.6H118.5z"/>
		<path class="st2" d="M138.1,12.3c-0.3,0.1-0.6,0.1-0.9,0.1c-1.3,0-2.9-0.3-3-0.9c-0.4,0.7-1.3,0.9-2.3,0.9c-1.3,0-2.3-0.9-2.3-2.3
			c0,0,0,0,0,0c0-1.5,0.7-2.4,2.3-2.9c0.9-0.3,1.4-0.5,1.4-0.9c0-0.5-0.2-0.6-0.9-0.6c-0.5,0-1.5,0.5-1.9,1.2L129.7,5
			c0.7-0.9,2.2-1.4,3.8-1.4c2.7,0,3.9,1,3.9,2.8v2.7c0,0.4,0.1,0.6,0.6,0.6c0.1,0,0.3,0,0.5,0L138.1,12.3z M133.4,8.1
			c-0.2,0.2-0.5,0.4-1,0.5c-0.5,0.2-0.7,0.5-0.7,1.1c0,0.4,0.2,0.7,0.6,0.7c0.4,0,0.9-0.4,1-1V8.1z"/>
		<path class="st2" d="M5.7,27.5c-3,0-4.6-1.1-5.1-3.1l1.7-1.2C2.6,24.6,3.5,25,4.3,25c0.9,0,1.4-0.5,1.4-1.2c0-1.4-1.4-1.5-2.5-2.1
			c-1.5-0.8-2.2-1.5-2.2-3.1c0-1.9,1.8-3.5,4.2-3.5c2.7,0,4.3,0.7,5.1,3.3l-4.5,0.8c-0.2-1-0.7-1.7-1.5-1.7c-0.9,0-1.3,0.3-1.3,0.9
			c0,0.7,1.1,1.2,2.6,1.3c2.9,0.2,4.8,1.2,4.8,3.9C10.5,26.1,8.9,27.5,5.7,27.5z"/>
		<path class="st2" d="M16.7,30.1v-3.4c-0.3,0.5-0.9,0.7-1.6,0.7c-1.8,0-3.1-1.5-3.1-4.3c0-2.8,1.5-4.4,3.1-4.4c1,0,1.8,0.3,2.1,0.8
			l0.5-0.6H21v11.2L16.7,30.1z M16.8,21.8c-0.2-0.7-0.7-1.1-1.2-1.1c-0.7,0-1.3,0.8-1.3,2.3c0,1.5,0.6,2.3,1.3,2.3
			c0.7,0,1.2-0.6,1.2-1.6V21.8z"/>
		<path class="st2" d="M27.8,27.2v-0.9c-0.3,0.7-1.2,1.1-2.2,1.1c-1.5,0-2.8-1.2-2.8-2.9v-5.6h2.3v4.9c0,0.8,0.6,1.3,1.3,1.3
			c0.6,0,1.1-0.4,1.2-1v-5.2h3.7v8.4H27.8z"/>
		<path class="st2" d="M41.3,27.3c-0.3,0.1-0.6,0.1-0.9,0.1c-1.3,0-2.9-0.3-3-0.9c-0.4,0.7-1.3,0.9-2.3,0.9c-1.3,0-2.3-0.9-2.3-2.3
			c0,0,0,0,0,0c0-1.5,0.7-2.4,2.3-2.9c0.9-0.3,1.4-0.5,1.4-0.9c0-0.5-0.2-0.6-0.9-0.6c-0.5,0-1.5,0.5-1.9,1.2L32.9,20
			c0.7-0.9,2.2-1.4,3.8-1.4c2.7,0,3.9,1,3.9,2.8v2.7c0,0.4,0.1,0.6,0.6,0.6c0.1,0,0.3,0,0.5,0L41.3,27.3z M36.6,23.1
			c-0.2,0.2-0.5,0.4-1,0.5c-0.5,0.2-0.7,0.5-0.7,1.1c0,0.4,0.2,0.7,0.6,0.7c0.4,0,0.9-0.4,1-1V23.1z"/>
		<path class="st2" d="M47.5,27.2v-1c-0.4,0.9-1.3,1.2-2,1.2c-1.8,0-3.1-1.5-3.1-4.3c0-2.8,1.5-4.4,3.1-4.4c0.8,0,1.3,0.3,1.7,0.7
			v-3.8h4.3v11.7H47.5z M47.2,21.9c-0.2-0.7-0.6-1.1-1.1-1.1c-0.7,0-1.3,0.7-1.3,2.3c0,1.5,0.6,2.2,1.3,2.2c0.7,0,1.1-0.6,1.1-1.6
			V21.9z"/>
		<path class="st2" d="M65.1,27.2h-5.9V15.5h5.7c2.2,0,3.6,1.2,3.6,2.9c0,1.3-0.7,2.2-1.8,2.4l0,0c1.3,0.1,2.4,1.2,2.4,3
			C69.1,25.8,67.6,27.2,65.1,27.2z M62.7,17.7h-1.1v2.4h1.2c0.6,0,1-0.5,1-1.2C63.8,18.2,63.3,17.7,62.7,17.7z M62.9,22.2h-1.3v2.7
			H63c0.8,0,1.3-0.5,1.3-1.4C64.3,22.7,63.7,22.2,62.9,22.2z"/>
		<path class="st2" d="M78.5,27.3c-0.3,0.1-0.6,0.1-0.9,0.1c-1.3,0-2.9-0.3-3-0.9c-0.4,0.7-1.3,0.9-2.3,0.9c-1.3,0-2.3-0.9-2.3-2.3
			c0,0,0,0,0,0c0-1.5,0.7-2.4,2.3-2.9c0.9-0.3,1.4-0.5,1.4-0.9c0-0.5-0.2-0.6-0.9-0.6c-0.5,0-1.5,0.5-1.9,1.2L70.1,20
			c0.7-0.9,2.2-1.4,3.8-1.4c2.7,0,3.9,1,3.9,2.8v2.7c0,0.4,0.1,0.6,0.6,0.6c0.1,0,0.3,0,0.5,0L78.5,27.3z M73.8,23.1
			c-0.2,0.2-0.5,0.4-1,0.5c-0.5,0.2-0.7,0.5-0.7,1.1c0,0.4,0.2,0.7,0.6,0.7c0.4,0,0.9-0.4,1-1V23.1z"/>
		<path class="st2" d="M84.7,27.4c-3,0-4.3-0.6-4.3-2.7v-3.2h-0.9v-2.6h1v-2.6H83v2.6h1.7v2.6H83v1.4c0,1.1,0.5,1.1,2.2,1.1
			L84.7,27.4z"/>
		<path class="st2" d="M91.3,27.4c-3,0-4.3-0.6-4.3-2.7v-3.2H86v-2.6h1v-2.6h2.5v2.6h1.7v2.6h-1.7v1.4c0,1.1,0.5,1.1,2.2,1.1
			L91.3,27.4z"/>
		<path class="st2" d="M93.2,27.2V15.5h3.3v11.7H93.2z"/>
		<path class="st2" d="M100.5,24c0.1,0.7,0.7,1.3,1.3,1.3c0.8,0,1.2-0.3,1.3-1.1h3.7c-0.2,2-1.7,3.2-4.5,3.2c-2.4,0-4.1-1.7-4.1-4.4
			c0-2.5,1.7-4.4,4.1-4.4c3.2,0,4.6,1.6,4.6,4.6L100.5,24z M101.6,20.7c-0.6,0-1.2,0.6-1.2,1.5l2.4-0.3
			C102.8,21.2,102.4,20.7,101.6,20.7z"/>
		<path class="st2" d="M111.7,23.5h-2.7l-0.4-8.1h4.7C112.3,17.9,111.9,21.3,111.7,23.5z M108.5,27.2v-2.6h3.8v2.6H108.5z"/>
	</g>
</g>
</svg>
