<?xml version="1.0" encoding="utf-8"?>
<!-- Generator: Adobe Illustrator 19.1.0, SVG Export Plug-In . SVG Version: 6.00 Build 0)  -->
<svg version="1.1" xmlns="http://www.w3.org/2000/svg" xmlns:xlink="http://www.w3.org/1999/xlink" x="0px" y="0px"
	 viewBox="0 0 194 30" style="enable-background:new 0 0 194 30;" xml:space="preserve">
<style type="text/css">
	.st0{display:none;}
	.st1{display:inline;}
	.st2{fill:#FF6E00;}
</style>
<g id="bg" class="st0">
	<rect y="-50.6" class="st1" width="447.8" height="80.6"/>
</g>
<g id="レイヤー_1">
	<g>
		<path class="st2" d="M6,12.5c-2.9,0-5.3-2.4-5.3-6.2c0-3.7,2.5-6.1,5.1-6.1c3,0,4.6,0.7,5.7,3.4L7.4,4c-0.4-1-1-1.6-1.9-1.6
			c-1.1,0-2.3,1.4-2.3,3.8c0,2.5,1.2,3.9,2.3,3.9c0.8,0,1.2-0.4,1.5-0.9V7.8H4.9V5.5h6.7v5C10.7,11.7,9.1,12.5,6,12.5z"/>
		<path class="st2" d="M15.4,9c0.1,0.7,0.7,1.3,1.3,1.3c0.8,0,1.2-0.3,1.3-1.1h3.7c-0.2,2-1.7,3.2-4.5,3.2c-2.4,0-4.1-1.7-4.1-4.4
			c0-2.5,1.7-4.4,4.1-4.4c3.2,0,4.6,1.6,4.6,4.6L15.4,9z M16.5,5.7c-0.6,0-1.2,0.6-1.2,1.5l2.4-0.3C17.8,6.2,17.3,5.7,16.5,5.7z"/>
		<path class="st2" d="M28,12.4c-3,0-4.3-0.6-4.3-2.7V6.4h-0.9V3.8h1V1.2h2.5v2.6H28v2.6h-1.7v1.4C26.3,9,26.8,9,28.5,9L28,12.4z"/>
		<path class="st2" d="M34.6,12.4c-3,0-4.3-0.6-4.3-2.7V6.4h-0.9V3.8h1V1.2h2.5v2.6h1.7v2.6h-1.7v1.4C32.9,9,33.4,9,35.1,9
			L34.6,12.4z"/>
		<path class="st2" d="M36.6,2.8V0.5h3.3v2.3H36.6z M36.7,12.2V3.8h3.2v8.4H36.7z"/>
		<path class="st2" d="M46.2,12.2V7c0-0.8-0.3-1.3-0.9-1.3c-0.5,0-1,0.5-1.2,1.2v5.3h-2.3V3.8h2.1v0.9c0.4-0.6,1.4-1.1,2.7-1.1
			c2.3,0,3.8,1.3,3.8,2.9v5.6H46.2z"/>
		<path class="st2" d="M56.3,15.2c-1.4,0-2.7-0.2-3.5-0.4l-0.4-2.3c0.8,0.3,1.7,0.4,2.5,0.4c1.4,0,1.8-0.3,1.8-1.3v-0.5
			c-0.3,0.4-1,0.6-1.7,0.6c-1.6,0-3.1-1.3-3.1-4c0-2.6,1.5-4.1,3-4.1c0.9,0,1.7,0.3,2,1l0.3-0.8h3.5v7.9
			C60.7,14.2,59.1,15.2,56.3,15.2z M56.7,6.8c-0.2-0.6-0.6-1-1.2-1c-0.8,0-1.3,0.6-1.3,2c0,1.4,0.5,2,1.3,2c0.7,0,1.2-0.6,1.2-1.4
			V6.8z"/>
		<path class="st2" d="M65.5,5.2H63l-0.2-4.7h3L65.5,5.2z"/>
		<path class="st2" d="M77.1,3c-0.8,0-1,0.2-1,0.6v0.3H78v2.6h-1.8v5.7h-2.4V6.4h-1.1V3.8h1.1V3.2c0-2.2,1.2-3,4.2-3l0.3,2.9
			C77.8,3,77.4,3,77.1,3z"/>
		<path class="st2" d="M83.4,7.1c-0.8,0-1.4,0.3-1.6,0.9v4.2h-2.5V3.8h2.3v0.9c0.5-0.7,1.5-1.1,3.3-1.1v3.9
			C84.4,7.3,83.9,7.1,83.4,7.1z"/>
		<path class="st2" d="M88,9c0.1,0.7,0.7,1.3,1.3,1.3c0.8,0,1.2-0.3,1.3-1.1h3.7c-0.2,2-1.7,3.2-4.5,3.2c-2.4,0-4.1-1.7-4.1-4.4
			c0-2.5,1.7-4.4,4.1-4.4c3.2,0,4.6,1.6,4.6,4.6L88,9z M89.2,5.7c-0.6,0-1.2,0.6-1.2,1.5l2.4-0.3C90.4,6.2,89.9,5.7,89.2,5.7z"/>
		<path class="st2" d="M99.6,12.4c-1.7,0-3.5-0.6-4.2-1.5L96.2,9c0.6,0.8,1.6,1.4,2.3,1.4c0.5,0,0.8-0.2,0.8-0.5
			c0-0.5-0.3-0.7-1.4-0.9c-1.7-0.4-2.4-1.4-2.4-2.7c0-1.4,1.5-2.5,3.3-2.5c2,0,3.4,0.4,4.3,1l-0.7,2.3c-1-0.9-2.1-1.3-3.3-1.3
			C98.3,5.6,98,5.8,98,6c0,0.2,0.2,0.3,2,0.5c2.4,0.3,3.5,1.4,3.5,3.2C103.5,11.4,102.4,12.4,99.6,12.4z"/>
		<path class="st2" d="M109.2,12.2V7c0-0.8-0.3-1.3-0.9-1.3c-0.5,0-1,0.5-1.2,1.2v5.3h-2.3V0.5h2.3v4.2c0.4-0.6,1.2-1,2.5-1
			c2.3,0,3.8,1.3,3.8,2.9v5.6H109.2z"/>
		<path class="st2" d="M121,2.8V0.5h3.3v2.3H121z M121,12.2V3.8h3.2v8.4H121z"/>
		<path class="st2" d="M130.5,12.2V7c0-0.8-0.3-1.3-0.9-1.3c-0.5,0-1,0.5-1.2,1.2v5.3h-2.3V3.8h2.1v0.9c0.4-0.6,1.4-1.1,2.7-1.1
			c2.3,0,3.8,1.3,3.8,2.9v5.6H130.5z"/>
		<path class="st2" d="M150.2,12.3c-0.3,0.1-0.6,0.1-0.9,0.1c-1.3,0-2.9-0.3-3-0.9c-0.4,0.7-1.3,0.9-2.3,0.9c-1.3,0-2.3-0.9-2.3-2.3
			c0,0,0,0,0,0c0-1.5,0.7-2.4,2.3-2.9c0.9-0.3,1.4-0.5,1.4-0.9c0-0.5-0.2-0.6-0.9-0.6c-0.5,0-1.5,0.5-1.9,1.2L141.8,5
			c0.7-0.9,2.2-1.4,3.8-1.4c2.7,0,3.9,1,3.9,2.8v2.7c0,0.4,0.1,0.6,0.6,0.6c0.1,0,0.3,0,0.5,0L150.2,12.3z M145.5,8.1
			c-0.2,0.2-0.5,0.4-1,0.5c-0.5,0.2-0.7,0.5-0.7,1.1c0,0.4,0.2,0.7,0.6,0.7c0.4,0,0.9-0.4,1-1V8.1z"/>
		<path class="st2" d="M6.2,27.2l-1.7-4.5H3.6v4.5H1.2V15.5h5.7c2.3,0,3.9,1.4,3.9,3.5c0,1.7-0.9,2.8-2.1,3.3l2.7,5H6.2z M4.7,17.8
			H3.6v2.8h1.1c0.7,0,1.4-0.5,1.4-1.5C6.1,18.2,5.4,17.8,4.7,17.8z"/>
		<path class="st2" d="M14.3,24c0.1,0.7,0.7,1.3,1.3,1.3c0.8,0,1.2-0.3,1.3-1.1h3.7c-0.2,2-1.7,3.2-4.5,3.2c-2.4,0-4.1-1.7-4.1-4.4
			c0-2.5,1.7-4.4,4.1-4.4c3.2,0,4.6,1.6,4.6,4.6L14.3,24z M15.5,20.7c-0.6,0-1.2,0.6-1.2,1.5l2.4-0.3C16.7,21.2,16.2,20.7,15.5,20.7
			z"/>
		<path class="st2" d="M26.3,30.2c-1.4,0-2.7-0.2-3.5-0.4l-0.4-2.3c0.8,0.3,1.7,0.4,2.5,0.4c1.4,0,1.8-0.3,1.8-1.3v-0.5
			c-0.3,0.4-1,0.6-1.7,0.6c-1.6,0-3.1-1.4-3.1-4c0-2.6,1.5-4.1,3-4.1c0.9,0,1.7,0.3,2,1l0.3-0.8h3.5v7.9
			C30.6,29.2,29,30.2,26.3,30.2z M26.6,21.8c-0.2-0.6-0.6-1-1.2-1c-0.8,0-1.3,0.6-1.3,2c0,1.4,0.5,2,1.3,2c0.7,0,1.2-0.6,1.2-1.4
			V21.8z"/>
		<path class="st2" d="M37.5,27.2v-0.9c-0.3,0.7-1.2,1.1-2.2,1.1c-1.5,0-2.8-1.2-2.8-2.9v-5.6h2.3v4.9c0,0.8,0.6,1.3,1.3,1.3
			c0.6,0,1.1-0.4,1.2-1v-5.2H41v8.4H37.5z"/>
		<path class="st2" d="M43,27.2V15.5h3.3v11.7H43z"/>
		<path class="st2" d="M56.4,27.3c-0.3,0.1-0.6,0.1-0.9,0.1c-1.3,0-2.9-0.3-3-0.9c-0.4,0.7-1.3,0.9-2.3,0.9c-1.3,0-2.3-0.9-2.3-2.3
			c0,0,0,0,0,0c0-1.5,0.7-2.4,2.3-2.9c0.9-0.3,1.4-0.5,1.4-0.9c0-0.5-0.2-0.6-0.9-0.6c-0.5,0-1.5,0.5-1.9,1.2L48,20
			c0.7-0.9,2.2-1.4,3.8-1.4c2.7,0,3.9,1,3.9,2.8v2.7c0,0.4,0.1,0.6,0.6,0.6c0.1,0,0.3,0,0.5,0L56.4,27.3z M51.6,23.1
			c-0.2,0.2-0.5,0.4-1,0.5c-0.5,0.2-0.7,0.5-0.7,1.1c0,0.4,0.2,0.7,0.6,0.7c0.4,0,0.9-0.4,1-1V23.1z"/>
		<path class="st2" d="M62,22.1c-0.8,0-1.4,0.3-1.6,0.9v4.2h-2.5v-8.4h2.3v0.9c0.5-0.7,1.5-1.1,3.3-1.1v3.9
			C63,22.3,62.5,22.1,62,22.1z"/>
		<path class="st2" d="M76.5,27.2h-5.9V15.5h5.7c2.2,0,3.6,1.2,3.6,2.9c0,1.3-0.7,2.2-1.8,2.4l0,0c1.3,0.1,2.4,1.2,2.4,3
			C80.5,25.8,79,27.2,76.5,27.2z M74.1,17.7H73v2.4h1.2c0.6,0,1-0.5,1-1.2C75.2,18.2,74.7,17.7,74.1,17.7z M74.3,22.2H73v2.7h1.3
			c0.8,0,1.3-0.5,1.3-1.4C75.7,22.7,75.1,22.2,74.3,22.2z"/>
		<path class="st2" d="M89.9,27.3c-0.3,0.1-0.6,0.1-0.9,0.1c-1.3,0-2.9-0.3-3-0.9c-0.4,0.7-1.3,0.9-2.3,0.9c-1.3,0-2.3-0.9-2.3-2.3
			c0,0,0,0,0,0c0-1.5,0.7-2.4,2.3-2.9c0.9-0.3,1.4-0.5,1.4-0.9c0-0.5-0.2-0.6-0.9-0.6c-0.5,0-1.5,0.5-1.9,1.2L81.5,20
			c0.7-0.9,2.2-1.4,3.8-1.4c2.7,0,3.9,1,3.9,2.8v2.7c0,0.4,0.1,0.6,0.6,0.6c0.1,0,0.3,0,0.5,0L89.9,27.3z M85.2,23.1
			c-0.2,0.2-0.5,0.4-1,0.5c-0.5,0.2-0.7,0.5-0.7,1.1c0,0.4,0.2,0.7,0.6,0.7c0.4,0,0.9-0.4,1-1V23.1z"/>
		<path class="st2" d="M96.1,27.4c-3,0-4.3-0.6-4.3-2.7v-3.2h-0.9v-2.6h1v-2.6h2.5v2.6h1.7v2.6h-1.7v1.4c0,1.1,0.5,1.1,2.2,1.1
			L96.1,27.4z"/>
		<path class="st2" d="M102.7,27.4c-3,0-4.3-0.6-4.3-2.7v-3.2h-0.9v-2.6h1v-2.6h2.5v2.6h1.7v2.6H101v1.4c0,1.1,0.5,1.1,2.2,1.1
			L102.7,27.4z"/>
		<path class="st2" d="M104.6,27.2V15.5h3.3v11.7H104.6z"/>
		<path class="st2" d="M111.9,24c0.1,0.7,0.7,1.3,1.3,1.3c0.8,0,1.2-0.3,1.3-1.1h3.7c-0.2,2-1.7,3.2-4.5,3.2c-2.4,0-4.1-1.7-4.1-4.4
			c0-2.5,1.7-4.4,4.1-4.4c3.2,0,4.6,1.6,4.6,4.6L111.9,24z M113,20.7c-0.6,0-1.2,0.6-1.2,1.5l2.4-0.3
			C114.2,21.2,113.8,20.7,113,20.7z"/>
		<path class="st2" d="M123.1,23.5h-2.7l-0.4-8.1h4.7C123.7,17.9,123.3,21.3,123.1,23.5z M119.9,27.2v-2.6h3.8v2.6H119.9z"/>
	</g>
</g>
</svg>
