<?xml version="1.0" encoding="utf-8"?>
<!-- Generator: Adobe Illustrator 18.1.0, SVG Export Plug-In . SVG Version: 6.00 Build 0)  -->
<svg version="1.1" id="レイヤー_1" xmlns="http://www.w3.org/2000/svg" xmlns:xlink="http://www.w3.org/1999/xlink" x="0px"
	 y="0px" viewBox="0 0 188 100" enable-background="new 0 0 188 100" xml:space="preserve">
<g id="bg" display="none">
	<rect y="-125.8" display="inline" fill="#FFFFFF" width="1089.1" height="196"/>
</g>
<g>
	<path d="M54.5,43.8c-2.8-9.8-6.1-22.2-6.7-24.7c5.5-0.1,9.8,0,10.9,0c1.3,5,3.2,13,3.2,13s1.7-7.8,3.4-13c0.8,0,3.2-0.1,6,0
		c-0.5,2.4-3,14.4-5.5,24.7C60.4,43.9,55.7,43.8,54.5,43.8z"/>
	<path d="M73.8,22.8c-0.1-1.5,0-3.1,0-3.8h8.9c0,1.4,0,3,0,3.8H73.8z M74.1,43.7c-0.3-7.9-0.3-16.6-0.3-18.5c4-0.1,7.7-0.1,8.8-0.1
		c0,7.1,0,16.6,0,18.6C78.9,43.8,75.3,43.7,74.1,43.7z"/>
	<path d="M94.5,35.3c-0.4,4.1,3.5,4.4,3.5,4.4s3.1,0.3,3.9-1.7c0.5,0,1.6,0,3,0c-0.5,3.3-2.3,5.9-9,5.9c-5.6,0-10.3-2.2-10.7-9.2
		C84.8,27,89.7,24.1,96,24.1c4.6,0,8.9,1.7,9.3,7.4c0,0.1,0.2,2.6,0,3.5C102.3,35.1,102.1,35.1,94.5,35.3z M94.4,32.8l5.3-0.2
		c0.6-2-0.1-3.6-2.3-3.7C95.6,28.9,94.4,30.2,94.4,32.8z"/>
	<path d="M123.6,43.7c-1.3-2.9-3.1-7.9-3.1-7.9s-1.2,5.2-2.1,7.9c-1.1,0-3.5,0.1-6.9,0c-1.5-7.4-3.1-17.1-3.4-19.2
		c1.7-0.1,3.6,0,4.3,0c0.8,2.7,2,9.3,2,9.3s1.4-6.3,2.4-9.3c2.7-0.1,5.7,0,6.5,0c1.7,4,4,9.9,4,9.9s1.3-6.2,2.1-9.9
		c0.7,0,2.5-0.1,4.3,0c-0.3,2.1-1.9,11.4-3.5,19.2C127,43.8,124.6,43.7,123.6,43.7z"/>
	<path d="M57,80c-1.2,0-5.1,0.1-9.2,0c-0.3-11-0.2-22.6-0.2-24.8c7.8-0.5,13-0.1,13-0.1c8.2,0.7,8.5,12.2,6.8,15.4
		c-1.3,2.5-3.1,3.9-10.4,4C57,74.6,57.1,77.7,57,80z M57.1,70.7c1.3,0.2,2,0,2,0c2.5-0.6,2.4-3.9,0.5-4.9c0,0-0.9-0.5-2.5-0.1
		C57,67.9,57.1,70.7,57.1,70.7z"/>
	<path d="M70.4,54.8c4.3-0.2,7.8,0,8.9,0c0.2,10.3,0.2,22.6,0.2,24.8c-4,0.2-7.7,0.1-8.9,0C70.3,68.9,70.3,57,70.4,54.8z"/>
	<path d="M88.8,80c-2.6,0-5.6-0.4-6.6-4.1c-1.2-4.3,0.5-6.6,3.5-7.8c0.2,0,3.4-1.3,7-0.5c0.2-1.7-1-2.2-1-2.2
		c-0.1-0.1-2.8-1.3-8.7,0.5c0-0.6,0-1.6,0-2.7c2.4-2.2,18-6.3,17.9,4.7c0,0,0,7.7-0.1,11.9C96,80,88.8,80,88.8,80z M89.1,74.7
		c0,0,0,3.5,3.8,2.5c0,0,0.1-2.5,0-4C91.2,72.1,89.1,72.7,89.1,74.7z"/>
	<path d="M116.6,71.1c0-0.7-0.2-2.1-1.6-2.2c-1.3-0.2-2.2,0.7-2.2,2.3c0,0,0,2.3,0.1,8.5c-4.1,0.1-8,0.1-9.2,0.1
		c-0.2-10.4-0.1-17.8-0.1-19.5c3.9-0.1,7.2,0,8.2,0c0,3,0.3,5.2,0.3,5.2c1.3-4.9,3.7-5.2,3.7-5.2c8.2-1.2,8.4,3.3,8.4,10.4v9
		c-1,0-4,0.1-7.6,0C116.7,74.2,116.6,71.1,116.6,71.1z"/>
	<path d="M139.5,71c3.7,1.7,3.9,3.4,3.3,5.5c-0.4,1.3-1.7,2.5-4.5,3c-2.3,0.4-6.4,0.7-11.4,0.3c-0.1-1.3-0.1-2.6-0.1-3.3
		c1.9,0.5,4.1,0.4,4.1,0.4c2.2-0.1,3.5-0.6,3.6-1.3c0.2-0.8-0.3-1.2-1.4-1.5c-0.8-0.3-2-0.5-3.2-1c-2.1-0.8-3.1-2.4-3.2-4.2
		c-0.2-3,0.4-5.7,3.2-7.2c2-1.1,4.4-1.4,6.9-1.5c2.3-0.1,4.6,0.1,6.3,0.2c0,3.6,0,7.1,0,8.4c-2.2-0.6-3.6-0.2-3.6-0.2
		C138.2,69.1,138.6,70.6,139.5,71z"/>
</g>
</svg>
