<?xml version="1.0" encoding="utf-8"?>
<!-- Generator: Adobe Illustrator 19.1.0, SVG Export Plug-In . SVG Version: 6.00 Build 0)  -->
<svg version="1.1" xmlns="http://www.w3.org/2000/svg" xmlns:xlink="http://www.w3.org/1999/xlink" x="0px" y="0px"
	 viewBox="0 0 194 30" style="enable-background:new 0 0 194 30;" xml:space="preserve">
<style type="text/css">
	.st0{display:none;}
	.st1{display:inline;}
	.st2{fill:#FF6E00;}
</style>
<g id="bg" class="st0">
	<rect y="-50.6" class="st1" width="447.8" height="80.6"/>
</g>
<g id="レイヤー_1">
	<g>
		<path class="st2" d="M7.1,12.2H1.2V0.5h5.7c2.2,0,3.6,1.2,3.6,2.9c0,1.3-0.7,2.2-1.8,2.4l0,0c1.3,0.1,2.4,1.2,2.4,3
			C11.1,10.8,9.6,12.2,7.1,12.2z M4.8,2.7H3.7v2.4h1.2c0.6,0,1-0.5,1-1.2C5.8,3.2,5.4,2.7,4.8,2.7z M4.9,7.2H3.7v2.7H5
			c0.8,0,1.3-0.5,1.3-1.4C6.3,7.7,5.7,7.2,4.9,7.2z"/>
		<path class="st2" d="M20.5,12.3c-0.3,0.1-0.6,0.1-0.9,0.1c-1.3,0-2.9-0.3-3-0.9c-0.4,0.7-1.3,0.9-2.3,0.9c-1.3,0-2.3-0.9-2.3-2.3
			c0,0,0,0,0,0c0-1.5,0.7-2.4,2.3-2.9c0.9-0.3,1.4-0.5,1.4-0.9c0-0.5-0.2-0.6-0.9-0.6c-0.5,0-1.5,0.5-1.9,1.2L12.1,5
			c0.7-0.9,2.2-1.4,3.8-1.4c2.7,0,3.9,1,3.9,2.8v2.7c0,0.4,0.1,0.6,0.6,0.6c0.1,0,0.3,0,0.5,0L20.5,12.3z M15.8,8.1
			c-0.2,0.2-0.5,0.4-1,0.5c-0.5,0.2-0.7,0.5-0.7,1.1c0,0.4,0.2,0.7,0.6,0.7c0.4,0,0.9-0.4,1-1V8.1z"/>
		<path class="st2" d="M26.7,12.4c-3,0-4.3-0.6-4.3-2.7V6.4h-0.9V3.8h1V1.2H25v2.6h1.7v2.6H25v1.4C25,9,25.5,9,27.2,9L26.7,12.4z"/>
		<path class="st2" d="M33.3,12.4c-3,0-4.3-0.6-4.3-2.7V6.4h-0.9V3.8h1V1.2h2.5v2.6h1.7v2.6h-1.7v1.4C31.6,9,32.1,9,33.8,9
			L33.3,12.4z"/>
		<path class="st2" d="M35.2,12.2V0.5h3.3v11.7H35.2z"/>
		<path class="st2" d="M40.7,2.8V0.5H44v2.3H40.7z M40.8,12.2V3.8H44v8.4H40.8z"/>
		<path class="st2" d="M50.3,12.2V7c0-0.8-0.3-1.3-0.9-1.3c-0.5,0-1,0.5-1.2,1.2v5.3h-2.3V3.8H48v0.9c0.4-0.6,1.4-1.1,2.7-1.1
			c2.3,0,3.8,1.3,3.8,2.9v5.6H50.3z"/>
		<path class="st2" d="M59.2,5.2h-2.5l-0.2-4.7h3L59.2,5.2z"/>
		<path class="st2" d="M67.2,2.8V0.5h3.3v2.3H67.2z M67.3,12.2V3.8h3.2v8.4H67.3z"/>
		<path class="st2" d="M77.2,12.4c-3,0-4.3-0.6-4.3-2.7V6.4h-0.9V3.8h1V1.2h2.5v2.6h1.7v2.6h-1.7v1.4C75.5,9,75.9,9,77.6,9
			L77.2,12.4z"/>
		<path class="st2" d="M88.8,12.4c-2.7,0-4.6-1.7-4.6-4.3c0-2.7,1.8-4.4,4.6-4.4s4.5,1.7,4.5,4.4C93.4,10.6,91.6,12.4,88.8,12.4z
			 M87.9,5.7c-0.8,0-1.4,0.9-1.4,2.3s0.6,2.3,1.4,2.3c0.9,0,1.4-0.9,1.4-2.3C89.3,6.6,88.8,5.7,87.9,5.7z"/>
		<path class="st2" d="M99.8,12.2v-0.9c-0.3,0.7-1.2,1.1-2.2,1.1c-1.5,0-2.8-1.2-2.8-2.9V3.8H97v4.9c0,0.8,0.6,1.3,1.3,1.3
			c0.6,0,1.1-0.4,1.2-1V3.8h3.7v8.4H99.8z"/>
		<path class="st2" d="M109.9,12.4c-3,0-4.3-0.6-4.3-2.7V6.4h-0.9V3.8h1V1.2h2.5v2.6h1.7v2.6h-1.7v1.4c0,1.1,0.5,1.1,2.2,1.1
			L109.9,12.4z"/>
		<path class="st2" d="M117.5,2.8V0.5h3.3v2.3H117.5z M117.5,12.2V3.8h3.2v8.4H117.5z"/>
		<path class="st2" d="M127,12.2V7c0-0.8-0.3-1.3-0.9-1.3c-0.5,0-1,0.5-1.2,1.2v5.3h-2.3V3.8h2.1v0.9c0.4-0.6,1.4-1.1,2.7-1.1
			c2.3,0,3.8,1.3,3.8,2.9v5.6H127z"/>
		<path class="st2" d="M143.4,12.4c-3,0-4.3-0.6-4.3-2.7V6.4h-0.9V3.8h1V1.2h2.5v2.6h1.7v2.6h-1.7v1.4c0,1.1,0.5,1.1,2.2,1.1
			L143.4,12.4z"/>
		<path class="st2" d="M149.6,12.2V7c0-0.8-0.3-1.3-0.9-1.3c-0.5,0-1,0.5-1.2,1.2v5.3h-2.3V0.5h2.3v4.2c0.4-0.6,1.2-1,2.5-1
			c2.3,0,3.8,1.3,3.8,2.9v5.6H149.6z"/>
		<path class="st2" d="M157.6,9c0.1,0.7,0.7,1.3,1.3,1.3c0.8,0,1.2-0.3,1.3-1.1h3.7c-0.2,2-1.7,3.2-4.5,3.2c-2.4,0-4.1-1.7-4.1-4.4
			c0-2.5,1.7-4.4,4.1-4.4c3.2,0,4.6,1.6,4.6,4.6L157.6,9z M158.7,5.7c-0.6,0-1.2,0.6-1.2,1.5l2.4-0.3C160,6.2,159.5,5.7,158.7,5.7z"
			/>
		<path class="st2" d="M5.7,27.5c-3,0-4.6-1.1-5.1-3.1l1.7-1.2C2.6,24.6,3.5,25,4.3,25c0.9,0,1.4-0.5,1.4-1.2c0-1.4-1.4-1.5-2.5-2.1
			c-1.5-0.8-2.2-1.5-2.2-3.1c0-1.9,1.8-3.5,4.2-3.5c2.7,0,4.3,0.7,5.1,3.3l-4.5,0.8c-0.2-1-0.7-1.7-1.5-1.7c-0.9,0-1.3,0.3-1.3,0.9
			c0,0.7,1.1,1.2,2.6,1.3c2.9,0.2,4.8,1.2,4.8,3.9C10.5,26.1,8.9,27.5,5.7,27.5z"/>
		<path class="st2" d="M17.2,27.4c-1.3,0-2.3-0.3-2.7-0.9v3.6h-2.3V18.8h2.1v0.9c0.4-0.6,1.6-1,2.8-1c2.2,0,4,1.5,4,4.4
			C21.2,25.9,19.4,27.4,17.2,27.4z M15.7,20.7c-0.6,0-1.2,0.7-1.2,1.7v1.9c0.2,0.6,0.6,1,1.2,1c0.8,0,1.3-0.8,1.3-2.3
			C17,21.5,16.5,20.7,15.7,20.7z"/>
		<path class="st2" d="M22.7,27.2V15.5h3.3v11.7H22.7z"/>
		<path class="st2" d="M36.1,27.3c-0.3,0.1-0.6,0.1-0.9,0.1c-1.3,0-2.9-0.3-3-0.9c-0.4,0.7-1.3,0.9-2.3,0.9c-1.3,0-2.3-0.9-2.3-2.3
			c0,0,0,0,0,0c0-1.5,0.7-2.4,2.3-2.9c0.9-0.3,1.4-0.5,1.4-0.9c0-0.5-0.2-0.6-0.9-0.6c-0.5,0-1.5,0.5-1.9,1.2L27.7,20
			c0.7-0.9,2.2-1.4,3.8-1.4c2.7,0,3.9,1,3.9,2.8v2.7c0,0.4,0.1,0.6,0.6,0.6c0.1,0,0.3,0,0.5,0L36.1,27.3z M31.3,23.1
			c-0.2,0.2-0.5,0.4-1,0.5c-0.5,0.2-0.7,0.5-0.7,1.1c0,0.4,0.2,0.7,0.6,0.7c0.4,0,0.9-0.4,1-1V23.1z"/>
		<path class="st2" d="M42.2,27.4c-3,0-4.3-0.6-4.3-2.7v-3.2H37v-2.6h1v-2.6h2.5v2.6h1.7v2.6h-1.7v1.4c0,1.1,0.5,1.1,2.2,1.1
			L42.2,27.4z"/>
		<path class="st2" d="M47.9,18c-0.8,0-1,0.2-1,0.6v0.3h1.9v2.6h-1.8v5.7h-2.4v-5.7h-1.1v-2.6h1.1v-0.7c0-2.2,1.2-3,4.2-3l0.3,2.9
			C48.6,18,48.2,18,47.9,18z"/>
		<path class="st2" d="M51.9,24c0.1,0.7,0.7,1.3,1.3,1.3c0.8,0,1.2-0.3,1.3-1.1h3.7c-0.2,2-1.7,3.2-4.5,3.2c-2.4,0-4.1-1.7-4.1-4.4
			c0-2.5,1.7-4.4,4.1-4.4c3.2,0,4.6,1.6,4.6,4.6L51.9,24z M53.1,20.7c-0.6,0-1.2,0.6-1.2,1.5l2.4-0.3C54.3,21.2,53.8,20.7,53.1,20.7
			z"/>
		<path class="st2" d="M63.5,27.4c-1.7,0-3.5-0.6-4.2-1.5l0.9-1.9c0.6,0.8,1.6,1.4,2.3,1.4c0.5,0,0.8-0.2,0.8-0.5
			c0-0.5-0.3-0.7-1.4-0.9c-1.7-0.4-2.4-1.4-2.4-2.7c0-1.4,1.5-2.5,3.3-2.5c2,0,3.4,0.4,4.3,1l-0.7,2.3c-1-0.9-2.1-1.3-3.3-1.3
			c-0.8,0-1.1,0.1-1.1,0.4c0,0.2,0.2,0.3,2,0.5c2.4,0.3,3.5,1.4,3.5,3.2C67.3,26.4,66.3,27.4,63.5,27.4z"/>
		<path class="st2" d="M73.5,27.4c-3,0-4.3-0.6-4.3-2.7v-3.2h-0.9v-2.6h1v-2.6h2.5v2.6h1.7v2.6h-1.7v1.4c0,1.1,0.5,1.1,2.2,1.1
			L73.5,27.4z"/>
		<path class="st2" d="M78.7,23.5H76l-0.4-8.1h4.7C79.4,17.9,79,21.3,78.7,23.5z M75.6,27.2v-2.6h3.8v2.6H75.6z"/>
	</g>
</g>
</svg>
