<?xml version="1.0" encoding="utf-8"?>
<!-- Generator: Adobe Illustrator 19.1.0, SVG Export Plug-In . SVG Version: 6.00 Build 0)  -->
<svg version="1.1" xmlns="http://www.w3.org/2000/svg" xmlns:xlink="http://www.w3.org/1999/xlink" x="0px" y="0px"
	 viewBox="0 0 194 30" style="enable-background:new 0 0 194 30;" xml:space="preserve">
<style type="text/css">
	.st0{display:none;}
	.st1{display:inline;}
	.st2{fill:#FF6E00;}
</style>
<g id="bg" class="st0">
	<rect y="-50.6" class="st1" width="447.8" height="80.6"/>
</g>
<g id="レイヤー_1">
	<g>
		<path class="st2" d="M6.3,21.3c-3.3,0-5.6-2-5.6-6.2C0.6,11,3,9,6.3,9c3.2,0,5.9,2.1,5.9,6.1C12.1,19.3,9.5,21.3,6.3,21.3z
			 M5.1,11.4c-1,0-1.9,1.3-1.9,3.7c0,2.4,1,3.8,1.9,3.8c1.1,0,1.9-1.3,1.9-3.8C7,12.7,6.3,11.4,5.1,11.4z"/>
		<path class="st2" d="M18.1,21v-5.1c0-0.8-0.3-1.3-0.9-1.3c-0.5,0-1,0.5-1.2,1.2V21h-2.3v-8.4h2.1v0.9c0.4-0.6,1.4-1.1,2.7-1.1
			c2.3,0,3.8,1.3,3.8,2.9V21H18.1z"/>
		<path class="st2" d="M24.2,21V9.3h3.3V21H24.2z"/>
		<path class="st2" d="M29.7,11.6V9.3h3.3v2.3H29.7z M29.8,21v-8.4H33V21H29.8z"/>
		<path class="st2" d="M39.3,21v-5.1c0-0.8-0.3-1.3-0.9-1.3c-0.5,0-1,0.5-1.2,1.2V21h-2.3v-8.4H37v0.9c0.4-0.6,1.4-1.1,2.7-1.1
			c2.3,0,3.8,1.3,3.8,2.9V21H39.3z"/>
		<path class="st2" d="M47.3,17.8c0.1,0.7,0.7,1.3,1.3,1.3c0.8,0,1.2-0.3,1.3-1.1h3.7c-0.2,2-1.7,3.2-4.5,3.2
			c-2.4,0-4.1-1.7-4.1-4.4c0-2.5,1.7-4.4,4.1-4.4c3.2,0,4.6,1.6,4.6,4.6L47.3,17.8z M48.4,14.5c-0.6,0-1.2,0.6-1.2,1.5l2.4-0.3
			C49.6,15,49.2,14.5,48.4,14.5z"/>
	</g>
</g>
</svg>
