<?xml version="1.0" encoding="utf-8"?>
<!-- Generator: Adobe Illustrator 19.1.0, SVG Export Plug-In . SVG Version: 6.00 Build 0)  -->
<svg version="1.1" xmlns="http://www.w3.org/2000/svg" xmlns:xlink="http://www.w3.org/1999/xlink" x="0px" y="0px"
	 viewBox="0 0 194 30" style="enable-background:new 0 0 194 30;" xml:space="preserve">
<style type="text/css">
	.st0{display:none;}
	.st1{display:inline;}
	.st2{fill:#FF6E00;}
</style>
<g id="bg" class="st0">
	<rect y="-50.6" class="st1" width="447.8" height="80.6"/>
</g>
<g id="レイヤー_1">
	<g>
		<path class="st2" d="M6.5,18.2c-0.3,0-0.6,0-0.8,0c-0.9,0-1.6-0.1-2-0.3V21H1.2V9.3H6c2.6,0,4.6,1.8,4.6,4.5
			C10.6,16.4,8.9,18,6.5,18.2z M4.6,12.1H3.6v3.3c0.2,0.1,0.4,0.1,0.6,0.1c0.1,0,0.2,0,0.4,0c1-0.1,1.4-0.6,1.4-1.7
			C6,12.7,5.4,12.1,4.6,12.1z"/>
		<path class="st2" d="M12.2,21V9.3h3.3V21H12.2z"/>
		<path class="st2" d="M25.6,21.1c-0.3,0.1-0.6,0.1-0.9,0.1c-1.3,0-2.9-0.3-3-0.9c-0.4,0.7-1.3,0.9-2.3,0.9c-1.3,0-2.3-0.9-2.3-2.3
			c0,0,0,0,0,0c0-1.5,0.7-2.4,2.3-2.9c0.9-0.3,1.4-0.5,1.4-0.9c0-0.5-0.2-0.6-0.9-0.6c-0.5,0-1.5,0.5-1.9,1.2l-0.8-1.9
			c0.7-0.9,2.2-1.4,3.8-1.4c2.7,0,3.9,1,3.9,2.8v2.7c0,0.4,0.1,0.6,0.6,0.6c0.1,0,0.3,0,0.5,0L25.6,21.1z M20.9,16.9
			c-0.2,0.2-0.5,0.4-1,0.5c-0.5,0.2-0.7,0.5-0.7,1.1c0,0.4,0.2,0.7,0.6,0.7c0.4,0,0.9-0.4,1-1V16.9z"/>
		<path class="st2" d="M32.8,21.2C32.1,23.4,30.6,24,27,24l-0.4-2.4c1.7,0,2-0.1,2.3-1l-2.5-8h2.2l1.1,3.4c0.2,0.5,0.4,1.3,0.4,1.9
			h0c0.1-0.7,0.2-1.4,0.3-1.9l0.8-3.5h4.2L32.8,21.2z"/>
		<path class="st2" d="M36.5,11.6V9.3h3.3v2.3H36.5z M36.6,21v-8.4h3.2V21H36.6z"/>
		<path class="st2" d="M46.1,21v-5.1c0-0.8-0.3-1.3-0.9-1.3c-0.5,0-1,0.5-1.2,1.2V21h-2.3v-8.4h2.1v0.9c0.4-0.6,1.4-1.1,2.7-1.1
			c2.3,0,3.8,1.3,3.8,2.9V21H46.1z"/>
		<path class="st2" d="M56.2,24c-1.4,0-2.7-0.2-3.5-0.4l-0.4-2.3c0.8,0.3,1.7,0.4,2.5,0.4c1.4,0,1.8-0.3,1.8-1.3v-0.5
			c-0.3,0.4-1,0.6-1.7,0.6c-1.6,0-3.1-1.3-3.1-4c0-2.6,1.5-4.1,3-4.1c0.9,0,1.7,0.3,2,1l0.3-0.8h3.5v7.9C60.6,23,59,24,56.2,24z
			 M56.6,15.6c-0.2-0.6-0.6-1-1.2-1c-0.8,0-1.3,0.6-1.3,2c0,1.4,0.5,2,1.3,2c0.7,0,1.2-0.6,1.2-1.4V15.6z"/>
		<path class="st2" d="M72.8,21.3c-3,0-4.6-1.1-5.1-3.1l1.7-1.2c0.4,1.3,1.3,1.7,2.1,1.7c0.9,0,1.3-0.5,1.3-1.2
			c0-1.4-1.3-1.5-2.5-2.1c-1.5-0.8-2.2-1.5-2.2-3.1c0-1.9,1.8-3.5,4.2-3.5c2.7,0,4.3,0.7,5.1,3.3L72.9,13c-0.2-1-0.7-1.7-1.5-1.7
			c-0.9,0-1.3,0.3-1.3,0.9c0,0.7,1.1,1.2,2.6,1.3c2.9,0.2,4.8,1.2,4.8,3.9C77.6,19.9,76,21.3,72.8,21.3z"/>
		<path class="st2" d="M84.4,21.2c-1.3,0-2.3-0.3-2.7-0.9v3.6h-2.3V12.6h2.1v0.9c0.4-0.6,1.6-1,2.8-1c2.2,0,4,1.5,4,4.4
			C88.3,19.7,86.5,21.2,84.4,21.2z M82.8,14.5c-0.6,0-1.2,0.7-1.2,1.7v1.9c0.2,0.6,0.6,1,1.2,1c0.8,0,1.3-0.8,1.3-2.3
			C84.1,15.3,83.7,14.5,82.8,14.5z"/>
		<path class="st2" d="M89.8,21V9.3h3.3V21H89.8z"/>
		<path class="st2" d="M103.2,21.1c-0.3,0.1-0.6,0.1-0.9,0.1c-1.3,0-2.9-0.3-3-0.9c-0.4,0.7-1.3,0.9-2.3,0.9c-1.3,0-2.3-0.9-2.3-2.3
			c0,0,0,0,0,0c0-1.5,0.7-2.4,2.3-2.9c0.9-0.3,1.4-0.5,1.4-0.9c0-0.5-0.2-0.6-0.9-0.6c-0.5,0-1.5,0.5-1.9,1.2l-0.8-1.9
			c0.7-0.9,2.2-1.4,3.8-1.4c2.7,0,3.9,1,3.9,2.8v2.7c0,0.4,0.1,0.6,0.6,0.6c0.1,0,0.3,0,0.5,0L103.2,21.1z M98.5,16.9
			c-0.2,0.2-0.5,0.4-1,0.5c-0.5,0.2-0.7,0.5-0.7,1.1c0,0.4,0.2,0.7,0.6,0.7c0.4,0,0.9-0.4,1-1V16.9z"/>
		<path class="st2" d="M109.4,21.2c-3,0-4.3-0.6-4.3-2.7v-3.2h-0.9v-2.6h1V10h2.5v2.6h1.7v2.6h-1.7v1.4c0,1.1,0.5,1.1,2.2,1.1
			L109.4,21.2z"/>
		<path class="st2" d="M115.5,21.2c-2.7,0-4.6-1.7-4.6-4.3c0-2.7,1.8-4.4,4.6-4.4s4.5,1.7,4.5,4.4C120,19.5,118.2,21.2,115.5,21.2z
			 M114.6,14.5c-0.8,0-1.4,0.9-1.4,2.3s0.6,2.3,1.4,2.3c0.9,0,1.4-0.9,1.4-2.3C116,15.4,115.5,14.5,114.6,14.5z"/>
		<path class="st2" d="M125.7,21.2c-2.7,0-4.6-1.7-4.6-4.3c0-2.7,1.8-4.4,4.6-4.4c2.7,0,4.5,1.7,4.5,4.4
			C130.3,19.5,128.5,21.2,125.7,21.2z M124.8,14.5c-0.8,0-1.4,0.9-1.4,2.3s0.6,2.3,1.4,2.3c0.9,0,1.4-0.9,1.4-2.3
			C126.2,15.4,125.7,14.5,124.8,14.5z"/>
		<path class="st2" d="M136,21v-5.1c0-0.8-0.3-1.3-0.9-1.3c-0.5,0-1,0.5-1.2,1.2V21h-2.3v-8.4h2.1v0.9c0.4-0.6,1.4-1.1,2.7-1.1
			c2.3,0,3.8,1.3,3.8,2.9V21H136z"/>
		<path class="st2" d="M145.4,17.3h-2.7l-0.4-8.1h4.7C146.1,11.7,145.7,15.1,145.4,17.3z M142.3,21v-2.6h3.8V21H142.3z"/>
	</g>
</g>
</svg>
