<?xml version="1.0" encoding="utf-8"?>
<!-- Generator: Adobe Illustrator 19.1.0, SVG Export Plug-In . SVG Version: 6.00 Build 0)  -->
<svg version="1.1" xmlns="http://www.w3.org/2000/svg" xmlns:xlink="http://www.w3.org/1999/xlink" x="0px" y="0px"
	 viewBox="0 0 194 30" style="enable-background:new 0 0 194 30;" xml:space="preserve">
<style type="text/css">
	.st0{display:none;}
	.st1{display:inline;}
	.st2{fill:#FF6E00;}
</style>
<g id="bg" class="st0">
	<rect y="-50.6" class="st1" width="447.8" height="80.6"/>
</g>
<g id="レイヤー_1">
	<g>
		<path class="st2" d="M6.5,9.4c-0.3,0-0.6,0-0.8,0c-0.9,0-1.6-0.1-2-0.3v3.1H1.2V0.5H6c2.6,0,4.6,1.8,4.6,4.5
			C10.6,7.6,8.9,9.2,6.5,9.4z M4.6,3.3H3.6v3.3C3.8,6.7,4,6.7,4.2,6.7c0.1,0,0.2,0,0.4,0C5.6,6.6,6,6.1,6,5C6,3.9,5.4,3.3,4.6,3.3z"
			/>
		<path class="st2" d="M16.4,7.1c-0.8,0-1.4,0.3-1.6,0.9v4.2h-2.5V3.8h2.3v0.9c0.5-0.7,1.5-1.1,3.3-1.1v3.9
			C17.4,7.3,16.9,7.1,16.4,7.1z"/>
		<path class="st2" d="M19.2,2.8V0.5h3.3v2.3H19.2z M19.2,12.2V3.8h3.2v8.4H19.2z"/>
		<path class="st2" d="M30.6,12.2h-4.6l-2.3-8.3H26l1,3.9c0.2,0.6,0.3,1.4,0.4,2h0c0-0.7,0.1-1.3,0.3-2l1-3.9h4L30.6,12.2z"/>
		<path class="st2" d="M41.8,12.3c-0.3,0.1-0.6,0.1-0.9,0.1c-1.3,0-2.9-0.3-3-0.9c-0.4,0.7-1.3,0.9-2.3,0.9c-1.3,0-2.3-0.9-2.3-2.3
			c0,0,0,0,0,0c0-1.5,0.7-2.4,2.3-2.9C36.5,6.8,37,6.6,37,6.2c0-0.5-0.2-0.6-0.9-0.6c-0.5,0-1.5,0.5-1.9,1.2L33.4,5
			c0.7-0.9,2.2-1.4,3.8-1.4c2.7,0,3.9,1,3.9,2.8v2.7c0,0.4,0.1,0.6,0.6,0.6c0.1,0,0.3,0,0.5,0L41.8,12.3z M37.1,8.1
			c-0.2,0.2-0.5,0.4-1,0.5c-0.5,0.2-0.7,0.5-0.7,1.1c0,0.4,0.2,0.7,0.6,0.7c0.4,0,0.9-0.4,1-1V8.1z"/>
		<path class="st2" d="M48,12.4c-3,0-4.3-0.6-4.3-2.7V6.4h-0.9V3.8h1V1.2h2.5v2.6H48v2.6h-1.7v1.4C46.3,9,46.7,9,48.4,9L48,12.4z"/>
		<path class="st2" d="M51.7,9c0.1,0.7,0.7,1.3,1.3,1.3c0.8,0,1.2-0.3,1.3-1.1h3.7c-0.2,2-1.7,3.2-4.5,3.2c-2.4,0-4.1-1.7-4.1-4.4
			c0-2.5,1.7-4.4,4.1-4.4c3.2,0,4.6,1.6,4.6,4.6L51.7,9z M52.9,5.7c-0.6,0-1.2,0.6-1.2,1.5l2.4-0.3C54.1,6.2,53.6,5.7,52.9,5.7z"/>
		<path class="st2" d="M61.5,9c0.1,0.7,0.7,1.3,1.3,1.3c0.8,0,1.2-0.3,1.3-1.1h3.7c-0.2,2-1.7,3.2-4.5,3.2c-2.4,0-4.1-1.7-4.1-4.4
			c0-2.5,1.7-4.4,4.1-4.4c3.2,0,4.6,1.6,4.6,4.6L61.5,9z M62.7,5.7c-0.6,0-1.2,0.6-1.2,1.5l2.4-0.3C63.9,6.2,63.4,5.7,62.7,5.7z"/>
		<path class="st2" d="M73.6,7.1c-0.8,0-1.4,0.3-1.6,0.9v4.2h-2.5V3.8h2.3v0.9c0.5-0.7,1.5-1.1,3.3-1.1v3.9
			C74.6,7.3,74.1,7.1,73.6,7.1z"/>
		<path class="st2" d="M76.5,2.8V0.5h3.3v2.3H76.5z M76.5,12.2V3.8h3.2v8.4H76.5z"/>
		<path class="st2" d="M86,12.2V7c0-0.8-0.3-1.3-0.9-1.3c-0.5,0-1,0.5-1.2,1.2v5.3h-2.3V3.8h2.1v0.9c0.4-0.6,1.4-1.1,2.7-1.1
			c2.3,0,3.8,1.3,3.8,2.9v5.6H86z"/>
		<path class="st2" d="M96.1,15.2c-1.4,0-2.7-0.2-3.5-0.4l-0.4-2.3c0.8,0.3,1.7,0.4,2.5,0.4c1.4,0,1.8-0.3,1.8-1.3v-0.5
			c-0.3,0.4-1,0.6-1.7,0.6c-1.6,0-3.1-1.3-3.1-4c0-2.6,1.5-4.1,3-4.1c0.9,0,1.7,0.3,2,1L97,3.8h3.5v7.9
			C100.5,14.2,98.9,15.2,96.1,15.2z M96.5,6.8c-0.2-0.6-0.6-1-1.2-1c-0.8,0-1.3,0.6-1.3,2c0,1.4,0.5,2,1.3,2c0.7,0,1.2-0.6,1.2-1.4
			V6.8z"/>
		<path class="st2" d="M108.1,2.8V0.5h3.3v2.3H108.1z M108.1,12.2V3.8h3.2v8.4H108.1z"/>
		<path class="st2" d="M117.6,12.2V7c0-0.8-0.3-1.3-0.9-1.3c-0.5,0-1,0.5-1.2,1.2v5.3h-2.3V3.8h2.1v0.9c0.4-0.6,1.4-1.1,2.7-1.1
			c2.3,0,3.8,1.3,3.8,2.9v5.6H117.6z"/>
		<path class="st2" d="M137.3,12.3c-0.3,0.1-0.6,0.1-0.9,0.1c-1.3,0-2.9-0.3-3-0.9c-0.4,0.7-1.3,0.9-2.3,0.9c-1.3,0-2.3-0.9-2.3-2.3
			c0,0,0,0,0,0c0-1.5,0.7-2.4,2.3-2.9c0.9-0.3,1.4-0.5,1.4-0.9c0-0.5-0.2-0.6-0.9-0.6c-0.5,0-1.5,0.5-1.9,1.2L128.9,5
			c0.7-0.9,2.2-1.4,3.8-1.4c2.7,0,3.9,1,3.9,2.8v2.7c0,0.4,0.1,0.6,0.6,0.6c0.1,0,0.3,0,0.5,0L137.3,12.3z M132.6,8.1
			c-0.2,0.2-0.5,0.4-1,0.5c-0.5,0.2-0.7,0.5-0.7,1.1c0,0.4,0.2,0.7,0.6,0.7c0.4,0,0.9-0.4,1-1V8.1z"/>
		<path class="st2" d="M6.5,24.4c-0.3,0-0.6,0-0.8,0c-0.9,0-1.6-0.1-2-0.3v3.1H1.2V15.5H6c2.6,0,4.6,1.8,4.6,4.5
			C10.6,22.6,8.9,24.2,6.5,24.4z M4.6,18.3H3.6v3.3c0.2,0.1,0.4,0.1,0.6,0.1c0.1,0,0.2,0,0.4,0C5.6,21.6,6,21.1,6,20
			C6,18.9,5.4,18.3,4.6,18.3z"/>
		<path class="st2" d="M16.4,22.1c-0.8,0-1.4,0.3-1.6,0.9v4.2h-2.5v-8.4h2.3v0.9c0.5-0.7,1.5-1.1,3.3-1.1v3.9
			C17.4,22.3,16.9,22.1,16.4,22.1z"/>
		<path class="st2" d="M19.2,17.8v-2.3h3.3v2.3H19.2z M19.2,27.2v-8.4h3.2v8.4H19.2z"/>
		<path class="st2" d="M30.6,27.2h-4.6l-2.3-8.3H26l1,3.9c0.2,0.6,0.3,1.4,0.4,2h0c0-0.7,0.1-1.3,0.3-2l1-3.9h4L30.6,27.2z"/>
		<path class="st2" d="M41.8,27.3c-0.3,0.1-0.6,0.1-0.9,0.1c-1.3,0-2.9-0.3-3-0.9c-0.4,0.7-1.3,0.9-2.3,0.9c-1.3,0-2.3-0.9-2.3-2.3
			c0,0,0,0,0,0c0-1.5,0.7-2.4,2.3-2.9c0.9-0.3,1.4-0.5,1.4-0.9c0-0.5-0.2-0.6-0.9-0.6c-0.5,0-1.5,0.5-1.9,1.2L33.4,20
			c0.7-0.9,2.2-1.4,3.8-1.4c2.7,0,3.9,1,3.9,2.8v2.7c0,0.4,0.1,0.6,0.6,0.6c0.1,0,0.3,0,0.5,0L41.8,27.3z M37.1,23.1
			c-0.2,0.2-0.5,0.4-1,0.5c-0.5,0.2-0.7,0.5-0.7,1.1c0,0.4,0.2,0.7,0.6,0.7c0.4,0,0.9-0.4,1-1V23.1z"/>
		<path class="st2" d="M48,27.4c-3,0-4.3-0.6-4.3-2.7v-3.2h-0.9v-2.6h1v-2.6h2.5v2.6H48v2.6h-1.7v1.4c0,1.1,0.5,1.1,2.2,1.1L48,27.4
			z"/>
		<path class="st2" d="M51.7,24c0.1,0.7,0.7,1.3,1.3,1.3c0.8,0,1.2-0.3,1.3-1.1h3.7c-0.2,2-1.7,3.2-4.5,3.2c-2.4,0-4.1-1.7-4.1-4.4
			c0-2.5,1.7-4.4,4.1-4.4c3.2,0,4.6,1.6,4.6,4.6L51.7,24z M52.9,20.7c-0.6,0-1.2,0.6-1.2,1.5l2.4-0.3C54.1,21.2,53.6,20.7,52.9,20.7
			z"/>
		<path class="st2" d="M71.4,27.2h-5.9V15.5h5.7c2.2,0,3.6,1.2,3.6,2.9c0,1.3-0.7,2.2-1.8,2.4l0,0c1.3,0.1,2.4,1.2,2.4,3
			C75.4,25.8,73.9,27.2,71.4,27.2z M69,17.7h-1.1v2.4h1.2c0.6,0,1-0.5,1-1.2C70.1,18.2,69.7,17.7,69,17.7z M69.2,22.2h-1.3v2.7h1.3
			c0.8,0,1.3-0.5,1.3-1.4C70.6,22.7,70,22.2,69.2,22.2z"/>
		<path class="st2" d="M84.8,27.3c-0.3,0.1-0.6,0.1-0.9,0.1c-1.3,0-2.9-0.3-3-0.9c-0.4,0.7-1.3,0.9-2.3,0.9c-1.3,0-2.3-0.9-2.3-2.3
			c0,0,0,0,0,0c0-1.5,0.7-2.4,2.3-2.9c0.9-0.3,1.4-0.5,1.4-0.9c0-0.5-0.2-0.6-0.9-0.6c-0.5,0-1.5,0.5-1.9,1.2L76.4,20
			c0.7-0.9,2.2-1.4,3.8-1.4c2.7,0,3.9,1,3.9,2.8v2.7c0,0.4,0.1,0.6,0.6,0.6c0.1,0,0.3,0,0.5,0L84.8,27.3z M80.1,23.1
			c-0.2,0.2-0.5,0.4-1,0.5c-0.5,0.2-0.7,0.5-0.7,1.1c0,0.4,0.2,0.7,0.6,0.7c0.4,0,0.9-0.4,1-1V23.1z"/>
		<path class="st2" d="M91,27.4c-3,0-4.3-0.6-4.3-2.7v-3.2h-0.9v-2.6h1v-2.6h2.5v2.6H91v2.6h-1.7v1.4c0,1.1,0.5,1.1,2.2,1.1L91,27.4
			z"/>
		<path class="st2" d="M97.6,27.4c-3,0-4.3-0.6-4.3-2.7v-3.2h-0.9v-2.6h1v-2.6h2.5v2.6h1.7v2.6h-1.7v1.4c0,1.1,0.5,1.1,2.2,1.1
			L97.6,27.4z"/>
		<path class="st2" d="M99.5,27.2V15.5h3.3v11.7H99.5z"/>
		<path class="st2" d="M106.8,24c0.1,0.7,0.7,1.3,1.3,1.3c0.8,0,1.2-0.3,1.3-1.1h3.7c-0.2,2-1.7,3.2-4.5,3.2c-2.4,0-4.1-1.7-4.1-4.4
			c0-2.5,1.7-4.4,4.1-4.4c3.2,0,4.6,1.6,4.6,4.6L106.8,24z M107.9,20.7c-0.6,0-1.2,0.6-1.2,1.5l2.4-0.3
			C109.2,21.2,108.7,20.7,107.9,20.7z"/>
		<path class="st2" d="M118,23.5h-2.7l-0.4-8.1h4.7C118.7,17.9,118.3,21.3,118,23.5z M114.9,27.2v-2.6h3.8v2.6H114.9z"/>
	</g>
</g>
</svg>
