<?xml version="1.0" encoding="utf-8"?>
<!-- Generator: Adobe Illustrator 18.1.0, SVG Export Plug-In . SVG Version: 6.00 Build 0)  -->
<svg version="1.1" id="レイヤー_1" xmlns="http://www.w3.org/2000/svg" xmlns:xlink="http://www.w3.org/1999/xlink" x="0px"
	 y="0px" viewBox="0 0 188 100" enable-background="new 0 0 188 100" xml:space="preserve">
<g id="bg" display="none">
	<rect y="-125.8" display="inline" fill="#FFFFFF" width="1089.1" height="196"/>
</g>
<g>
	<path d="M16.8,34.4c3.9,2,4.2,4.1,3.5,6.6c-0.4,1.6-1.8,3.1-4.8,3.7c-2.4,0.5-6.8,0.8-12.1,0.3c-0.1-1.7-0.1-3.3-0.1-4.1
		c2.1,0.6,4.4,0.5,4.4,0.5c2.3-0.1,3.6-0.6,3.7-1.4c0.2-1-0.6-1.4-1.4-1.7s-2-0.6-3.4-1.2c-2.2-1-3.3-3-3.5-5.1
		c-0.2-3.6,0.5-6.7,3.5-8.6c2.1-1.2,4.7-1.7,7.3-1.8c2.4-0.1,4.9,0.1,6.7,0.2c0,4.4,0,8.7,0,10.2c-2.3-0.7-3.8-0.2-3.9-0.2
		C15.5,32.3,15.9,34,16.8,34.4z"/>
	<path d="M31.8,36.9c-0.4,3.9,3.3,4.2,3.3,4.2s3,0.3,3.7-1.6c0.5,0,1.5,0,2.9,0c-0.4,3.2-2.2,5.6-8.5,5.6c-5.3,0-9.8-2.1-10.2-8.7
		c-0.4-7.3,4.3-10,10.3-10c4.3,0,8.5,1.6,8.8,7c0,0.1,0.1,2.5,0,3.3C39.2,36.7,39,36.7,31.8,36.9z M31.7,34.5l5-0.1
		c0.6-1.9-0.1-3.4-2.2-3.5C32.9,30.8,31.7,32.1,31.7,34.5z"/>
	<path d="M54.8,36.1c-0.1,4.5,2.4,5.5,5.5,5.4V45c-11.1,0.2-13.3-1-13.1-8.9c0,0-1.2,0-2.3,0c0-1.3-0.1-5.6,0-9.5h2.2
		c0,0,0.1-1.5,0.1-2.6c1.1,0,4.4,0,8,0c0,1-0.1,2.7-0.1,2.7s2.8,0,5.5,0c0,1.2,0,5.4-0.1,9.4C59.5,36,57.1,36.1,54.8,36.1z"/>
	<path d="M94.1,40.1c0.1,3.7-2.4,4.9-5.8,4.9c0,0-6.3,0.1-11.6-0.1c-0.2-10.2-0.2-21.3-0.2-23.4c7.3-0.5,12.3-0.1,12.3-0.1
		c7.7,0.6,6.6,9.2,5.3,12c-0.5,1.2-1.1,1.9-1.9,2.7C93.7,37.5,94.1,39.1,94.1,40.1z M87.1,30.6c-0.1,0-0.4,0-1.6,0V35
		c1.2,0,1.4-0.1,1.6-0.1s0.3,0,0.7,0c3.2-0.2,2.2-4.2,0-4.3C87.3,30.6,87.2,30.6,87.1,30.6z M87.6,36.8c-0.4,0-0.4,0-0.5,0
		c-0.2,0-0.4,0-1.6,0v3.7c1.1,0,1.3,0,1.4,0c0.2,0,0.3,0,0.9,0c1.1,0,1.5-1,1.5-1.8C89.3,37.8,88.8,36.9,87.6,36.8z"/>
	<path d="M104,45.2c-2.5,0-5.3-0.4-6.3-3.9c-1.1-4,0.5-6.2,3.3-7.4c0.1,0,3.2-1.2,6.6-0.5c0.2-1.6-0.9-2.1-0.9-2.1
		c-0.1-0.1-2.6-1.3-8.2,0.5c0-0.5,0-1.5,0-2.6c2.2-2.1,17.1-6,17,4.5c0,0,0,7.3-0.1,11.3C110.8,45.2,104,45.2,104,45.2z M104.2,40.2
		c0,0,0,3.3,3.6,2.4c0,0,0.1-2.4,0-3.8C106.2,37.6,104.2,38.3,104.2,40.2z"/>
	<path d="M128.2,36.1c-0.1,4.5,2.4,5.5,5.5,5.4V45c-11.1,0.2-13.3-1-13.1-8.9c0,0-1.2,0-2.3,0c0-1.3-0.1-5.6,0-9.5h2.2
		c0,0,0.1-1.5,0.1-2.6c1.1,0,4.4,0,8,0c0,1-0.1,2.7-0.1,2.7s2.8,0,5.5,0c0,1.2,0,5.4-0.1,9.4C132.8,36,130.4,36.1,128.2,36.1z"/>
	<path d="M146.3,36.1c-0.1,4.5,2.4,5.5,5.5,5.4V45c-11.1,0.2-13.3-1-13.1-8.9c0,0-1.2,0-2.3,0c0-1.3-0.1-5.6,0-9.5h2.2
		c0,0,0.1-1.5,0.1-2.6c1.1,0,4.4,0,8,0c0,1-0.1,2.7-0.1,2.7s2.8,0,5.5,0c0,1.2,0,5.4-0.1,9.4C150.9,36,148.6,36.1,146.3,36.1z"/>
	<path d="M154.2,21.3c4-0.2,7.4,0,8.4,0c0.1,9.8,0.2,21.4,0.2,23.5c-3.7,0.2-7.3,0.1-8.4,0C154.1,34.6,154.1,23.4,154.2,21.3z"/>
	<path d="M173.8,36.9c-0.4,3.9,3.3,4.2,3.3,4.2s3,0.3,3.7-1.6c0.5,0,1.5,0,2.9,0c-0.4,3.2-2.2,5.6-8.5,5.6c-5.3,0-9.8-2.1-10.2-8.7
		c-0.4-7.3,4.3-10,10.3-10c4.3,0,8.5,1.6,8.8,7c0,0.1,0.1,2.5,0,3.3C181.2,36.7,181,36.7,173.8,36.9z M173.7,34.5l5-0.1
		c0.6-1.9-0.1-3.4-2.2-3.5C174.9,30.8,173.7,32.1,173.7,34.5z"/>
	<path d="M12.2,81.2c-1.1,0-4.8,0.1-8.7,0C3.2,70.8,3.3,59.7,3.3,57.7c7.3-0.5,12.3-0.1,12.3-0.1c7.8,0.7,8.1,11.5,6.5,14.6
		c-1.2,2.3-3,3.7-9.9,3.8C12.2,76,12.2,79,12.2,81.2z M12.2,72.3c1.2,0.1,1.9,0,1.9,0c2.4-0.6,2.3-3.7,0.5-4.6c0,0-0.9-0.5-2.3-0.1
		C12.1,69.7,12.2,72.3,12.2,72.3z"/>
	<path d="M24.8,57.3c4-0.2,7.4,0,8.4,0c0.1,9.8,0.2,21.4,0.2,23.5c-3.7,0.2-7.3,0.1-8.4,0C24.7,70.6,24.8,59.4,24.8,57.3z"/>
	<path d="M42.3,81.2c-2.5,0-5.3-0.4-6.3-3.9c-1.1-4,0.5-6.2,3.3-7.4c0.1,0,3.2-1.2,6.6-0.5c0.2-1.6-0.9-2.1-0.9-2.1
		c-0.1-0.1-2.6-1.3-8.2,0.5c0-0.5,0-1.5,0-2.6c2.2-2.1,17.1-6,17,4.5c0,0,0,7.3-0.1,11.3C49,81.2,42.3,81.2,42.3,81.2z M42.5,76.2
		c0,0,0,3.3,3.6,2.4c0,0,0.1-2.4,0-3.8C44.5,73.6,42.5,74.3,42.5,76.2z"/>
	<path d="M68.6,72.7c0-0.7-0.2-1.9-1.5-2.1c-1.3-0.1-2.1,0.6-2.1,2.2c0,0,0,2.2,0.1,8.1C61.2,81,57.5,81,56.4,81
		c-0.2-10-0.1-17-0.1-18.6c3.7-0.1,6.8,0,7.8,0c0,2.8,0.3,4.9,0.3,4.9c1.3-4.6,3.5-5,3.5-5c7.8-1.1,8,3.1,8,9.9v8.6
		c-1,0-3.8,0.1-7.2,0C68.7,75.7,68.6,72.7,68.6,72.7z"/>
	<path d="M90.3,72.6c3.5,1.6,3.7,3.2,3.1,5.2c-0.4,1.3-1.6,2.4-4.2,2.8c-2.2,0.4-6,0.6-10.8,0.3c-0.1-1.3-0.1-2.5-0.1-3.1
		c1.8,0.5,3.9,0.4,3.9,0.4c2.1-0.1,3.3-0.5,3.4-1.2s-0.3-1.1-1.3-1.4c-0.8-0.3-1.9-0.5-3.1-1c-1.9-0.8-3-2.3-3.1-4
		c-0.2-2.9,0.4-5.4,3-6.8c1.9-1,4.2-1.3,6.5-1.4c2.2-0.1,4.4,0.1,6,0.2c0,3.4,0,6.8,0,8c-2.1-0.6-3.4-0.2-3.4-0.2
		C89,70.8,89.4,72.2,90.3,72.6z"/>
	<path d="M98,74.3c-0.2-1.6-1.2-9.2-1.8-16.9c1.4,0,6.4-0.3,11.6,0c-0.1,1.7-0.4,9-1.8,16.8C104.9,74.3,101.4,74.3,98,74.3z
		 M98.2,81.2c0-0.8-0.1-2.8-0.1-4.4c1.1-0.1,4.5-0.2,7.9,0c0,0.8,0,2.7-0.1,4.4C104.8,81.2,101.5,81.2,98.2,81.2z"/>
</g>
</svg>
