<?xml version="1.0" encoding="utf-8"?>
<!-- Generator: Adobe Illustrator 18.1.0, SVG Export Plug-In . SVG Version: 6.00 Build 0)  -->
<svg version="1.1" id="レイヤー_1" xmlns="http://www.w3.org/2000/svg" xmlns:xlink="http://www.w3.org/1999/xlink" x="0px"
	 y="0px" viewBox="0 0 64 18" enable-background="new 0 0 64 18" xml:space="preserve">
<g>
	<path fill="#FFFFFF" d="M0,13.3V1.6h8.8v2.6H2.5v1.6h5.6v2.4H2.5v1.3h6.6v3.8H0z"/>
	<path fill="#FFFFFF" d="M15,13.3V8.2c0-0.8-0.3-1.3-0.9-1.3c-0.5,0-1,0.5-1.2,1.2v5.3h-2.3V5h2.1v0.9c0.4-0.6,1.4-1.1,2.7-1.1
		c2.3,0,3.8,1.3,3.8,2.9v5.6H15z"/>
	<path fill="#FFFFFF" d="M25.1,16.4c-1.4,0-2.7-0.2-3.5-0.4l-0.4-2.3c0.8,0.3,1.7,0.4,2.5,0.4c1.4,0,1.8-0.3,1.8-1.3v-0.5
		c-0.3,0.4-1,0.6-1.6,0.6c-1.6,0-3.1-1.4-3.1-4c0-2.6,1.5-4.1,3-4.1c0.9,0,1.6,0.3,2,1L26,5h3.5v7.9C29.5,15.3,27.9,16.4,25.1,16.4z
		 M25.5,8c-0.2-0.6-0.6-1-1.2-1c-0.8,0-1.3,0.6-1.3,2c0,1.4,0.5,2,1.3,2c0.7,0,1.2-0.6,1.2-1.4V8z"/>
	<path fill="#FFFFFF" d="M31.4,13.3V1.6h3.3v11.7H31.4z"/>
	<path fill="#FFFFFF" d="M37,4V1.6h3.3V4H37z M37,13.3V5h3.2v8.4H37z"/>
	<path fill="#FFFFFF" d="M45.9,13.5c-1.7,0-3.5-0.6-4.2-1.5l0.9-1.9c0.6,0.8,1.6,1.4,2.3,1.4c0.5,0,0.8-0.2,0.8-0.5
		c0-0.5-0.3-0.7-1.4-0.9c-1.7-0.4-2.4-1.4-2.4-2.7c0-1.4,1.5-2.5,3.3-2.5c2,0,3.4,0.4,4.3,1L48.7,8c-1-0.9-2.1-1.3-3.3-1.3
		c-0.8,0-1.1,0.1-1.1,0.4c0,0.2,0.2,0.3,2,0.5c2.4,0.3,3.5,1.4,3.5,3.2C49.7,12.6,48.6,13.5,45.9,13.5z"/>
	<path fill="#FFFFFF" d="M55.5,13.3V8.2c0-0.8-0.3-1.3-0.9-1.3c-0.5,0-1,0.5-1.2,1.2v5.3h-2.3V1.6h2.3v4.2c0.4-0.6,1.2-1,2.5-1
		c2.3,0,3.8,1.3,3.8,2.9v5.6H55.5z"/>
</g>
</svg>
