<?xml version="1.0" encoding="utf-8"?>
<!-- Generator: Adobe Illustrator 18.1.0, SVG Export Plug-In . SVG Version: 6.00 Build 0)  -->
<svg version="1.1" id="レイヤー_1" xmlns="http://www.w3.org/2000/svg" xmlns:xlink="http://www.w3.org/1999/xlink" x="0px"
	 y="0px" viewBox="0 0 64 18" enable-background="new 0 0 64 18" xml:space="preserve">
<g>
	<path fill="#FFFFFF" d="M6.2,15.7v-0.5H2v0.5H0V2.5h10.9v13.2L6.2,15.7z M6.2,4.8H2v2.8h4.2V4.8z M6.2,9.9H2v3h4.2V9.9z"/>
	<path fill="#FFFFFF" d="M26.9,15c-1.9-0.3-3.7-1.2-4.7-2.4v1h-2.1v2.1h-1.9v-2.1H16v-1.4c-0.4,0.6-1,1.2-1.4,1.6l-0.9-2.6
		c1.3-1.2,2.4-2.8,3.1-4.3H14V4.5h4.1V2.3h1.9v2.2h6.8v2.4h-5.5c0.8,0.4,1.9,0.6,4.7,0.6c0.3,0,0.7,0,1.1,0L26.9,15z M18.2,7.9
		c-0.5,1.4-0.9,2.4-1.6,3.4h1.6V7.9z M20.1,7.9v3.4h1.2C20.7,10.4,20.3,9.4,20.1,7.9z"/>
	<path fill="#FFFFFF" d="M28.7,6.6v-2h4.6v2H28.7z M30.8,15.4v0.4H29v-4.5h4.1v4.2L30.8,15.4z M29.1,4.2V2.5H33v1.7H29.1z M29.1,8.7
		V7.1H33v1.6H29.1z M29.1,10.8V9.2H33v1.6H29.1z M31.4,13h-0.7v0.6h0.7V13z M33.2,9.9V7.8h1.4l0.1-0.8h-1.1v-2H35l0.1-0.4h-1.7V2.5
		H42v2.1h-5l-0.1,0.4h4.8v2.8h0.5v2.1H33.2z M37.5,15.7v-0.3h-2.2v0.3h-1.9v-5.4H42v5.4L37.5,15.7z M37.5,12.5h-2.2v0.9h2.2V12.5z
		 M37.3,7.1h-0.7l-0.1,0.8h0.8V7.1z"/>
</g>
</svg>
