<?xml version="1.0" encoding="utf-8"?>
<!-- Generator: Adobe Illustrator 17.1.0, SVG Export Plug-In . SVG Version: 6.00 Build 0)  -->
<!DOCTYPE svg PUBLIC "-//W3C//DTD SVG 1.1//EN" "http://www.w3.org/Graphics/SVG/1.1/DTD/svg11.dtd">

<svg enable-background="new 0 0 68.5 14.8" version="1.1" viewbox="0 0 68.5 14.8" x="0px" xml:space="preserve" xmlns="http://www.w3.org/2000/svg" xmlns:xlink="http://www.w3.org/1999/xlink" y="0px">
<g display="none" id="bg">
<rect display="inline" height="80.6" width="447.8" x="-47.2" y="-56.3"></rect>
</g>
<g id="レイヤー_1">
<g>
<path d="M7.1,13.1l0.1-0.6c-0.8,0-1.3,0-1.9,0c-0.7,0-1.4,0-2.5,0v0.7l-2.4,0c0-1.7,0.1-5,0.1-7.8
			c0-1.4,0-2.6,0-3.4c1,0,3,0.1,5,0.1c2.7,0,5.5,0,6.9-0.1c0,0.9,0,2.2,0,3.6c0,2.6,0.1,5.7,0.2,7.6L7.1,13.1z M7.2,10.3
			c0-0.9,0-1.9,0-2.9c0-1.1,0-2.2,0-3.1H2.8c0,0.7,0,1.5,0,2.3c0,1.2,0,2.5,0,3.7H7.2z" fill="#FFFFFF"></path>
<path d="M15.7,12.6c3.8-1.5,5.8-4.3,5.8-7.3h-2.7c-0.7,1.3-1.6,2.5-2.7,3.4L13.7,7c2.5-1.6,3.4-4.1,3.8-6.2
			l2.7,0.7c-0.1,0.4-0.2,0.9-0.3,1.3c1.8,0,3.4-0.2,4.8-0.5l1.1,0.9c-0.3-0.6-0.7-1.2-1.1-1.6l1-0.6c0.5,0.6,1,1.3,1.3,1.9l-1,0.5
			l1.7,1.4c0,4.4-2.2,8.1-5.9,9.6L15.7,12.6z M27.2,3.1c-0.3-0.7-0.8-1.4-1.3-2l1.6-0.8c0.6,0.7,1,1.2,1.4,2L27.2,3.1z" fill="#FFFFFF"></path>
<path d="M28.9,11.9c2.5-1,3.5-3.3,3.5-6c0-0.4,0-0.8-0.1-1.2L35,4.8c0,3.2-0.2,6.7-4,9.2L28.9,11.9z M34.6,9.5
			c1-1.5,1.7-3.7,2-5.2c-2.7,0-5,0.1-7.2,0.1l-0.1-2.5c0.7,0,1.5,0,2.3,0c2.8,0,6.1-0.2,8.6-0.5L42,3.9c-0.7,3-1.6,5.3-2.9,7.5
			L34.6,9.5z" fill="#FFFFFF"></path>
<path d="M44.6,12.5c2.9-1.6,4.8-3.9,4.8-7h-4c0,0.3,0,0.6,0,0.9c0,0.7,0,1.5,0,2.4H43c0-1,0-2,0-3.1
			c0-0.9,0-1.8,0-2.6c0.3,0,1.5,0,3,0c0-0.9,0-1.8,0-2.4l2.5,0.1c0,0.3,0,0.6,0,1c0,0.4,0,0.8,0,1.2c1.6-0.1,3.2-0.2,4.1-0.5
			l2.6,2.2c0,4.7-1.7,7.7-5,9.6L44.6,12.5z" fill="#FFFFFF"></path>
<path d="M57.1,14.1c0.1-1.6,0.1-5,0.1-7.9c0-2.4,0-4.5,0-5.4l2.7,0c0,0.8,0,3.1-0.1,5.3l1.7-2.8
			c1.9,0.4,4.8,1.3,6.8,2.1l-2.1,6.6C64.3,10.5,61.9,9,59.8,8v1.8c0,1.8,0,3.2,0,4.2L57.1,14.1z" fill="#FFFFFF"></path>
</g>
</g>
</svg>
