<?xml version="1.0" encoding="utf-8"?>
<!-- Generator: Adobe Illustrator 17.1.0, SVG Export Plug-In . SVG Version: 6.00 Build 0)  -->
<!DOCTYPE svg PUBLIC "-//W3C//DTD SVG 1.1//EN" "http://www.w3.org/Graphics/SVG/1.1/DTD/svg11.dtd">

<svg enable-background="new 0 0 145.6 16.4" version="1.1" viewbox="0 0 145.6 16.4" x="0px" xml:space="preserve" xmlns="http://www.w3.org/2000/svg" xmlns:xlink="http://www.w3.org/1999/xlink" y="0px">
<g display="none" id="bg">
<rect display="inline" height="80.6" width="447.8" x="0.7" y="-61.6"></rect>
</g>
<g id="レイヤー_1">
<g>
<path d="M6.6,8.9c1.7,0.9,1.9,1.8,1.6,2.9c-0.2,0.7-0.8,1.4-2.1,1.6c-1.1,0.2-3,0.4-5.4,0.1
			c-0.1-0.7-0.1-1.5-0.1-1.8c0.9,0.3,2,0.2,2,0.2c1,0,1.6-0.3,1.7-0.6c0.1-0.4-0.3-0.6-0.6-0.7S2.7,10.3,2.1,10
			c-1-0.4-1.5-1.3-1.5-2.3c-0.1-1.6,0.2-3,1.5-3.8C3,3.4,4.1,3.2,5.3,3.2c1.1,0,2.2,0,3,0.1c0,1.9,0,3.9,0,4.5
			c-1-0.3-1.7-0.1-1.7-0.1C6,7.9,6.2,8.7,6.6,8.9z" fill="#FFFFFF"></path>
<path d="M13,13.5c0,0,0,1.3,0,2.2c-0.5,0-2,0-3.6,0c0-0.9-0.1-6,0-10.3c1.3-0.1,4.7,0,4.7,0c2.4,0,3.6,2.1,3.6,3.8
			c0,1.4-0.5,3.4-2.3,4C15.3,13.2,14.1,13.6,13,13.5z M13,12c1,0.2,1.6-0.1,1.7-1c0.1-1.1-0.8-1.3-1.7-0.8V12z" fill="#FFFFFF"></path>
<path d="M18.4,3c1.8-0.1,3.3,0,3.7,0c0.1,4.3,0.1,9.5,0.1,10.5c-1.7,0.1-3.2,0-3.7,0C18.3,8.9,18.3,3.9,18.4,3z" fill="#FFFFFF"></path>
<path d="M26.1,13.6c-1.1,0-2.4-0.2-2.8-1.7c-0.5-1.8,0.2-2.8,1.5-3.3c0.1,0,1.4-0.5,2.9-0.2
			c0.1-0.7-0.4-0.9-0.4-0.9c0,0-1.2-0.6-3.6,0.2c0-0.2,0-0.7,0-1.1c1-0.9,7.6-2.7,7.6,2c0,0,0,3.2,0,5
			C29.1,13.6,26.1,13.6,26.1,13.6z M26.2,11.4c0,0,0,1.5,1.6,1.1c0,0,0-1.1,0-1.7C27.1,10.3,26.2,10.6,26.2,11.4z" fill="#FFFFFF"></path>
<path d="M36.9,9.6c-0.1,2,1.1,2.4,2.4,2.4l0,1.6c-4.9,0.1-5.9-0.5-5.8-4c0,0-0.5,0-1,0c0-0.6-0.1-2.5,0-4.2h1
			c0,0,0-0.7,0-1.2c0.5,0,2,0,3.5,0c0,0.5,0,1.2,0,1.2s1.2,0,2.5,0c0,0.5,0,2.4,0,4.2C38.9,9.6,37.9,9.6,36.9,9.6z" fill="#FFFFFF"></path>
<path d="M44.6,13.6c-1.5,0-2.9-0.2-3.6-1.3c-0.8-1.3-0.8-4.2-0.2-5.3c0.8-1.4,1.9-1.7,3.6-1.7
			c1.7,0,3.2,0.6,3.7,2.2c0.6,1.6,0.3,3.9-0.4,4.8C47.2,13.2,46.3,13.6,44.6,13.6z M43.7,10.6c0.1,0.5,0.4,1,1.1,1
			c0.7,0,1.2-0.2,1.2-1.1c0-0.7-0.4-1.2-1.2-1.2C43.9,9.4,43.6,10.1,43.7,10.6z" fill="#FFFFFF"></path>
<path d="M53.8,13.6c-1.5,0-2.9-0.2-3.6-1.3C49.4,10.9,49.4,8.1,50,7c0.8-1.4,1.9-1.7,3.6-1.7
			c1.7,0,3.2,0.6,3.7,2.2c0.6,1.6,0.3,3.9-0.4,4.8C56.4,13.2,55.4,13.6,53.8,13.6z M52.9,10.6c0.1,0.5,0.4,1,1.1,1
			c0.7,0,1.2-0.2,1.2-1.1c0-0.7-0.4-1.2-1.2-1.2C53.1,9.4,52.8,10.1,52.9,10.6z" fill="#FFFFFF"></path>
<path d="M64.2,9.9c0-0.3-0.1-0.9-0.7-0.9c-0.6-0.1-0.9,0.3-0.9,1c0,0,0,1,0,3.6c-1.7,0-3.4,0-3.9,0
			c-0.1-4.4,0-7.5,0-8.2c1.6,0,3,0,3.5,0c0,1.2,0.1,2.2,0.1,2.2c0.6-2.1,1.6-2.2,1.6-2.2c3.5-0.5,3.5,1.4,3.5,4.4v3.8
			c-0.4,0-1.7,0-3.2,0C64.2,11.2,64.2,9.9,64.2,9.9z" fill="#FFFFFF"></path>
<path d="M70.2,6.7c0,0,2-1.4,2.8-4.2l1.5,0.9C73.3,7.5,71,9.1,71,9.1L70.2,6.7z M77.9,14.2c0,0-0.1-0.4-0.3-1
			c-1,0.1-3.7,0.5-6.9,0.5l-0.3-2.2h1.4c1.3-2.2,2-5.2,2-5.2l1.8,0.9c0,0-0.5,1.9-1.6,4.2c1,0,2.2-0.1,2.8-0.2
			c-0.4-1-0.8-1.9-0.8-1.9l3-0.7c-1.7-1.4-2.9-3.3-3.5-5.2l3.2-0.9c1.1,1.8,3.2,2.1,3.2,2.1l-0.3,5.6c-0.6-0.3-1.2-0.6-1.7-1
			c0.6,1.2,1.4,2.8,1.9,4.1L77.9,14.2z" fill="#FFFFFF"></path>
<path d="M88.2,13.2c0,0-2.3,0.5-4.7,0.7l-0.3-2.1c0.6,0,1.2-0.1,1.8-0.1V9.8h-1.4V7.7h4.2v2.1h-1.4v1.6
			c1-0.2,1.7-0.3,1.7-0.3V13.2z M94.9,13.5c-0.6,0.4-1.5,0.7-2.3,0.7c-1.2,0-2.4-0.5-3.2-1.9c-0.8-1.3-1-3.2-1.1-5.6h-4.9V4.7h4.8
			V2.5h1.7v2.2h0.5c-0.1-0.5-0.3-1.1-0.4-1.7l3.8-0.5C94.5,4.7,94.9,7,94.9,7l-4,0.5c0,0,0-0.3-0.1-0.8h-0.8c0,0.4,0.1,1,0.2,1.5
			c0.3,1,1,1.4,1.9,1.4c0.8,0,1.8-0.4,2.7-1.3L94.9,13.5z" fill="#FFFFFF"></path>
<path d="M99.6,12.7c1.5-1.5,2.1-2.5,2.3-5.3c-0.6,0-1.4,0-2,0c0,1.1,0,2.2,0,2.9l-2.1,0c0-0.5,0-1.6,0-2.9
			c-0.6,0-1.1,0-1.6,0.1l0-2c0.5-0.1,1-0.1,1.6-0.1c0-1,0-1.8,0-2.4l2.1,0c0,0.5,0,1.3-0.1,2.2l2-0.1c0-0.7,0-1.5-0.1-2.3h4.2
			c0,0.8,0.1,1.5,0.1,2.2c0.7,0,1.3,0,1.9,0v2.7c-0.6,0-1.2-0.1-1.9-0.1c-0.2,3.5-1,5-2.4,6.5L99.6,12.7z" fill="#FFFFFF"></path>
<path d="M113.6,14c0-1,0-2.6,0-4.1c-1.1,0.4-2.3,0.7-3.4,0.9l-1.3-1.9c3.3-1.3,6.5-3.8,7.8-6.5l3.8,4.2
			c-1.4,0.9-2.9,1.8-4.5,2.4c0,1.7,0,3.4,0.1,5H113.6z" fill="#FFFFFF"></path>
<path d="M122.3,14.1c0.1-1.4,0.1-4.3,0.1-6.9c0-2,0-3.9,0-4.7l2.3,0c0,0.7,0,2.7-0.1,4.6l1.5-2.4
			c1.6,0.4,4.2,1.1,5.9,1.8l-1.8,5.7c-1.7-1.2-3.7-2.5-5.6-3.4v1.6c0,1.5,0,2.8,0,3.7L122.3,14.1z" fill="#FFFFFF"></path>
<path d="M143.3,13.9c-2.8-1.7-5.3-4.8-6.5-7.1c-0.1-0.1-0.2-0.2-0.3-0.2c-0.1,0-0.2,0.1-0.2,0.2
			c-0.5,1.3-1.3,2.8-2.4,4.3l-1.3-2.5c1-0.9,2.1-2.4,2.8-3.9c0.2-0.5,0.7-0.8,1.2-0.8c0.4,0,0.8,0.2,1.2,0.5c1.7,1.4,4.5,2.7,7.3,3
			L143.3,13.9z" fill="#FFFFFF"></path>
</g>
</g>
</svg>
