<?xml version="1.0" encoding="utf-8"?>
<!-- Generator: Adobe Illustrator 19.1.0, SVG Export Plug-In . SVG Version: 6.00 Build 0)  -->
<svg version="1.1" xmlns="http://www.w3.org/2000/svg" xmlns:xlink="http://www.w3.org/1999/xlink" x="0px" y="0px"
	 viewBox="0 0 70 31.6" style="enable-background:new 0 0 70 31.6;" xml:space="preserve">
<style type="text/css">
	.st0{display:none;}
	.st1{display:inline;}
	.st2{fill:#FFFFFF;}
</style>
<g id="bg" class="st0">
	<rect y="-49" class="st1" width="447.8" height="80.6"/>
</g>
<g id="レイヤー_1">
	<g>
		<path class="st2" d="M0.2,21.9v-9.4h7.1v2.1H2.2v1.3h4.5v1.9H2.2v1.1h5.3v3H0.2z"/>
		<path class="st2" d="M12.2,24.2v-2.7C12,21.9,11.5,22,10.9,22c-1.4,0-2.5-1.2-2.5-3.5c0-2.2,1.2-3.5,2.5-3.5
			c0.8,0,1.4,0.2,1.7,0.6l0.4-0.5h2.6v9L12.2,24.2z M12.3,17.6c-0.1-0.5-0.5-0.9-1-0.9c-0.6,0-1,0.6-1,1.9c0,1.2,0.4,1.8,1,1.8
			c0.5,0,1-0.5,1-1.2V17.6z"/>
		<path class="st2" d="M21.1,21.9v-0.7c-0.3,0.6-0.9,0.9-1.7,0.9c-1.2,0-2.3-0.9-2.3-2.3v-4.5H19v3.9c0,0.7,0.5,1,1,1
			c0.5,0,0.9-0.3,1-0.8v-4.1h3v6.7H21.1z"/>
		<path class="st2" d="M25.6,14.4v-1.9h2.7v1.9H25.6z M25.6,21.9v-6.7h2.6v6.7H25.6z"/>
		<path class="st2" d="M33.7,22c-1,0-1.8-0.3-2.1-0.7v2.9h-1.8v-9h1.6v0.7c0.3-0.5,1.2-0.8,2.3-0.8c1.8,0,3.2,1.2,3.2,3.5
			C36.9,20.8,35.5,22,33.7,22z M32.5,16.7c-0.4,0-0.9,0.6-0.9,1.3v1.5c0.1,0.5,0.5,0.8,1,0.8c0.6,0,1-0.6,1-1.9
			C33.5,17.3,33.2,16.7,32.5,16.7z"/>
		<path class="st2" d="M44.1,21.9v-4.1c0-0.7-0.3-1-0.7-1c-0.4,0-0.6,0.4-0.6,0.9v4.2h-1.7v-4.1c0-0.7-0.2-1-0.6-1
			c-0.3,0-0.6,0.3-0.7,0.9v4.3H38v-6.7h1.6v0.7c0.2-0.5,0.8-0.9,1.6-0.9c0.7,0,1.3,0.3,1.5,0.8c0.2-0.4,0.9-0.8,1.9-0.8
			c1.8,0,2.9,0.9,2.9,2.2v4.6H44.1z"/>
		<path class="st2" d="M50.7,19.3c0,0.6,0.6,1,1.1,1c0.6,0,0.9-0.3,1-0.9h3c-0.1,1.6-1.3,2.6-3.6,2.6c-1.9,0-3.3-1.4-3.3-3.5
			c0-2,1.4-3.5,3.3-3.5c2.5,0,3.7,1.2,3.7,3.6L50.7,19.3z M51.6,16.7c-0.5,0-0.9,0.5-0.9,1.2l1.9-0.3C52.6,17.1,52.2,16.7,51.6,16.7
			z"/>
		<path class="st2" d="M60.4,21.9v-4.1c0-0.6-0.3-1-0.7-1c-0.4,0-0.8,0.4-1,0.9v4.2H57v-6.7h1.6v0.7c0.3-0.5,1.1-0.9,2.1-0.9
			c1.8,0,3,1,3,2.4v4.5H60.4z"/>
		<path class="st2" d="M69.1,22c-2.4,0-3.5-0.5-3.5-2.2v-2.6h-0.7v-2.1h0.8v-2.1h2v2.1h1.4v2.1h-1.4v1.2c0,0.9,0.4,0.9,1.7,0.9
			L69.1,22z"/>
	</g>
</g>
</svg>
