<?xml version="1.0" encoding="utf-8"?>
<!-- Generator: Adobe Illustrator 19.1.0, SVG Export Plug-In . SVG Version: 6.00 Build 0)  -->
<svg version="1.1" xmlns="http://www.w3.org/2000/svg" xmlns:xlink="http://www.w3.org/1999/xlink" x="0px" y="0px"
	 viewBox="0 0 380 48" style="enable-background:new 0 0 380 48;" xml:space="preserve">
<style type="text/css">
	.st0{display:none;}
	.st1{display:inline;}
	.st2{fill:#FFFFFF;}
</style>
<g id="bg" class="st0">
	<rect x="-0.5" y="0" class="st1" width="565.6" height="48"/>
</g>
<g id="レイヤー_1">
	<g>
		<path class="st2" d="M81.1,38.9l-2-7.7H71L69,38.9h-7l8.4-32.8h14.8l10.5,32.8H81.1z M75.1,13.5h-0.2c-0.3,3.2-1.8,9.5-2.2,11.3
			h4.7C77,23,75.5,16.6,75.1,13.5z"/>
		<path class="st2" d="M110,24.8c-2.1,0-3.9,0.9-4.5,2.5v11.6h-6.9V15.5h6.4V18c1.3-2,4.1-3,9.2-3v11
			C112.8,25.2,111.3,24.8,110,24.8z"/>
		<path class="st2" d="M122.8,29.9c0.2,1.9,2,3.6,3.8,3.6c2.2,0,3.3-0.9,3.7-3.2h10.4c-0.5,5.7-4.7,9.1-12.5,9.1
			c-6.7,0-11.6-4.7-11.6-12.2c0-7.1,4.8-12.2,11.4-12.2c8.8,0,12.9,4.4,12.9,12.8L122.8,29.9z M126.1,20.8c-1.7,0-3.3,1.8-3.3,4.3
			l6.8-0.9C129.5,22.1,128.2,20.8,126.1,20.8z"/>
		<path class="st2" d="M167.4,39.2c-0.7,0.2-1.6,0.3-2.6,0.3c-3.5,0-8.1-1-8.5-2.6c-1.2,1.9-3.7,2.6-6.4,2.6c-3.6,0-6.4-2.4-6.4-6.4
			c0,0,0-0.1,0-0.1c0-4.3,1.8-6.8,6.6-8.2c2.4-0.7,4-1.4,4-2.4c0-1.3-0.6-1.6-2.4-1.6c-1.5,0-4.2,1.4-5.4,3.4l-2.3-5.2
			c1.8-2.5,6.3-3.9,10.7-3.9c7.4,0,11,2.7,11,7.9v7.6c0,1.2,0.4,1.8,1.8,1.8c0.4,0,0.9,0,1.5-0.1L167.4,39.2z M154.1,27.6
			c-0.7,0.5-1.5,1-2.7,1.5c-1.3,0.5-1.9,1.4-1.9,3c0,1.1,0.6,1.8,1.8,1.8c1.2,0,2.5-1,2.8-2.7V27.6z"/>
		<path class="st2" d="M187.3,12.7V6.1h9.3v6.6H187.3z M187.4,38.9V15.5h9.1v23.4H187.4z"/>
		<path class="st2" d="M214,38.9V24.5c0-2.3-0.9-3.7-2.5-3.7c-1.5,0-2.9,1.3-3.4,3.2v14.8h-6.3V15.5h5.8v2.6c1-1.6,4-3.2,7.5-3.2
			c6.4,0,10.6,3.6,10.6,8.2v15.7H214z"/>
		<path class="st2" d="M242.8,38.9l-5.2-9v9h-6.3V6.1h6.3V22l4.7-6.5h11.5l-7.6,9.4l8.9,14H242.8z"/>
		<path class="st2" d="M262.4,29.9c0.2,1.9,2,3.6,3.8,3.6c2.2,0,3.3-0.9,3.7-3.2h10.4c-0.5,5.7-4.7,9.1-12.5,9.1
			c-6.7,0-11.6-4.7-11.6-12.2c0-7.1,4.8-12.2,11.4-12.2c8.8,0,12.9,4.4,12.9,12.8L262.4,29.9z M265.7,20.8c-1.7,0-3.3,1.8-3.3,4.3
			l6.8-0.9C269.1,22.1,267.8,20.8,265.7,20.8z"/>
		<path class="st2" d="M297.9,38.9v-2.8c-1.1,2.6-3.7,3.3-5.6,3.3c-5,0-8.7-4.2-8.7-12.2c0-7.9,4.1-12.3,8.6-12.3
			c2.2,0,3.7,0.8,4.6,1.9V6.1h11.9v32.8H297.9z M297,24.2c-0.5-1.9-1.6-3.2-3.2-3.2c-1.9,0-3.6,2-3.6,6.3c0,4.2,1.6,6.1,3.6,6.1
			c1.8,0,3.2-1.7,3.2-4.5V24.2z"/>
	</g>
</g>
</svg>
