<?xml version="1.0" encoding="utf-8"?>
<!-- Generator: Adobe Illustrator 19.1.0, SVG Export Plug-In . SVG Version: 6.00 Build 0)  -->
<svg version="1.1" id="レイヤー_1" xmlns="http://www.w3.org/2000/svg" xmlns:xlink="http://www.w3.org/1999/xlink" x="0px"
	 y="0px" viewBox="0 0 58.3 23.1" style="enable-background:new 0 0 58.3 23.1;" xml:space="preserve">
<style type="text/css">
	.st0{display:none;}
	.st1{display:inline;}
	.st2{fill:#7BED00;}
</style>
<g id="bg" class="st0">
	<rect y="-58.8" class="st1" width="447.8" height="80.6"/>
</g>
<g>
	<path class="st2" d="M1.6,20.3V4.7h3.7v10.1h7.6v5.5H1.6z"/>
	<path class="st2" d="M17.2,16c0.1,0.9,0.9,1.7,1.8,1.7c1,0,1.6-0.4,1.7-1.5h5c-0.2,2.7-2.2,4.3-6,4.3c-3.2,0-5.5-2.3-5.5-5.8
		c0-3.4,2.3-5.8,5.4-5.8c4.2,0,6.1,2.1,6.1,6.1L17.2,16z M18.7,11.7c-0.8,0-1.6,0.8-1.6,2.1l3.2-0.4C20.4,12.3,19.7,11.7,18.7,11.7z
		"/>
	<path class="st2" d="M35.9,20.3h-6.2l-3-11.1h3.1l1.4,5.2c0.2,0.8,0.4,1.8,0.5,2.7h0.1c0-0.9,0.2-1.8,0.4-2.7l1.3-5.2h5.3
		L35.9,20.3z"/>
	<path class="st2" d="M42.7,16c0.1,0.9,0.9,1.7,1.8,1.7c1,0,1.6-0.4,1.7-1.5h5c-0.2,2.7-2.2,4.3-6,4.3c-3.2,0-5.5-2.3-5.5-5.8
		c0-3.4,2.3-5.8,5.4-5.8c4.2,0,6.1,2.1,6.1,6.1L42.7,16z M44.3,11.7c-0.8,0-1.6,0.8-1.6,2.1l3.2-0.4C45.9,12.3,45.3,11.7,44.3,11.7z
		"/>
	<path class="st2" d="M53.3,20.3V4.7h4.4v15.6H53.3z"/>
</g>
</svg>
