<?xml version="1.0" encoding="utf-8"?>
<!-- Generator: Adobe Illustrator 19.1.0, SVG Export Plug-In . SVG Version: 6.00 Build 0)  -->
<svg version="1.1" xmlns="http://www.w3.org/2000/svg" xmlns:xlink="http://www.w3.org/1999/xlink" x="0px" y="0px"
	 viewBox="0 0 82.6 30.8" style="enable-background:new 0 0 82.6 30.8;" xml:space="preserve">
<style type="text/css">
	.st0{display:none;}
	.st1{display:inline;}
	.st2{fill:#FF4E00;}
</style>
<g id="bg" class="st0">
	<rect x="0" y="-50.9" class="st1" width="447.8" height="80.6"/>
</g>
<g id="レイヤー_1">
	<g>
		<path class="st2" d="M8.3,28.2l-2.2-6H4.8v6H1.6V12.6h7.6c3,0,5.3,1.8,5.3,4.6c0,2.3-1.2,3.8-2.8,4.3l3.6,6.6H8.3z M6.3,15.6H4.8
			v3.7h1.5c1,0,1.8-0.7,1.8-1.9C8.1,16.2,7.3,15.6,6.3,15.6z"/>
		<path class="st2" d="M27.2,28.3c-0.3,0.1-0.8,0.1-1.2,0.1c-1.7,0-3.9-0.5-4.1-1.3c-0.6,0.9-1.8,1.3-3,1.3c-1.7,0-3.1-1.2-3.1-3.1
			c0,0,0,0,0-0.1c0-2,0.9-3.2,3.1-3.9c1.2-0.3,1.9-0.7,1.9-1.1c0-0.6-0.3-0.8-1.2-0.8c-0.7,0-2,0.7-2.6,1.6L16,18.6
			c0.9-1.2,3-1.8,5.1-1.8c3.5,0,5.2,1.3,5.2,3.7v3.6c0,0.6,0.2,0.8,0.8,0.8c0.2,0,0.4,0,0.7-0.1L27.2,28.3z M20.9,22.8
			c-0.3,0.3-0.7,0.5-1.3,0.7c-0.6,0.3-0.9,0.7-0.9,1.4c0,0.5,0.3,0.9,0.8,0.9c0.6,0,1.2-0.5,1.3-1.3V22.8z"/>
		<path class="st2" d="M34.9,28.2v-6.9c0-1.1-0.4-1.7-1.2-1.7c-0.7,0-1.4,0.6-1.6,1.5v7.1h-3V17h2.7v1.2c0.5-0.8,1.9-1.5,3.6-1.5
			c3,0,5.1,1.7,5.1,3.9v7.5H34.9z"/>
		<path class="st2" d="M48.6,28.2l-2.5-4.3v4.3h-3V12.6h3v7.6l2.3-3.1h5.5l-3.6,4.5l4.2,6.7H48.6z"/>
	</g>
</g>
</svg>
