<?xml version="1.0" encoding="utf-8"?>
<!-- Generator: Adobe Illustrator 17.1.0, SVG Export Plug-In . SVG Version: 6.00 Build 0)  -->
<!DOCTYPE svg PUBLIC "-//W3C//DTD SVG 1.1//EN" "http://www.w3.org/Graphics/SVG/1.1/DTD/svg11.dtd">

<svg enable-background="new 0 0 70 31.6" version="1.1" viewbox="0 0 70 31.6" x="0px" xml:space="preserve" xmlns="http://www.w3.org/2000/svg" xmlns:xlink="http://www.w3.org/1999/xlink" y="0px">
<g display="none" id="bg">
<rect display="inline" height="80.6" width="447.8" y="-49.5"></rect>
</g>
<g id="レイヤー_1">
<g>
<path d="M16.6,22.9c-1.5,1.1-1.7,2.6-0.8,3.9c0.9,1.2,2.7,2.1,5.1,2.4c0,0.8,0,1.7,0,2.1c-3.6,0.3-9.1,0-9.1,0
			c-7.1,0-8.7-5.5-4.9-9.9c-2.8,0-5.6,0-6.6,0c0-2.6,0.1-5.1,0.1-5.9c4-1.4,11.3-3.7,11.3-3.7c-4.2,0.1-6.6,0.2-7.5,0.2
			c-0.1-2.4,0-5.1,0-6c5.9-0.1,14.5,0,16.3,0c0.1,2.7,0,5.3,0,6c-3.9,1.4-9.5,3.1-9.5,3.1c6.9,0,10.2,0,11.2,0
			c0,2.8-0.1,5.7-0.1,6.6C18.7,21.5,16.6,22.8,16.6,22.9z" fill="#FFFFFF"></path>
<path d="M28.3,31.1c0-0.3-0.1-0.9,0-1.7c1.7,0,3.5-1,3.5-1c2.2-1.3,2.3-6,0-7.4c-0.1-0.1-2.1-1.2-6.8-0.8
			c0-1.1-0.1-4.4,0-8.1c4.2-0.3,8.2-0.3,8.2-0.3c2.3-0.1,7.7-0.3,9.1,6.4c1.5,7.1-1.8,10.3-5.2,11.8C37.1,30.1,33.8,31.6,28.3,31.1z
			 M27.3,10c0-0.8-0.2-2.9-0.2-4.9c1.3,0,6-0.2,10.1,0c0,0.9,0.1,3.2,0,4.7C36.1,9.8,32.5,10,27.3,10z" fill="#FFFFFF"></path>
<path d="M62.2,28.7c-2.8,2.3-7.9,2.5-11.6,0.3c-2.9-1.8-3.2-6.6-2.3-10.8h-3.1c0-1.3-0.1-6,0-10.2
			c1.3,0,5.8-0.1,10.9-0.1c-1,3.5-1.2,6.5-1.2,6.5c-0.1,2.1-0.3,6.7,3.3,6.6c2.2-0.1,3.6-2.2,2.8-7.1c0-0.1-0.2-2.2-0.6-4.1
			c0.9,0,3.2-0.1,7.5-0.1c0,1.1,0.1,4.5,0,7.6c-0.6,0-1.8,0-3.3,0C65.1,20.8,65.4,26.1,62.2,28.7z M59.4,7.6c0-0.6-0.1-1-0.1-1.9
			c0-1,0-2.4-0.1-5.4c0.6,0,2.2,0,4.1,0c0,1,0.2,4.4,0.1,7.3H59.4z M65.6,0.4c0.6,0,2.2-0.1,4.1,0c0,1,0.1,4.3,0.1,7.2
			c-0.7,0-2.3,0-4,0C65.8,6.9,65.7,5,65.6,0.4z" fill="#FFFFFF"></path>
</g>
</g>
</svg>
