<?xml version="1.0" encoding="utf-8"?>
<!-- Generator: Adobe Illustrator 19.0.0, SVG Export Plug-In . SVG Version: 6.00 Build 0)  -->
<svg version="1.1" xmlns="http://www.w3.org/2000/svg" xmlns:xlink="http://www.w3.org/1999/xlink" x="0px" y="0px"
	 viewBox="0 0 380 48" style="enable-background:new 0 0 380 48;" xml:space="preserve">
<style type="text/css">
	.st0{display:none;}
	.st1{display:inline;}
	.st2{fill:#FFFFFF;}
</style>
<g id="bg" class="st0">
	<rect x="-0.5" y="0" class="st1" width="565.6" height="48"/>
</g>
<g id="レイヤー_1">
	<g>
		<path class="st2" d="M45.3,26.4c-0.8-0.2-1.6-0.3-2.4-0.5V33c-3.1,8-11.6,14.7-32.7,14.7L7,40.1c12.2-1,16.7-5.2,18.5-7.9H5v-7.5
			h33.8c-3.4-1.2-6.7-2.7-9.9-4.8v2.8H10.4v-4c-2,1.4-4.2,2.6-6.5,3.5l-3-8.3c8.5-3.3,13.8-8,15.4-11.3h6.2C27.1,6.9,35.5,8,45.9,8
			L45.3,26.4z M19.7,10.1c-1.3,1.8-3,3.6-5,5.3h9.1C22.4,14.1,20.8,12.2,19.7,10.1z"/>
		<path class="st2" d="M84.5,48.1c-3.7-3.6-8.3-6.8-12.8-9c-1,5.5-4.9,7.5-10.1,7.5c-5.7,0-10.9-3.1-10.9-9c0-5.7,4.5-9,13.5-9.4
			c0-0.5,0-1,0-1.6C59,26.3,54.1,26,50.5,25.6l-0.1-7.2c1.6,0.1,3.2,0.1,4.9,0.1c2.8,0,5.7-0.1,8.8-0.4c0-0.8,0-1.5,0-2.3
			c-2,0-3.8,0-5.5,0c-2.2,0-4,0-5.8-0.1l0-7.2c3.3,0,7-0.2,11.1-0.7c-0.1-1.6-0.2-3.2-0.2-4.5h8.2c0,1.1,0,2.3,0,3.5
			c5.1-0.8,10.3-1.9,14.9-3.1l1,10.6C83,15,77.4,15.4,71.7,15.7c0,0.7,0,1.3,0,1.9c5.8-0.6,11.8-1.6,17.1-2.5l0.7,12.1
			c-5.2,0-11.5-0.1-17.7-0.3c0,0.5,0,1,0,1.5c7.2,0.5,15.6,1.9,20.9,3.7L84.5,48.1z M61.5,35.7c-0.3,0-0.5,0-0.8,0
			c-2.1,0-2.7,0.8-2.7,1.8c0,1.1,0.7,1.8,2.7,1.8c2.4,0,3.4-0.8,3.6-3C63.3,36,62.4,35.8,61.5,35.7z"/>
		<path class="st2" d="M132.7,18.7c1.5,2.1,2.5,4.3,3.5,6.6l-5.6,2.6c-0.9-2.6-2.4-5.4-4-7.7l3.4-1.4c-11.4,0.5-18.6,4.3-18.6,9.6
			c0,2.5,3.3,4.2,11.1,4.2c3.7,0,8.4-0.4,14.2-1.2l-3.1,16.4c-21.4,0-29.8-6.3-29.8-16.6c0-7.2,4.1-12.7,10.7-15.3
			c-6.1,0.2-12.4,0.9-17.8,1.9l-0.8-8c9.1-2.3,27.4-4.3,40.9-4.3l2.1,13.6C136.8,18.8,134.7,18.7,132.7,18.7z M125.5,29
			c-0.7-2.2-2.3-5.4-3.7-7.2l3.5-1.6c1.5,2,3.1,4.9,4,7.3L125.5,29z"/>
		<path class="st2" d="M187.8,18.9c-0.2-0.1-0.4-0.1-0.6-0.1v4.3h-4c1.1,2.2,2.8,4.8,5.1,7.5l-11.1,1.7h8.2v6.2h-20.7V40h22.8v6.6
			h-43V40h13.9v-1.5h-12.1v-6.2h9.3l-3.3-5c-1.6,1.7-3.9,3.7-6.3,4.8l-2.5-7.8c2.8-0.9,5.2-2.7,6.8-4.4c-3.1-2-6.4-3.4-6.4-3.4
			l2.7-6.3c0,0,3.8,1.7,7.1,3.7l-2,4.7l2.5,6c0,0-0.5,1-1.5,2.2c2.4-1.4,3.7-2.4,4.7-3.7h-2.8v-5.7h9.3v-1.3h-5v-2
			c-0.9,0.5-2,1-3.2,1.4l-1.6-4.6l-0.8,1.6c-3.5-2.1-7.6-4-7.6-4l2.9-6.1c0,0,4.2,1.7,7.5,3.6L155.3,8c5.5-1.9,8.1-5.1,8.1-5.1h5.9
			c0,0,4.2,2.3,19.3,2.3L187.8,18.9z M158.3,30.6c-0.6,0.7-1.9,1.7-1.9,1.7h1.9V30.6z M159,23.1l2.1,1.8h0.9c1.8,0,1.8-0.3,1.8-1.5
			c0-0.1,0-0.2,0-0.2H159z M161.4,26.7c-0.4,0.9-1.3,2.1-2.3,3.1h3.5L161.4,26.7z M166.3,8.9c-0.8,0.8-1.8,1.8-3.1,2.6h6.2
			C168.4,10.9,167.1,9.7,166.3,8.9z M170.2,26c0,4.6-1.4,5.4-5,5.4h-0.5v1h8.5C172.1,30.6,170.8,27.9,170.2,26z M173.9,14.3v1.9
			h-3.8v1.3h11.4C178.6,16.5,175.8,15.4,173.9,14.3z M170.2,23.1c0,0,0,0.8,0,1.4l9.7-1.4H170.2z"/>
		<path class="st2" d="M230.3,28.4c0,8.1-4.9,14.1-17,18.5l-10.2-7.8c6.8-3.2,10.9-6.7,10.9-10.9c0-0.4,0-0.8-0.1-1.2
			c-0.5-3-2.3-4.5-6.1-4.5c-3.1,0-7.6,1-13.8,2.9l-1.8-7.8c8.2-1.9,15.4-3,21.3-3c9.6,0,15.6,3,16.6,10.6
			C230.3,26.5,230.3,27.5,230.3,28.4z"/>
		<path class="st2" d="M257.5,15.2c-2.2,0.4-5.1,0.8-8.4,1c-2,11-4.7,22.1-7.8,31.4l-6.7-4c2.9-7.6,5.7-17.5,7.5-27.1
			c-1.8,0.1-3.7,0.1-5.4,0.1l-0.3-7.5c0.5,0,1.1,0,1.7,0c1.7,0,3.5,0,5.3-0.1c0.3-2.1,0.5-4.2,0.7-6.2l7.1,0.8
			c-0.2,1.6-0.5,3.2-0.7,4.8c2.6-0.3,5.1-0.7,7.3-1.1L257.5,15.2z M262.3,46.8c-9.2,0-14.6-3.4-14.6-11.4c0-2.3,0.5-5,1.3-8.1l6,1.3
			c-0.2,0.8-0.3,1.5-0.3,2c0,2.3,1.6,3.2,5.7,3.2c4.4,0,11.4-1.7,17.4-4.9l1,16.6C273.2,46.4,268.6,46.8,262.3,46.8z M268.5,25.5
			c-4.9,0-9.8,0.3-13.5,0.9l-0.4-8.9c4.9-1.5,13.8-2.9,21.2-3.8l0.8,12.1C274,25.6,271.3,25.5,268.5,25.5z"/>
		<path class="st2" d="M305,11.1c-0.1,0.6-0.4,1.5-0.6,2.1h22v34.5h-15.7v-1.5h-18.8v1.5h-6.4V13.1h11.8c0.3-0.6,0.6-1.4,0.8-2.1
			h-14.6V3.6h45v7.5H305z M293.9,20.3h-2v18.6h2V20.3z M302.8,20.3h-3.1v2.2h3.1V20.3z M302.8,28.3h-3.1v2.3h3.1V28.3z M302.8,36.4
			h-3.1v2.5h3.1V36.4z M310.7,20.3h-2.1v18.6h2.1V20.3z"/>
		<path class="st2" d="M346.4,21v1.9h-2.7c1.5,3.5,3.9,5.9,3.9,5.9l-2.7,8.9c0,0-1-3-1.5-6.6v16.6h-5.6V32.3
			c-0.4,4.6-1.2,8.5-1.9,10.3l-2.5-9.5c1.9-3.3,3.4-7.5,4-10.2h-3.2v-7.5h3.6v-2.8l-2.9,0.4l-1.3-7.6c6.3-0.6,10.7-2.7,10.7-2.7
			l2.9,6.3V4.9h8.2V2.7h6.7v2.2h15.5v4.9H362v1.1h14.7v4.3H362v1.1h16.4V21H346.4z M355.3,15.2h-7.5v-4.3h7.5V9.8h-7.9
			c0,0-2,1-4.1,1.5v4.1h3v0.9h9V15.2z M360.1,47.6c-1.1-3.1-1.5-6.6-1.5-6.6l7.3-0.9h-10.7l2.4,3.7c0,0-3.4,2.9-9.5,3.8l-2.5-6.2
			c4.4-0.2,7.2-1.3,7.2-1.3h-5V22.1H377v18.1h-1.5c0,0,0.9,2.9,3,6.1L360.1,47.6z M361.5,26.1h-7.6v1.3h7.6V26.1z M361.5,30.5h-7.6
			v1.3h7.6V30.5z M361.5,35h-7.6v1.3h7.6V35z"/>
	</g>
</g>
</svg>
