<?xml version="1.0" encoding="utf-8"?>
<!-- Generator: Adobe Illustrator 17.1.0, SVG Export Plug-In . SVG Version: 6.00 Build 0)  -->
<!DOCTYPE svg PUBLIC "-//W3C//DTD SVG 1.1//EN" "http://www.w3.org/Graphics/SVG/1.1/DTD/svg11.dtd">

<svg enable-background="new 0 0 58.3 23.1" id="レイヤー_1" version="1.1" viewbox="0 0 58.3 23.1" x="0px" xml:space="preserve" xmlns="http://www.w3.org/2000/svg" xmlns:xlink="http://www.w3.org/1999/xlink" y="0px">
<g>
<path d="M11,21.4c0,0-4,0.8-8.3,0.5c0-0.8,0-1.9,0-2.5c6.8,0.1,7.7-5.3,7.7-5.6c0,0-7.4,0.1-9.8,0.2
		c0-1-0.1-4,0-6.4l17.1-0.2c0.2,2.9-0.3,6.8-0.3,6.8C17.4,19.1,14.6,20.5,11,21.4z M3.1,6c-0.1-2-0.1-4.1,0-4.9c4.6,0,9.9,0,11.1,0
		c0,2,0,4,0,4.7C9.4,6,4.3,6,3.1,6z" fill="#7BED00"></path>
<path d="M19.2,9.3c0-0.9-0.1-3.6,0-6.1c1.1,0,4.9,0,8.8,0c0,0.8,0.1,3.1,0,6C27,9.2,23.2,9.3,19.2,9.3z M27.7,21.8
		c0,0-4.6,0.5-8.3,0.3c0-1-0.1-4.4,0.1-7.3c5.2,0.2,8.1-1.1,8.2-1.1c0.1-0.1,5.4-2.5,5.7-11.3c0.8,0,2.9,0,4.1,0
		c0.2,7.6-0.7,11.2-0.7,11.2C35.9,17.3,33.2,21.6,27.7,21.8z" fill="#7BED00"></path>
<path d="M47.7,20.8c-0.1,0.1-3.4,1.2-7.3,1.3c0-0.9,0-1.8,0.1-2.2c3.6-1.3,6.3-4.2,6.3-4.2c2-2.4,3.1-4.9,3.2-6.6
		c-1.3,0-2.6,0-3.7,0c0,0-0.6,1.9-1.3,3.6c-0.8,0-3.8,0.1-5.9,0c0.2-1.1,1-4.6,2.8-10.7c0.8,0,4.1-0.1,15.7,0.1
		c-0.4,6.1-2,11.3-2,11.3C54.7,16.9,50.8,19.6,47.7,20.8z" fill="#7BED00"></path>
</g>
</svg>
