<?xml version="1.0" encoding="utf-8"?>
<!-- Generator: Adobe Illustrator 17.1.0, SVG Export Plug-In . SVG Version: 6.00 Build 0)  -->
<!DOCTYPE svg PUBLIC "-//W3C//DTD SVG 1.1//EN" "http://www.w3.org/Graphics/SVG/1.1/DTD/svg11.dtd">

<svg enable-background="new 0 0 82.6 30.8" version="1.1" viewbox="0 0 82.6 30.8" x="0px" xml:space="preserve" xmlns="http://www.w3.org/2000/svg" xmlns:xlink="http://www.w3.org/1999/xlink" y="0px">
<g display="none" id="bg">
<rect display="inline" height="80.6" width="447.8" y="-51.2"></rect>
</g>
<g id="レイヤー_1">
<g>
<path d="M11.5,28.8c0,0-2.8,0.8-5.8,0.6c-0.1-1.1-0.1-2.1-0.1-2.6c5.2-0.8,5.9-4.8,5.9-4.8c0.1-0.5,0.2-1,0.2-1.6
			c0.1-0.6,0.1-1.2,0-2.1c-2.3,0.1-2.6,0.1-4.7,0.1c0,0,0.1,1.5,0,2.7c-0.9,0-3.9,0.1-6.5,0.1c-0.1-1-0.2-4.9-0.4-9.5
			c2.8-0.2,6.5-0.2,6.5-0.2s-0.1-1.7-0.1-3c0.9,0,3.5-0.1,5.7,0c0,1.4,0,2.8,0,2.8s4.5,0,6.8,0.2c0.5,4.2-0.5,9.9-0.5,9.9
			C17.8,26.1,14.9,27.9,11.5,28.8z" fill="#FF4E00"></path>
<path d="M33.1,25.1c-0.6,2.5-1.9,3.8-4.6,4.3c0,0-2.2,0.3-6.1,0.2c-0.1-0.6,0-1.5,0-1.9c3.2-0.1,4-2.7,4-2.7
			c0.3-0.8,0.4-3,0.3-4.4c0,0-3.1-0.1-5.6-0.1c0-0.8-0.1-3.3-0.1-6c1.8,0,11.6-0.1,18.7-0.1c0,0.9,0,3.7,0,6.1c-1.4,0-4.4,0-6.1,0
			C33.4,21.8,33.4,23.9,33.1,25.1z M22.9,12.7c0-0.8-0.1-2.9-0.2-4.4c1.6,0,8.8,0,14.5,0c0,0.8,0,2.7,0,4.3
			C35.7,12.7,28.5,12.8,22.9,12.7z M29.6,4.8c0-0.8,0-2,0-4.5c0.5,0,1.8,0,3.5,0c0,0.9,0.1,3.7,0,6.1c-0.6,0-2.1,0-3.4,0
			C29.7,5.9,29.6,5.5,29.6,4.8z M34.9,0.3c0.5,0,1.8,0,3.4,0c0,0.9,0.1,3.6,0.1,6c-0.6,0-1.9,0-3.3,0C35,5.8,34.9,4.2,34.9,0.3z" fill="#FF4E00"></path>
<path d="M59.2,21.1c-0.4,0.4-0.8,0.8-1.1,1.2c-0.1,0.1-1.6,1.5-3.1,2.2c0,0,1.4,1.3,2.4,1.9
			c-0.6,0.7-2.4,2.6-4,4.1c-1-0.8-4.9-4.1-7.3-6.6c0.6-0.6,2.5-2.7,3.7-3.7c0.2,0.3,0.7,0.8,1.9,1.8c1.6-1.5,2.7-2.9,2.6-4.9
			c0,0-7,0.1-12.6,0c0-0.9,0-4,0.1-6.9c1.8,0,12.1-0.1,20.5,0.1c0.2,2,0,4.3,0,4.3c-0.3,2.2-0.9,3.8-1.7,5
			C60,20.1,59.5,20.6,59.2,21.1z" fill="#FF4E00"></path>
<path d="M64,20.9c1.7-0.1,3.2-0.1,5.5-0.2v-3.6c0,0-2.2,0-3.9,0c0-0.9-0.2-3.8-0.1-7.2c1.7,0,10-0.1,14.6-0.1
			c0,0.9,0,3.5-0.1,7.1c-1.1,0-2.3,0-3.7,0.1c0,1.3,0,1.8,0,2.1c0,0.4,0,0.7-0.1,1.6c0,0,3.3,0,5.6,0.1c0,0.9,0.1,3.6,0,7
			c-1.6,0-9.5,0-17.8,0C64.2,26.9,64.1,23.6,64,20.9z" fill="#FF4E00"></path>
</g>
</g>
</svg>
