<?xml version="1.0" encoding="utf-8"?>
<!-- Generator: Adobe Illustrator 17.1.0, SVG Export Plug-In . SVG Version: 6.00 Build 0)  -->
<!DOCTYPE svg PUBLIC "-//W3C//DTD SVG 1.1//EN" "http://www.w3.org/Graphics/SVG/1.1/DTD/svg11.dtd">

<svg enable-background="new 0 0 58 34" version="1.1" viewbox="0 0 58 34" x="0px" xml:space="preserve" xmlns="http://www.w3.org/2000/svg" xmlns:xlink="http://www.w3.org/1999/xlink" y="0px">
<g display="none" id="レイヤー_1">
<text display="inline" font-family="'Splatoon'" font-size="48" transform="matrix(1 0 0 1 -0.6153 34.5203)">00</text>
</g>
<g id="レイヤー_2">
<g>
<path d="M26.1,1.4c0.1,16.4,0,31.7,0,31.7c-6.3,0.1-12.9-0.2-12.9-0.2C13,25.2,13,14.1,13,14.1
			c-1.2,0.1-2.9-0.1-2.9-0.1C9.8,8.5,10.3,1.3,10.3,1.3C18.6,1.2,26.1,1.4,26.1,1.4z" fill="#FFFFFF"></path>
<path d="M46,1.4c0.1,16.4,0,31.7,0,31.7C39.6,33.2,33,32.9,33,32.9c-0.2-7.7-0.2-18.8-0.2-18.8
			c-1.2,0.1-2.9-0.1-2.9-0.1c-0.3-5.5,0.2-12.7,0.2-12.7C38.5,1.2,46,1.4,46,1.4z" fill="#FFFFFF"></path>
</g>
</g>
</svg>
