<?xml version="1.0" encoding="utf-8"?>
<!-- Generator: Adobe Illustrator 17.1.0, SVG Export Plug-In . SVG Version: 6.00 Build 0)  -->
<!DOCTYPE svg PUBLIC "-//W3C//DTD SVG 1.1//EN" "http://www.w3.org/Graphics/SVG/1.1/DTD/svg11.dtd">

<svg enable-background="new 0 0 58 34" version="1.1" viewbox="0 0 58 34" x="0px" xml:space="preserve" xmlns="http://www.w3.org/2000/svg" xmlns:xlink="http://www.w3.org/1999/xlink" y="0px">
<g display="none" id="レイヤー_1">
<text display="inline" font-family="'Splatoon'" font-size="48" transform="matrix(1 0 0 1 -0.6153 34.5203)">00</text>
</g>
<g id="レイヤー_2">
<g>
<path d="M46,25.4c0,0,6-0.1,9.2,0c0,1.1,0.1,4,0,7.1c-2.4,0-13.6,0.1-23.6,0c0-1.1,0-3.8,0-7.1
			c4.5-1,9.4-3.5,9.1-6.8c0-0.3-0.6-4.1-9.1-3.9c0-1.9-0.1-8.6,0-12.4c3.5-1.5,12.1-1,12.2-1C48,1.4,57.2,2.9,57.2,12.9
			c0,0,0,9.2-11.2,11.5L46,25.4z" fill="#FFFFFF"></path>
</g>
</g>
</svg>
