<svg enable-background="new 0 0 36 36" viewBox="0 0 36 36" xmlns="http://www.w3.org/2000/svg" xmlns:xlink="http://www.w3.org/1999/xlink"><linearGradient id="a" gradientUnits="userSpaceOnUse" x1="10.6911" x2="13.1031" y1="18.3101" y2="7.6216"><stop offset="0"/><stop offset=".3247" stop-color="#030300"/><stop offset=".5502" stop-color="#0c0c00"/><stop offset=".7456" stop-color="#1a1b00"/><stop offset=".9229" stop-color="#2f3100"/><stop offset="1" stop-color="#3b3d00"/></linearGradient><linearGradient id="b" gradientTransform="matrix(.9708 .24 -.24 .9708 -75.5964 219.5705)" gradientUnits="userSpaceOnUse" x1="41.3386" x2="41.3386" y1="-205.1927" y2="-228.3435"><stop offset="0" stop-color="#f8efab"/><stop offset=".00930506" stop-color="#f8efac"/><stop offset=".2967" stop-color="#fbf6d0"/><stop offset=".5662" stop-color="#fdfbea"/><stop offset=".8084" stop-color="#fffefa"/><stop offset="1" stop-color="#fff"/></linearGradient><linearGradient id="c"><stop offset="0" stop-color="#ff3b6a"/><stop offset=".2301" stop-color="#e83828"/><stop offset=".3408" stop-color="#e83f2b"/><stop offset=".5042" stop-color="#e75333"/><stop offset=".7003" stop-color="#e57441"/><stop offset=".9199" stop-color="#e3a153"/><stop offset="1" stop-color="#e2b35b"/></linearGradient><linearGradient id="d" gradientTransform="matrix(.9695 -.245 .245 .9695 29.7879 -249.8283)" gradientUnits="userSpaceOnUse" x1="-72.0637" x2="-72.0637" xlink:href="#c" y1="253.114" y2="248.9855"/><linearGradient id="e" gradientTransform="matrix(.9937 .1118 -.1118 .9937 -40.1898 103.985)" gradientUnits="userSpaceOnUse" x1="54.402" x2="54.402" xlink:href="#c" y1="-98.0993" y2="-102.2284"/><linearGradient id="f" gradientTransform="matrix(.8859 .4638 -.4638 .8859 -236.6734 416.2227)" gradientUnits="userSpaceOnUse" x1="47.1875" x2="47.1875" xlink:href="#c" y1="-479.9887" y2="-484.1179"/><linearGradient id="g"><stop offset=".4292" stop-color="#fa3a00"/><stop offset=".5181" stop-color="#fb4700"/><stop offset=".8374" stop-color="#fe7200"/><stop offset="1" stop-color="#ff8300"/></linearGradient><linearGradient id="h" gradientTransform="matrix(.9596 .2165 -.2129 .9433 -78.6651 189.3495)" gradientUnits="userSpaceOnUse" x1="51.7842" x2="51.7842" xlink:href="#g" y1="-185.8123" y2="-192.5527"/><linearGradient id="i" gradientTransform="matrix(.9596 .2165 -.2129 .9433 -78.6651 189.3495)" gradientUnits="userSpaceOnUse" x1="51.9918" x2="51.9918" y1="-185.8123" y2="-191.6358"><stop offset="0" stop-color="#ffa000"/><stop offset=".3704" stop-color="#feb600"/><stop offset="1" stop-color="#fce300"/></linearGradient><linearGradient id="j" gradientTransform="matrix(.9596 .2165 -.2129 .9433 -78.6651 189.3495)" gradientUnits="userSpaceOnUse" x1="54.2315" x2="54.2315" xlink:href="#g" y1="-191.3731" y2="-191.6358"/><linearGradient id="k" gradientTransform="matrix(.9596 .2165 -.2129 .9433 -78.6651 189.3495)" gradientUnits="userSpaceOnUse" x1="52.6526" x2="52.6526" xlink:href="#g" y1="-185.8123" y2="-188.9713"/><circle cx="18" cy="18" r="17.7"/><path d="m11.8 16.8-4.1.8-1.5-3.8 2-4.2 5.5-1.8 2.6 1.5.3.1.9 3.1-3.6 4.7z" fill="url(#a)"/><path d="m30 19.5c-.4-1.8-1.8-3.7-4-4.3-2.3-.6-4.2.3-5.1 2.2-.3.8-.4 1.6-.5 2.4-.1 1.1-.2 2.2-1 2.8-2 1.6-3.5 2.1-4.6 2.4-.7-.3-1.8-2.3-1.7-5.1 0-1.4.9-1.8 1.8-2.3.8-.4 1.7-.8 2.1-2 .3-.8.6-2.3.4-3.3-.1-.5-.4-.8-.6-.8-1-.2-1.4.5-1.5 1.2s.1 1.6-1.4 1.9c-.6.1-1.1.6-1.5 1-.7.6-1.4 1.3-2.8 1-.1 0-.2-.1-.3-.1-2.1-.7-2-2.1-1.8-2.7.3-1 .8-1.2 1.6-1.1.3.1 1 .5 1.2.9.3.4-.1.6-.4.3-.4-.4-1.1-.2-1.1.5-.1.6.4.9.8 1.1.5.3 1.4.4 2.5-.6.4-.4.8-1.2.5-2-.1-.3-.6-1-1.2-1.5-.3-.2-.5-.5-.5-.7 0-.1 0-.1.1-.2s.4-.1.6 0c.4.2.9.7 1.3 1.1.4.5.7 1.5.4 2.2 0 0 .2 0 .3-.1.4-.3.4-.5.5-.8.2-1.4-.6-2.4-1.2-2.9-.2-.2-.4-.2-.4-.4 0-.1.1-.2.2-.3.2-.1.6 0 .9.2.6.4 1.3 1.6 1.1 2.7.2.1.3 0 .6-.5.1-.3.2-.9 0-1.5-.1-.4-.6-1.1-1.1-1.5-.4-.3.1-.6.4-.5s1 .6 1.2 1.3c.2.5.2 1.2.1 1.6.7 0 .7-.8.8-1.1.3-1.7-1.5-3.3-3.1-3.7-2.1-.5-3.2.4-4.2 1.5-.9 1.1-2.6 1.9-3.6 2.5-1.6 1-1.4 2.9-1.2 4.3.2 1.8 1.5 4 4.7 4.7 0 0-.1 1.9.5 4.8.6 2.8 1.1 5.4 3 5.9.5.1 1.4.3 2.9 0 3.8-.8 6.9-1.9 11.9-5.8 1.6-1.1 2.8-3.2 2.4-4.7z" fill="url(#b)"/><path d="m19.7 9.9s1.1 2.5 1.9 3.4c0 0 1-.3 1.6-.5 0 0-.5-2.2-1.2-3.8 0-.1-1.9.5-2.3.9z" fill="url(#d)"/><path d="m23.9 8.7s.2 2.7.6 3.8c0 0 1 .1 1.7 0 0 0 .4-2.2.2-4 0 .1-1.9-.1-2.5.2z" fill="url(#e)"/><path d="m28.3 8.9s-.8 2.6-.8 3.8c0 0 .9.5 1.5.6 0 0 1.1-1.9 1.7-3.6 0 .1-1.8-.8-2.4-.8z" fill="url(#f)"/><path d="m8.4 20.6c-.2-.3.1-.5.4-.5s.7.7 2.4.5 2.2-.9 2.3-1.2.7-.3.7.6-.1 2.7.1 2.9 0 1.9-1.6 2.2-2.8 0-3.3-.6c-.4-.4-.3-2.7-1-3.9z" fill="url(#h)"/><path d="m14.3 23c-.2-.2-.2-1.7-.1-2.7-.1.3-.7 1.1-2.9 1.2-1.5.1-2.2-.3-2.6-.5.5 1.2.5 3 .8 3.6.4.6 1.7.9 3.3.6 1.5-.3 1.7-2 1.5-2.2z" fill="url(#i)"/><path d="m14.1 20.6c0-.1 0-.2 0-.3z" fill="url(#j)"/><path d="m14.3 23c-.2.6-.7 1.3-1.7 1.4-1.4.3-2.6.1-3.3-.3.1.2.1.4.2.5.4.6 1.7.9 3.3.6 1.5-.3 1.7-2 1.5-2.2z" fill="url(#k)"/></svg>