<?xml version="1.0" encoding="utf-8"?>
<!-- Generator: Adobe Illustrator 19.1.0, SVG Export Plug-In . SVG Version: 6.00 Build 0)  -->
<svg version="1.1" xmlns="http://www.w3.org/2000/svg" xmlns:xlink="http://www.w3.org/1999/xlink" x="0px" y="0px"
	 viewBox="0 0 44 12" style="enable-background:new 0 0 44 12;" xml:space="preserve">
<style type="text/css">
	.st0{display:none;}
	.st1{display:inline;}
	.st2{fill:#FFFFFF;}
</style>
<g id="bg" class="st0">
	<rect y="-68.6" class="st1" width="447.8" height="80.6"/>
</g>
<g id="レイヤー_1">
	<g>
		<path class="st2" d="M0.6,9.5V3.2h1.5v4.1h3v2.2H0.6z"/>
		<path class="st2" d="M8.1,9.6c-1.5,0-2.4-0.9-2.4-2.3c0-1.4,1-2.3,2.4-2.3c1.5,0,2.4,0.9,2.4,2.3C10.5,8.7,9.6,9.6,8.1,9.6z
			 M7.7,6C7.2,6,6.9,6.5,6.9,7.3s0.3,1.2,0.7,1.2c0.5,0,0.7-0.5,0.7-1.2C8.4,6.5,8.1,6,7.7,6z"/>
		<path class="st2" d="M15.6,9.5c-0.1,0-0.3,0-0.5,0c-0.7,0-1.6-0.2-1.6-0.5c-0.2,0.4-0.7,0.5-1.2,0.5c-0.7,0-1.2-0.5-1.2-1.2
			c0,0,0,0,0,0c0-0.8,0.4-1.3,1.2-1.6C12.8,6.6,13,6.5,13,6.3C13,6.1,12.9,6,12.6,6c-0.3,0-0.8,0.3-1,0.6l-0.4-1
			c0.4-0.5,1.2-0.7,2-0.7c1.4,0,2.1,0.5,2.1,1.5v1.4c0,0.2,0.1,0.3,0.3,0.3c0.1,0,0.2,0,0.3,0L15.6,9.5z M13.1,7.3
			c-0.1,0.1-0.3,0.2-0.5,0.3c-0.2,0.1-0.4,0.3-0.4,0.6c0,0.2,0.1,0.4,0.3,0.4c0.2,0,0.5-0.2,0.5-0.5V7.3z"/>
		<path class="st2" d="M18.9,9.5V8.9c-0.2,0.5-0.7,0.6-1.1,0.6c-1,0-1.6-0.8-1.6-2.3c0-1.5,0.8-2.3,1.6-2.3c0.4,0,0.7,0.1,0.9,0.4
			v-2H21v6.2H18.9z M18.7,6.7c-0.1-0.4-0.3-0.6-0.6-0.6c-0.4,0-0.7,0.4-0.7,1.2c0,0.8,0.3,1.2,0.7,1.2c0.4,0,0.6-0.3,0.6-0.8V6.7z"
			/>
		<path class="st2" d="M22.1,4.5V3.2h1.8v1.2H22.1z M22.1,9.5V5h1.7v4.5H22.1z"/>
		<path class="st2" d="M27.2,9.5V6.7C27.2,6.3,27,6,26.7,6c-0.3,0-0.6,0.2-0.6,0.6v2.8h-1.2V5h1.1v0.5c0.2-0.3,0.8-0.6,1.4-0.6
			c1.2,0,2,0.7,2,1.6v3H27.2z"/>
		<path class="st2" d="M32.6,11.1c-0.8,0-1.4-0.1-1.9-0.2l-0.2-1.2c0.4,0.1,0.9,0.2,1.3,0.2c0.7,0,1-0.2,1-0.7V8.9
			c-0.2,0.2-0.5,0.3-0.9,0.3c-0.8,0-1.6-0.7-1.6-2.1c0-1.4,0.8-2.2,1.6-2.2c0.5,0,0.9,0.2,1,0.5L33,5h1.9v4.2
			C34.9,10.5,34,11.1,32.6,11.1z M32.8,6.6c-0.1-0.3-0.3-0.5-0.7-0.5c-0.4,0-0.7,0.3-0.7,1.1c0,0.7,0.3,1.1,0.7,1.1
			c0.4,0,0.6-0.3,0.6-0.8V6.6z"/>
		<path class="st2" d="M36,9.5V8h1.8v1.5H36z"/>
		<path class="st2" d="M38.9,9.5V8h1.8v1.5H38.9z"/>
		<path class="st2" d="M41.9,9.5V8h1.8v1.5H41.9z"/>
	</g>
</g>
</svg>
