<?xml version="1.0" encoding="UTF-8"?>
<svg version="1.1" xmlns="http://www.w3.org/2000/svg" width="494" height="114">
<path d="M0 0 C9.36246538 8.7250812 15.80912106 19.69282175 16.54296875 32.53515625 C16.99459697 46.18436479 14.0288587 57.96908858 5 68.5859375 C-4.76125421 78.69205937 -15.25300166 84.69081233 -29.62841797 85.31884766 C-42.39290028 85.47469841 -52.85848467 82.03517485 -62.66796875 73.84375 C-63.37695312 73.25851563 -64.0859375 72.67328125 -64.81640625 72.0703125 C-73.55232861 64.13769335 -79.05771196 53.1839262 -79.9140625 41.48046875 C-80.42800944 26.23337608 -75.95645151 13.39825142 -65.60546875 2.15625 C-47.2103662 -15.33926069 -19.60229262 -15.84255568 0 0 Z " fill="#A00C0C" transform="translate(91.66796875,19.15625)"/>
<path d="M0 0 C9.36246538 8.7250812 15.80912106 19.69282175 16.54296875 32.53515625 C16.99459697 46.18436479 14.0288587 57.96908858 5 68.5859375 C-4.76125421 78.69205937 -15.25300166 84.69081233 -29.62841797 85.31884766 C-42.39290028 85.47469841 -52.85848467 82.03517485 -62.66796875 73.84375 C-63.37695312 73.25851563 -64.0859375 72.67328125 -64.81640625 72.0703125 C-73.55232861 64.13769335 -79.05771196 53.1839262 -79.9140625 41.48046875 C-80.42800944 26.23337608 -75.95645151 13.39825142 -65.60546875 2.15625 C-47.2103662 -15.33926069 -19.60229262 -15.84255568 0 0 Z M-68.66796875 19.84375 C-69.61671875 20.75125 -70.56546875 21.65875 -71.54296875 22.59375 C-76.8533797 28.21653806 -76.14062493 33.90765064 -75.97265625 41.1875 C-75.44063948 52.07405795 -71.00641774 60.8693021 -63.66796875 68.84375 C-51.58332529 79.33099806 -40.43568009 81.66229645 -24.87402344 81.01416016 C-13.94424403 80.16987219 -4.61335457 74.25458389 2.65625 66.30078125 C11.89624568 54.46470546 13.45404355 42.40008892 12.33203125 27.84375 C12.04526691 26.16844254 11.73576155 24.49477717 11.33203125 22.84375 C10.01203125 22.84375 8.69203125 22.84375 7.33203125 22.84375 C5.32421875 21.0859375 5.32421875 21.0859375 3.20703125 18.71875 C-6.34825768 8.75618646 -18.09339533 4.04387884 -31.79296875 3.59375 C-46.36484675 3.79120092 -58.3455079 9.82627095 -68.66796875 19.84375 Z " fill="#D90303" transform="translate(91.66796875,19.15625)"/>
<path d="M0 0 C6.98842263 5.14991383 12.93359963 12.12381549 16.23828125 20.23828125 C15.86328125 23.98828125 15.86328125 23.98828125 15.23828125 27.23828125 C14.72265625 26.55765625 14.20703125 25.87703125 13.67578125 25.17578125 C4.67559028 14.32939726 -6.41475655 6.67297747 -20.76171875 5.23828125 C-34.96503035 4.2867522 -47.6658272 8.1923644 -58.69921875 17.30078125 C-60.72182428 19.13512517 -62.28858272 20.89686122 -64.01171875 23.05078125 C-65.76171875 25.23828125 -65.76171875 25.23828125 -68.76171875 26.23828125 C-68.32532481 17.94679637 -62.39311716 9.99766599 -56.76171875 4.23828125 C-53.57188746 1.64190694 -50.26746517 -0.61353882 -46.76171875 -2.76171875 C-46.05789062 -3.20128906 -45.3540625 -3.64085937 -44.62890625 -4.09375 C-31.11436921 -10.94789692 -12.22375779 -7.79761636 0 0 Z " fill="#A10C0C" transform="translate(85.76171875,18.76171875)"/>
<path d="M0 0 C4.52966583 2.47551505 7.16586374 5.37259122 8.8125 10.3125 C9.0811631 15.68576197 9.07009504 20.32697761 6.8125 25.3125 C2.80832174 29.46342825 -1.52406088 30.67225032 -7.1875 30.9375 C-12.85564725 30.67202981 -17.17632594 29.46017998 -21.1875 25.3125 C-22.6875 22.0625 -22.6875 22.0625 -23.1875 18.3125 C-23.290625 17.59707031 -23.39375 16.88164063 -23.5 16.14453125 C-23.87877571 11.55976688 -23.21891117 8.72740599 -20.5625 4.9375 C-14.87852334 -1.74483321 -8.12657905 -3.70897671 0 0 Z " fill="#EED5D5" transform="translate(67.1875,57.6875)"/>
<path d="M0 0 C3.50128602 2.83699067 6.78221779 5.84716385 10 9 C10.58910156 9.52335937 11.17820312 10.04671875 11.78515625 10.5859375 C13 12 13 12 13 15 C10.75 16.8125 10.75 16.8125 8 18 C5.07818913 17.29168221 4.12842295 16.17781639 2.375 13.75 C-3.25550876 7.23046354 -12.39056964 2.59908617 -20.98779297 1.81982422 C-34.22733372 1.00995097 -43.60962408 2.64965145 -54.08203125 11.25 C-56.34265979 13.31265089 -58.25006546 15.48922436 -60 18 C-64.75 16.125 -64.75 16.125 -67 15 C-66.39709015 9.77478129 -62.71679889 6.42123278 -58.8671875 3.234375 C-41.14178401 -9.8744443 -18.97954183 -12.31105416 0 0 Z " fill="#FAF3F3" transform="translate(87,31)"/>
<path d="M0 0 C1.32 0 2.64 0 4 0 C4 1.32 4 2.64 4 4 C7.96 4 11.92 4 16 4 C16.66 6.31 17.32 8.62 18 11 C18.66 8.69 19.32 6.38 20 4 C22.31 4 24.62 4 27 4 C27.66 6.31 28.32 8.62 29 11 C29.66 8.69 30.32 6.38 31 4 C32.98 4 34.96 4 37 4 C36.41632611 10.30367803 34.95928381 15.98660063 33 22 C30.69 22 28.38 22 26 22 C24.515 18.535 24.515 18.535 23 15 C22.34 17.31 21.68 19.62 21 22 C18.69 22 16.38 22 14 22 C12.68 17.71 11.36 13.42 10 9 C8.02 9 6.04 9 4 9 C4.33 11.64 4.66 14.28 5 17 C6.32 17.33 7.64 17.66 9 18 C9 19.32 9 20.64 9 22 C2.6690539 23.3392386 2.6690539 23.3392386 -0.21875 21.875 C-2 20 -2 20 -2.390625 17.30078125 C-2.34421875 16.31464844 -2.2978125 15.32851563 -2.25 14.3125 C-2.19585937 12.82169922 -2.19585937 12.82169922 -2.140625 11.30078125 C-2.09421875 10.54152344 -2.0478125 9.78226563 -2 9 C-2.66 9 -3.32 9 -4 9 C-4 7.68 -4 6.36 -4 5 C-3.34 4.67 -2.68 4.34 -2 4 C-0.86649466 1.98330173 -0.86649466 1.98330173 0 0 Z " fill="#000000" transform="translate(376,47)"/>
<path d="M0 0 C3.30666868 2.38521674 6.38682903 4.85774256 9 8 C9 8.99 9 9.98 9 11 C6.75 12.8125 6.75 12.8125 4 14 C0.443773 12.99981116 -2.14984586 10.28012331 -5 8 C-10.32793102 4.60840508 -16.94727471 5.43406673 -23 6 C-27.54897896 7.47822767 -30.84059855 10.46147038 -34 14 C-38.75 12.125 -38.75 12.125 -41 11 C-40.26498899 6.40869835 -37.83500485 4.55287323 -34.3671875 1.68359375 C-23.71598471 -5.89176665 -11.44776014 -6.06848959 0 0 Z " fill="#FAF3F3" transform="translate(76,45)"/>
<path d="M0 0 C2.64 0 5.28 0 8 0 C10.3125 2.625 10.3125 2.625 12 6 C12.5775 7.11375 13.155 8.2275 13.75 9.375 C14.1625 10.24125 14.575 11.1075 15 12 C15.33 8.04 15.66 4.08 16 0 C17.98 0 19.96 0 22 0 C22 7.59 22 15.18 22 23 C19.36 23 16.72 23 14 23 C11.6875 20.59375 11.6875 20.59375 10 17.5 C9.4225 16.4790625 8.845 15.458125 8.25 14.40625 C7.8375 13.6121875 7.425 12.818125 7 12 C6.67 15.63 6.34 19.26 6 23 C4.02 23 2.04 23 0 23 C0 15.41 0 7.82 0 0 Z " fill="#000000" transform="translate(329,46)"/>
<path d="M0 0 C3.5 0.1875 3.5 0.1875 5.5 1.1875 C5.17 2.5075 4.84 3.8275 4.5 5.1875 C2.85 5.1875 1.2 5.1875 -0.5 5.1875 C-0.5 5.8475 -0.5 6.5075 -0.5 7.1875 C0.82 7.1875 2.14 7.1875 3.5 7.1875 C3.5 8.8375 3.5 10.4875 3.5 12.1875 C2.18 12.1875 0.86 12.1875 -0.5 12.1875 C-0.5 16.4775 -0.5 20.7675 -0.5 25.1875 C-2.48 25.1875 -4.46 25.1875 -6.5 25.1875 C-6.5 20.8975 -6.5 16.6075 -6.5 12.1875 C-9.14 12.1875 -11.78 12.1875 -14.5 12.1875 C-14.5 15.1575 -14.5 18.1275 -14.5 21.1875 C-12.85 21.1875 -11.2 21.1875 -9.5 21.1875 C-9.5 22.5075 -9.5 23.8275 -9.5 25.1875 C-16.125 26.3125 -16.125 26.3125 -19.5 25.1875 C-20.82229189 22.54291621 -20.59677194 20.50988699 -20.5625 17.5625 C-20.55347656 16.55960938 -20.54445312 15.55671875 -20.53515625 14.5234375 C-20.51775391 13.36714844 -20.51775391 13.36714844 -20.5 12.1875 C-21.49 11.8575 -22.48 11.5275 -23.5 11.1875 C-23.17 10.1975 -22.84 9.2075 -22.5 8.1875 C-21.84 8.1875 -21.18 8.1875 -20.5 8.1875 C-19.84 6.5375 -19.18 4.8875 -18.5 3.1875 C-17.18 3.1875 -15.86 3.1875 -14.5 3.1875 C-14.5 4.5075 -14.5 5.8275 -14.5 7.1875 C-13.71625 7.1875 -12.9325 7.1875 -12.125 7.1875 C-10.58333333 7.1875 -9.04166667 7.1875 -7.5 7.1875 C-7.21125 6.40375 -6.9225 5.62 -6.625 4.8125 C-4.94629063 0.89551146 -4.34576259 0.23280871 0 0 Z " fill="#000000" transform="translate(209.5,43.8125)"/>
<path d="M0 0 C13.30214205 -0.49267193 13.30214205 -0.49267193 16.41796875 1.70703125 C18.74821381 5.08444817 18.61851523 7.58313173 18.453125 11.58203125 C18 14 18 14 15.8125 17.125 C12.81690334 19.12206444 11.51088794 19.50155542 8 19 C7.67 21.31 7.34 23.62 7 26 C4.69 26 2.38 26 0 26 C0 17.42 0 8.84 0 0 Z M7 5 C7 7.64 7 10.28 7 13 C8.32 13.33 9.64 13.66 11 14 C12.35439668 11.29120665 12.06501451 8.99066732 12 6 C10.35 5.67 8.7 5.34 7 5 Z " fill="#000000" transform="translate(139,51)"/>
<path d="M0 0 C1.98 0 3.96 0 6 0 C7.66342837 1.66342837 7.36048097 3.7825709 7.5625 6.0625 C7.64628906 6.98160156 7.73007812 7.90070312 7.81640625 8.84765625 C7.87699219 9.55792969 7.93757813 10.26820312 8 11 C8.53625 10.34 9.0725 9.68 9.625 9 C12 7 12 7 15.25 6.75 C16.1575 6.8325 17.065 6.915 18 7 C16.70700306 9.88437779 15.34058637 11.87219421 13 14 C14.45044271 18.10958767 16.51110752 21.43258745 19 25 C15.75 25.3125 15.75 25.3125 12 25 C9.5625 22.5 9.5625 22.5 8 20 C7.67 21.65 7.34 23.3 7 25 C4.69 25 2.38 25 0 25 C0 16.75 0 8.5 0 0 Z " fill="#000000" transform="translate(449,44)"/>
<path d="M0 0 C1.32 0 2.64 0 4 0 C4 1.32 4 2.64 4 4 C4.99 4.33 5.98 4.66 7 5 C7.33 3.68 7.66 2.36 8 1 C8.66 1 9.32 1 10 1 C10 1.66 10 2.32 10 3 C10.66 3 11.32 3 12 3 C12 3.66 12 4.32 12 5 C12.66 4.67 13.32 4.34 14 4 C14 3.01 14 2.02 14 1 C15.65 1 17.3 1 19 1 C19.33 2.32 19.66 3.64 20 5 C19.030625 5.268125 18.06125 5.53625 17.0625 5.8125 C16.051875 6.204375 15.04125 6.59625 14 7 C13.67 7.99 13.34 8.98 13 10 C10.69 10 8.38 10 6 10 C6 10.66 6 11.32 6 12 C7.98 12.66 9.96 13.32 12 14 C12.33 13.01 12.66 12.02 13 11 C13.33 11.66 13.66 12.32 14 13 C14.66 12.67 15.32 12.34 16 12 C15.67 10.68 15.34 9.36 15 8 C16.32 8 17.64 8 19 8 C19.33 9.65 19.66 11.3 20 13 C19.01 13.33 18.02 13.66 17 14 C17 16.97 17 19.94 17 23 C16.34 22.34 15.68 21.68 15 21 C14.34 21.66 13.68 22.32 13 23 C12.67 22.01 12.34 21.02 12 20 C11.34 20.99 10.68 21.98 10 23 C10 21.35 10 19.7 10 18 C9.34 18 8.68 18 8 18 C8 19.65 8 21.3 8 23 C7.34 22.01 6.68 21.02 6 20 C5.34 20.99 4.68 21.98 4 23 C3.67 22.34 3.34 21.68 3 21 C2.67 21.66 2.34 22.32 2 23 C1.34 22.67 0.68 22.34 0 22 C1.32 17.05 2.64 12.1 4 7 C2.02 6.34 0.04 5.68 -2 5 C-1.125 1.125 -1.125 1.125 0 0 Z " fill="#F6EAEA" transform="translate(51,61)"/>
<path d="M0 0 C0.66 0.33 1.32 0.66 2 1 C1.67 2.32 1.34 3.64 1 5 C-1.64 5 -4.28 5 -7 5 C-5.86467415 8.40597755 -5.51883178 8.53452572 -2.5 10.0625 C0.89821183 11.79642366 0.89821183 11.79642366 2 14 C2.45878309 19.39070132 2.45878309 19.39070132 0.76171875 21.64453125 C-1.38322174 23.29485132 -2.75834248 23.51506545 -5.4375 23.75 C-6.19933594 23.82734375 -6.96117187 23.9046875 -7.74609375 23.984375 C-10.01666179 24.00011551 -11.8338125 23.65133656 -14 23 C-14 21.02 -14 19.04 -14 17 C-11.03 17.33 -8.06 17.66 -5 18 C-6.13532585 14.59402245 -6.48116822 14.46547428 -9.5 12.9375 C-12.89821183 11.20357634 -12.89821183 11.20357634 -14 9 C-14.45693563 3.63100635 -14.45693563 3.63100635 -12.6875 1.1875 C-8.40885578 -1.82339779 -4.86318799 -0.7719346 0 0 Z " fill="#000000" transform="translate(135,46)"/>
<path d="M0 0 C1.31291016 -0.03867187 1.31291016 -0.03867187 2.65234375 -0.078125 C5.0625 0.25 5.0625 0.25 6.8671875 1.28515625 C8.72827521 4.3443952 8.37608971 7.47488269 8.25 10.9375 C8.22969727 11.9903418 8.22969727 11.9903418 8.20898438 13.06445312 C8.17370182 14.79329829 8.11989583 16.52174765 8.0625 18.25 C7.14726562 18.23453125 6.23203125 18.2190625 5.2890625 18.203125 C1.97226595 18.14999741 1.97226595 18.14999741 -1.5625 19 C-4.9375 19.25 -4.9375 19.25 -7.4375 17.6875 C-8.9375 15.25 -8.9375 15.25 -8.875 12.125 C-7.9375 9.25 -7.9375 9.25 -4.9375 7.25 C-2.60550612 7.17094936 -0.26917378 7.16201231 2.0625 7.25 C1.7325 6.59 1.4025 5.93 1.0625 5.25 C-1.2475 5.25 -3.5575 5.25 -5.9375 5.25 C-6.2675 3.93 -6.5975 2.61 -6.9375 1.25 C-4.48367866 0.02308933 -2.73765897 0.04824069 0 0 Z M-1.9375 11.25 C-1.9375 12.24 -1.9375 13.23 -1.9375 14.25 C-0.6175 13.92 0.7025 13.59 2.0625 13.25 C2.0625 12.26 2.0625 11.27 2.0625 10.25 C-0.0120356 10.1009288 -0.0120356 10.1009288 -1.9375 11.25 Z " fill="#000000" transform="translate(298.9375,50.75)"/>
<path d="M0 0 C1.31291016 -0.03867187 1.31291016 -0.03867187 2.65234375 -0.078125 C5.0625 0.25 5.0625 0.25 6.8671875 1.28515625 C8.72827521 4.3443952 8.37608971 7.47488269 8.25 10.9375 C8.22969727 11.9903418 8.22969727 11.9903418 8.20898438 13.06445312 C8.17370182 14.79329829 8.11989583 16.52174765 8.0625 18.25 C7.14726562 18.23582031 6.23203125 18.22164062 5.2890625 18.20703125 C1.97600739 18.15797675 1.97600739 18.15797675 -1.5625 18.9375 C-4.9375 19.25 -4.9375 19.25 -7.375 18.1875 C-8.9375 16.25 -8.9375 16.25 -9.4375 13.25 C-8.9375 10.25 -8.9375 10.25 -7.375 8.375 C-4.13476212 6.8795056 -1.46143641 7.04669598 2.0625 7.25 C1.7325 6.59 1.4025 5.93 1.0625 5.25 C-1.2475 5.25 -3.5575 5.25 -5.9375 5.25 C-6.2675 3.93 -6.5975 2.61 -6.9375 1.25 C-4.48367866 0.02308933 -2.73765897 0.04824069 0 0 Z M-1.5625 11.75 C-2.01625 12.245 -2.47 12.74 -2.9375 13.25 C-1.6175 13.58 -0.2975 13.91 1.0625 14.25 C1.3925 12.93 1.7225 11.61 2.0625 10.25 C-0.06114481 10.02390663 -0.06114481 10.02390663 -1.5625 11.75 Z " fill="#000000" transform="translate(176.9375,50.75)"/>
<path d="M0 0 C2.5625 1.5625 2.5625 1.5625 4 4 C4.25 7.75 4.25 7.75 4 11 C0.37 11 -3.26 11 -7 11 C-6.67 11.66 -6.34 12.32 -6 13 C-3.03 13 -0.06 13 3 13 C3 14.65 3 16.3 3 18 C-1.6135246 19.53784153 -5.43721569 19.74741859 -9.875 17.625 C-12 16 -12 16 -13 14 C-13.48007335 9.48258847 -13.77748714 5.41975913 -11.5625 1.375 C-7.7208786 -0.68635782 -4.2605575 -0.75830106 0 0 Z M-6 4 C-6.33 4.99 -6.66 5.98 -7 7 C-5.35 7 -3.7 7 -2 7 C-2.33 6.01 -2.66 5.02 -3 4 C-3.99 4 -4.98 4 -6 4 Z " fill="#000000" transform="translate(367,51)"/>
<path d="M0 0 C2.5625 1.5625 2.5625 1.5625 4 4 C4.25 7.75 4.25 7.75 4 11 C0.37 11 -3.26 11 -7 11 C-6.67 11.66 -6.34 12.32 -6 13 C-3.03 13 -0.06 13 3 13 C3 14.65 3 16.3 3 18 C-1.6135246 19.53784153 -5.43721569 19.74741859 -9.875 17.625 C-12 16 -12 16 -13 14 C-13.48007335 9.48258847 -13.77748714 5.41975913 -11.5625 1.375 C-7.7208786 -0.68635782 -4.2605575 -0.75830106 0 0 Z M-6 4 C-6.33 4.99 -6.66 5.98 -7 7 C-5.35 7 -3.7 7 -2 7 C-2.33 6.01 -2.66 5.02 -3 4 C-3.99 4 -4.98 4 -6 4 Z " fill="#000000" transform="translate(227,51)"/>
<path d="M0 0 C3.55247432 0.87379409 4.94828114 2.4927342 6.9375 5.4765625 C7.89140877 9.66363107 7.38121399 12.6076226 5.4375 16.4140625 C2.07380695 19.18910927 -0.75743413 19.64486754 -5.0625 19.4765625 C-8.50055898 18.39085966 -8.99174808 17.58269038 -11.0625 14.4765625 C-11.89821542 9.77896216 -11.69025298 6.43780926 -9.0625 2.4140625 C-5.74045887 0.2685776 -3.88395378 -0.27952698 0 0 Z M-3.0625 4.4765625 C-5.38733785 6.36031925 -5.38733785 6.36031925 -5.25 9.4765625 C-5.26329609 12.40042853 -5.26329609 12.40042853 -4.0625 14.4765625 C-2.7425 14.4765625 -1.4225 14.4765625 -0.0625 14.4765625 C1.13738045 9.19456657 1.13738045 9.19456657 -1.0625 4.4765625 C-1.7225 4.4765625 -2.3825 4.4765625 -3.0625 4.4765625 Z " fill="#000000" transform="translate(425.0625,50.5234375)"/>
<path d="M0 0 C1.98 0 3.96 0 6 0 C6.99 2.64 7.98 5.28 9 8 C10.77706209 5.33440687 11.87548273 2.9719385 13 0 C14.98 0 16.96 0 19 0 C18.41347648 4.48993869 17.2356462 8.22543184 15.4375 12.375 C14.98246094 13.43460938 14.52742188 14.49421875 14.05859375 15.5859375 C13.70925781 16.38257812 13.35992187 17.17921875 13 18 C10.69 18 8.38 18 6 18 C4.9936345 15.56495491 3.99473587 13.12729136 3 10.6875 C2.71382813 9.99720703 2.42765625 9.30691406 2.1328125 8.59570312 C0.91089256 5.58454326 0 3.28113016 0 0 Z " fill="#000000" transform="translate(271,51)"/>
<path d="M0 0 C0.78503906 0.00644531 1.57007813 0.01289062 2.37890625 0.01953125 C4.4375 0.1875 4.4375 0.1875 6.4375 1.1875 C6.1075 2.5075 5.7775 3.8275 5.4375 5.1875 C3.1275 4.8575 0.8175 4.5275 -1.5625 4.1875 C-1.5625 4.8475 -1.5625 5.5075 -1.5625 6.1875 C-0.139375 6.620625 -0.139375 6.620625 1.3125 7.0625 C4.4375 8.1875 4.4375 8.1875 6.4375 10.1875 C6.875 13.125 6.875 13.125 6.4375 16.1875 C4.5 18.125 4.5 18.125 1.4375 19.1875 C-1.61808328 19.12618395 -4.55782807 18.73082848 -7.5625 18.1875 C-7.5625 16.5375 -7.5625 14.8875 -7.5625 13.1875 C-4.9225 13.5175 -2.2825 13.8475 0.4375 14.1875 C0.4375 13.5275 0.4375 12.8675 0.4375 12.1875 C-0.51125 11.89875 -1.46 11.61 -2.4375 11.3125 C-5.5625 10.1875 -5.5625 10.1875 -7.5625 8.1875 C-7.875 5.1875 -7.875 5.1875 -7.5625 2.1875 C-4.404724 0.082316 -3.60852866 -0.06539344 0 0 Z " fill="#000000" transform="translate(240.5625,50.8125)"/>
<path d="M0 0 C1.65 0.33 3.3 0.66 5 1 C5 1.99 5 2.98 5 4 C6.32 4 7.64 4 9 4 C9 5.65 9 7.3 9 9 C7.68 9 6.36 9 5 9 C5 11.97 5 14.94 5 18 C6.65 18 8.3 18 10 18 C9.67 19.32 9.34 20.64 9 22 C2.8 23.43076923 2.8 23.43076923 -0.4375 21.6875 C-2.81625671 17.59603846 -2.31763833 13.6234024 -2 9 C-2.66 9 -3.32 9 -4 9 C-4 5 -4 5 -2.5625 3.375 C-2.046875 2.92125 -1.53125 2.4675 -1 2 C-0.67 1.34 -0.34 0.68 0 0 Z " fill="#000000" transform="translate(252,47)"/>
<path d="M0 0 C2.31 0 4.62 0 7 0 C7 8.25 7 16.5 7 25 C4.69 25 2.38 25 0 25 C0 16.75 0 8.5 0 0 Z " fill="#000000" transform="translate(310,44)"/>
<path d="M0 0 C2.31 0 4.62 0 7 0 C7 8.25 7 16.5 7 25 C4.69 25 2.38 25 0 25 C0 16.75 0 8.5 0 0 Z " fill="#000000" transform="translate(159,44)"/>
<path d="M0 0 C1.32 0.33 2.64 0.66 4 1 C3.855625 1.84304687 3.71125 2.68609375 3.5625 3.5546875 C3.376875 4.65039062 3.19125 5.74609375 3 6.875 C2.814375 7.96554688 2.62875 9.05609375 2.4375 10.1796875 C1.94890292 12.85371964 1.94890292 12.85371964 2 15 C2.66 14.01 3.32 13.02 4 12 C4.33 12.66 4.66 13.32 5 14 C5.66 13.34 6.32 12.68 7 12 C9.625 11.875 9.625 11.875 12 12 C12.33 12.66 12.66 13.32 13 14 C13.66 13.34 14.32 12.68 15 12 C15.33 12.33 15.66 12.66 16 13 C16.66 12.34 17.32 11.68 18 11 C18.66 13.31 19.32 15.62 20 18 C16.20129518 20.63954122 13.61446412 21.41031478 9 21.375 C7.989375 21.38273437 6.97875 21.39046875 5.9375 21.3984375 C2.63755402 20.95083844 0.71274731 19.88496045 -2 18 C-0.07289294 7.44191344 -0.07289294 7.44191344 2 3 C1.34 2.67 0.68 2.34 0 2 C0 1.34 0 0.68 0 0 Z " fill="#B64747" transform="translate(51,67)"/>
<path d="M0 0 C4.33333333 0 8.66666667 0 13 0 C12.8125 2.375 12.8125 2.375 12 5 C10.35 5.66 8.7 6.32 7 7 C6.67 10.63 6.34 14.26 6 18 C4.02 18 2.04 18 0 18 C0 12.06 0 6.12 0 0 Z " fill="#000000" transform="translate(435,51)"/>
<path d="M0 0 C0.99 0.33 1.98 0.66 3 1 C2.814375 1.598125 2.62875 2.19625 2.4375 2.8125 C1.77906313 5.16408762 1.77906313 5.16408762 3 8 C3.99 8.33 4.98 8.66 6 9 C4.66666667 13.66666667 3.33333333 18.33333333 2 23 C0.68 22.67 -0.64 22.34 -2 22 C-3.92634762 16.34135388 -5.78490225 9.78709694 -3.1015625 4.09375 C-2 2.4375 -2 2.4375 0 0 Z " fill="#AB2C2C" transform="translate(48,61)"/>
<path d="M0 0 C2.31 0 4.62 0 7 0 C7 5.94 7 11.88 7 18 C4.69 18 2.38 18 0 18 C0 12.06 0 6.12 0 0 Z " fill="#000000" transform="translate(263,51)"/>
<path d="M0 0 C1.32 0 2.64 0 4 0 C4 1.32 4 2.64 4 4 C4.99 4.33 5.98 4.66 7 5 C7.33 3.68 7.66 2.36 8 1 C8.66 1 9.32 1 10 1 C10 1.66 10 2.32 10 3 C10.66 3 11.32 3 12 3 C12 3.66 12 4.32 12 5 C12.66 4.67 13.32 4.34 14 4 C14 3.01 14 2.02 14 1 C15.65 1 17.3 1 19 1 C19.33 2.32 19.66 3.64 20 5 C14.45834744 8.77304004 10.65545792 9.54330269 4 9 C4 8.34 4 7.68 4 7 C2.02 6.34 0.04 5.68 -2 5 C-1.125 1.125 -1.125 1.125 0 0 Z " fill="#ECD0D0" transform="translate(51,61)"/>
<path d="M0 0 C0 3.3 0 6.6 0 10 C-2 9 -2 9 -3.1875 6.5625 C-4 4 -4 4 -3 2 C-3.99 2.33 -4.98 2.66 -6 3 C-6 4.32 -6 5.64 -6 7 C-6.99 6.67 -7.98 6.34 -9 6 C-9.33 6.66 -9.66 7.32 -10 8 C-11.98 8 -13.96 8 -16 8 C-16 6.68 -16 5.36 -16 4 C-14.906875 3.896875 -13.81375 3.79375 -12.6875 3.6875 C-8.97648587 2.99561601 -8.27376648 2.72851977 -6 0 C-3 -1 -3 -1 0 0 Z " fill="#AB2B2B" transform="translate(73,67)"/>
<path d="M0 0 C0 0.33 0 0.66 0 1 C-1.28926992 1.36279456 -2.58153272 1.71496698 -3.875 2.0625 C-4.59429687 2.25972656 -5.31359375 2.45695312 -6.0546875 2.66015625 C-8 3 -8 3 -10 2 C-10.33 3.32 -10.66 4.64 -11 6 C-12.32 5.67 -13.64 5.34 -15 5 C-14.67 3.68 -14.34 2.36 -14 1 C-15.32 0.67 -16.64 0.34 -18 0 C-12.00223894 -1.49944026 -5.99776106 -1.49944026 0 0 Z " fill="#B34040" transform="translate(69,60)"/>
<path d="M0 0 C1.32 0.33 2.64 0.66 4 1 C2.66666667 5.66666667 1.33333333 10.33333333 0 15 C-1.32 14.67 -2.64 14.34 -4 14 C-4 13.01 -4 12.02 -4 11 C-3.34 11 -2.68 11 -2 11 C-2 9.68 -2 8.36 -2 7 C-1.34 7 -0.68 7 0 7 C-0.33 6.01 -0.66 5.02 -1 4 C-0.5625 1.8125 -0.5625 1.8125 0 0 Z " fill="#F0DADA" transform="translate(50,69)"/>
<path d="M0 0 C1.9375 1.4375 1.9375 1.4375 2.6875 4.5625 C2.77 5.51125 2.8525 6.46 2.9375 7.4375 C1.2875 8.0975 -0.3625 8.7575 -2.0625 9.4375 C-2.3925 7.7875 -2.7225 6.1375 -3.0625 4.4375 C-3.7225 4.4375 -4.3825 4.4375 -5.0625 4.4375 C-4.6875 2.5 -4.6875 2.5 -4.0625 0.4375 C-2.0625 -0.5625 -2.0625 -0.5625 0 0 Z " fill="#E1B5B5" transform="translate(72.0625,74.5625)"/>
<path d="M0 0 C1.16306443 3.54950034 0.92365049 6.55823948 0.5625 10.25 C0.40974609 11.86648437 0.40974609 11.86648437 0.25390625 13.515625 C0.17011719 14.33546875 0.08632813 15.1553125 0 16 C-0.66 16 -1.32 16 -2 16 C-3.34422204 11.96733389 -3.45703395 8.21994677 -3 4 C-1.5 1.4375 -1.5 1.4375 0 0 Z " fill="#E6C1C1" transform="translate(47,63)"/>
<path d="M0 0 C5.94 0 11.88 0 18 0 C15 3 15 3 12.1875 3.3984375 C11.135625 3.39070313 10.08375 3.38296875 9 3.375 C7.948125 3.38273437 6.89625 3.39046875 5.8125 3.3984375 C3 3 3 3 0 0 Z " fill="#F8EFEF" transform="translate(51,85)"/>
<path d="M0 0 C3 2 3 2 4 5 C4.1328125 6.9375 4.1328125 6.9375 4.125 9 C4.12757812 9.680625 4.13015625 10.36125 4.1328125 11.0625 C4 13 4 13 3 16 C2.34 15.67 1.68 15.34 1 15 C0.68758629 12.45058627 0.48696579 9.99638487 0.375 7.4375 C0.33632812 6.72658203 0.29765625 6.01566406 0.2578125 5.28320312 C0.16328217 3.52257575 0.08054183 1.76132272 0 0 Z " fill="#F5E6E6" transform="translate(72,63)"/>
<path d="M0 0 C-0.33 0.99 -0.66 1.98 -1 3 C-1.99 2.67 -2.98 2.34 -4 2 C-4.33 2.66 -4.66 3.32 -5 4 C-6.98 4 -8.96 4 -11 4 C-11 2.68 -11 1.36 -11 0 C-3.57142857 -1.28571429 -3.57142857 -1.28571429 0 0 Z " fill="#CB7F7F" transform="translate(68,71)"/>
<path d="M0 0 C1.32 0 2.64 0 4 0 C4 2.31 4 4.62 4 7 C2.02 6.34 0.04 5.68 -2 5 C-1.125 1.125 -1.125 1.125 0 0 Z " fill="#F7EDED" transform="translate(51,61)"/>
<path d="M0 0 C2.625 0.375 2.625 0.375 5 1 C5 2.32 5 3.64 5 5 C3.35 5.33 1.7 5.66 0 6 C-0.66 4.68 -1.32 3.36 -2 2 C-1.34 1.34 -0.68 0.68 0 0 Z " fill="#000000" transform="translate(265,44)"/>
<path d="M0 0 C1.8871875 0.061875 1.8871875 0.061875 3.8125 0.125 C4.1425 0.785 4.4725 1.445 4.8125 2.125 C3.8225 3.61 3.8225 3.61 2.8125 5.125 C2.4825 4.135 2.1525 3.145 1.8125 2.125 C0.4925 2.125 -0.8275 2.125 -2.1875 2.125 C-2.5175 3.115 -2.8475 4.105 -3.1875 5.125 C-3.8475 5.125 -4.5075 5.125 -5.1875 5.125 C-5.1875 4.465 -5.1875 3.805 -5.1875 3.125 C-5.8475 2.795 -6.5075 2.465 -7.1875 2.125 C-4.09861478 0.06574319 -3.47814073 -0.1140374 0 0 Z " fill="#CD8282" transform="translate(68.1875,60.875)"/>
<path d="M0 0 C0.66 0.33 1.32 0.66 2 1 C2.625 4.0625 2.625 4.0625 3 7 C0.50907189 8.24546405 -0.41080733 7.7767578 -3 7 C-3 5.02 -3 3.04 -3 1 C-2.01 2.485 -2.01 2.485 -1 4 C-0.67 2.68 -0.34 1.36 0 0 Z " fill="#AF3434" transform="translate(68,78)"/>
<path d="M0 0 C2.69082872 0.17635452 5.32851446 0.61835921 8 1 C8 1.33 8 1.66 8 2 C5.69 2 3.38 2 1 2 C1 2.66 1 3.32 1 4 C1.66 4.33 2.32 4.66 3 5 C1.35 5.33 -0.3 5.66 -2 6 C-1.125 1.125 -1.125 1.125 0 0 Z " fill="#FBF6F6" transform="translate(56,69)"/>
<path d="M0 0 C0.33 0 0.66 0 1 0 C1.06058594 0.72445312 1.12117188 1.44890625 1.18359375 2.1953125 C1.61483433 7.17116533 2.07047641 12.08680391 3 17 C1.68 16.67 0.36 16.34 -1 16 C-0.67 10.72 -0.34 5.44 0 0 Z " fill="#C90505" transform="translate(104,51)"/>
<path d="M0 0 C1.65 0 3.3 0 5 0 C5.33 1.32 5.66 2.64 6 4 C4.35 4.33 2.7 4.66 1 5 C1.33 4.01 1.66 3.02 2 2 C1.34 1.34 0.68 0.68 0 0 Z " fill="#FBF5F5" transform="translate(65,62)"/>
<path d="M0 0 C0.99 0.33 1.98 0.66 3 1 C2.814375 1.598125 2.62875 2.19625 2.4375 2.8125 C1.77906313 5.16408762 1.77906313 5.16408762 3 8 C1.68 8 0.36 8 -1 8 C-1.04241723 5.66705225 -1.04092937 3.33297433 -1 1 C-0.67 0.67 -0.34 0.34 0 0 Z " fill="#AF3434" transform="translate(48,61)"/>
<path d="M0 0 C3.3 0 6.6 0 10 0 C10 0.33 10 0.66 10 1 C2.375 3 2.375 3 -1 3 C-0.67 2.01 -0.34 1.02 0 0 Z " fill="#A01111" transform="translate(59,60)"/>
<path d="M0 0 C1.98 0.495 1.98 0.495 4 1 C2.25 5.875 2.25 5.875 0 7 C-1.04449911 3.86650268 -0.93423645 3.01031744 0 0 Z " fill="#F9F1F1" transform="translate(50,69)"/>
<path d="M0 0 C0.33 0 0.66 0 1 0 C1.33 3.3 1.66 6.6 2 10 C1.34 10 0.68 10 0 10 C-1.125 2.25 -1.125 2.25 0 0 Z " fill="#F9F2F2" transform="translate(45,69)"/>
</svg>
