<?xml version="1.0" encoding="utf-8"?>
<!-- Generator: Adobe Illustrator 19.1.0, SVG Export Plug-In . SVG Version: 6.00 Build 0)  -->
<svg version="1.1" xmlns="http://www.w3.org/2000/svg" xmlns:xlink="http://www.w3.org/1999/xlink" x="0px" y="0px"
	 viewBox="0 0 70.5 32.7" style="enable-background:new 0 0 70.5 32.7;" xml:space="preserve">
<style type="text/css">
	.st0{display:none;}
	.st1{display:inline;}
	.st2{fill:#12CCAD;}
</style>
<g id="bg" class="st0">
	<rect x="0.1" y="-46.4" class="st1" width="447.8" height="80.6"/>
</g>
<g id="レイヤー_1">
	<g>
		<path class="st2" d="M0.3,22.2v-9.4h7.1v2.1H2.3v1.3h4.5v1.9H2.3v1.1h5.3v3H0.3z"/>
		<path class="st2" d="M12.4,24.5v-2.7c-0.3,0.4-0.7,0.6-1.3,0.6c-1.4,0-2.5-1.2-2.5-3.5c0-2.2,1.2-3.5,2.5-3.5
			c0.8,0,1.4,0.2,1.7,0.6l0.4-0.5h2.6v9L12.4,24.5z M12.4,17.9c-0.1-0.5-0.5-0.9-1-0.9c-0.6,0-1,0.6-1,1.9c0,1.2,0.4,1.8,1,1.8
			c0.5,0,1-0.5,1-1.2V17.9z"/>
		<path class="st2" d="M21.3,22.2v-0.7c-0.3,0.6-0.9,0.9-1.7,0.9c-1.2,0-2.3-0.9-2.3-2.3v-4.5h1.8v3.9c0,0.7,0.5,1,1,1
			c0.5,0,0.9-0.3,1-0.8v-4.1h3v6.7H21.3z"/>
		<path class="st2" d="M25.7,14.7v-1.9h2.7v1.9H25.7z M25.7,22.2v-6.7h2.6v6.7H25.7z"/>
		<path class="st2" d="M33.8,22.4c-1,0-1.8-0.3-2.1-0.7v2.9h-1.8v-9h1.6v0.7c0.3-0.5,1.2-0.8,2.3-0.8c1.8,0,3.2,1.2,3.2,3.5
			C37,21.2,35.6,22.4,33.8,22.4z M32.6,17.1c-0.4,0-0.9,0.6-0.9,1.3v1.5c0.1,0.5,0.5,0.8,1,0.8c0.6,0,1-0.6,1-1.9
			C33.6,17.7,33.3,17.1,32.6,17.1z"/>
		<path class="st2" d="M44.2,22.2v-4.1c0-0.7-0.3-1-0.7-1c-0.4,0-0.6,0.4-0.6,0.9v4.2h-1.7v-4.1c0-0.7-0.2-1-0.6-1
			c-0.3,0-0.6,0.3-0.7,0.9v4.3h-1.8v-6.7h1.6v0.7c0.2-0.5,0.8-0.9,1.6-0.9c0.7,0,1.3,0.3,1.5,0.8c0.2-0.4,0.9-0.8,1.9-0.8
			c1.8,0,2.9,0.9,2.9,2.2v4.6H44.2z"/>
		<path class="st2" d="M50.8,19.7c0,0.6,0.6,1,1.1,1c0.6,0,0.9-0.3,1-0.9h3c-0.1,1.6-1.3,2.6-3.6,2.6c-1.9,0-3.3-1.4-3.3-3.5
			c0-2,1.4-3.5,3.3-3.5c2.5,0,3.7,1.2,3.7,3.6L50.8,19.7z M51.7,17c-0.5,0-0.9,0.5-0.9,1.2l1.9-0.3C52.7,17.4,52.3,17,51.7,17z"/>
		<path class="st2" d="M60.5,22.2v-4.1c0-0.6-0.3-1-0.7-1c-0.4,0-0.8,0.4-1,0.9v4.2h-1.8v-6.7h1.6v0.7c0.3-0.5,1.1-0.9,2.1-0.9
			c1.8,0,3,1,3,2.4v4.5H60.5z"/>
		<path class="st2" d="M69.2,22.4c-2.4,0-3.5-0.5-3.5-2.2v-2.6H65v-2.1h0.8v-2.1h2v2.1h1.4v2.1h-1.4v1.2c0,0.9,0.4,0.9,1.7,0.9
			L69.2,22.4z"/>
	</g>
</g>
</svg>
