<?xml version="1.0" encoding="utf-8"?>
<!-- Generator: Adobe Illustrator 19.1.0, SVG Export Plug-In . SVG Version: 6.00 Build 0)  -->
<svg version="1.1" xmlns="http://www.w3.org/2000/svg" xmlns:xlink="http://www.w3.org/1999/xlink" x="0px" y="0px"
	 viewBox="0 0 160.3 28.6" style="enable-background:new 0 0 160.3 28.6;" xml:space="preserve">
<style type="text/css">
	.st0{display:none;}
	.st1{display:inline;}
	.st2{fill:#FF6E00;}
</style>
<g id="bg" class="st0">
	<rect y="-49.3" class="st1" width="447.8" height="80.6"/>
</g>
<g id="レイヤー_1">
	<g>
		<path class="st2" d="M5.9,11.8v2.8h8.5v5.1H5.9v7H1.4V5.6h14.8v6.3H5.9z"/>
		<path class="st2" d="M26.1,17.6c-1.3,0-2.5,0.6-2.9,1.6v7.5h-4.5v-15h4.1v1.6c0.9-1.3,2.6-1.9,5.9-1.9v7.1
			C27.9,17.8,27,17.6,26.1,17.6z"/>
		<path class="st2" d="M31.2,9.8V5.6h6v4.2H31.2z M31.3,26.6v-15h5.8v15H31.3z"/>
		<path class="st2" d="M44,20.9c0.1,1.2,1.3,2.3,2.4,2.3c1.4,0,2.1-0.6,2.3-2h6.7c-0.3,3.7-3,5.8-8,5.8c-4.3,0-7.4-3-7.4-7.9
			c0-4.5,3.1-7.9,7.3-7.9c5.7,0,8.3,2.8,8.3,8.2L44,20.9z M46.1,15C45,15,44,16.1,44,17.8l4.4-0.6C48.3,15.8,47.5,15,46.1,15z"/>
		<path class="st2" d="M66,26.6v-9.3c0-1.5-0.6-2.3-1.6-2.3c-1,0-1.9,0.8-2.2,2.1v9.5h-4v-15h3.7v1.7c0.6-1,2.6-2,4.8-2
			c4.1,0,6.8,2.3,6.8,5.3v10.1H66z"/>
		<path class="st2" d="M85.6,26.6v-1.8C84.9,26.5,83.2,27,82,27c-3.2,0-5.6-2.7-5.6-7.8c0-5,2.6-7.9,5.5-7.9c1.4,0,2.4,0.5,3,1.2
			V5.6h7.7v21.1H85.6z M85,17.2c-0.4-1.2-1.1-2.1-2.1-2.1c-1.2,0-2.3,1.3-2.3,4.1c0,2.7,1,3.9,2.3,3.9c1.2,0,2.1-1.1,2.1-2.9V17.2z"
			/>
		<path class="st2" d="M106.5,26.6V5.6h5v13.7h10.3v7.4H106.5z"/>
		<path class="st2" d="M124.4,9.8V5.6h6v4.2H124.4z M124.5,26.6v-15h5.8v15H124.5z"/>
		<path class="st2" d="M140.5,27c-3.1,0-6.3-1-7.6-2.8l1.6-3.3c1.1,1.5,2.9,2.5,4.1,2.5c0.9,0,1.5-0.3,1.5-1c0-0.9-0.6-1.3-2.5-1.7
			c-3.1-0.7-4.3-2.5-4.3-4.9c0-2.6,2.6-4.5,5.9-4.5c3.6,0,6.1,0.8,7.8,1.8l-1.3,4c-1.7-1.6-3.9-2.3-6-2.3c-1.5,0-2,0.2-2,0.6
			c0,0.4,0.3,0.6,3.5,0.9c4.3,0.5,6.3,2.6,6.3,5.8C147.4,25.3,145.5,27,140.5,27z"/>
		<path class="st2" d="M158.5,27c-5.3,0-7.8-1.1-7.8-4.9v-5.8h-1.6v-4.7h1.8V6.9h4.5v4.7h3.1v4.7h-3.1v2.6c0,2,0.9,2,3.9,2L158.5,27
			z"/>
	</g>
</g>
</svg>
