<?xml version="1.0" encoding="utf-8"?>
<!-- Generator: Adobe Illustrator 19.1.0, SVG Export Plug-In . SVG Version: 6.00 Build 0)  -->
<svg version="1.1" xmlns="http://www.w3.org/2000/svg" xmlns:xlink="http://www.w3.org/1999/xlink" x="0px" y="0px"
	 viewBox="0 0 68.5 14.8" style="enable-background:new 0 0 68.5 14.8;" xml:space="preserve">
<style type="text/css">
	.st0{display:none;}
	.st1{display:inline;}
	.st2{fill:#FFFFFF;}
</style>
<g id="bg" class="st0">
	<rect x="-47.2" y="-56.3" class="st1" width="447.8" height="80.6"/>
</g>
<g id="レイヤー_1">
	<g>
		<path class="st2" d="M6.5,11.8V1.7h2.4v6.6h5v3.5H6.5z"/>
		<path class="st2" d="M18.7,12c-2.4,0-4-1.5-4-3.8c0-2.3,1.6-3.8,4-3.8s3.9,1.5,3.9,3.8C22.6,10.5,21,12,18.7,12z M17.9,6.2
			c-0.7,0-1.2,0.8-1.2,2c0,1.2,0.5,2,1.2,2c0.7,0,1.2-0.8,1.2-2C19.1,7,18.6,6.2,17.9,6.2z"/>
		<path class="st2" d="M27.4,14.4c-1.2,0-2.3-0.2-3.1-0.4l-0.3-2c0.7,0.2,1.5,0.4,2.1,0.4c1.2,0,1.6-0.3,1.6-1.1v-0.5
			c-0.3,0.4-0.8,0.6-1.4,0.6c-1.4,0-2.7-1.2-2.7-3.4c0-2.3,1.3-3.6,2.6-3.6c0.8,0,1.4,0.3,1.7,0.8l0.2-0.7h3.1v6.9
			C31.1,13.5,29.8,14.4,27.4,14.4z M27.7,7.2c-0.2-0.5-0.5-0.9-1.1-0.9c-0.7,0-1.1,0.5-1.1,1.7c0,1.2,0.5,1.8,1.2,1.8
			c0.6,0,1.1-0.5,1.1-1.2V7.2z"/>
		<path class="st2" d="M42.3,12.1c-2.8,0-4.9-1.7-4.9-5.4c0-3.5,2.1-5.3,4.9-5.3c2.8,0,5.1,1.8,5.1,5.3
			C47.4,10.3,45.1,12.1,42.3,12.1z M41.3,3.5c-0.8,0-1.7,1.1-1.7,3.2s0.8,3.3,1.7,3.3c1,0,1.6-1.1,1.6-3.3S42.3,3.5,41.3,3.5z"/>
		<path class="st2" d="M53.1,11.8V11c-0.3,0.6-1,0.9-1.9,0.9c-1.3,0-2.5-1-2.5-2.5V4.6h2v4.3c0,0.7,0.5,1.1,1.1,1.1
			c0.5,0,0.9-0.3,1.1-0.9V4.6h3.2v7.2H53.1z"/>
		<path class="st2" d="M61.9,12c-2.6,0-3.8-0.5-3.8-2.3V6.8h-0.8V4.6h0.9V2.3h2.2v2.3h1.5v2.3h-1.5v1.2c0,0.9,0.4,1,1.9,1L61.9,12z"
			/>
	</g>
</g>
</svg>
