<?xml version="1.0" encoding="utf-8"?>
<!-- Generator: Adobe Illustrator 19.1.0, SVG Export Plug-In . SVG Version: 6.00 Build 0)  -->
<svg version="1.1" xmlns="http://www.w3.org/2000/svg" xmlns:xlink="http://www.w3.org/1999/xlink" x="0px" y="0px"
	 viewBox="0 0 145.6 16.4" style="enable-background:new 0 0 145.6 16.4;" xml:space="preserve">
<style type="text/css">
	.st0{display:none;}
	.st1{display:inline;}
	.st2{fill:#FFFFFF;}
</style>
<g id="bg" class="st0">
	<rect x="0.7" y="-61.6" class="st1" width="447.8" height="80.6"/>
</g>
<g id="レイヤー_1">
	<g>
		<path class="st2" d="M3.7,7.3v4.9H1.9V7.3H0.2V4.8h6v2.5H3.7z"/>
		<path class="st2" d="M9.5,12.3c-1.7,0-2.9-1.1-2.9-2.8c0-1.7,1.2-2.8,2.9-2.8s2.9,1.1,2.9,2.8C12.4,11.3,11.3,12.3,9.5,12.3z
			 M9,8.1c-0.5,0-0.9,0.6-0.9,1.4S8.5,11,9,11c0.5,0,0.9-0.6,0.9-1.5C9.9,8.7,9.5,8.1,9,8.1z"/>
		<path class="st2" d="M19.5,12.3c-1.7,0-2.9-1.1-2.9-2.8c0-1.7,1.2-2.8,2.9-2.8c1.7,0,2.9,1.1,2.9,2.8
			C22.4,11.3,21.3,12.3,19.5,12.3z M19,8.1c-0.5,0-0.9,0.6-0.9,1.4S18.5,11,19,11c0.5,0,0.9-0.6,0.9-1.5C19.9,8.7,19.5,8.1,19,8.1z"
			/>
		<path class="st2" d="M25.7,6.4c-0.5,0-0.7,0.2-0.7,0.4v0.2h1.2v1.7h-1.2v3.6h-1.5V8.6h-0.7V6.9h0.7V6.5c0-1.4,0.7-1.9,2.7-1.9
			l0.2,1.8C26.2,6.4,25.9,6.4,25.7,6.4z"/>
		<path class="st2" d="M29.3,6c-0.7,0-0.8,0.2-0.8,0.6v0.4h0.8v1.3h-0.8v4h-1.3v-4h-0.6V6.9h0.6V6.5c0-1.3,0.4-1.9,2-1.9L29.5,6
			C29.5,6,29.4,6,29.3,6z M29.7,6.3V4.8h2.4v1.5H29.7z M29.8,12.2V6.9h2.3v5.3H29.8z"/>
		<path class="st2" d="M35.7,12.3c-1.5,0-2.6-0.9-2.6-2.8c0-1.7,1-2.8,2.6-2.8c1.6,0,2.5,0.7,2.8,2L36,9.2c0-0.6-0.3-1-0.7-1
			c-0.4,0-0.8,0.5-0.8,1.3c0,0.9,0.3,1.4,0.7,1.4c0.4,0,0.7-0.4,0.7-1.2l2.4,0.2C38.4,11.7,37.5,12.3,35.7,12.3z"/>
		<path class="st2" d="M39.3,6.3V4.8h2.1v1.5H39.3z M39.4,12.2V6.9h2.1v5.3H39.4z"/>
		<path class="st2" d="M47.7,12.3c-0.2,0-0.4,0.1-0.6,0.1c-0.8,0-1.8-0.2-1.9-0.6c-0.3,0.4-0.8,0.6-1.4,0.6c-0.8,0-1.5-0.6-1.5-1.5
			c0,0,0,0,0,0c0-1,0.4-1.5,1.5-1.9c0.6-0.2,0.9-0.3,0.9-0.5c0-0.3-0.1-0.4-0.6-0.4c-0.3,0-1,0.3-1.2,0.8l-0.5-1.2
			c0.4-0.6,1.4-0.9,2.4-0.9c1.7,0,2.5,0.6,2.5,1.8v1.7c0,0.3,0.1,0.4,0.4,0.4c0.1,0,0.2,0,0.3,0L47.7,12.3z M44.7,9.7
			c-0.2,0.1-0.3,0.2-0.6,0.3c-0.3,0.1-0.4,0.3-0.4,0.7c0,0.3,0.1,0.4,0.4,0.4c0.3,0,0.6-0.2,0.6-0.6V9.7z"/>
		<path class="st2" d="M48.6,12.2V4.8h2.1v7.4H48.6z"/>
		<path class="st2" d="M58.6,12.4c-1.9,0-2.9-0.7-3.3-1.9l1.1-0.7c0.3,0.8,0.8,1.1,1.3,1.1c0.6,0,0.9-0.3,0.9-0.7
			c0-0.9-0.9-0.9-1.6-1.3c-1-0.5-1.4-0.9-1.4-2c0-1.2,1.1-2.2,2.7-2.2c1.7,0,2.7,0.5,3.3,2.1l-2.8,0.5c-0.1-0.6-0.4-1.1-0.9-1.1
			c-0.6,0-0.8,0.2-0.8,0.6c0,0.5,0.7,0.8,1.7,0.8c1.8,0.1,3,0.8,3,2.5C61.6,11.5,60.6,12.4,58.6,12.4z"/>
		<path class="st2" d="M65.9,12.3c-0.8,0-1.4-0.2-1.7-0.6V14h-1.4V6.9h1.3v0.5c0.2-0.4,1-0.7,1.8-0.7c1.4,0,2.5,1,2.5,2.8
			C68.4,11.4,67.3,12.3,65.9,12.3z M64.9,8.1c-0.4,0-0.8,0.4-0.8,1v1.2c0.1,0.4,0.4,0.7,0.8,0.7c0.5,0,0.8-0.5,0.8-1.5
			C65.8,8.6,65.5,8.1,64.9,8.1z"/>
		<path class="st2" d="M69.4,12.2V4.8h2.1v7.4H69.4z"/>
		<path class="st2" d="M77.9,12.3c-0.2,0-0.4,0.1-0.6,0.1c-0.8,0-1.8-0.2-1.9-0.6c-0.3,0.4-0.8,0.6-1.4,0.6c-0.8,0-1.5-0.6-1.5-1.5
			c0,0,0,0,0,0c0-1,0.4-1.5,1.5-1.9c0.6-0.2,0.9-0.3,0.9-0.5c0-0.3-0.1-0.4-0.6-0.4c-0.3,0-1,0.3-1.2,0.8l-0.5-1.2
			C73,7.1,73.9,6.8,75,6.8c1.7,0,2.5,0.6,2.5,1.8v1.7c0,0.3,0.1,0.4,0.4,0.4c0.1,0,0.2,0,0.3,0L77.9,12.3z M74.9,9.7
			c-0.2,0.1-0.3,0.2-0.6,0.3c-0.3,0.1-0.4,0.3-0.4,0.7c0,0.3,0.1,0.4,0.4,0.4c0.3,0,0.6-0.2,0.6-0.6V9.7z"/>
		<path class="st2" d="M81.8,12.3c-1.9,0-2.7-0.4-2.7-1.7v-2h-0.6V6.9h0.6V5.3h1.6v1.7h1.1v1.7h-1.1v0.9c0,0.7,0.3,0.7,1.4,0.7
			L81.8,12.3z"/>
		<path class="st2" d="M85.6,12.3c-1.7,0-2.9-1.1-2.9-2.8c0-1.7,1.2-2.8,2.9-2.8s2.9,1.1,2.9,2.8C88.5,11.3,87.4,12.3,85.6,12.3z
			 M85.1,8.1c-0.5,0-0.9,0.6-0.9,1.4s0.4,1.5,0.9,1.5c0.5,0,0.9-0.6,0.9-1.5C85.9,8.7,85.6,8.1,85.1,8.1z"/>
		<path class="st2" d="M92.1,12.3c-1.7,0-2.9-1.1-2.9-2.8c0-1.7,1.2-2.8,2.9-2.8S95,7.9,95,9.6C95,11.3,93.8,12.3,92.1,12.3z
			 M91.5,8.1c-0.5,0-0.9,0.6-0.9,1.4S91,11,91.5,11c0.5,0,0.9-0.6,0.9-1.5C92.4,8.7,92.1,8.1,91.5,8.1z"/>
		<path class="st2" d="M98.6,12.2V9c0-0.5-0.2-0.8-0.6-0.8c-0.3,0-0.7,0.3-0.8,0.7v3.4h-1.4V6.9h1.3v0.6c0.2-0.4,0.9-0.7,1.7-0.7
			c1.4,0,2.4,0.8,2.4,1.9v3.6H98.6z"/>
		<path class="st2" d="M112.5,12.2h-3.1L109,9.4c0-0.3-0.1-0.9-0.1-1.3h0c0,0.3,0,0.9-0.1,1.3l-0.4,2.8h-1.9l-1.1-5.3h1.4l0.5,2.9
			c0,0.2,0.1,1,0.1,1.2h0c0-0.2,0-1,0.1-1.2l0.5-3h1.7l0.6,3c0,0.2,0.1,0.9,0.1,1.1h0c0-0.2,0-0.9,0.1-1.1l0.5-3h2.7L112.5,12.2z"/>
		<path class="st2" d="M115.5,10.2c0,0.4,0.4,0.8,0.9,0.8c0.5,0,0.7-0.2,0.8-0.7h2.4c-0.1,1.3-1.1,2.1-2.8,2.1
			c-1.5,0-2.6-1.1-2.6-2.8c0-1.6,1.1-2.8,2.6-2.8c2,0,2.9,1,2.9,2.9L115.5,10.2z M116.2,8.1c-0.4,0-0.8,0.4-0.8,1l1.5-0.2
			C117,8.4,116.7,8.1,116.2,8.1z"/>
		<path class="st2" d="M123.6,12.3c-0.8,0-1.6-0.3-1.8-0.7l-0.2,0.6h-1.1V4.8h1.4v2.7c0.2-0.4,0.9-0.7,1.7-0.7c1.4,0,2.5,1,2.5,2.8
			C126.1,11.4,125,12.3,123.6,12.3z M122.6,8.1c-0.4,0-0.8,0.4-0.8,1v1.2c0.1,0.4,0.4,0.7,0.8,0.7c0.5,0,0.8-0.5,0.8-1.5
			C123.5,8.6,123.2,8.1,122.6,8.1z"/>
		<path class="st2" d="M129.4,12.3c-1.1,0-2.2-0.4-2.7-1l0.6-1.2c0.4,0.5,1,0.9,1.5,0.9c0.3,0,0.5-0.1,0.5-0.3
			c0-0.3-0.2-0.5-0.9-0.6c-1.1-0.2-1.5-0.9-1.5-1.7c0-0.9,0.9-1.6,2.1-1.6c1.3,0,2.1,0.3,2.7,0.6l-0.5,1.4c-0.6-0.6-1.4-0.8-2.1-0.8
			c-0.5,0-0.7,0.1-0.7,0.2c0,0.1,0.1,0.2,1.2,0.3c1.5,0.2,2.2,0.9,2.2,2.1C131.8,11.8,131.1,12.3,129.4,12.3z"/>
		<path class="st2" d="M132.8,6.3V4.8h2.1v1.5H132.8z M132.8,12.2V6.9h2.1v5.3H132.8z"/>
		<path class="st2" d="M139.1,12.3c-1.9,0-2.7-0.4-2.7-1.7v-2h-0.6V6.9h0.6V5.3h1.6v1.7h1.1v1.7H138v0.9c0,0.7,0.3,0.7,1.4,0.7
			L139.1,12.3z"/>
		<path class="st2" d="M141.5,10.2c0,0.4,0.4,0.8,0.9,0.8c0.5,0,0.7-0.2,0.8-0.7h2.4c-0.1,1.3-1.1,2.1-2.8,2.1
			c-1.5,0-2.6-1.1-2.6-2.8c0-1.6,1.1-2.8,2.6-2.8c2,0,2.9,1,2.9,2.9L141.5,10.2z M142.2,8.1c-0.4,0-0.8,0.4-0.8,1l1.5-0.2
			C143,8.4,142.7,8.1,142.2,8.1z"/>
	</g>
</g>
</svg>
