<?xml version="1.0" encoding="utf-8"?>
<!-- Generator: Adobe Illustrator 19.1.0, SVG Export Plug-In . SVG Version: 6.00 Build 0)  -->
<svg version="1.1" xmlns="http://www.w3.org/2000/svg" xmlns:xlink="http://www.w3.org/1999/xlink" x="0px" y="0px"
	 viewBox="0 0 116.6 34.4" style="enable-background:new 0 0 116.6 34.4;" xml:space="preserve">
<style type="text/css">
	.st0{display:none;}
	.st1{display:inline;}
	.st2{fill:#FFFFFF;}
</style>
<g id="bg" class="st0">
	<rect x="0.7" y="-43.6" class="st1" width="447.8" height="80.6"/>
</g>
<g id="レイヤー_1">
	<g>
		<path class="st2" d="M11.1,30.4l-3-8.1H6.5v8.1H2.1V9.3h10.3c4,0,7.1,2.5,7.1,6.2c0,3.1-1.6,5.1-3.8,5.9l4.9,9H11.1z M8.5,13.4h-2
			v5h2c1.3,0,2.5-0.9,2.5-2.6C11,14.3,9.8,13.4,8.5,13.4z"/>
		<path class="st2" d="M36.8,30.6c-0.5,0.1-1,0.2-1.7,0.2c-2.3,0-5.2-0.6-5.5-1.7c-0.8,1.2-2.4,1.7-4.1,1.7c-2.3,0-4.1-1.6-4.1-4.1
			c0,0,0-0.1,0-0.1c0-2.8,1.2-4.4,4.2-5.3c1.6-0.5,2.6-0.9,2.6-1.5c0-0.9-0.4-1.1-1.6-1.1c-1,0-2.7,0.9-3.5,2.2l-1.5-3.3
			c1.2-1.6,4-2.5,6.9-2.5c4.8,0,7,1.7,7,5v4.9c0,0.8,0.2,1.1,1.1,1.1c0.3,0,0.6,0,1-0.1L36.8,30.6z M28.3,23.1
			c-0.4,0.4-0.9,0.6-1.7,1c-0.8,0.4-1.2,0.9-1.2,1.9c0,0.7,0.4,1.2,1.1,1.2c0.8,0,1.6-0.7,1.8-1.7V23.1z"/>
		<path class="st2" d="M47.1,30.4v-9.3c0-1.5-0.6-2.3-1.6-2.3c-1,0-1.9,0.8-2.2,2.1v9.5h-4v-15H43V17c0.6-1,2.6-2,4.8-2
			c4.1,0,6.8,2.3,6.8,5.3v10.1H47.1z"/>
		<path class="st2" d="M65.6,30.4l-3.3-5.8v5.8h-4.1V9.3h4.1v10.2l3-4.2h7.4l-4.9,6l5.7,9H65.6z"/>
	</g>
</g>
</svg>
