<?xml version="1.0" encoding="utf-8"?>
<!-- Generator: Adobe Illustrator 19.1.0, SVG Export Plug-In . SVG Version: 6.00 Build 0)  -->
<svg version="1.1" xmlns="http://www.w3.org/2000/svg" xmlns:xlink="http://www.w3.org/1999/xlink" x="0px" y="0px"
	 viewBox="0 0 154.7 38.7" style="enable-background:new 0 0 154.7 38.7;" xml:space="preserve">
<style type="text/css">
	.st0{display:none;}
	.st1{display:inline;}
	.st2{fill:#AA3BF2;}
</style>
<g id="bg" class="st0">
	<rect x="0.1" y="-39.9" class="st1" width="447.8" height="80.6"/>
</g>
<g id="レイヤー_1">
	<g>
		<path class="st2" d="M10.2,32.6c-5.3,0-8.3-2.1-9.3-5.5L4,25c0.7,2.4,2.3,3.1,3.8,3.1c1.6,0,2.4-0.8,2.4-2.1
			c0-2.5-2.4-2.7-4.6-3.7c-2.8-1.3-3.9-2.7-3.9-5.6c0-3.4,3.2-6.2,7.5-6.2c4.9,0,7.8,1.3,9.2,5.9l-8.1,1.4c-0.3-1.8-1.3-3-2.6-3
			c-1.6,0-2.3,0.6-2.3,1.7c0,1.3,2.1,2.2,4.8,2.4c5.2,0.3,8.6,2.2,8.6,7C18.8,30.1,15.9,32.6,10.2,32.6z"/>
		<path class="st2" d="M30.6,32.4c-5.3,0-7.8-1.1-7.8-4.9v-5.8h-1.6V17h1.8v-4.7h4.5V17h3.1v4.7h-3.1v2.6c0,2,0.9,2,3.9,2L30.6,32.4
			z"/>
		<path class="st2" d="M48.5,32.2c-0.5,0.1-1,0.2-1.7,0.2c-2.3,0-5.2-0.6-5.5-1.7c-0.8,1.2-2.4,1.7-4.1,1.7c-2.3,0-4.1-1.6-4.1-4.1
			c0,0,0-0.1,0-0.1c0-2.8,1.2-4.4,4.2-5.3c1.6-0.5,2.6-0.9,2.6-1.5c0-0.9-0.4-1.1-1.6-1.1c-1,0-2.7,0.9-3.5,2.2l-1.5-3.3
			c1.2-1.6,4-2.5,6.9-2.5c4.8,0,7,1.7,7,5v4.9c0,0.8,0.2,1.1,1.1,1.1c0.3,0,0.6,0,1-0.1L48.5,32.2z M40,24.8c-0.4,0.4-0.9,0.6-1.7,1
			c-0.8,0.4-1.2,0.9-1.2,1.9c0,0.7,0.4,1.2,1.1,1.2c0.8,0,1.6-0.7,1.8-1.7V24.8z"/>
		<path class="st2" d="M58.3,37.5c-2.5,0-4.9-0.3-6.3-0.8l-0.7-4.1c1.4,0.5,3.1,0.8,4.4,0.8c2.5,0,3.2-0.6,3.2-2.3v-1
			c-0.6,0.7-1.8,1.2-3,1.2c-2.9,0-5.5-2.4-5.5-7.2c0-4.8,2.6-7.4,5.4-7.4c1.7,0,3,0.6,3.5,1.8l0.5-1.4h6.3v14.3
			C66.2,35.7,63.3,37.5,58.3,37.5z M59,22.4c-0.4-1.1-1.1-1.8-2.2-1.8c-1.4,0-2.4,1.1-2.4,3.6c0,2.5,1,3.7,2.4,3.7
			c1.2,0,2.2-1,2.2-2.5V22.4z"/>
		<path class="st2" d="M73.1,26.3c0.1,1.2,1.3,2.3,2.4,2.3c1.4,0,2.1-0.6,2.3-2h6.7c-0.3,3.7-3,5.8-8,5.8c-4.3,0-7.4-3-7.4-7.9
			c0-4.5,3.1-7.9,7.3-7.9c5.7,0,8.3,2.8,8.3,8.2L73.1,26.3z M75.1,20.4c-1.1,0-2.1,1.1-2.1,2.8l4.4-0.6
			C77.3,21.2,76.5,20.4,75.1,20.4z"/>
		<path class="st2" d="M97.9,32.1V11h7.2v21.1H97.9z"/>
		<path class="st2" d="M116.7,32.1v-9.3c0-1.5-0.6-2.3-1.6-2.3c-1,0-1.9,0.8-2.2,2.1v9.5h-4V17h3.7v1.7c0.6-1,2.6-2,4.8-2
			c4.1,0,6.8,2.3,6.8,5.3v10.1H116.7z"/>
		<path class="st2" d="M134.5,15.5c-1.4,0-1.9,0.4-1.9,1.1V17h3.5v4.7h-3.3v10.3h-4.4V21.7h-1.9V17h1.9v-1.2c0-3.9,2.1-5.4,7.6-5.4
			l0.5,5.2C135.7,15.5,135,15.5,134.5,15.5z"/>
		<path class="st2" d="M145.9,32.4c-4.9,0-8.2-3.1-8.2-7.8c0-4.8,3.3-7.9,8.2-7.9c4.9,0,8.2,3.1,8.2,7.9
			C154.1,29.3,150.8,32.4,145.9,32.4z M144.3,20.4c-1.4,0-2.5,1.6-2.5,4.1c0,2.5,1,4.1,2.5,4.1c1.5,0,2.5-1.6,2.5-4.1
			C146.8,22,145.9,20.4,144.3,20.4z"/>
	</g>
</g>
</svg>
