<?xml version="1.0" encoding="utf-8"?>
<!-- Generator: Adobe Illustrator 19.1.0, SVG Export Plug-In . SVG Version: 6.00 Build 0)  -->
<svg version="1.1" xmlns="http://www.w3.org/2000/svg" xmlns:xlink="http://www.w3.org/1999/xlink" x="0px" y="0px"
	 viewBox="0 0 59.7 14.6" style="enable-background:new 0 0 59.7 14.6;" xml:space="preserve">
<style type="text/css">
	.st0{display:none;}
	.st1{display:inline;}
	.st2{fill:#FFFFFF;}
</style>
<g id="bg" class="st0">
	<rect x="-46.6" y="-56" class="st1" width="447.8" height="80.6"/>
</g>
<g id="レイヤー_1">
	<g>
		<path class="st2" d="M2.9,12.1c-1.3,0-2.3-0.9-2.3-2.2V6.1h1.3v3.7c0,0.8,0.3,1.1,0.7,1.1c0.4,0,0.8-0.3,0.8-1.1V6.1h2.4v3.8
			C5.7,11.3,4.7,12.1,2.9,12.1z"/>
		<path class="st2" d="M9,12V9.4C9,9,8.8,8.7,8.5,8.7C8.3,8.7,8,9,7.9,9.3V12H6.8V7.8h1v0.5C8,8,8.5,7.7,9.2,7.7
			c1.1,0,1.9,0.6,1.9,1.5V12H9z"/>
		<path class="st2" d="M12,12V6.1h1.6V12H12z"/>
		<path class="st2" d="M14.8,7.3V6.1h1.7v1.2H14.8z M14.8,12V7.8h1.6V12H14.8z"/>
		<path class="st2" d="M19.6,12V9.4c0-0.4-0.2-0.7-0.4-0.7c-0.3,0-0.5,0.2-0.6,0.6V12h-1.1V7.8h1v0.5c0.2-0.3,0.7-0.6,1.3-0.6
			c1.1,0,1.9,0.6,1.9,1.5V12H19.6z"/>
		<path class="st2" d="M24.7,12l-0.9-1.6V12h-1.1V6.1h1.1V9l0.8-1.2h2l-1.4,1.7l1.6,2.5H24.7z"/>
		<path class="st2" d="M32.5,8.1V12h-1.5V8.1h-1.4v-2h4.7v2H32.5z"/>
		<path class="st2" d="M40.1,12h-2.4l-0.3-2.2c0-0.2-0.1-0.7-0.1-1h0c0,0.2,0,0.7-0.1,1L36.9,12h-1.5l-0.9-4.2h1.1l0.4,2.3
			c0,0.2,0.1,0.8,0.1,0.9h0c0-0.2,0-0.8,0-0.9l0.4-2.3H38l0.4,2.4c0,0.2,0,0.7,0,0.9h0c0-0.2,0-0.7,0-0.9l0.4-2.4H41L40.1,12z"/>
		<path class="st2" d="M41.6,7.3V6.1h1.7v1.2H41.6z M41.6,12V7.8h1.6V12H41.6z"/>
		<path class="st2" d="M46.6,12.1c-1.5,0-2.2-0.3-2.2-1.4V9.1H44V7.8h0.5V6.5h1.3v1.3h0.9v1.3h-0.9v0.7c0,0.5,0.2,0.6,1.1,0.6
			L46.6,12.1z"/>
		<path class="st2" d="M49.9,12.1c-1.5,0-2.2-0.3-2.2-1.4V9.1h-0.5V7.8h0.5V6.5H49v1.3h0.9v1.3H49v0.7c0,0.5,0.2,0.6,1.1,0.6
			L49.9,12.1z"/>
		<path class="st2" d="M51.8,10.4c0,0.3,0.4,0.6,0.7,0.6c0.4,0,0.6-0.2,0.7-0.6H55c-0.1,1-0.8,1.6-2.2,1.6c-1.2,0-2.1-0.8-2.1-2.2
			c0-1.3,0.9-2.2,2-2.2c1.6,0,2.3,0.8,2.3,2.3L51.8,10.4z M52.4,8.7c-0.3,0-0.6,0.3-0.6,0.8L53,9.3C53,9,52.7,8.7,52.4,8.7z"/>
		<path class="st2" d="M57.8,9.5c-0.4,0-0.7,0.2-0.8,0.4V12h-1.2V7.8h1.1v0.4c0.2-0.4,0.7-0.5,1.6-0.5v2C58.3,9.5,58.1,9.5,57.8,9.5
			z"/>
	</g>
</g>
</svg>
