<?xml version="1.0" encoding="utf-8"?>
<!-- Generator: Adobe Illustrator 19.1.0, SVG Export Plug-In . SVG Version: 6.00 Build 0)  -->
<svg version="1.1" xmlns="http://www.w3.org/2000/svg" xmlns:xlink="http://www.w3.org/1999/xlink" x="0px" y="0px"
	 viewBox="0 0 91.5 14.6" style="enable-background:new 0 0 91.5 14.6;" xml:space="preserve">
<style type="text/css">
	.st0{display:none;}
	.st1{display:inline;}
	.st2{fill:#FFFFFF;}
</style>
<g id="bg" class="st0">
	<rect x="-46.6" y="-56" class="st1" width="447.8" height="80.6"/>
</g>
<g id="レイヤー_1">
	<g>
		<path class="st2" d="M1,13V2.8h2.4v6.6h5V13H1z"/>
		<path class="st2" d="M9.6,4.9v-2h2.9v2H9.6z M9.7,13V5.7h2.8V13H9.7z"/>
		<path class="st2" d="M17.9,13V8.5c0-0.7-0.3-1.1-0.8-1.1c-0.5,0-0.9,0.4-1,1V13h-2V5.7h1.8v0.8c0.3-0.5,1.2-1,2.3-1
			c2,0,3.3,1.1,3.3,2.5V13H17.9z"/>
		<path class="st2" d="M26.8,13l-1.6-2.8V13h-2V2.8h2v4.9l1.5-2h3.5l-2.4,2.9l2.8,4.3H26.8z"/>
		<path class="st2" d="M40.4,6.2V13h-2.5V6.2h-2.4V2.8h8.2v3.4H40.4z"/>
		<path class="st2" d="M53.5,13h-4.2l-0.5-3.8c-0.1-0.4-0.1-1.3-0.1-1.7h0c0,0.4-0.1,1.3-0.1,1.7L48,13h-2.5L44,5.7h2l0.7,4
			c0.1,0.3,0.1,1.4,0.1,1.6h0c0-0.3,0-1.3,0.1-1.6l0.7-4h2.3l0.8,4.1c0.1,0.3,0.1,1.3,0.1,1.6h0c0-0.3,0-1.2,0.1-1.6l0.7-4.1h3.6
			L53.5,13z"/>
		<path class="st2" d="M56.1,4.9v-2H59v2H56.1z M56.2,13V5.7H59V13H56.2z"/>
		<path class="st2" d="M64.8,13.1c-2.6,0-3.8-0.5-3.8-2.3V8h-0.8V5.7h0.9V3.5h2.2v2.3h1.5V8h-1.5v1.2c0,0.9,0.4,1,1.9,1L64.8,13.1z"
			/>
		<path class="st2" d="M70.5,13.1c-2.6,0-3.8-0.5-3.8-2.3V8h-0.8V5.7h0.9V3.5H69v2.3h1.5V8H69v1.2c0,0.9,0.4,1,1.9,1L70.5,13.1z"/>
		<path class="st2" d="M73.7,10.2c0.1,0.6,0.6,1.1,1.2,1.1c0.7,0,1-0.3,1.1-1h3.2c-0.1,1.8-1.5,2.8-3.9,2.8c-2.1,0-3.6-1.5-3.6-3.8
			c0-2.2,1.5-3.8,3.5-3.8c2.7,0,4,1.4,4,4L73.7,10.2z M74.7,7.4c-0.5,0-1,0.5-1,1.3l2.1-0.3C75.8,7.8,75.4,7.4,74.7,7.4z"/>
		<path class="st2" d="M84.2,8.6c-0.6,0-1.2,0.3-1.4,0.8V13h-2.1V5.7h2v0.8c0.4-0.6,1.3-0.9,2.8-0.9V9C85.1,8.7,84.7,8.6,84.2,8.6z"
			/>
	</g>
</g>
</svg>
