<?xml version="1.0" encoding="utf-8"?>
<!-- Generator: Adobe Illustrator 17.1.0, SVG Export Plug-In . SVG Version: 6.00 Build 0)  -->
<!DOCTYPE svg PUBLIC "-//W3C//DTD SVG 1.1//EN" "http://www.w3.org/Graphics/SVG/1.1/DTD/svg11.dtd">

<svg enable-background="new 0 0 78 44" id="レイヤー_1" version="1.1" viewbox="0 0 78 44" x="0px" xml:space="preserve" xmlns="http://www.w3.org/2000/svg" xmlns:xlink="http://www.w3.org/1999/xlink" y="0px">
<g>
<path d="M27.6,37.2H17.2c0,0-0.7,2.6-1.1,4.3c-1.8,0.1-8.8,0.2-14.6,0.1c1-3.7,5.3-21.1,10.8-39.1
		c1.6-0.1,7.9-0.3,13.9,0C31.8,20.1,36.9,37.7,38,41.5c-3.1,0-7.7,0-9.2-0.1C28.3,39.8,27.6,37.2,27.6,37.2z M18.9,30.6
		c2.7-0.1,4.3-0.1,6.7-0.1c-1-3.5-1.7-6.4-3.4-12.2C20.8,24.1,19.9,27,18.9,30.6z" fill="#FFFFFF"></path>
<path d="M44.5,18c7.9-0.4,16.3-0.2,18.6-0.2c0.1,4.3,0,7.9,0,9.2c-7.5,0.2-16.3,0.2-18.6,0.3
		C44.4,23.1,44.5,19.3,44.5,18z" fill="#FFFFFF"></path>
</g>
</svg>
