<?xml version="1.0" encoding="utf-8"?>
<!-- Generator: Adobe Illustrator 17.1.0, SVG Export Plug-In . SVG Version: 6.00 Build 0)  -->
<!DOCTYPE svg PUBLIC "-//W3C//DTD SVG 1.1//EN" "http://www.w3.org/Graphics/SVG/1.1/DTD/svg11.dtd">

<svg enable-background="new 0 0 78 44" id="レイヤー_1" version="1.1" viewbox="0 0 78 44" x="0px" xml:space="preserve" xmlns="http://www.w3.org/2000/svg" xmlns:xlink="http://www.w3.org/1999/xlink" y="0px">
<g>
<path d="M30.9,33.4c0.2,6.2-4,8.2-9.7,8.1c0,0-10.5,0.1-19.3-0.1c-0.4-17-0.3-35.6-0.3-39
		c12.2-0.8,20.5-0.1,20.5-0.1c12.9,1.1,11,15.4,8.9,20c-0.9,2-1.9,3.2-3.2,4.5C30.1,28.9,30.9,31.6,30.9,33.4z M19.2,17.5
		c-0.2,0-0.7,0-2.7,0v7.4c1.9-0.1,2.4-0.1,2.7-0.1c0.3,0,0.5,0,1.1-0.1c5.3-0.3,3.6-7-0.1-7.1C19.6,17.5,19.5,17.5,19.2,17.5z
		 M20.1,27.9c-0.6,0-0.7,0-0.9-0.1c-0.3,0-0.7,0-2.7,0V34c1.8,0,2.2,0,2.4-0.1c0.3,0,0.5-0.1,1.5-0.1c1.8-0.1,2.6-1.6,2.6-2.9
		C22.9,29.5,22,28,20.1,27.9z" fill="#FFFFFF"></path>
<path d="M38.8,18c7.9-0.4,16.3-0.2,18.6-0.2c0.1,4.3,0,7.9,0,9.2c-7.5,0.2-16.3,0.2-18.6,0.3
		C38.7,23.1,38.8,19.3,38.8,18z" fill="#FFFFFF"></path>
</g>
</svg>
