<?xml version="1.0" encoding="utf-8"?>
<!-- Generator: Adobe Illustrator 17.1.0, SVG Export Plug-In . SVG Version: 6.00 Build 0)  -->
<!DOCTYPE svg PUBLIC "-//W3C//DTD SVG 1.1//EN" "http://www.w3.org/Graphics/SVG/1.1/DTD/svg11.dtd">

<svg enable-background="new 0 0 78 44" id="レイヤー_1" version="1.1" viewbox="0 0 78 44" x="0px" xml:space="preserve" xmlns="http://www.w3.org/2000/svg" xmlns:xlink="http://www.w3.org/1999/xlink" y="0px">
<g>
<path d="M24.1,23.9c6.5,3.4,7,6.8,5.9,11c-0.7,2.7-3,5.2-7.9,6.2c-4.1,0.8-11.3,1.3-20.2,0.4
		c-0.2-2.8-0.2-5.5-0.2-6.8c3.4,1,7.4,0.8,7.4,0.8c3.8-0.2,6-1.1,6.2-2.4c0.4-1.6-1-2.3-2.4-2.8c-1.4-0.5-3.4-1-5.7-2
		c-3.6-1.6-5.5-4.9-5.8-8.6C1,13.8,2.2,8.5,7.2,5.5c3.4-2,7.8-2.8,12.2-2.9c4.1-0.1,8.1,0.2,11.2,0.4c0.1,7.3,0,14.5,0,16.9
		c-3.8-1.2-6.4-0.4-6.4-0.3C21.9,20.3,22.6,23.1,24.1,23.9z" fill="#FFFFFF"></path>
<path d="M57.4,38.1c-4.3,0.2-7.9,0.1-9.2,0C48.2,33.7,48.1,27,48.1,27c-3.8,0.1-7.4,0.1-11.1,0.1
		c-0.2-4-0.1-7.8,0.1-9.2c4.3-0.1,11-0.2,11-0.2c0-3.8-0.1-7.3-0.1-11c4-0.2,7.8-0.1,9.2,0c0.1,4.3,0.2,11,0.2,11h11.1
		c0.2,4.3,0.1,7.9,0,9.2c-4.3,0-11,0.1-11,0.1V38.1z" fill="#FFFFFF"></path>
</g>
</svg>
