<?xml version="1.0" encoding="UTF-8"?>
<svg version="1.1" xmlns="http://www.w3.org/2000/svg" width="12" height="10">
<path d="M0 0 C3.3 0 6.6 0 10 0 C10 2.31 10 4.62 10 7 C9.34 7 8.68 7 8 7 C8 7.99 8 8.98 8 10 C4.7 10 1.4 10 -2 10 C-2 7.69 -2 5.38 -2 3 C-1.34 3 -0.68 3 0 3 C0 2.01 0 1.02 0 0 Z M1 1 C1 2.65 1 4.3 1 6 C3.64 6 6.28 6 9 6 C9 4.35 9 2.7 9 1 C6.36 1 3.72 1 1 1 Z M-1 4 C-1 5.65 -1 7.3 -1 9 C1.64 9 4.28 9 7 9 C7 8.34 7 7.68 7 7 C4.69 7 2.38 7 0 7 C-0.33 6.01 -0.66 5.02 -1 4 Z " fill="#0099CC" transform="translate(2,0)"/>
</svg>
