<?xml version="1.0" encoding="utf-8"?>
<!-- Generator: Adobe Illustrator 17.1.0, SVG Export Plug-In . SVG Version: 6.00 Build 0)  -->
<!DOCTYPE svg PUBLIC "-//W3C//DTD SVG 1.1//EN" "http://www.w3.org/Graphics/SVG/1.1/DTD/svg11.dtd">

<svg enable-background="new 0 0 115.5 34.3" version="1.1" viewbox="0 0 115.5 34.3" x="0px" xml:space="preserve" xmlns="http://www.w3.org/2000/svg" xmlns:xlink="http://www.w3.org/1999/xlink" y="0px">
<g display="none" id="bg">
<rect display="inline" height="80.6" width="447.8" y="-46.9"></rect>
</g>
<g id="レイヤー_1">
<g>
<path d="M12.7,33.2c0,0-4.8,1-9.9,0.6c0-0.9,0-2.3,0-3c8.1,0.1,9.2-6.3,9.2-6.7c0,0-8.9,0.1-11.7,0.2
			c0-1.2-0.1-4.8,0-7.7l20.6-0.2c0.2,3.5-0.3,8.1-0.3,8.1C20.3,30.5,17.1,32.2,12.7,33.2z M3.3,14.7c-0.1-2.4-0.1-5,0-5.9
			c5.5,0,11.9,0,13.3,0c0,2.4,0,4.8,0,5.7C10.8,14.7,4.6,14.7,3.3,14.7z" fill="#FFFFFF"></path>
<path d="M22.6,18.7c0-1.1-0.1-4.4,0-7.3c1.3,0,5.9,0,10.6,0c0,0.9,0.1,3.8,0,7.2C31.9,18.6,27.3,18.7,22.6,18.7z
			 M32.8,33.7c0,0-5.5,0.6-10,0.4c0-1.2-0.1-5.3,0.1-8.8c6.3,0.3,9.8-1.3,9.8-1.4c0.2-0.1,6.4-3,6.8-13.5c0.9,0,3.5,0,4.9,0
			c0.2,9.1-0.8,13.5-0.8,13.5C42.6,28.3,39.3,33.5,32.8,33.7z" fill="#FFFFFF"></path>
<path d="M61.6,30.7c0,0,0.2,2.1,0.3,3.1c-1.2,0-4.5,0.1-8.6,0.1c-0.1-1-0.3-1.5-0.5-3.2h-5.8
			c-0.1-0.9-0.2-3.6,0-7.2c1.6-0.1,3.2-0.1,5.1-0.1c-0.1-0.9-0.1-2.1-0.2-3h-5.3c0-1-0.1-3.8,0.1-7.4c1.4,0,2.8-0.1,4.5-0.2
			c0,0-0.2-1.7-0.3-3.9c1.1,0,4.5-0.2,8.5-0.1c0.1,1.2,0.3,2.6,0.4,4c0,0,3.6,0,6.7,0.1c0.1,0.9,0.3,3.5,0.2,7.3
			c-1.2,0.1-3.7,0.1-6.2,0.2c0.1,0.9,0.1,2.1,0.2,2.9c0,0,3.2,0,6,0.1c0,0.9,0,3.7-0.1,7.2C65.3,30.6,63.5,30.6,61.6,30.7z" fill="#FFFFFF"></path>
<path d="M69.1,18.7c0-1.1-0.1-4.4,0-7.3c1.3,0,5.9,0,10.6,0c0,0.9,0.1,3.8,0,7.2C78.4,18.6,73.8,18.7,69.1,18.7z
			 M79.3,33.7c0,0-5.5,0.6-10,0.4c0-1.2-0.1-5.3,0.1-8.8c6.3,0.3,9.8-1.3,9.8-1.4c0.2-0.1,6.4-3,6.8-13.5c0.9,0,3.5,0,4.9,0
			c0.2,9.1-0.8,13.5-0.8,13.5C89.1,28.3,85.9,33.5,79.3,33.7z" fill="#FFFFFF"></path>
<path d="M103.2,32.5c-0.1,0.1-4.1,1.4-8.7,1.6c0-1,0-2.2,0.1-2.6c4.3-1.6,7.5-5,7.5-5c2.4-2.8,3.7-5.9,3.9-7.9
			c-1.6,0-3.1,0-4.4,0c0,0-0.7,2.3-1.5,4.3c-0.9,0-4.6,0.1-7.1,0c0.3-1.3,1.2-5.5,3.4-12.8c0.9,0,4.9-0.1,18.9,0.1
			c-0.5,7.4-2.3,13.5-2.3,13.5C111.6,27.8,107,31.1,103.2,32.5z M104.7,7.9c0-0.6-0.1-1-0.1-1.9c0-1,0-2.5,0-5.5
			c0.6,0,2.2-0.1,4.1,0c0.1,1,0.2,4.5,0.1,7.5H104.7z M111,0.4c0.7,0,2.2,0,4.1,0c0,1,0.1,4.4,0,7.3c-0.7,0-2.3,0.1-4,0.1
			C111.1,7.1,111,5.2,111,0.4z" fill="#FFFFFF"></path>
</g>
</g>
</svg>
