<?xml version="1.0" encoding="utf-8"?>
<!-- Generator: Adobe Illustrator 19.0.0, SVG Export Plug-In . SVG Version: 6.00 Build 0)  -->
<svg version="1.1" xmlns="http://www.w3.org/2000/svg" xmlns:xlink="http://www.w3.org/1999/xlink" x="0px" y="0px"
	 viewBox="0 0 148 25.9" style="enable-background:new 0 0 148 25.9;" xml:space="preserve">
<style type="text/css">
	.st0{display:none;}
	.st1{display:inline;}
	.st2{fill:#FFFFFF;}
</style>
<g id="bg" class="st0">
	<rect y="-55.3" class="st1" width="447.8" height="80.6"/>
</g>
<g id="レイヤー_1">
	<g>
		<path class="st2" d="M6.6,2.5c0.7,4.9,0.8,8.6,0.8,9.7c-2.5,0-5,0-5.9,0C0.4,8,0.6,3.7,0.6,2.5C2.9,2.5,5.7,2.5,6.6,2.5z M27,2.4
			c0.2,4.5,0,6.9-1,11.7c-1.2,5.5-5.6,9.2-9.1,10.3c-3.5,1-10.5,0.8-10.5,0.8c0-1.7,0-2.7,0.1-3.2c3.9-0.1,6.6-2.3,8.4-4.1
			c2.8-2.8,3.4-9,3-15.6C17.7,2.4,21.6,2.3,27,2.4z M14.2,2.4c0.7,5.2,0.9,8.7,0.9,9.7c0,0-2.4,0-5.7,0C8.7,7.9,8.5,3.7,8.6,2.5
			C8.6,2.5,10.7,2.5,14.2,2.4z"/>
		<path class="st2" d="M44,16.4c0,0-0.2,5.4-0.5,8.9c-1,0-4.2,0.1-7,0.1c-0.1-1.7-0.2-2.4-0.3-3c0-0.6,0-1-0.1-2.6
			c0,0-3.9,0.3-6.7,0.3c-0.1-2.4-0.1-3.7-0.1-4.3c3.5-1,6.7-3.3,6.7-3.3c0.1-0.1,3-3.4,3.1-10.4c3.4-0.1,8.8,0,10.2,0
			c-0.1,3.3-1.3,7.1-1.3,7.1C47.6,11.2,46.2,14.3,44,16.4z"/>
		<path class="st2" d="M51.7,7.7c1.6,0,9.3,0,16.6,0.1c0,1.1,0.1,4.8,0,8.5c-1.6,0-9.1,0-16.6,0C51.7,15.2,51.5,11.2,51.7,7.7z"/>
		<path class="st2" d="M79.1,17.3c0,0-0.1,5.5-0.1,8.1c-1.1,0-4.5,0-8.3,0c0-2-0.2-12.1-0.1-24.2c1.2,0,5,0,8.6,0.1v6.3
			c0,0,4.2,2,9,4.6c-0.3,1-1.5,4.3-3.1,7.8C83.6,19.3,81,18.1,79.1,17.3z"/>
		<path class="st2" d="M107.6,17.5c-0.5,4.3-2.4,7.5-7,8c-2.4,0.3-3.9,0.1-4.9,0c-0.5-0.1-0.9-0.2-1.2-0.3c-0.2-0.1-0.4-0.1-0.6-0.1
			c0-1,0-1.8,0-2.2c1.6,0.1,3.3-0.4,3.3-0.4s2.2-0.6,1.8-2.5c-2.3,0.5-4.4-0.8-4.4-0.8c-2.7-1.6-3.2-8.3,3.9-9.2l0-0.7
			c0,0-3.7,0-7.8,0.1c0-1.1-0.1-4.4,0-7c5.6-0.2,8.8-0.2,8.8-0.2c0-0.7,0.1-1.2,0.1-1.6c3.4-0.1,6.4,0,7.4,0v1.8c0,0,2.9,0,5,0
			c0,1,0,4,0,6.7c-0.8,0-2.9,0-4.4,0.1C107.7,13.2,107.8,15.7,107.6,17.5z M98.2,15.9c0,0.8,0.5,1.4,1.4,1.4c1.2,0,1.6-0.6,1.6-1.5
			c-0.1-0.6-0.4-1.3-1.4-1.3S98.2,15,98.2,15.9z"/>
		<path class="st2" d="M115.9,23.3c-0.9-1.4-1-4,0.6-5.3c2.1-1.7,5.3-1.4,6.5,0.5c0,0,1.3,1.9,0,4c2.9-0.6,2.9-3.4,2.9-3.4
			c0-2.5-1.7-4-4.6-4.1c-0.1,0-3.2-0.1-7,1.8c0-1.1-0.1-3.7-0.1-6.4c0.8-0.5,4.2-2.5,10.6-4.9c0,0-4.5,0.5-9.7,0.7c0-0.8-0.1-3,0-5
			c1.7,0,9.9-0.2,15.5-0.2c0,0.9,0.1,3.4-0.1,5.1c-0.9,0.2-4.3,1.1-9.1,2.6c9.5,0,14.5,4.3,12.1,12.1c-1.1,3.6-4.6,4.9-10.4,4.8
			C119.2,25.7,117.2,25.2,115.9,23.3z M118.4,21.7c0,1,0.8,1.3,1.5,1.3c0.9,0,1.6-0.6,1.6-1.5c-0.1-0.6-0.5-1.4-1.4-1.4
			C118.8,20.1,118.4,20.9,118.4,21.7z"/>
		<path class="st2" d="M138.2,17.9c-0.2-1.6-1.2-9-1.8-16.4c1.3,0,6.3-0.2,11.3,0c-0.1,1.6-0.4,8.8-1.8,16.3
			C145,17.9,141.5,17.9,138.2,17.9z M138.4,24.6c0-0.8-0.1-2.7-0.1-4.2c1-0.1,4.4-0.2,7.7,0c0,0.7,0,2.6-0.1,4.2
			C144.9,24.6,141.7,24.7,138.4,24.6z"/>
	</g>
</g>
</svg>
