<?xml version="1.0" encoding="utf-8"?>
<!-- Generator: Adobe Illustrator 19.1.1, SVG Export Plug-In . SVG Version: 6.00 Build 0)  -->
<svg version="1.1" id="レイヤー_1" xmlns="http://www.w3.org/2000/svg" xmlns:xlink="http://www.w3.org/1999/xlink" x="0px"
	 y="0px" viewBox="-67 4.1 16 19.9" style="enable-background:new -67 4.1 16 19.9;" xml:space="preserve">
<style type="text/css">
	.st0{fill:#9E39FF;}
</style>
<g>
	<path class="st0" d="M-66.9,23.7c0-0.4,0-1.2,0.1-2.1c1.5,0.5,3.3,0.5,3.3,0.5c1.6-0.1,2.7-1.1,2.4-2.5c-0.2-0.9-1.1-1.9-3.2-1.7
		c0,0-1.5,0-2.5,0.2c0-5.1,0-9,0-10.7c0-1,0-2,0-3C-56.3,4.2-53,4.2-52.1,4.2c0.1,1.6,0,5.1,0,6.1c-4.1,0-8.8,0-8.8,0s0,0.8,0,2.5
		c3.7-0.7,6.9,0.7,6.9,0.7c2.3,1,3.4,3.2,3,5.5c-0.6,3.8-4.4,4.9-6.8,4.8C-57.9,23.8-64.2,24.2-66.9,23.7z"/>
</g>
</svg>
