<?xml version="1.0" encoding="utf-8"?>
<!-- Generator: Adobe Illustrator 17.1.0, SVG Export Plug-In . SVG Version: 6.00 Build 0)  -->
<!DOCTYPE svg PUBLIC "-//W3C//DTD SVG 1.1//EN" "http://www.w3.org/Graphics/SVG/1.1/DTD/svg11.dtd">

<svg enable-background="new 0 0 27.3 32.9" id="レイヤー_1" version="1.1" viewbox="0 0 27.3 32.9" x="0px" xml:space="preserve" xmlns="http://www.w3.org/2000/svg" xmlns:xlink="http://www.w3.org/1999/xlink" y="0px">
<g>
<path d="M24.3,24.9c0,3,0,5.6,0,7.9c-5.1,0.2-9.9,0-11.3,0c-0.1-3-0.2-7.6-0.2-7.6c-5.1,0.1-8.3,0.2-12.8,0.2
		c1-10.3,2.7-22.8,3-25.3c2.2,0,5.3,0.1,6.5,0.2c-0.8,8.3-1.7,16-1.7,16c1.6-0.1,5-0.2,5-0.2c0-4.6,0-11.9,0.1-15.9
		c4.4-0.2,9.8,0,11.4,0.1c0,8.5,0,15.9,0,15.9c1.3,0,2.3,0.1,3,0.1c0,3.9-0.1,7.5-0.1,8.7C26.1,24.8,24.3,24.9,24.3,24.9z" fill="#FFFFFF"></path>
</g>
</svg>
