<?xml version="1.0" encoding="utf-8"?>
<!-- Generator: Adobe Illustrator 19.1.1, SVG Export Plug-In . SVG Version: 6.00 Build 0)  -->
<svg version="1.1" id="レイヤー_1" xmlns="http://www.w3.org/2000/svg" xmlns:xlink="http://www.w3.org/1999/xlink" x="0px"
	 y="0px" viewBox="-66 3.6 17.7 20.4" style="enable-background:new -66 3.6 17.7 20.4;" xml:space="preserve">
<style type="text/css">
	.st0{fill:#9E39FF;}
</style>
<g>
	<path class="st0" d="M-63.1,23.5c-0.1-0.4-0.1-1-0.1-1.4c2.9-0.2,4.5-1.5,4.6-1.5c1.2-1,2.1-2.5,1.9-4.1c-2.6,0.9-5.2,0.2-5.2,0.2
		c-2.6-0.7-3.9-3.5-3.9-5.7c-0.2-4.6,2.1-7.4,8.7-7.3c3.1,0.1,6.2,0.9,7.7,4.4c2,4.6,1.2,11.2-3.8,14.2
		C-53.2,22.4-58.1,25.1-63.1,23.5z M-60,12c-0.1,1.1,0.8,2,1.7,2c0.7,0,1.8-0.5,1.9-1.6c0.1-1.2-0.8-1.9-1.7-1.9
		C-58.9,10.5-59.9,10.9-60,12z"/>
</g>
</svg>
