<?xml version="1.0" encoding="utf-8"?>
<!-- Generator: Adobe Illustrator 19.1.1, SVG Export Plug-In . SVG Version: 6.00 Build 0)  -->
<svg version="1.1" id="レイヤー_1" xmlns="http://www.w3.org/2000/svg" xmlns:xlink="http://www.w3.org/1999/xlink" x="0px"
	 y="0px" viewBox="-67 4.3 16.4 19.7" style="enable-background:new -67 4.3 16.4 19.7;" xml:space="preserve">
<style type="text/css">
	.st0{fill:#9E39FF;}
</style>
<g>
	<path class="st0" d="M-52.4,19.3c0,1.8,0,3.4,0,4.7c-3.1,0.1-5.9,0-6.8,0c0-1.8-0.1-4.6-0.1-4.6c-3,0.1-4.9,0.1-7.6,0.1
		c0.6-6.2,1.6-13.7,1.7-15.2c1.3,0,3.2,0.1,3.9,0.1c-0.5,5-1,9.6-1,9.6c1-0.1,3-0.1,3-0.1c0-2.8,0-7.1,0.1-9.5
		c2.6-0.1,5.9,0,6.8,0.1c0,5.1,0,9.5,0,9.5c0.8,0,1.4,0,1.8,0c0,2.3,0,4.5-0.1,5.2C-51.3,19.2-52.4,19.3-52.4,19.3z"/>
</g>
</svg>
