<?xml version="1.0" encoding="utf-8"?>
<!-- Generator: Adobe Illustrator 17.1.0, SVG Export Plug-In . SVG Version: 6.00 Build 0)  -->
<!DOCTYPE svg PUBLIC "-//W3C//DTD SVG 1.1//EN" "http://www.w3.org/Graphics/SVG/1.1/DTD/svg11.dtd">

<svg enable-background="new 0 0 27.8 32.9" id="レイヤー_1" version="1.1" viewbox="0 0 27.8 32.9" x="0px" xml:space="preserve" xmlns="http://www.w3.org/2000/svg" xmlns:xlink="http://www.w3.org/1999/xlink" y="0px">
<g>
<path d="M1.7,26.5c-2.6-6-1.8-15.7,0.9-20.2c2.7-4.6,5.3-6.1,10.2-6.3c5.8-0.2,9.3,1.7,11.9,5.3
		c2.9,4.1,4.1,11.8,1.6,19.7c-1.5,4.8-5.7,8-11.9,7.9C9.7,32.9,4.3,32.4,1.7,26.5z M8.6,15c-0.2,1.6-0.1,4.2,2.3,4.8
		c2.1,0.5,4.1-0.5,4.3-3.3c0.2-2.2-0.5-4.9-2.9-5.1C9.6,11.1,8.7,13.5,8.6,15z" fill="#FFFFFF"></path>
</g>
</svg>
