<?xml version="1.0" encoding="utf-8"?>
<!-- Generator: Adobe Illustrator 19.1.1, SVG Export Plug-In . SVG Version: 6.00 Build 0)  -->
<svg version="1.1" id="レイヤー_1" xmlns="http://www.w3.org/2000/svg" xmlns:xlink="http://www.w3.org/1999/xlink" x="0px"
	 y="0px" viewBox="-67 4.3 15.3 19.7" style="enable-background:new -67 4.3 15.3 19.7;" xml:space="preserve">
<style type="text/css">
	.st0{fill:#9E39FF;}
</style>
<g>
	<path class="st0" d="M-52.3,20.6c-1.3,2.5-3.8,3.6-7.5,3.2c0,0-4.7-0.2-6.8-0.6c0-0.5,0-1.6,0-2.7c2.2,0.5,4.3,0.3,4.2-1.8
		c-0.1-1.6-2.4-2-4.2-1.5v-1.8c2.2,0.5,4.6-0.3,4.2-2.1c0-0.1-0.5-2.7-4.5-1.3c0-1.2-0.1-4.6,0-7.4c2.1-0.2,6.8-0.4,9.6,0.1
		c2.3,0.5,4.8,1.8,5.3,5.2c0,0.1,0.4,3.4-2,5C-52,15.7-51.1,18.1-52.3,20.6z"/>
</g>
</svg>
