<?xml version="1.0" encoding="utf-8"?>
<!-- Generator: Adobe Illustrator 19.1.1, SVG Export Plug-In . SVG Version: 6.00 Build 0)  -->
<svg version="1.1" id="レイヤー_1" xmlns="http://www.w3.org/2000/svg" xmlns:xlink="http://www.w3.org/1999/xlink" x="0px"
	 y="0px" viewBox="-67 4.3 16.1 19.7" style="enable-background:new -67 4.3 16.1 19.7;" xml:space="preserve">
<style type="text/css">
	.st0{fill:#9E39FF;}
</style>
<g>
	<path class="st0" d="M-57.9,19.5c0,0,3.8-0.1,5.7,0c0,0.7,0.1,2.5,0,4.4c-1.5,0-8.5,0.1-14.8,0c0-0.7,0-2.4,0-4.4
		c2.9-0.7,6-2.2,5.8-4.3c0-0.2-0.4-2.6-5.7-2.5c0-1.2-0.1-5.4,0-7.8c2.2-0.9,7.6-0.6,7.6-0.6c2.6,0.1,8.3,1.1,8.3,7.3
		c0,0,0,5.7-7,7.2L-57.9,19.5z"/>
</g>
</svg>
