<?xml version="1.0" encoding="utf-8"?>
<!-- Generator: Adobe Illustrator 17.1.0, SVG Export Plug-In . SVG Version: 6.00 Build 0)  -->
<!DOCTYPE svg PUBLIC "-//W3C//DTD SVG 1.1//EN" "http://www.w3.org/Graphics/SVG/1.1/DTD/svg11.dtd">

<svg enable-background="new 0 0 15.3 19.7" id="レイヤー_1" version="1.1" viewbox="0 0 15.3 19.7" x="0px" xml:space="preserve" xmlns="http://www.w3.org/2000/svg" xmlns:xlink="http://www.w3.org/1999/xlink" y="0px">
<g>
<path d="M14.7,16.3c-1.3,2.5-3.8,3.6-7.5,3.2c0,0-4.7-0.2-6.8-0.6c0-0.5,0-1.6,0-2.7c2.2,0.5,4.3,0.3,4.2-1.8
		c-0.1-1.6-2.4-2-4.2-1.5l0-1.8C2.6,11.6,5,10.8,4.6,9c0-0.1-0.5-2.7-4.5-1.3c0-1.2-0.1-4.6,0-7.4c2.1-0.2,6.8-0.4,9.6,0.1
		c2.3,0.5,4.8,1.8,5.3,5.2c0,0.1,0.4,3.4-2,5C15,11.4,15.9,13.8,14.7,16.3z" fill="#7BED00"></path>
</g>
</svg>
