<?xml version="1.0" encoding="utf-8"?>
<!-- Generator: Adobe Illustrator 19.1.1, SVG Export Plug-In . SVG Version: 6.00 Build 0)  -->
<svg version="1.1" id="レイヤー_1" xmlns="http://www.w3.org/2000/svg" xmlns:xlink="http://www.w3.org/1999/xlink" x="0px"
	 y="0px" viewBox="-67 4.2 16.6 19.8" style="enable-background:new -67 4.2 16.6 19.8;" xml:space="preserve">
<style type="text/css">
	.st0{fill:#9E39FF;}
</style>
<g>
	<path class="st0" d="M-66,20.1c-1.6-3.6-1-9.4,0.5-12.1c1.7-2.7,3.2-3.6,6.2-3.8c3.5-0.1,5.6,1,7.1,3.2c1.7,2.5,2.5,7,1,11.8
		c-0.9,2.9-3.4,4.8-7.1,4.7C-61.2,23.9-64.5,23.7-66,20.1z M-61.9,13.2c-0.1,1-0.1,2.5,1.4,2.8c1.3,0.3,2.4-0.3,2.6-2
		c0.1-1.2-0.3-2.8-1.7-3C-61.3,10.9-61.8,12.3-61.9,13.2z"/>
</g>
</svg>
