<?xml version="1.0" encoding="utf-8"?>
<!-- Generator: Adobe Illustrator 19.1.1, SVG Export Plug-In . SVG Version: 6.00 Build 0)  -->
<svg version="1.1" id="レイヤー_1" xmlns="http://www.w3.org/2000/svg" xmlns:xlink="http://www.w3.org/1999/xlink" x="0px"
	 y="0px" viewBox="-67 4 15.7 20" style="enable-background:new -67 4 15.7 20;" xml:space="preserve">
<style type="text/css">
	.st0{fill:#9E39FF;}
</style>
<g>
	<path class="st0" d="M-66.7,20.5c0,0-1.4-4,2.1-6.5c-2.1-1.5-1.9-4.7-1.9-4.7c0.2-3.1,2.6-5.2,7-5.3c4,0,5.8,1.1,6.9,3.5
		c1.1,2.4,0.6,4.9-1.7,6.3c4.6,2.2,2.5,7,2.5,7.1c-1.3,2.9-4.5,3.1-7.4,3.1C-62.3,24-65.6,23.5-66.7,20.5z M-61,11.5
		c-0.1,1,0.7,1.7,1.8,1.7c1.2,0,1.9-0.6,1.9-1.5c0-1.1-0.9-1.6-1.9-1.6C-60.3,10.1-60.9,10.7-61,11.5z M-60.9,16.7
		c-0.1,1.1,0.6,2,2.1,2c1.6,0,2.2-0.9,2.1-1.9c-0.1-0.9-1-1.6-2.2-1.7C-59.9,15.1-60.8,15.8-60.9,16.7z"/>
</g>
</svg>
