<?xml version="1.0" encoding="utf-8"?>
<!-- Generator: Adobe Illustrator 19.1.1, SVG Export Plug-In . SVG Version: 6.00 Build 0)  -->
<svg version="1.1" id="レイヤー_1" xmlns="http://www.w3.org/2000/svg" xmlns:xlink="http://www.w3.org/1999/xlink" x="0px"
	 y="0px" viewBox="63 -4 152 28" style="enable-background:new 63 -4 152 28;" xml:space="preserve">
<style type="text/css">
	.st0{fill:#FF4E00;}
</style>
<g>
	<path class="st0" d="M70.4,14c-0.3,0-0.9,0-1.3,0c0,0,0,1.8,0,3.1c-0.7,0-2.9,0.1-5.3,0c-0.2-6.3-0.2-13-0.2-14.3
		c4.5-0.3,7.5,0,7.5,0c4.7,0,5,6.9,4,8.8c-0.4,0.7-0.8,1.2-1.8,1.7c0.9,1.5,1.7,3.1,2,3.7c-1.5,0-3.1,0-3.5,0
		C71.1,15.8,70.4,14,70.4,14z M69.2,11.8c0.7,0,1.1,0,1.1,0c1.5-0.3,1.5-2.2,0.3-2.8c-0.1,0-0.6-0.3-1.4-0.1
		C69.1,10.2,69.2,11.8,69.2,11.8z"/>
	<path class="st0" d="M81.3,17.2c-1.5,0-3.3-0.2-3.9-2.4c-0.7-2.5,0.3-3.8,2-4.5c0.1,0,2-0.7,4-0.3c0.1-1-0.6-1.3-0.6-1.3
		c0,0-1.6-0.8-5,0.3c0-0.3,0-0.9,0-1.6c1.4-1.3,10.4-3.7,10.4,2.7c0,0,0,4.4,0,6.9C85.4,17.2,81.3,17.2,81.3,17.2z M81.4,14.2
		c0,0,0,2,2.2,1.5c0,0,0.1-1.5,0-2.3C82.6,12.6,81.4,13,81.4,14.2z"/>
	<path class="st0" d="M97.3,12.1c0-0.4-0.1-1.2-0.9-1.3c-0.8-0.1-1.3,0.4-1.3,1.3c0,0,0,1.3,0.1,4.9c-2.4,0.1-4.6,0-5.3,0
		c-0.1-6-0.1-10.3-0.1-11.3c2.2,0,4.2,0,4.8,0c0,1.7,0.2,3,0.2,3c0.8-2.8,2.1-3,2.1-3c4.8-0.7,4.9,1.9,4.9,6.1V17
		c-0.6,0-2.3,0-4.4,0C97.4,13.9,97.3,12.1,97.3,12.1z"/>
	<path class="st0" d="M108.3,12.9c0,0,0,2.8,0,4.2c-2.4,0-4.5,0-5.1,0c-0.2-6.2-0.1-13.1,0-14.3c2.4-0.1,4.3,0,5,0
		c0.1,3.1,0.1,8.5,0.1,8.5s1.5-3.2,2.4-5.2c0.5,0,2,0,3.8,0c-0.3,0.8-1.3,2.9-2.4,5.2c1.1,2.3,2.2,5,2.6,5.9c-1.9,0-3.8,0-4.3,0
		C109.6,16,108.7,13.9,108.3,12.9z"/>
	<path class="st0" d="M121.5,12.2c-0.2,2.4,2,2.6,2,2.6s1.8,0.2,2.3-1c0.3,0,0.9,0,1.8,0c-0.3,1.9-1.3,3.4-5.2,3.4
		c-3.3,0-6-1.3-6.2-5.3c-0.2-4.5,2.6-6.1,6.3-6.1c2.6,0,5.2,1,5.4,4.3c0,0,0.1,1.5,0,2C126,12.1,125.9,12.1,121.5,12.2z M121.4,10.7
		l3.1-0.1c0.4-1.2,0-2.1-1.3-2.1C122.1,8.5,121.4,9.3,121.4,10.7z"/>
	<path class="st0" d="M133.7,17.2c-2.5-0.4-3.8-2.2-4.1-4c-0.3-1.8,0-4.6,1.9-6c0,0,1.7-1.2,4.5-1c0,0,0-1.8,0-3.2
		c0.6,0,2.5-0.1,4.7,0c0,1.4,0,9.3-0.2,14.3C136,17.6,133.7,17.2,133.7,17.2z M136.2,15l0-2.9c-1.6-0.5-2.4,0.3-2.3,1.5
		C134.2,14.8,135.4,14.9,136.2,15z"/>
	<path class="st0" d="M159.3,14.2c0.1,2.3-1.5,3-3.5,3c0,0-3.9,0-7.1,0c-0.1-6.2-0.1-13-0.1-14.3c4.5-0.3,7.5,0,7.5,0
		c4.7,0.4,4,5.6,3.3,7.3c-0.3,0.7-0.7,1.2-1.2,1.7C159,12.5,159.3,13.5,159.3,14.2z M155,8.3c-0.1,0-0.3,0-1,0V11c0.7,0,0.9,0,1,0
		c0.1,0,0.2,0,0.4,0c2-0.1,1.3-2.6,0-2.6C155.1,8.3,155.1,8.3,155,8.3z M155.3,12.1c-0.2,0-0.2,0-0.3,0c-0.1,0-0.3,0-1,0v2.3
		c0.7,0,0.8,0,0.9,0c0.1,0,0.2,0,0.5,0c0.7,0,0.9-0.6,0.9-1.1C156.4,12.7,156,12.2,155.3,12.1z"/>
	<path class="st0" d="M165.3,17.2c-1.5,0-3.3-0.2-3.9-2.4c-0.7-2.5,0.3-3.8,2-4.5c0.1,0,2-0.7,4-0.3c0.1-1-0.6-1.3-0.6-1.3
		c0,0-1.6-0.8-5,0.3c0-0.3,0-0.9,0-1.6c1.4-1.3,10.4-3.7,10.4,2.7c0,0,0,4.4,0,6.9C169.5,17.2,165.3,17.2,165.3,17.2z M165.5,14.2
		c0,0,0,2,2.2,1.5c0,0,0.1-1.5,0-2.3C166.7,12.6,165.5,13,165.5,14.2z"/>
	<path class="st0" d="M180.1,11.7c-0.1,2.7,1.5,3.4,3.3,3.3l0,2.2c-6.8,0.1-8.1-0.6-8-5.4c0,0-0.7,0-1.4,0c0-0.8-0.1-3.4,0-5.8h1.3
		c0,0,0-0.9,0-1.6c0.7,0,2.7,0,4.9,0c0,0.6,0,1.6,0,1.6s1.7,0,3.4,0c0,0.7,0,3.3,0,5.7C183,11.7,181.5,11.7,180.1,11.7z"/>
	<path class="st0" d="M191.2,11.7c-0.1,2.7,1.5,3.4,3.3,3.3l0,2.2c-6.8,0.1-8.1-0.6-8-5.4c0,0-0.7,0-1.4,0c0-0.8-0.1-3.4,0-5.8h1.3
		c0,0,0-0.9,0-1.6c0.7,0,2.7,0,4.9,0c0,0.6,0,1.6,0,1.6s1.7,0,3.4,0c0,0.7,0,3.3,0,5.7C194,11.7,192.6,11.7,191.2,11.7z"/>
	<path class="st0" d="M196,2.6c2.5-0.1,4.5,0,5.1,0c0.1,6,0.1,13.1,0.1,14.4c-2.3,0.1-4.5,0-5.1,0C196,10.8,196,3.9,196,2.6z"/>
	<path class="st0" d="M208,12.2c-0.2,2.4,2,2.6,2,2.6s1.8,0.2,2.3-1c0.3,0,0.9,0,1.8,0c-0.3,1.9-1.3,3.4-5.2,3.4
		c-3.3,0-6-1.3-6.2-5.3c-0.2-4.5,2.6-6.1,6.3-6.1c2.6,0,5.2,1,5.4,4.3c0,0,0.1,1.5,0,2C212.5,12.1,212.4,12.1,208,12.2z M207.9,10.7
		l3.1-0.1c0.4-1.2,0-2.1-1.3-2.1C208.6,8.5,207.9,9.3,207.9,10.7z"/>
</g>
</svg>
