<?xml version="1.0" encoding="utf-8"?>
<!-- Generator: Adobe Illustrator 19.1.0, SVG Export Plug-In . SVG Version: 6.00 Build 0)  -->
<svg version="1.1" xmlns="http://www.w3.org/2000/svg" xmlns:xlink="http://www.w3.org/1999/xlink" x="0px" y="0px"
	 viewBox="0 0 73.9 59.5" style="enable-background:new 0 0 73.9 59.5;" xml:space="preserve">
<style type="text/css">
	.st0{display:none;}
	.st1{display:inline;}
</style>
<g id="bg" class="st0">
	<rect y="-21.6" class="st1" width="447.8" height="80.6"/>
</g>
<g id="レイヤー_1">
	<g>
		<path d="M10.9,54.1L10.1,52H9.7v2.1H8.5v-5.5h2.7c1.1,0,1.8,0.6,1.8,1.6c0,0.8-0.4,1.3-1,1.5l1.3,2.3H10.9z M10.2,49.7H9.7V51h0.5
			c0.3,0,0.6-0.2,0.6-0.7C10.9,49.9,10.5,49.7,10.2,49.7z"/>
		<path d="M14.7,52.6c0,0.3,0.3,0.6,0.6,0.6c0.4,0,0.5-0.1,0.6-0.5h1.7c-0.1,1-0.8,1.5-2.1,1.5c-1.1,0-1.9-0.8-1.9-2
			c0-1.2,0.8-2,1.9-2c1.5,0,2.1,0.7,2.1,2.1L14.7,52.6z M15.2,51c-0.3,0-0.6,0.3-0.6,0.7l1.1-0.2C15.8,51.2,15.6,51,15.2,51z"/>
		<path d="M20.3,55.5c-0.7,0-1.3-0.1-1.6-0.2l-0.2-1.1c0.4,0.1,0.8,0.2,1.1,0.2c0.7,0,0.8-0.2,0.8-0.6v-0.3
			c-0.2,0.2-0.5,0.3-0.8,0.3c-0.7,0-1.4-0.6-1.4-1.9c0-1.2,0.7-1.9,1.4-1.9c0.4,0,0.8,0.2,0.9,0.5l0.1-0.4h1.6v3.7
			C22.3,55,21.5,55.5,20.3,55.5z M20.4,51.5c-0.1-0.3-0.3-0.5-0.6-0.5c-0.4,0-0.6,0.3-0.6,0.9c0,0.7,0.3,1,0.6,1
			c0.3,0,0.6-0.3,0.6-0.7V51.5z"/>
		<path d="M25.5,54.1v-0.4c-0.2,0.3-0.5,0.5-1,0.5c-0.7,0-1.3-0.5-1.3-1.4v-2.6h1.1v2.3c0,0.4,0.3,0.6,0.6,0.6
			c0.3,0,0.5-0.2,0.6-0.5v-2.4h1.7v3.9H25.5z"/>
		<path d="M28,54.1v-5.5h1.5v5.5H28z"/>
		<path d="M34.3,54.1c-0.1,0-0.3,0-0.4,0c-0.6,0-1.4-0.2-1.4-0.4c-0.2,0.3-0.6,0.4-1.1,0.4c-0.6,0-1.1-0.4-1.1-1.1c0,0,0,0,0,0
			c0-0.7,0.3-1.1,1.1-1.4c0.4-0.1,0.7-0.2,0.7-0.4c0-0.2-0.1-0.3-0.4-0.3c-0.3,0-0.7,0.2-0.9,0.6l-0.4-0.9c0.3-0.4,1-0.6,1.8-0.6
			c1.2,0,1.8,0.4,1.8,1.3v1.3c0,0.2,0.1,0.3,0.3,0.3c0.1,0,0.2,0,0.3,0L34.3,54.1z M32.1,52.2c-0.1,0.1-0.2,0.2-0.4,0.3
			c-0.2,0.1-0.3,0.2-0.3,0.5c0,0.2,0.1,0.3,0.3,0.3c0.2,0,0.4-0.2,0.5-0.4V52.2z"/>
		<path d="M36.9,51.7c-0.3,0-0.6,0.2-0.7,0.4v1.9H35v-3.9h1.1v0.4c0.2-0.3,0.7-0.5,1.5-0.5v1.8C37.4,51.8,37.2,51.7,36.9,51.7z"/>
		<path d="M43.7,54.1h-2.8v-5.5h2.6c1,0,1.7,0.6,1.7,1.4c0,0.6-0.3,1-0.8,1.1l0,0c0.6,0,1.1,0.5,1.1,1.4
			C45.6,53.4,44.9,54.1,43.7,54.1z M42.6,49.6h-0.5v1.1h0.5c0.3,0,0.5-0.2,0.5-0.5C43.1,49.9,42.9,49.6,42.6,49.6z M42.7,51.7h-0.6
			V53h0.6c0.4,0,0.6-0.2,0.6-0.7C43.3,51.9,43,51.7,42.7,51.7z"/>
		<path d="M50,54.1c-0.1,0-0.3,0-0.4,0c-0.6,0-1.4-0.2-1.4-0.4c-0.2,0.3-0.6,0.4-1.1,0.4c-0.6,0-1.1-0.4-1.1-1.1c0,0,0,0,0,0
			c0-0.7,0.3-1.1,1.1-1.4c0.4-0.1,0.7-0.2,0.7-0.4c0-0.2-0.1-0.3-0.4-0.3c-0.3,0-0.7,0.2-0.9,0.6L46,50.7c0.3-0.4,1-0.6,1.8-0.6
			c1.2,0,1.8,0.4,1.8,1.3v1.3c0,0.2,0.1,0.3,0.3,0.3c0.1,0,0.2,0,0.3,0L50,54.1z M47.8,52.2c-0.1,0.1-0.2,0.2-0.4,0.3
			c-0.2,0.1-0.3,0.2-0.3,0.5c0,0.2,0.1,0.3,0.3,0.3c0.2,0,0.4-0.2,0.5-0.4V52.2z"/>
		<path d="M52.8,54.1c-1.4,0-2-0.3-2-1.3v-1.5h-0.4v-1.2h0.5v-1.2H52v1.2h0.8v1.2H52v0.7c0,0.5,0.2,0.5,1,0.5L52.8,54.1z"/>
		<path d="M55.9,54.1c-1.4,0-2-0.3-2-1.3v-1.5h-0.4v-1.2h0.5v-1.2h1.2v1.2h0.8v1.2h-0.8v0.7c0,0.5,0.2,0.5,1,0.5L55.9,54.1z"/>
		<path d="M56.8,54.1v-5.5h1.5v5.5H56.8z"/>
		<path d="M60.2,52.6c0,0.3,0.3,0.6,0.6,0.6c0.4,0,0.5-0.1,0.6-0.5h1.7c-0.1,1-0.8,1.5-2.1,1.5c-1.1,0-1.9-0.8-1.9-2
			c0-1.2,0.8-2,1.9-2c1.5,0,2.1,0.7,2.1,2.1L60.2,52.6z M60.7,51c-0.3,0-0.6,0.3-0.6,0.7l1.1-0.2C61.3,51.2,61.1,51,60.7,51z"/>
	</g>
	<g>
		<polygon points="42.2,5.7 45,8.6 38.6,15.1 26.8,26.9 17.9,35.7 19.9,37.7 27.9,29.7 29.3,31.2 21.3,39.1 23.3,41.1 31.3,33.1 
			32.7,34.6 24.7,42.5 26.7,44.5 35.5,35.6 47.4,23.8 53.8,17.4 56.7,20.3 62,0.4 		"/>
		<polygon points="17.4,20.3 20.3,17.4 27.6,24.6 36.3,15.9 29.1,8.6 32,5.7 12.1,0.4 		"/>
		<polygon points="37.8,34.9 47.4,44.5 49.4,42.5 41.4,34.6 42.9,33.1 50.8,41.1 52.8,39.1 44.8,31.2 46.3,29.7 54.2,37.7 
			56.2,35.7 46.6,26.1 		"/>
	</g>
</g>
</svg>
