<?xml version="1.0" encoding="utf-8"?>
<!-- Generator: Adobe Illustrator 19.1.0, SVG Export Plug-In . SVG Version: 6.00 Build 0)  -->
<svg version="1.1" xmlns="http://www.w3.org/2000/svg" xmlns:xlink="http://www.w3.org/1999/xlink" x="0px" y="0px"
	 viewBox="0 0 51.4 71" style="enable-background:new 0 0 51.4 71;" xml:space="preserve">
<style type="text/css">
	.st0{display:none;}
	.st1{display:inline;}
	.st2{fill:#FF4E00;}
</style>
<g id="bg" class="st0">
	<rect y="-10.1" class="st1" width="447.8" height="80.6"/>
</g>
<g id="レイヤー_1">
	<g>
		<path class="st2" d="M2.7,65.5L2,63.4H1.6v2.1H0.5V60H3c1,0,1.7,0.6,1.7,1.6c0,0.8-0.4,1.3-0.9,1.5l1.2,2.3H2.7z M2.1,61.1H1.6
			v1.3h0.5c0.3,0,0.6-0.2,0.6-0.7C2.7,61.3,2.4,61.1,2.1,61.1z"/>
		<path class="st2" d="M9.1,65.6c-0.1,0-0.3,0-0.4,0c-0.6,0-1.3-0.2-1.4-0.4c-0.2,0.3-0.6,0.4-1,0.4c-0.6,0-1-0.4-1-1.1c0,0,0,0,0,0
			c0-0.7,0.3-1.1,1-1.4c0.4-0.1,0.6-0.2,0.6-0.4c0-0.2-0.1-0.3-0.4-0.3c-0.2,0-0.7,0.2-0.9,0.6l-0.4-0.9c0.3-0.4,1-0.6,1.7-0.6
			c1.2,0,1.7,0.4,1.7,1.3v1.3c0,0.2,0.1,0.3,0.3,0.3c0.1,0,0.1,0,0.2,0L9.1,65.6z M7,63.6c-0.1,0.1-0.2,0.2-0.4,0.3
			c-0.2,0.1-0.3,0.2-0.3,0.5c0,0.2,0.1,0.3,0.3,0.3c0.2,0,0.4-0.2,0.4-0.4V63.6z"/>
		<path class="st2" d="M11.6,65.5v-2.4c0-0.4-0.1-0.6-0.4-0.6c-0.2,0-0.5,0.2-0.5,0.5v2.5h-1v-3.9h0.9V62c0.2-0.3,0.6-0.5,1.2-0.5
			c1,0,1.7,0.6,1.7,1.4v2.6H11.6z"/>
		<path class="st2" d="M16.2,65.5L15.3,64v1.5h-1V60h1v2.6l0.8-1.1h1.8l-1.2,1.6l1.4,2.3H16.2z"/>
		<path class="st2" d="M19.3,64c0,0.3,0.3,0.6,0.6,0.6c0.3,0,0.5-0.1,0.6-0.5h1.6c-0.1,1-0.7,1.5-2,1.5c-1.1,0-1.8-0.8-1.8-2
			c0-1.2,0.8-2,1.8-2c1.4,0,2,0.7,2,2.1L19.3,64z M19.8,62.5c-0.3,0-0.5,0.3-0.5,0.7l1.1-0.2C20.3,62.7,20.1,62.5,19.8,62.5z"/>
		<path class="st2" d="M24.9,65.5v-0.5c-0.2,0.4-0.6,0.5-0.9,0.5c-0.8,0-1.4-0.7-1.4-2c0-1.3,0.6-2,1.4-2c0.3,0,0.6,0.1,0.7,0.3V60
			h1.9v5.5H24.9z M24.7,63.1c-0.1-0.3-0.3-0.5-0.5-0.5c-0.3,0-0.6,0.3-0.6,1.1c0,0.7,0.2,1,0.6,1c0.3,0,0.5-0.3,0.5-0.7V63.1z"/>
		<path class="st2" d="M32.7,65.5H30V60h2.5c1,0,1.6,0.6,1.6,1.4c0,0.6-0.3,1-0.8,1.1l0,0c0.6,0,1.1,0.5,1.1,1.4
			C34.4,64.9,33.8,65.5,32.7,65.5z M31.6,61.1h-0.5v1.1h0.5c0.3,0,0.5-0.2,0.5-0.5C32.1,61.3,31.9,61.1,31.6,61.1z M31.7,63.2h-0.6
			v1.3h0.6c0.4,0,0.6-0.2,0.6-0.7C32.3,63.4,32.1,63.2,31.7,63.2z"/>
		<path class="st2" d="M38.6,65.6c-0.1,0-0.3,0-0.4,0c-0.6,0-1.3-0.2-1.4-0.4c-0.2,0.3-0.6,0.4-1,0.4c-0.6,0-1-0.4-1-1.1
			c0,0,0,0,0,0c0-0.7,0.3-1.1,1-1.4c0.4-0.1,0.6-0.2,0.6-0.4c0-0.2-0.1-0.3-0.4-0.3c-0.2,0-0.7,0.2-0.9,0.6l-0.4-0.9
			c0.3-0.4,1-0.6,1.7-0.6c1.2,0,1.7,0.4,1.7,1.3v1.3c0,0.2,0.1,0.3,0.3,0.3c0.1,0,0.1,0,0.2,0L38.6,65.6z M36.5,63.6
			c-0.1,0.1-0.2,0.2-0.4,0.3c-0.2,0.1-0.3,0.2-0.3,0.5c0,0.2,0.1,0.3,0.3,0.3c0.2,0,0.4-0.2,0.4-0.4V63.6z"/>
		<path class="st2" d="M41.4,65.6c-1.3,0-1.9-0.3-1.9-1.3v-1.5H39v-1.2h0.5v-1.2h1.1v1.2h0.8v1.2h-0.8v0.7c0,0.5,0.2,0.5,1,0.5
			L41.4,65.6z"/>
		<path class="st2" d="M44.3,65.6c-1.3,0-1.9-0.3-1.9-1.3v-1.5H42v-1.2h0.5v-1.2h1.1v1.2h0.8v1.2h-0.8v0.7c0,0.5,0.2,0.5,1,0.5
			L44.3,65.6z"/>
		<path class="st2" d="M45.1,65.5V60h1.5v5.5H45.1z"/>
		<path class="st2" d="M48.4,64c0,0.3,0.3,0.6,0.6,0.6c0.3,0,0.5-0.1,0.6-0.5h1.6c-0.1,1-0.7,1.5-2,1.5c-1.1,0-1.8-0.8-1.8-2
			c0-1.2,0.8-2,1.8-2c1.4,0,2,0.7,2,2.1L48.4,64z M48.9,62.5c-0.3,0-0.5,0.3-0.5,0.7l1.1-0.2C49.4,62.7,49.2,62.5,48.9,62.5z"/>
	</g>
	<g>
		<path class="st2" d="M20.9,49.9c1.7,1.3,3.2,2.9,4.9,4.9c1.7-2,3.2-3.6,4.9-4.9c-1.6-0.3-3.2-0.8-4.9-1.3
			C24.1,49.1,22.5,49.5,20.9,49.9"/>
		<path class="st2" d="M18.9,45.2c-1.1-0.7-2.2-1.4-3.4-2.3c0,0.1-0.1,0.1-0.1,0.1c-0.9,0.3-1.9,0.5-3.1,0.5c-0.6,0-1.1-0.1-1.7-0.2
			c0.7,1.5,1.5,1.9,2.6,2.1c0.6,0.1,1.3,0.2,2,0.2C16.4,45.7,17.6,45.6,18.9,45.2"/>
		<path class="st2" d="M15.2,42.7c-1.1-0.9-2.2-1.8-3.2-2.8c-1.7,0-3.4-0.2-5.1-0.5C7.4,41,8.1,41.6,9.2,42
			C10.8,42.7,13,42.9,15.2,42.7"/>
		<path class="st2" d="M19.4,45.5c-1.2,0.6-2.6,1.1-4.4,1.1c-0.5,0-1,0-1.5-0.1c1,2,5.2,2.6,10.5,1.2C22.5,47.2,20.9,46.4,19.4,45.5
			"/>
		<path class="st2" d="M11.5,27.8c0,0,2.9-0.2,5.4-1c0,0-5.3-2-11.7-10.5c-1.9,5.4-2.8,9.4-1.5,17.3c0.9-0.8,3-3.5,3-3.5
			C15.8,48,35.6,51.1,38,46.5c-0.5,0.1-1,0.1-1.5,0.1c-1.7-0.1-3.3-0.6-4.5-1.2c-0.1,0-0.1-0.1-0.1-0.2c0-0.1,0.1-0.1,0.2-0.1
			c1.5,0.4,2.9,0.6,4.2,0.6c0.7,0,1.4-0.1,2-0.2c1.1-0.2,1.9-0.7,2.6-2.1c-0.6,0.1-1.2,0.2-1.7,0.2c-1.2,0-2.3-0.3-3.1-0.5
			c-0.1,0-0.1-0.1-0.1-0.2c0-0.1,0.1-0.2,0.2-0.1c2.3,0.2,4.5,0,6.2-0.6c1.1-0.4,1.8-1,2.3-2.6C30.4,41.9,15,33.8,11.5,27.8"/>
		<path class="st2" d="M22.3,20L22.3,20c1,0,1.5,0.4,1.5,1.4c-0.1,6.4-2,9.4-4.7,11.6c1.4,1.2,4.2,2.2,6.6,3c2.4-0.7,5.2-1.7,6.6-3
			c-2.7-2.2-4.5-5.2-4.7-11.6c0-1,0.5-1.4,1.5-1.4h0c2.7,0,4.3-0.9,4.3-3v-1.4l-5.8,0.7v-1.8c3-0.9,5.1-3.6,5.1-6.8
			c0-3.9-3.2-7.1-7.1-7.1c-3.9,0-7.1,3.2-7.1,7.1c0,3.2,2.2,6,5.1,6.8v1.8l-5.8-0.7V17C17.9,19.2,19.5,20,22.3,20 M25.8,5
			c1.5,0,2.7,1.2,2.7,2.7c0,1.5-1.2,2.7-2.7,2.7c-1.5,0-2.7-1.2-2.7-2.7C23,6.2,24.3,5,25.8,5"/>
		<path class="st2" d="M46.3,16.4c-6.1,8.1-11.7,10.5-11.7,10.5c2.5,0.8,5.4,1,5.4,1c-1.8,3-6.4,6.4-12.4,8.9
			c3.4,1.1,7.2,1.9,11,2.1c2.3-2.4,4.5-5.3,6.2-8.7c0,0,2.2,2.7,3,3.5C49.3,27.8,48.3,21.7,46.3,16.4"/>
	</g>
</g>
</svg>
