<?xml version="1.0" encoding="utf-8"?>
<!-- Generator: Adobe Illustrator 19.1.1, SVG Export Plug-In . SVG Version: 6.00 Build 0)  -->
<svg version="1.1" id="レイヤー_1" xmlns="http://www.w3.org/2000/svg" xmlns:xlink="http://www.w3.org/1999/xlink" x="0px"
	 y="0px" viewBox="63 -4 152 28" style="enable-background:new 63 -4 152 28;" xml:space="preserve">
<style type="text/css">
	.st0{fill:#7BED00;}
</style>
<g>
	<path class="st0" d="M85.9,9.4c0,3.7,0,7.4,0,10.4c-3.2,0.1-5.9,0-6.8,0L78.9,9.4c-2,0-3.6,0-5,0c-0.1-4.4,0-8,0-9
		c8-0.2,15.4-0.1,16.9-0.1c0.1,3.8,0,8,0,9.1C88.8,9.4,85.9,9.4,85.9,9.4z"/>
	<path class="st0" d="M102.1,16.9c-0.6,2.4-1.8,2.6-1.8,2.6c-7.4,1.4-7.7-4.5-7.7-8c0,0-0.2-2.9,0-7.1c0.8,0,3.2-0.1,5.9,0
		c0,4.2,0.1,6.7,0.1,6.7c0,0.7,0.2,1.6,1.2,1.7c1,0.1,1.7-0.5,1.7-1.8c0-0.1,0-1.9-0.1-6.7c3.2-0.1,6.2-0.1,7.2,0
		c0.1,8.1,0.1,13.9,0,15.2c-3,0.1-5.5,0-6.4-0.1C102.3,18.6,102.1,16.9,102.1,16.9z"/>
	<path class="st0" d="M117.3,19.6c-2.9,0.1-5.8,0-6.8,0c-0.1-5.9-0.1-13.5-0.1-15.1c2.7-0.1,5.8,0,6.8,0.1c0.1,1.5-0.1,2.9-0.1,2.9
		c0.9-2.1,2.1-2.7,2.9-2.8c0.1,0,0.8-0.1,1.7,0.1c0.1,1.6,0,3.7,0,4.5c-4.3-0.8-4.4,4-4.4,4S117.3,17.6,117.3,19.6z"/>
	<path class="st0" d="M132.8,5.7c-0.1,0.4-0.1,0.9-0.1,1.3c0,0.3,0,0.6,0,1c0,0,1,0,1.8,0c0,0.7,0,2.7,0,4.8c-0.3,0-0.8,0-1.7,0
		c0,0,0.1,3.9,0.1,6.8c-1,0-4,0.1-7.1,0.1c-0.1-3.4-0.2-6.8-0.2-6.8h-1.8c0-0.8-0.1-3,0-5h1.8c-0.1-2.5,0.4-4,0.4-4
		c0.8-2.4,2.3-3.5,5-3.7c0,0,2.4-0.2,3.6,0.3c0,0.6,0,2.6-0.1,3.5C133.5,4,133,4.9,132.8,5.7z"/>
	<path class="st0" d="M164,19.7c-1.3-2.8-3.1-7.7-3.1-7.7s-1.1,5-2.1,7.7c-1.1,0-3.6,0.1-7.1,0c-1.6-7.5-3.2-17.6-3.5-19.5
		c1.8-0.1,3.9,0,4.6,0c0.8,2.7,1.9,9.1,1.9,9.1s1.4-6.1,2.4-9.1c2.8-0.1,5.8,0,6.6,0c1.7,4,3.9,9.8,3.9,9.8s1.2-6.1,2-9.7
		c0.7,0,2.7-0.1,4.6-0.1c-0.3,1.9-1.9,11.5-3.6,19.5C167.4,19.8,165,19.7,164,19.7z"/>
	<path class="st0" d="M179.2,19.9c-2.1,0-4.4-0.3-5.3-3.2c-0.9-3.4,0.4-5.2,2.8-6.2c0.1,0,2.7-1,5.5-0.4c0.2-1.3-0.8-1.7-0.8-1.7
		c-0.1-0.1-2.2-1-6.8,0.4c0-0.5,0-1.2,0-2.1c1.9-1.8,14.2-5,14.2,3.7c0,0,0,6.1-0.1,9.4C184.8,19.9,179.2,19.9,179.2,19.9z
		 M179.4,15.7c0,0,0,2.7,3,2c0,0,0.1-2,0-3.2C181,13.6,179.4,14.1,179.4,15.7z"/>
	<path class="st0" d="M197.6,19.6c-2.9,0.1-5.8,0-6.8,0c-0.1-5.9-0.1-13.5-0.1-15.1c2.7-0.1,5.8,0,6.8,0.1c0.1,1.5-0.1,2.9-0.1,2.9
		c0.9-2.1,2.1-2.7,2.9-2.8c0.1,0,0.8-0.1,1.7,0.1c0.1,1.6,0,3.7,0,4.5c-4.3-0.8-4.4,4-4.4,4S197.6,17.6,197.6,19.6z"/>
</g>
</svg>
