<?xml version="1.0" encoding="utf-8"?>
<!-- Generator: Adobe Illustrator 19.1.1, SVG Export Plug-In . SVG Version: 6.00 Build 0)  -->
<svg version="1.1" id="レイヤー_1" xmlns="http://www.w3.org/2000/svg" xmlns:xlink="http://www.w3.org/1999/xlink" x="0px"
	 y="0px" viewBox="63 -4 152 28" style="enable-background:new 63 -4 152 28;" xml:space="preserve">
<style type="text/css">
	.st0{fill:#9E39FF;}
</style>
<g>
	<path class="st0" d="M82.4,9c3.3,1.7,3.5,3.4,2.9,5.5c-0.4,1.3-1.5,2.6-4,3.1c-2,0.4-5.7,0.7-10.1,0.2c-0.1-1.4-0.1-2.8-0.1-3.4
		c1.7,0.5,3.7,0.4,3.7,0.4c1.9-0.1,3-0.5,3.1-1.2c0.2-0.8-0.5-1.1-1.2-1.4s-1.7-0.5-2.8-1c-1.8-0.8-2.8-2.5-2.9-4.3
		c-0.2-3,0.4-5.6,2.9-7.1c1.7-1,3.9-1.4,6.1-1.5c2-0.1,4,0.1,5.6,0.2c0,3.6,0,7.3,0,8.5c-1.9-0.6-3.2-0.2-3.2-0.1
		C81.3,7.2,81.7,8.7,82.4,9z"/>
	<path class="st0" d="M94.4,17.8c0,0,0,2.4,0,4.2c-0.9,0-3.8,0.1-6.7,0c0-1.8-0.2-11.2-0.1-19.3c2.5-0.2,8.8-0.1,8.8-0.1
		c4.5-0.1,6.7,4,6.7,7.1c0,2.7-0.9,6.4-4.3,7.5C98.7,17.2,96.5,17.9,94.4,17.8z M94.5,15c1.8,0.5,3-0.2,3.2-1.8
		c0.2-2-1.6-2.5-3.2-1.5V15z"/>
	<path class="st0" d="M104.5-1.9c3.4-0.2,6.1,0,7,0c0.1,8.1,0.2,17.8,0.2,19.6c-3.1,0.2-6.1,0.1-7,0C104.4,9.2,104.5-0.2,104.5-1.9z
		"/>
	<path class="st0" d="M119.1,18c-2.1,0-4.4-0.3-5.3-3.2c-0.9-3.4,0.4-5.2,2.8-6.2c0.1,0,2.7-1,5.5-0.4c0.2-1.3-0.8-1.7-0.8-1.7
		c-0.1-0.1-2.2-1-6.8,0.4c0-0.5,0-1.2,0-2.1c1.9-1.8,14.2-5,14.2,3.7c0,0,0,6.1-0.1,9.4C124.7,18,119.1,18,119.1,18z M119.2,13.8
		c0,0,0,2.7,3,2c0,0,0.1-2,0-3.2C120.9,11.7,119.3,12.2,119.2,13.8z"/>
	<path class="st0" d="M139.2,10.4c-0.1,3.7,2,4.6,4.6,4.5l0,2.9c-9.2,0.2-11.1-0.9-11-7.4c0,0-1,0-1.9,0c0-1-0.1-4.7,0-7.9h1.8
		c0,0,0.1-1.3,0.1-2.2c0.9,0,3.7,0,6.6,0c0,0.9-0.1,2.2-0.1,2.2s2.3,0,4.6,0c0,1,0,4.5-0.1,7.8C143.1,10.4,141.1,10.4,139.2,10.4z"
		/>
	<path class="st0" d="M154.9,3.9c-0.1,0.4-0.1,0.9-0.1,1.3c0,0.3,0,0.6,0,1c0,0,1,0,1.8,0c0,0.7,0,2.7,0,4.8c-0.3,0-0.8,0-1.7,0
		c0,0,0.1,3.9,0.1,6.8c-1,0-4,0.1-7.1,0.1c-0.1-3.4-0.2-6.8-0.2-6.8h-1.8c0-0.8-0.1-3,0-5h1.8c-0.1-2.5,0.4-4,0.4-4
		c0.8-2.4,2.3-3.5,5-3.7c0,0,2.4-0.2,3.6,0.3c0,0.6,0,2.6-0.1,3.5C155.5,2.1,155,3,154.9,3.9z"/>
	<path class="st0" d="M166.1,11.1c-0.3,3.2,2.7,3.5,2.7,3.5s2.5,0.2,3.1-1.3c0.4,0,1.3,0,2.4,0c-0.4,2.6-1.8,4.7-7.1,4.7
		c-4.4,0-8.2-1.7-8.5-7.3c-0.3-6.1,3.6-8.4,8.6-8.4c3.6,0,7,1.3,7.3,5.8c0,0.1,0.1,2.1,0,2.8C172.3,11,172.1,11,166.1,11.1z
		 M166,9.1l4.2-0.1c0.5-1.6-0.1-2.9-1.8-2.9C167,6,166,7.1,166,9.1z"/>
	<path class="st0" d="M187,10.9c2.9,1.3,3.1,2.7,2.6,4.3c-0.3,1-1.3,2-3.5,2.4c-1.8,0.3-5,0.5-9,0.2c-0.1-1-0.1-2.1-0.1-2.6
		c1.5,0.4,3.2,0.3,3.2,0.3c1.7-0.1,2.7-0.5,2.9-1c0.1-0.6-0.3-0.9-1.1-1.2c-0.7-0.2-1.6-0.4-2.5-0.8c-1.6-0.7-2.5-1.9-2.5-3.3
		c-0.2-2.4,0.3-4.5,2.5-5.7c1.6-0.8,3.5-1.1,5.4-1.2c1.8-0.1,3.6,0.1,5,0.1c0,2.8,0,5.6,0,6.7C188.2,8.7,187,9,187,9
		C186,9.4,186.3,10.5,187,10.9z"/>
	<path class="st0" d="M200.3,10.4c-0.1,3.7,2,4.6,4.6,4.5l0,2.9c-9.2,0.2-11.1-0.9-11-7.4c0,0-1,0-1.9,0c0-1-0.1-4.7,0-7.9h1.8
		c0,0,0.1-1.3,0.1-2.2c0.9,0,3.7,0,6.6,0c0,0.9-0.1,2.2-0.1,2.2s2.3,0,4.6,0c0,1,0,4.5-0.1,7.8C204.1,10.4,202.2,10.4,200.3,10.4z"
		/>
</g>
</svg>
