<?xml version="1.0" encoding="utf-8"?>
<!-- Generator: Adobe Illustrator 18.1.0, SVG Export Plug-In . SVG Version: 6.00 Build 0)  -->
<svg version="1.1" id="レイヤー_1" xmlns="http://www.w3.org/2000/svg" xmlns:xlink="http://www.w3.org/1999/xlink" x="0px"
	 y="0px" viewBox="0 0 188 100" enable-background="new 0 0 188 100" xml:space="preserve">
<g id="bg" display="none">
	<rect y="-147" display="inline" width="1221.9" height="219.9"/>
</g>
<g>
	<path d="M24.1,37c-1.2-4.2-2.3-16.2,8-18.3c0,0,6.6-1.4,14-0.4c0.4,5.7,0.1,12.8,0,14.6c-3.3-0.5-5.5,0.4-5.5,0.4
		c-2.3,0.9-2.7,5.2,0.6,6.1c0,0,1.7,0.4,5,0.3c0,0.7,0.1,2.5,0,4.6c-6.8,0.4-11.8,0-11.8,0C28.9,44.4,25.3,41,24.1,37z"/>
	<path d="M62.4,44.2c-0.1-6.8-0.1-8.3-0.1-8.3c0-0.9-0.4-2.7-1.7-2.8c-1.5-0.2-2.2,1-2.2,2.9v8.3c-4.4,0.1-8.5,0-9.7,0
		c0-15.8,0.1-24.2,0.1-26.1c4.5-0.1,8.1,0,9.3,0c0,2.9-0.1,7-0.1,7c1.6-1.2,2.7-1.4,2.7-1.4c8.6-1.6,9.8,6.1,9.7,10.9
		c0,0,0,3.7-0.3,9.6C69.1,44.2,66,44.3,62.4,44.2z"/>
	<path d="M80.2,44.5c-2.8,0-5.9-0.4-7-4.3c-1.2-4.5,0.5-6.9,3.7-8.2c0.2,0,3.6-1.4,7.4-0.6c0.2-1.8-1-2.3-1-2.3
		c-0.1-0.1-2.9-1.4-9.1,0.6c0-0.6,0-1.6,0-2.8c2.5-2.4,19-6.7,18.9,5c0,0,0,8.1-0.1,12.6C87.7,44.5,80.2,44.5,80.2,44.5z M80.5,39
		c0,0,0,3.6,4,2.6c0,0,0.1-2.6,0-4.2C82.7,36.2,80.5,36.8,80.5,39z"/>
	<path d="M109.4,35.1c0-0.8-0.2-2.2-1.7-2.4c-1.4-0.2-2.4,0.7-2.3,2.4c0,0,0,2.4,0.1,9c-4.4,0.1-8.4,0.1-9.7,0.1
		c-0.2-11-0.1-18.8-0.1-20.6c4.1-0.1,7.6,0,8.7,0c0,3.1,0.4,5.5,0.4,5.5c1.4-5.2,3.9-5.5,3.9-5.5c8.7-1.2,8.8,3.4,8.8,11v9.5
		c-1.1,0-4.2,0.1-8,0C109.5,38.4,109.4,35.1,109.4,35.1z"/>
	<path d="M131.5,50.2c-0.1,0-5.7,0.3-7.6-0.8l-0.1-2c2.6,0.4,4.5,0.2,4.5,0.2c3.4-0.2,5.6-1.2,5.4-4.9c-1.4,1.6-5,1.4-5.1,1.4
		c-7.3-0.5-8.7-5.6-8.7-10.1c0-4.6,3-10.2,9.5-9.9c0,0,1.8,0,4.5,1V24c3.5,0,6.7,0,7.8,0c0.1,11.2-0.2,18.1-0.2,18.1
		C141.6,46.6,138.1,49.9,131.5,50.2z M133.7,35.5c-1.9,0-4.2,0.8-4,3c0.2,2.6,2.7,2.7,4.3,1.6c0.1-0.8,0-2.5,0-2.5
		S133.9,35.8,133.7,35.5z"/>
	<path d="M154.5,35.3c-0.4,4.3,3.6,4.7,3.6,4.7s3.3,0.3,4.1-1.8c0.5,0,1.7,0,3.2,0c-0.5,3.5-2.4,6.2-9.4,6.2
		c-5.9,0-10.9-2.3-11.3-9.7c-0.4-8.1,4.8-11.2,11.4-11.2c4.8,0,9.4,1.8,9.8,7.8c0,0.1,0.2,2.8,0,3.7
		C162.8,35.2,162.6,35.2,154.5,35.3z M154.5,32.7l5.6-0.2c0.7-2.1-0.1-3.8-2.4-3.9C155.7,28.6,154.5,30,154.5,32.7z"/>
	<path d="M33.4,82.5c-1.2,0-5.3,0.1-9.6,0c-0.3-11.6-0.2-23.8-0.2-26.1c8.2-0.5,13.7-0.1,13.7-0.1c8.6,0.8,9,12.8,7.2,16.2
		c-1.3,2.6-3.3,4.1-11,4.2C33.4,76.8,33.4,80.1,33.4,82.5z M33.5,72.7c1.3,0.2,2.1,0,2.1,0c2.7-0.6,2.6-4.1,0.5-5.2
		c0,0-1-0.5-2.6-0.1C33.3,69.8,33.5,72.7,33.5,72.7z"/>
	<path d="M47.4,56c4.5-0.2,8.2,0,9.4,0C56.9,66.8,57,79.7,57,82.1c-4.2,0.2-8.1,0.1-9.3,0C47.3,70.8,47.4,58.3,47.4,56z"/>
	<path d="M66.9,82.5c-2.8,0-5.9-0.4-7-4.3c-1.2-4.5,0.5-6.9,3.7-8.2c0.2,0,3.6-1.4,7.4-0.6c0.2-1.8-1-2.3-1-2.3
		c-0.1-0.1-2.9-1.4-9.1,0.6c0-0.6,0-1.6,0-2.8c2.5-2.4,19-6.7,18.9,5c0,0,0,8.1-0.1,12.6C74.4,82.5,66.9,82.5,66.9,82.5z M67.1,77
		c0,0,0,3.6,4,2.6c0,0,0.1-2.6,0-4.2C69.3,74.2,67.1,74.8,67.1,77z"/>
	<path d="M96.1,73.1c0-0.8-0.2-2.2-1.7-2.4c-1.4-0.2-2.4,0.7-2.3,2.4c0,0,0,2.4,0.1,9c-4.4,0.1-8.4,0.1-9.7,0.1
		c-0.2-11-0.1-18.8-0.1-20.6c4.1-0.1,7.6,0,8.7,0c0,3.1,0.4,5.5,0.4,5.5c1.4-5.2,3.9-5.5,3.9-5.5c8.7-1.2,8.8,3.4,8.8,11v9.5
		c-1.1,0-4.2,0.1-8,0C96.2,76.4,96.1,73.1,96.1,73.1z"/>
	<path d="M120.2,73c3.9,1.8,4.1,3.6,3.5,5.8c-0.4,1.4-1.8,2.6-4.7,3.2c-2.4,0.4-6.7,0.7-12,0.3c-0.1-1.4-0.1-2.8-0.1-3.5
		c2,0.5,4.3,0.4,4.3,0.4c2.3-0.1,3.6-0.6,3.8-1.3c0.2-0.8-0.4-1.2-1.5-1.6c-0.9-0.3-2.1-0.5-3.4-1.1c-2.2-0.9-3.3-2.6-3.4-4.4
		c-0.2-3.2,0.4-6,3.4-7.6c2.1-1.1,4.7-1.5,7.2-1.6c2.4-0.1,4.8,0.1,6.7,0.2c0,3.8,0,7.5,0,8.9c-2.3-0.7-3.8-0.2-3.8-0.2
		C118.8,71,119.2,72.6,120.2,73z"/>
</g>
</svg>
