<?xml version="1.0" encoding="utf-8"?>
<!-- Generator: Adobe Illustrator 19.0.0, SVG Export Plug-In . SVG Version: 6.00 Build 0)  -->
<svg version="1.1" id="レイヤー_1" xmlns="http://www.w3.org/2000/svg" xmlns:xlink="http://www.w3.org/1999/xlink" x="0px"
	 y="0px" viewBox="0 0 72 36" style="enable-background:new 0 0 72 36;" xml:space="preserve">
<style type="text/css">
	.st0{fill:#DDFF25;}
</style>
<path id="XMLID_1_" class="st0" d="M0.1,0c1.1,0,2,1.3,2,2.4v2.9c0,4.3,3.5,7.8,7.8,7.8c4.3,0,7.8-3.5,7.8-7.8v-2
	c0-1.8,1.5-3.3,3.3-3.3c1.8,0,3.3,1.5,3.3,3.3v22.5c0,4.9,4,8.9,8.9,8.9c4.9,0,8.9-4,8.9-8.9V3.3v0c0-1.7,1.4-3,3-3s3,1.4,3,3v0v1.3
	c0,5.9,4.8,10.7,10.7,10.7c5.9,0,10.7-4.8,10.7-10.7V3.3c0-0.7,0-2.9,2.1-3.3H0.1z"/>
</svg>
