<?xml version="1.0" encoding="utf-8"?>
<!-- Generator: Adobe Illustrator 19.0.0, SVG Export Plug-In . SVG Version: 6.00 Build 0)  -->
<svg version="1.1" id="レイヤー_1" xmlns="http://www.w3.org/2000/svg" xmlns:xlink="http://www.w3.org/1999/xlink" x="0px"
	 y="0px" viewBox="0 0 40 28" style="enable-background:new 0 0 40 28;" xml:space="preserve">
<style type="text/css">
	.st0{fill:#DAE000;}
</style>
<path id="XMLID_3_" class="st0" d="M0,14L13.2,0.9v5c0,0,4.8,0,26.8,0.9c0,0,0,1.8,0,4c-2.4,0-5.6,0-6.6,0c0,0.5,0,1,0,1.4
	c0,0,1.6,0,6.6,0.2c0,0,0,1.8,0,4c-2.3,0.1-5.6,0-6.6,0c0,0.5,0,1,0,1.4c0,0,1.6,0,6.6,0.2c0,0,0,1.8,0,4.1
	c-2.3,0-23.4-0.1-26.8-0.2v5.1L0,14z"/>
</svg>
