<?xml version="1.0" encoding="utf-8"?>
<!-- Generator: Adobe Illustrator 16.2.0, SVG Export Plug-In . SVG Version: 6.00 Build 0)  -->
<!DOCTYPE svg PUBLIC "-//W3C//DTD SVG 1.1//EN" "http://www.w3.org/Graphics/SVG/1.1/DTD/svg11.dtd">

<svg enable-background="new 0 0 18 20" height="20px" id="レイヤー_1" version="1.1" viewbox="0 0 18 20" width="18px" x="0px" xml:space="preserve" xmlns="http://www.w3.org/2000/svg" xmlns:xlink="http://www.w3.org/1999/xlink" y="0px">
<g>
<path d="M0,7.613c0-0.399,0.337-0.722,0.754-0.722H2.67c0.171,0,0.298-0.078,0.456-0.186
		c1.22-0.835,2.712-1.324,4.327-1.324c4.115,0,7.453,3.194,7.453,7.134v6.549c0,0.4-0.339,0.725-0.757,0.725h-2.428
		c-0.419,0-0.759-0.324-0.759-0.725v-6.549c0-1.854-1.569-3.359-3.51-3.359c-1.939,0-3.51,1.505-3.51,3.359v6.549
		c0,0.4-0.34,0.725-0.759,0.725H0.757C0.34,19.789,0,19.465,0,19.064V7.613z" fill="#FFFFFF"></path>
<path d="M2.561,2.312c1.493-0.663,3.156-1.033,4.913-1.033c3.96,0,7.453,1.887,9.567,4.767
		c0.176,0.238,0.508,0.288,0.743,0.114c0.235-0.178,0.286-0.511,0.111-0.749c-2.312-3.148-6.122-5.199-10.422-5.199
		c-1.907,0-3.717,0.401-5.343,1.124C1.862,1.455,1.741,1.771,1.86,2.04C1.979,2.312,2.292,2.432,2.561,2.312" fill="#FFFFFF"></path>
<path d="M15.45,7.653c-0.162,0-0.323-0.075-0.427-0.216c-1.734-2.346-4.563-3.748-7.57-3.748
		c-1.344,0-2.64,0.269-3.851,0.799c-0.269,0.117-0.58-0.005-0.698-0.272c-0.116-0.269,0.006-0.58,0.274-0.697
		C4.524,2.93,5.962,2.632,7.453,2.632c3.341,0,6.489,1.562,8.422,4.178c0.174,0.235,0.123,0.565-0.111,0.74
		C15.668,7.62,15.558,7.653,15.45,7.653" fill="#FFFFFF"></path>
</g>
</svg>
